<?xml version="1.0" encoding="UTF-8"?>
<svg id="Capa_2" data-name="Capa 2" xmlns="http://www.w3.org/2000/svg" viewBox="0 0 326.77 22.82">
  <defs>
    <style>
      .cls-1 {
        fill: #353535;
      }
    </style>
  </defs>
  <g id="letraL">
    <g>
      <path class="cls-1" d="M9.89,22.69c-2.09,0-3.87-.49-5.34-1.47-1.47-.98-2.6-2.32-3.38-4.02-.78-1.7-1.17-3.65-1.17-5.85s.39-4.15,1.17-5.85,1.91-3.04,3.38-4.02c1.47-.98,3.25-1.47,5.34-1.47,1.74,0,3.23.31,4.48.94,1.25.63,2.28,1.48,3.08,2.57.8,1.09,1.41,2.34,1.83,3.74l-1.38.96c-.29-1.32-.76-2.48-1.42-3.48-.66-1-1.53-1.79-2.61-2.37-1.08-.58-2.41-.87-3.99-.87-1.76,0-3.25.42-4.48,1.27-1.23.85-2.17,2.01-2.8,3.48-.64,1.47-.96,3.18-.96,5.11s.32,3.61.96,5.09c.64,1.48,1.57,2.65,2.8,3.5,1.23.85,2.73,1.27,4.48,1.27,1.58,0,2.91-.29,3.99-.87,1.08-.58,1.95-1.38,2.61-2.39.66-1.01,1.13-2.17,1.42-3.46l1.38.96c-.42,1.38-1.03,2.63-1.83,3.73-.8,1.1-1.83,1.96-3.08,2.59-1.25.63-2.75.94-4.48.94Z"/>
      <path class="cls-1" d="M29.28,22.75c-1.43,0-2.7-.33-3.81-1.01-1.11-.67-1.97-1.63-2.59-2.87-.62-1.24-.92-2.69-.92-4.34s.31-3.12.92-4.35c.61-1.23,1.48-2.18,2.59-2.85,1.11-.67,2.38-1.01,3.81-1.01s2.72.33,3.81,1.01c1.09.67,1.95,1.62,2.57,2.85.63,1.23.94,2.68.94,4.35s-.31,3.09-.94,4.34c-.63,1.24-1.48,2.2-2.57,2.87s-2.36,1.01-3.81,1.01ZM29.31,21.37c1.12,0,2.11-.26,2.97-.79.86-.53,1.53-1.3,2.01-2.32.48-1.02.73-2.26.73-3.71s-.24-2.69-.73-3.71c-.48-1.02-1.15-1.8-2.01-2.34-.86-.54-1.85-.81-2.97-.81s-2.14.27-3,.81c-.86.54-1.52,1.32-2,2.34-.47,1.02-.71,2.26-.71,3.71s.24,2.69.71,3.71c.47,1.02,1.14,1.8,2,2.32s1.86.79,3,.79Z"/>
      <path class="cls-1" d="M42.21,22.42h-1.58V.33h1.58v22.09Z"/>
      <path class="cls-1" d="M53.35,22.75c-1.43,0-2.7-.33-3.81-1.01-1.11-.67-1.97-1.63-2.59-2.87-.62-1.24-.92-2.69-.92-4.34s.31-3.12.92-4.35c.61-1.23,1.48-2.18,2.59-2.85,1.11-.67,2.38-1.01,3.81-1.01s2.72.33,3.81,1.01c1.09.67,1.95,1.62,2.57,2.85.63,1.23.94,2.68.94,4.35s-.31,3.09-.94,4.34c-.63,1.24-1.48,2.2-2.57,2.87s-2.36,1.01-3.81,1.01ZM53.38,21.37c1.12,0,2.11-.26,2.97-.79.86-.53,1.53-1.3,2.01-2.32.48-1.02.73-2.26.73-3.71s-.24-2.69-.73-3.71c-.48-1.02-1.15-1.8-2.01-2.34-.86-.54-1.85-.81-2.97-.81s-2.14.27-3,.81c-.86.54-1.52,1.32-2,2.34-.47,1.02-.71,2.26-.71,3.71s.24,2.69.71,3.71c.47,1.02,1.14,1.8,2,2.32s1.86.79,3,.79Z"/>
      <path class="cls-1" d="M73.53,22.42h-1.58V6.66h1.58v15.76ZM73.53,13.19l-.13-.86c.02-.75.17-1.48.43-2.21s.62-1.37,1.07-1.95c.45-.57.99-1.02,1.62-1.35.63-.33,1.34-.49,2.13-.49.99,0,1.8.29,2.44.86s.96,1.37.96,2.41c0,.55-.06,1.06-.17,1.52-.11.46-.25.86-.43,1.19h-1.75c.22-.29.4-.66.54-1.12.14-.46.21-.93.21-1.42,0-.57-.18-1.08-.54-1.53-.36-.45-.96-.68-1.8-.68-.88,0-1.67.28-2.36.84-.69.56-1.24,1.27-1.63,2.13s-.59,1.75-.59,2.67Z"/>
      <path class="cls-1" d="M91.11,22.75c-1.43,0-2.7-.31-3.83-.92s-2-1.54-2.62-2.77c-.63-1.23-.94-2.74-.94-4.52s.3-3.25.89-4.47,1.43-2.15,2.51-2.79,2.31-.96,3.69-.96,2.58.3,3.59.91c1.01.61,1.8,1.48,2.36,2.64.56,1.15.84,2.54.84,4.17,0,.15-.01.31-.03.48-.02.17-.04.3-.07.41h-12.66v-1.22h11.71l-.4.5c0-2.22-.49-3.86-1.47-4.93-.98-1.07-2.27-1.6-3.87-1.6s-2.98.56-4.01,1.67c-1.02,1.11-1.53,2.8-1.53,5.06v.26c0,1.54.25,2.81.74,3.81.49,1,1.19,1.74,2.08,2.21.89.47,1.9.71,3.02.71s1.97-.17,2.67-.51c.7-.34,1.28-.78,1.71-1.32.44-.54.78-1.08,1.02-1.63l.96,1.22c-.53.97-1.31,1.81-2.34,2.52-1.03.71-2.37,1.07-4.02,1.07Z"/>
      <path class="cls-1" d="M107.23,22.75c-1.03,0-2.03-.17-3-.5-.97-.33-1.8-.83-2.49-1.52-.69-.68-1.19-1.55-1.5-2.6l1.22-.96c.15.79.48,1.51.99,2.16.5.65,1.17,1.15,1.99,1.52.83.36,1.78.54,2.85.54,1.17,0,2.09-.25,2.77-.74.68-.5,1.02-1.2,1.02-2.13s-.33-1.53-.99-1.96-1.57-.79-2.74-1.07l-2.14-.49c-.77-.2-1.5-.46-2.19-.79-.69-.33-1.26-.78-1.71-1.34-.45-.56-.68-1.3-.68-2.23,0-1.32.48-2.37,1.43-3.15.96-.78,2.23-1.17,3.81-1.17,1.69,0,3.06.37,4.11,1.1s1.74,1.71,2.09,2.92l-1.22.89c-.37-1.19-.98-2.08-1.83-2.67-.85-.59-1.93-.89-3.25-.89-1.03,0-1.9.26-2.59.78s-1.04,1.23-1.04,2.13.33,1.6.99,2.03c.66.43,1.57.79,2.74,1.07l2.21.53c1.52.4,2.64.93,3.38,1.6.74.67,1.1,1.57,1.1,2.69,0,.99-.25,1.8-.74,2.42-.5.63-1.14,1.09-1.95,1.38-.8.3-1.69.45-2.65.45Z"/>
      <path class="cls-1" d="M122.56,22.75c-1.43,0-2.7-.31-3.83-.92s-2-1.54-2.62-2.77c-.63-1.23-.94-2.74-.94-4.52s.3-3.25.89-4.47,1.43-2.15,2.51-2.79,2.31-.96,3.69-.96,2.58.3,3.59.91c1.01.61,1.8,1.48,2.36,2.64.56,1.15.84,2.54.84,4.17,0,.15-.01.31-.03.48-.02.17-.04.3-.07.41h-12.66v-1.22h11.71l-.4.5c0-2.22-.49-3.86-1.47-4.93-.98-1.07-2.27-1.6-3.87-1.6s-2.98.56-4.01,1.67c-1.02,1.11-1.53,2.8-1.53,5.06v.26c0,1.54.25,2.81.74,3.81.49,1,1.19,1.74,2.08,2.21.89.47,1.9.71,3.02.71s1.97-.17,2.67-.51c.7-.34,1.28-.78,1.71-1.32.44-.54.78-1.08,1.02-1.63l.96,1.22c-.53.97-1.31,1.81-2.34,2.52-1.03.71-2.37,1.07-4.02,1.07Z"/>
      <path class="cls-1" d="M134.6,22.42h-1.58V6.66h1.58v15.76ZM134.6,13.19l-.13-.86c.02-.75.17-1.48.43-2.21s.62-1.37,1.07-1.95c.45-.57.99-1.02,1.62-1.35.63-.33,1.34-.49,2.13-.49.99,0,1.8.29,2.44.86s.96,1.37.96,2.41c0,.55-.06,1.06-.17,1.52-.11.46-.25.86-.43,1.19h-1.75c.22-.29.4-.66.54-1.12.14-.46.21-.93.21-1.42,0-.57-.18-1.08-.54-1.53-.36-.45-.96-.68-1.8-.68-.88,0-1.67.28-2.36.84-.69.56-1.24,1.27-1.63,2.13s-.59,1.75-.59,2.67Z"/>
      <path class="cls-1" d="M152.17,22.42h-1.98l-6.1-15.76h1.75l3.63,9.79,1.75,4.68,1.68-4.68,3.69-9.79h1.68l-6.1,15.76Z"/>
      <path class="cls-1" d="M173.44,22.42h-1.22c-.48,0-.91-.08-1.29-.23-.37-.15-.66-.41-.86-.76-.2-.35-.3-.83-.3-1.45v-7.29l-.03-.96c0-1.34-.33-2.33-1.01-2.97-.67-.64-1.62-.96-2.85-.96s-2.26.3-3.17.89-1.57,1.33-2.01,2.21l-1.09-1.12c.31-.57.76-1.12,1.35-1.65.59-.53,1.32-.96,2.18-1.3s1.81-.51,2.87-.51c1.8,0,3.14.47,4.01,1.42s1.3,2.25,1.3,3.92v8.08c0,.46.11.78.33.96.22.18.53.26.92.26h.86v1.45ZM163.88,22.75c-1.25,0-2.23-.31-2.92-.92s-1.04-1.44-1.04-2.47.34-1.89,1.02-2.57,1.55-1.26,2.6-1.75l6.53-2.97.2,1.15-5.97,2.83c-.97.44-1.68.9-2.13,1.37-.45.47-.68,1.04-.68,1.7,0,.77.26,1.34.77,1.71.52.37,1.18.56,2,.56.77,0,1.5-.15,2.18-.45.68-.3,1.27-.68,1.76-1.15s.88-.97,1.15-1.5c.27-.53.41-1.07.41-1.62l.03.96c-.11.84-.44,1.64-.99,2.42-.55.78-1.25,1.42-2.09,1.93-.85.51-1.8.76-2.85.76Z"/>
      <path class="cls-1" d="M182.74,22.78c-1.38,0-2.57-.34-3.56-1.02-.99-.68-1.74-1.64-2.26-2.89-.52-1.24-.78-2.69-.78-4.34s.26-3.09.78-4.32c.52-1.23,1.27-2.19,2.26-2.87.99-.68,2.18-1.02,3.56-1.02,1.17,0,2.14.26,2.93.79.79.53,1.41,1.22,1.85,2.08s.68,1.77.73,2.74l-.13.86c0-.88-.18-1.7-.54-2.47-.36-.77-.91-1.4-1.65-1.9-.74-.5-1.65-.74-2.75-.74-1.56,0-2.86.56-3.89,1.67-1.03,1.11-1.55,2.84-1.55,5.19s.52,4.12,1.55,5.23c1.03,1.11,2.33,1.67,3.89,1.67,1.1,0,2.02-.25,2.75-.74.74-.49,1.29-1.13,1.65-1.9.36-.77.54-1.59.54-2.47l.13.86c-.04.97-.29,1.88-.73,2.74s-1.05,1.55-1.85,2.08c-.79.53-1.77.79-2.93.79ZM189.73,22.42h-1.62V.33h1.62v22.09Z"/>
      <path class="cls-1" d="M200.88,22.75c-1.43,0-2.7-.33-3.81-1.01-1.11-.67-1.97-1.63-2.59-2.87-.62-1.24-.92-2.69-.92-4.34s.31-3.12.92-4.35c.61-1.23,1.48-2.18,2.59-2.85,1.11-.67,2.38-1.01,3.81-1.01s2.72.33,3.81,1.01c1.09.67,1.95,1.62,2.57,2.85.63,1.23.94,2.68.94,4.35s-.31,3.09-.94,4.34c-.63,1.24-1.48,2.2-2.57,2.87s-2.36,1.01-3.81,1.01ZM200.91,21.37c1.12,0,2.11-.26,2.97-.79.86-.53,1.53-1.3,2.01-2.32.48-1.02.73-2.26.73-3.71s-.24-2.69-.73-3.71c-.48-1.02-1.15-1.8-2.01-2.34-.86-.54-1.85-.81-2.97-.81s-2.14.27-3,.81c-.86.54-1.52,1.32-2,2.34-.47,1.02-.71,2.26-.71,3.71s.24,2.69.71,3.71c.47,1.02,1.14,1.8,2,2.32s1.86.79,3,.79Z"/>
      <path class="cls-1" d="M213.24,11.38h-1.85v-3.56h1.85v3.56ZM213.24,22.42h-1.85v-3.56h1.85v3.56Z"/>
      <path class="cls-1" d="M227.48,22.42h-2.9V.33h2.9v22.09ZM232.43,22.42h-6.86v-2.57h6.4c1.67,0,3.09-.27,4.27-.81,1.18-.54,2.08-1.42,2.72-2.65.64-1.23.96-2.9.96-5.01s-.32-3.78-.96-5.01c-.64-1.23-1.54-2.12-2.72-2.65-1.18-.54-2.6-.81-4.27-.81h-6.4V.33h6.89c2.31,0,4.23.43,5.77,1.3,1.54.87,2.69,2.13,3.46,3.78.77,1.65,1.15,3.64,1.15,5.97s-.38,4.32-1.15,5.97-1.92,2.91-3.46,3.78c-1.54.87-3.47,1.3-5.8,1.3Z"/>
      <path class="cls-1" d="M253.24,22.75c-1.5,0-2.81-.34-3.94-1.02-1.13-.68-2.02-1.64-2.67-2.88-.65-1.24-.97-2.71-.97-4.4s.32-3.15.97-4.39c.65-1.23,1.54-2.19,2.67-2.87,1.13-.68,2.45-1.02,3.94-1.02s2.77.34,3.89,1.02,2,1.64,2.64,2.87c.64,1.23.96,2.69.96,4.39s-.32,3.16-.96,4.4c-.64,1.24-1.52,2.2-2.64,2.88s-2.42,1.02-3.89,1.02ZM253.2,20.34c.92,0,1.73-.21,2.42-.64s1.24-1.08,1.63-1.95c.4-.87.59-1.97.59-3.31s-.2-2.45-.59-3.31-.94-1.52-1.63-1.95-1.5-.64-2.42-.64-1.67.21-2.37.64c-.7.43-1.25,1.08-1.63,1.95s-.58,1.97-.58,3.31.19,2.45.58,3.31c.38.87.93,1.52,1.63,1.95.7.43,1.49.64,2.37.64Z"/>
      <path class="cls-1" d="M267.22,22.42h-2.87V6.5h2.87v15.93ZM267.22,13.35l-.23-1.35c.07-.75.22-1.47.48-2.18s.6-1.33,1.04-1.88c.44-.55.97-.99,1.58-1.32.62-.33,1.32-.5,2.11-.5.86,0,1.63.29,2.32.87.69.58,1.04,1.43,1.04,2.56,0,.68-.07,1.26-.21,1.75-.14.48-.28.81-.41.99h-3.1c.26-.24.48-.58.66-1.02.18-.44.26-.88.26-1.32s-.13-.83-.38-1.17-.68-.51-1.27-.51c-.66,0-1.3.24-1.91.71-.62.47-1.1,1.09-1.45,1.86s-.53,1.6-.53,2.51Z"/>
      <path class="cls-1" d="M291.58,22.42h-1.85c-.55,0-1.04-.1-1.47-.3-.43-.2-.76-.52-1.01-.96-.24-.44-.36-1.03-.36-1.78v-6.63l-.1-.43c0-1.01-.25-1.86-.74-2.56-.49-.69-1.41-1.04-2.75-1.04-1.14,0-2.09.29-2.85.87-.76.58-1.35,1.31-1.76,2.19l-1.98-2.01c.35-.55.84-1.1,1.47-1.67.63-.56,1.4-1.03,2.32-1.4.92-.37,1.97-.56,3.13-.56,1.93,0,3.42.54,4.47,1.62,1.04,1.08,1.57,2.58,1.57,4.52v6.53c0,.35.08.6.23.74.15.14.38.21.69.21h.99v2.64ZM281.33,22.75c-1.32,0-2.35-.35-3.08-1.06-.74-.7-1.1-1.58-1.1-2.64s.36-1.93,1.09-2.64,1.66-1.32,2.8-1.85l6.3-2.84.4,1.95-5.51,2.61c-.75.35-1.3.7-1.65,1.05-.35.35-.53.78-.53,1.29,0,.55.19.98.56,1.29s.93.46,1.68.46c.68,0,1.3-.1,1.86-.31s1.04-.5,1.45-.87c.41-.37.73-.8.96-1.29.23-.48.35-1.02.35-1.62l.1,1.55c-.13.73-.42,1.47-.86,2.23-.44.76-1.06,1.4-1.85,1.91-.79.52-1.78.78-2.97.78Z"/>
      <path class="cls-1" d="M300.49,22.82c-1.32,0-2.47-.35-3.45-1.04-.98-.69-1.74-1.67-2.28-2.92-.54-1.25-.81-2.71-.81-4.38s.27-3.16.81-4.4c.54-1.24,1.29-2.2,2.26-2.88.97-.68,2.12-1.02,3.46-1.02,1.21,0,2.19.28,2.95.84.76.56,1.32,1.29,1.7,2.18.37.89.62,1.83.73,2.82l-.23,1.32c0-.88-.14-1.68-.41-2.39-.28-.71-.72-1.29-1.34-1.71s-1.43-.64-2.44-.64c-1.25,0-2.33.47-3.23,1.42-.9.95-1.35,2.44-1.35,4.48s.45,3.51,1.35,4.47c.9.96,1.99,1.43,3.26,1.43.99,0,1.79-.21,2.41-.64s1.06-1,1.34-1.71c.27-.71.41-1.51.41-2.39l.23,1.35c-.11.99-.35,1.92-.73,2.8s-.93,1.6-1.68,2.18-1.74.86-2.97.86ZM308.5,22.42h-2.87V.33h2.87v22.09Z"/>
      <path class="cls-1" d="M319.28,22.75c-1.5,0-2.81-.34-3.94-1.02-1.13-.68-2.02-1.64-2.67-2.88-.65-1.24-.97-2.71-.97-4.4s.32-3.15.97-4.39c.65-1.23,1.54-2.19,2.67-2.87,1.13-.68,2.45-1.02,3.94-1.02s2.77.34,3.89,1.02,2,1.64,2.64,2.87c.64,1.23.96,2.69.96,4.39s-.32,3.16-.96,4.4c-.64,1.24-1.52,2.2-2.64,2.88s-2.42,1.02-3.89,1.02ZM319.25,20.34c.92,0,1.73-.21,2.42-.64s1.24-1.08,1.63-1.95c.4-.87.59-1.97.59-3.31s-.2-2.45-.59-3.31-.94-1.52-1.63-1.95-1.5-.64-2.42-.64-1.67.21-2.37.64c-.7.43-1.25,1.08-1.63,1.95s-.58,1.97-.58,3.31.19,2.45.58,3.31c.38.87.93,1.52,1.63,1.95.7.43,1.49.64,2.37.64Z"/>
    </g>
  </g>
</svg>