<?xml version="1.0" encoding="UTF-8"?>
<svg id="Capa_2" data-name="Capa 2" xmlns="http://www.w3.org/2000/svg" viewBox="0 0 95.43 141.52">
  <defs>
    <style>
      .cls-1 {
        fill: #353535;
      }
    </style>
  </defs>
  <g id="letraL">
    <g>
      <g>
        <path class="cls-1" d="M20.01,2.23h1.2v9.79h-1.87c-.03-2.56-.77-4.42-2.2-5.56-1.44-1.14-3.62-1.72-6.56-1.72h-1.95c-.19,1.86-.28,3.53-.28,5,0,2.92.57,5.07,1.7,6.46,1.14,1.38,2.97,2.08,5.5,2.08h2.51v1.79l-9.43.26v14.73h2.72c5.74,0,9.03-2.73,9.87-8.2h1.82l-2.1,10.56h-1.28c-.02-.75-.34-1.13-.97-1.13H0v-1.23c1.54-.02,2.57-.3,3.1-.87s.79-1.62.79-3.18V8.82c0-1.68-.29-2.77-.88-3.27-.59-.5-1.59-.77-3.01-.81v-1.23h18.3c1.11,0,1.68-.43,1.72-1.28Z"/>
        <path class="cls-1" d="M33.98,1.05c-.73.36-1.1.98-1.1,1.87v28.14c0,1.5.31,2.54.94,3.1.62.56,1.62.86,2.98.9v1.23h-11.79v-1.23c1.4-.03,2.41-.34,3.02-.92.62-.58.92-1.61.92-3.08V6.69c0-1.57-.65-2.36-1.95-2.36-.55,0-1.21.14-2,.41v-1.23l8.97-3.51v1.05Z"/>
        <path class="cls-1" d="M48.2,1.05c-.73.36-1.1.98-1.1,1.87v28.14c0,1.5.31,2.54.94,3.1.62.56,1.62.86,2.98.9v1.23h-11.79v-1.23c1.4-.03,2.41-.34,3.02-.92.62-.58.92-1.61.92-3.08V6.69c0-1.57-.65-2.36-1.95-2.36-.55,0-1.21.14-2,.41v-1.23l8.97-3.51v1.05Z"/>
        <path class="cls-1" d="M65.83,12.15c3.23,0,5.81,1.01,7.75,3.04,1.94,2.02,2.91,4.72,2.91,8.08,0,4-1.35,7.29-4.05,9.88-2.7,2.59-5.67,3.88-8.92,3.88s-5.81-1.03-7.69-3.09c-1.88-2.06-2.82-4.74-2.82-8.03,0-3.93,1.34-7.21,4.01-9.83,2.67-2.62,5.61-3.93,8.8-3.93ZM63.65,14.15c-2.32,0-4.1.83-5.33,2.49-1.23,1.66-1.85,3.73-1.85,6.23,0,3.08.97,5.82,2.91,8.24,1.94,2.42,4.2,3.63,6.78,3.63,1.91,0,3.53-.79,4.86-2.38,1.32-1.59,1.99-3.66,1.99-6.23,0-2.37-.53-4.51-1.59-6.39s-2.27-3.29-3.64-4.2-2.74-1.37-4.12-1.37Z"/>
        <path class="cls-1" d="M81.49,28.39c.14,2.22.77,3.95,1.91,5.18,1.14,1.23,2.5,1.84,4.09,1.84,1.32,0,2.39-.4,3.23-1.2s1.26-1.82,1.26-3.05c0-1.09-.32-2.02-.95-2.77-.65-.73-1.92-1.7-3.82-2.9-1.35-.85-2.58-1.65-3.69-2.4s-1.88-1.5-2.31-2.27c-.44-.77-.67-1.55-.67-2.36,0-1.66.76-3.13,2.29-4.43,1.53-1.3,3.56-1.95,6.09-1.95,1.55,0,3.23.34,5.02,1.02v6.71h-1.85c-.02-1.9-.55-3.42-1.59-4.56-1.04-1.14-2.24-1.72-3.59-1.72-.96,0-1.7.3-2.24.91s-.81,1.32-.81,2.14c0,.92.31,1.72.92,2.38.6.68,1.8,1.59,3.61,2.72,3.11,1.96,5.06,3.35,5.84,4.15.79.82,1.18,1.91,1.18,3.25,0,2.14-.94,3.99-2.83,5.56-1.89,1.57-4.06,2.36-6.52,2.36-1.83,0-3.94-.51-6.33-1.54v-7.1h1.74Z"/>
      </g>
      <g>
        <path class="cls-1" d="M30.77,80.94H14.34v-1.42h16.42v1.42ZM23.35,101.62h-1.58v-22.09h1.58v22.09Z"/>
        <path class="cls-1" d="M34.09,101.62h-1.58v-15.76h1.58v15.76ZM34.09,92.39l-.13-.86c.02-.75.17-1.48.43-2.21s.62-1.37,1.07-1.95c.45-.57.99-1.02,1.62-1.35.63-.33,1.34-.49,2.13-.49.99,0,1.8.29,2.44.86s.96,1.37.96,2.41c0,.55-.06,1.06-.17,1.52-.11.46-.25.86-.43,1.19h-1.75c.22-.29.4-.66.54-1.12.14-.46.21-.93.21-1.42,0-.57-.18-1.08-.54-1.53-.36-.45-.96-.68-1.8-.68-.88,0-1.67.28-2.36.84-.69.56-1.24,1.27-1.63,2.13s-.59,1.75-.59,2.67Z"/>
        <path class="cls-1" d="M57.97,101.62h-1.22c-.48,0-.91-.08-1.29-.23-.37-.15-.66-.41-.86-.76-.2-.35-.3-.83-.3-1.45v-7.29l-.03-.96c0-1.34-.33-2.33-1.01-2.97-.67-.64-1.62-.96-2.85-.96s-2.26.3-3.17.89-1.57,1.33-2.01,2.21l-1.09-1.12c.31-.57.76-1.12,1.35-1.65.59-.53,1.32-.96,2.18-1.3s1.81-.51,2.87-.51c1.8,0,3.14.47,4.01,1.42s1.3,2.25,1.3,3.92v8.08c0,.46.11.78.33.96.22.18.53.26.92.26h.86v1.45ZM48.41,101.95c-1.25,0-2.23-.31-2.92-.92s-1.04-1.44-1.04-2.47.34-1.89,1.02-2.57,1.55-1.26,2.6-1.75l6.53-2.97.2,1.15-5.97,2.83c-.97.44-1.68.9-2.13,1.37-.45.47-.68,1.04-.68,1.7,0,.77.26,1.34.77,1.71.52.37,1.18.56,2,.56.77,0,1.5-.15,2.18-.45.68-.3,1.27-.68,1.76-1.15s.88-.97,1.15-1.5c.27-.53.41-1.07.41-1.62l.03.96c-.11.84-.44,1.64-.99,2.42-.55.78-1.25,1.42-2.09,1.93-.85.51-1.8.76-2.85.76Z"/>
        <path class="cls-1" d="M60.41,108.08c-.73,0-1.36-.12-1.91-.36-.55-.24-1.01-.54-1.38-.91-.37-.36-.67-.73-.89-1.1l.89-1.32c.33.59.76,1.1,1.29,1.53s1.15.64,1.88.64,1.29-.2,1.68-.59.59-1.11.59-2.14v-17.97h1.58v18.04c0,.97-.18,1.76-.53,2.37-.35.62-.81,1.07-1.37,1.37s-1.17.45-1.83.45ZM64.13,82.89h-1.58v-3.36h1.58v3.36Z"/>
        <path class="cls-1" d="M75.48,101.95c-1.43,0-2.7-.31-3.83-.92s-2-1.54-2.62-2.77c-.63-1.23-.94-2.74-.94-4.52s.3-3.25.89-4.47,1.43-2.15,2.51-2.79,2.31-.96,3.69-.96,2.58.3,3.59.91c1.01.61,1.8,1.48,2.36,2.64.56,1.15.84,2.54.84,4.17,0,.15-.01.31-.03.48-.02.17-.04.3-.07.41h-12.66v-1.22h11.71l-.4.5c0-2.22-.49-3.86-1.47-4.93-.98-1.07-2.27-1.6-3.87-1.6s-2.98.56-4.01,1.67c-1.02,1.11-1.53,2.8-1.53,5.06v.26c0,1.54.25,2.81.74,3.81.49,1,1.19,1.74,2.08,2.21.89.47,1.9.71,3.02.71s1.97-.17,2.67-.51c.7-.34,1.28-.78,1.71-1.32.44-.54.78-1.08,1.02-1.63l.96,1.22c-.53.97-1.31,1.81-2.34,2.52-1.03.71-2.37,1.07-4.02,1.07Z"/>
        <path class="cls-1" d="M14.03,126.68H4.47v-1.25h9.56v1.25ZM8.66,141.19h-1.58v-17.9c0-1.06.2-1.91.59-2.57.4-.66.92-1.15,1.58-1.47.66-.32,1.4-.48,2.21-.48,1.03,0,1.92.23,2.67.69s1.29.98,1.62,1.55l-.86,1.22c-.33-.62-.8-1.12-1.42-1.52-.62-.4-1.29-.59-2.01-.59-.81,0-1.48.24-2.01.71-.53.47-.79,1.28-.79,2.42v17.94Z"/>
        <path class="cls-1" d="M22.24,141.52c-1.43,0-2.7-.33-3.81-1.01-1.11-.67-1.97-1.63-2.59-2.87-.62-1.24-.92-2.69-.92-4.34s.31-3.12.92-4.35c.61-1.23,1.48-2.18,2.59-2.85,1.11-.67,2.38-1.01,3.81-1.01s2.72.33,3.81,1.01c1.09.67,1.95,1.62,2.57,2.85.63,1.23.94,2.68.94,4.35s-.31,3.09-.94,4.34c-.63,1.24-1.48,2.2-2.57,2.87s-2.36,1.01-3.81,1.01ZM22.28,140.13c1.12,0,2.11-.26,2.97-.79.86-.53,1.53-1.3,2.01-2.32.48-1.02.73-2.26.73-3.71s-.24-2.69-.73-3.71c-.48-1.02-1.15-1.8-2.01-2.34-.86-.54-1.85-.81-2.97-.81s-2.14.27-3,.81c-.86.54-1.52,1.32-2,2.34-.47,1.02-.71,2.26-.71,3.71s.24,2.69.71,3.71c.47,1.02,1.14,1.8,2,2.32s1.86.79,3,.79Z"/>
        <path class="cls-1" d="M35.1,141.19h-1.58v-15.76h1.58v15.76ZM35.1,131.96l-.13-.86c.02-.75.17-1.48.43-2.21s.62-1.37,1.07-1.95c.45-.57.99-1.02,1.62-1.35.63-.33,1.34-.49,2.13-.49.99,0,1.8.29,2.44.86s.96,1.37.96,2.41c0,.55-.06,1.06-.17,1.52-.11.46-.25.86-.43,1.19h-1.75c.22-.29.4-.66.54-1.12.14-.46.21-.93.21-1.42,0-.57-.18-1.08-.54-1.53-.36-.45-.96-.68-1.8-.68-.88,0-1.67.28-2.36.84-.69.56-1.24,1.27-1.63,2.13s-.59,1.75-.59,2.67Z"/>
        <path class="cls-1" d="M48.19,141.19h-1.58v-15.76h1.58v15.76ZM58.28,141.19h-1.58v-10.16c0-1.54-.33-2.69-.97-3.45-.65-.76-1.6-1.14-2.85-1.14-1.03,0-1.9.26-2.6.79-.7.53-1.23,1.21-1.57,2.04-.34.84-.51,1.73-.51,2.67l-.13-.86c.04-1.06.29-2.04.74-2.95.45-.91,1.07-1.65,1.86-2.21.79-.56,1.75-.84,2.87-.84,1.5,0,2.66.46,3.5,1.38.84.92,1.25,2.34,1.25,4.25v10.45ZM68.37,141.19h-1.58v-10.16c0-1.54-.33-2.69-.97-3.45-.65-.76-1.6-1.14-2.85-1.14-1.05,0-1.93.26-2.62.79-.69.53-1.21,1.21-1.55,2.04-.34.84-.51,1.73-.51,2.67l-.13-.86c.04-1.06.29-2.04.73-2.95s1.06-1.65,1.86-2.21c.8-.56,1.76-.84,2.88-.84,1.5,0,2.66.46,3.5,1.38.84.92,1.25,2.34,1.25,4.25v10.45Z"/>
        <path class="cls-1" d="M85.68,141.19h-1.22c-.48,0-.91-.08-1.29-.23-.37-.15-.66-.41-.86-.76-.2-.35-.3-.83-.3-1.45v-7.29l-.03-.96c0-1.34-.33-2.33-1.01-2.97-.67-.64-1.62-.96-2.85-.96s-2.26.3-3.17.89-1.57,1.33-2.01,2.21l-1.09-1.12c.31-.57.76-1.12,1.35-1.65.59-.53,1.32-.96,2.18-1.3s1.81-.51,2.87-.51c1.8,0,3.14.47,4.01,1.42s1.3,2.25,1.3,3.92v8.08c0,.46.11.78.33.96.22.18.53.26.92.26h.86v1.45ZM76.12,141.52c-1.25,0-2.23-.31-2.92-.92s-1.04-1.44-1.04-2.47.34-1.89,1.02-2.57,1.55-1.26,2.6-1.75l6.53-2.97.2,1.15-5.97,2.83c-.97.44-1.68.9-2.13,1.37-.45.47-.68,1.04-.68,1.7,0,.77.26,1.34.77,1.71.52.37,1.18.56,2,.56.77,0,1.5-.15,2.18-.45.68-.3,1.27-.68,1.76-1.15s.88-.97,1.15-1.5c.27-.53.41-1.07.41-1.62l.03.96c-.11.84-.44,1.64-.99,2.42-.55.78-1.25,1.42-2.09,1.93-.85.51-1.8.76-2.85.76Z"/>
        <path class="cls-1" d="M90.96,141.19h-1.58v-22.09h1.58v22.09Z"/>
      </g>
    </g>
  </g>
</svg>