<?xml version="1.0" encoding="UTF-8"?>
<svg id="Capa_2" data-name="Capa 2" xmlns="http://www.w3.org/2000/svg" viewBox="0 0 391.48 162.47">
  <defs>
    <style>
      .cls-1 {
        fill: #fccda2;
      }
    </style>
  </defs>
  <g id="letraL">
    <g>
      <g>
        <path class="cls-1" d="M217.01,34.25h2.35l14.1,40.77c1.04,3.03,2.17,5.51,3.41,7.43,1.24,1.93,2.75,2.93,4.53,3.01v1.91h-14.34v-1.91h.95c.46,0,.7-.44.7-1.32,0-.27-.05-.56-.16-.88l-4.77-13.88h-17.49c-1.81,5.16-2.71,9-2.71,11.53,0,1.33.43,2.42,1.3,3.27.86.85,2,1.28,3.41,1.28h2.11v1.91h-17.87v-1.91c2.98-.16,5.69-3.34,8.14-9.53l16.34-41.68ZM215.63,45.69l-8.35,21.23h15.65l-7.29-21.23Z"/>
        <path class="cls-1" d="M243.63,53.92l10.33-4.23h1.67v13.15c3.83-5.12,6.98-8.59,9.45-10.41s4.81-2.74,7.02-2.74c4.49,0,6.74,2.89,6.74,8.65v20.9c0,2.37.49,3.98,1.46,4.85.97.86,2.52,1.32,4.65,1.38v1.91h-13.88v-1.91c1.12-.05,1.68-.7,1.68-1.95v-24.62c0-1.38-.36-2.49-1.08-3.33s-1.65-1.26-2.79-1.26c-3.35,0-6.47,2.37-9.35,7.11-2.89,4.74-4.33,10.18-4.33,16.31,0,3.11.48,5.16,1.44,6.15.96,1,2.66,1.52,5.1,1.57v1.91h-18.11v-1.91c2.14-.05,3.68-.52,4.62-1.4s1.41-2.49,1.41-4.83v-20.38c0-2.63-.87-3.95-2.62-3.95-.63,0-1.77.33-3.41,1v-1.99ZM253.08,40.73c2.1-3.68,4.18-5.52,6.26-5.52,1.12,0,3.05.59,5.82,1.75,2.18.88,3.62,1.32,4.34,1.32,1.46,0,2.95-.94,4.46-2.83l1.5.94c-2.29,3.6-4.48,5.4-6.59,5.4-.8,0-2.44-.45-4.91-1.36-2.63-1.01-4.39-1.52-5.27-1.52-1.3,0-2.7.89-4.19,2.67l-1.42-.86Z"/>
        <path class="cls-1" d="M308.24,49.81c5.03,0,9.05,1.58,12.06,4.73,3.02,3.15,4.53,7.35,4.53,12.58,0,6.22-2.1,11.35-6.3,15.38s-8.83,6.04-13.88,6.04-9.04-1.6-11.96-4.81c-2.93-3.2-4.39-7.37-4.39-12.5,0-6.12,2.08-11.21,6.24-15.3,4.16-4.08,8.73-6.12,13.7-6.12ZM304.85,52.92c-3.62,0-6.38,1.29-8.3,3.87-1.91,2.58-2.87,5.81-2.87,9.69,0,4.79,1.51,9.06,4.53,12.82,3.02,3.76,6.53,5.64,10.55,5.64,2.98,0,5.5-1.24,7.56-3.71s3.09-5.7,3.09-9.69c0-3.7-.82-7.01-2.47-9.95-1.65-2.94-3.54-5.12-5.66-6.54-2.13-1.42-4.27-2.13-6.42-2.13Z"/>
        <path class="cls-1" d="M332.61,75.09c.21,3.46,1.2,6.14,2.97,8.06,1.77,1.91,3.89,2.87,6.36,2.87,2.05,0,3.72-.62,5.03-1.87,1.3-1.25,1.95-2.83,1.95-4.75,0-1.7-.49-3.14-1.48-4.31-1.01-1.14-2.99-2.65-5.94-4.51-2.1-1.33-4.02-2.57-5.74-3.73-1.73-1.16-2.93-2.33-3.59-3.53-.69-1.2-1.04-2.42-1.04-3.67,0-2.58,1.19-4.88,3.57-6.9,2.38-2.02,5.54-3.03,9.47-3.03,2.42,0,5.03.53,7.82,1.6v10.45h-2.87c-.03-2.95-.85-5.32-2.47-7.1-1.62-1.78-3.48-2.67-5.58-2.67-1.49,0-2.65.47-3.49,1.42-.84.94-1.26,2.05-1.26,3.33,0,1.44.48,2.67,1.44,3.71.93,1.06,2.8,2.47,5.62,4.23,4.84,3.06,7.87,5.21,9.09,6.46,1.22,1.28,1.83,2.97,1.83,5.07,0,3.32-1.47,6.21-4.41,8.65-2.94,2.45-6.32,3.67-10.15,3.67-2.85,0-6.13-.8-9.85-2.39v-11.05h2.71Z"/>
      </g>
      <g>
        <path class="cls-1" d="M227.56,2.38h6.11l7.98,19.69,4.58-10.81c1.73-4.07,2.86-7.03,3.41-8.88h6.65v.89c-1.08.02-1.83.21-2.26.54-.43.34-.64.95-.64,1.84,0,.12,0,.27.02.43l1.42,14.86c.17,1.83.46,3,.87,3.52s1.22.8,2.45.84v.89h-9.16v-.89c.93-.02,1.59-.21,1.97-.56s.58-1.02.58-2.03c0-.2-.01-.41-.04-.63l-1.46-14.79c-2.12,3.76-3.63,6.71-4.53,8.83l-4.67,10.95h-.84l-8.72-21.68-.63,6.69c-.29,3.02-.43,5.41-.43,7.17,0,3.92.98,5.94,2.94,6.05v.89h-8.42v-.89c.87-.2,1.56-.75,2.07-1.67s1.03-2.54,1.57-4.88c.54-2.34.93-4.84,1.18-7.5l.47-4.95c.01-.24.02-.49.02-.76,0-.88-.17-1.47-.52-1.78-.35-.3-.99-.47-1.94-.49v-.89Z"/>
        <path class="cls-1" d="M259.46,25.31c.96-.02,1.67-.23,2.14-.62s.71-1.15.71-2.28v-10.19c0-.78-.45-1.17-1.34-1.17-.32,0-.68.08-1.06.24-.2.09-.35.14-.45.17v-.95l4.78-1.88h.92v13.78c0,1.11.23,1.86.69,2.26.46.4,1.18.62,2.16.64v.89h-8.55v-.89ZM263.69.87c.53,0,.97.18,1.31.53.34.35.51.77.51,1.26s-.17.9-.52,1.25-.77.52-1.27.52-.9-.17-1.25-.51c-.35-.34-.52-.76-.52-1.26,0-.52.18-.95.54-1.28.36-.34.76-.5,1.19-.5Z"/>
        <path class="cls-1" d="M271.49,20.47c.1,1.61.56,2.87,1.39,3.76.83.89,1.82,1.34,2.97,1.34.96,0,1.74-.29,2.35-.88.61-.58.91-1.32.91-2.22,0-.79-.23-1.47-.69-2.01-.47-.53-1.4-1.24-2.77-2.1-.98-.62-1.88-1.2-2.68-1.74-.81-.54-1.37-1.09-1.68-1.65-.32-.56-.48-1.13-.48-1.71,0-1.2.56-2.28,1.67-3.22,1.11-.94,2.58-1.42,4.42-1.42,1.13,0,2.35.25,3.65.75v4.88h-1.34c-.01-1.38-.4-2.48-1.15-3.32-.76-.83-1.63-1.25-2.61-1.25-.7,0-1.24.22-1.63.66-.39.44-.59.96-.59,1.56,0,.67.22,1.25.67,1.73.43.5,1.31,1.15,2.63,1.97,2.26,1.43,3.67,2.43,4.25,3.02.57.6.86,1.38.86,2.37,0,1.55-.69,2.9-2.06,4.04-1.37,1.14-2.95,1.71-4.74,1.71-1.33,0-2.86-.37-4.6-1.12v-5.16h1.27Z"/>
      </g>
      <g>
        <g>
          <path class="cls-1" d="M56.82,0h26v3.2c-1.78.09-2.67.65-2.67,1.67,0,.36.09.69.27,1l15.99,26.57c7.83-10.91,11.75-18.48,11.75-22.7,0-2-.66-3.58-1.97-4.73-1.31-1.16-4.03-1.75-8.17-1.8V0h31.93v3.2c-6.04.89-12.53,6-19.46,15.33l-12.35,16.79,17.1,28.43,4.04,6.71c1.33,2.18,2.92,4.2,4.77,6.07s3.44,3.17,4.8,3.9c1.35.73,3.08,1.28,5.17,1.63v3.2h-26.53v-3.2c1.78-.09,2.67-.78,2.67-2.07,0-.44-.16-.91-.47-1.4l-19.45-32.52c-9.96,13.55-14.94,23.3-14.94,29.25,0,4.4,3,6.64,9,6.73v3.2h-31.66v-3.2c5.87-.49,12.4-5.8,19.6-15.93l16.36-22.8-14.83-24.79c-5.87-9.78-11.51-14.89-16.93-15.33V0Z"/>
          <path class="cls-1" d="M137.41,0h23.6v3.2c-1.73.04-2.6.69-2.6,1.93,0,.67.24,1.73.73,3.2l21.13,60.93,13.53-34.33c3.73-9.51,5.6-17.11,5.6-22.8,0-2.98-.74-5.2-2.23-6.67-1.49-1.47-4.26-2.22-8.3-2.27V0h29.93v3.2c-4.84.04-9.44,5.53-13.8,16.46l-27.2,68.52h-3.93l-24-69.65c-3.51-10.13-7.67-15.24-12.46-15.33V0Z"/>
        </g>
        <g>
          <path class="cls-1" d="M96.54,105.57c-2.35-6.76-6.59-11.85-12.7-15.25-6.11-3.4-12.94-5.1-20.49-5.1-8.41,0-16.38,1.82-23.91,5.47-7.53,3.64-14.14,8.64-19.82,15-5.68,6.35-8.52,11.87-8.52,16.54,0,3.03,1.61,5.94,4.82,8.75,3.21,2.8,7.61,4.2,13.17,4.2,10.35,0,19.94-2.77,28.76-8.3,8.82-5.53,13.23-11.27,13.23-17.21,0-2.06-.99-4-2.97-5.83-1.98-1.83-4.6-2.75-7.85-2.75-6.39,0-13.24,2.28-20.55,6.84-7.31,4.56-13.73,11.04-19.26,19.45l-.39-.28c5.05-7.77,11.31-14.13,18.77-19.06,7.46-4.93,14.6-7.4,21.41-7.4,3.55,0,6.34.99,8.36,2.98,2.02,1.98,3.03,4,3.03,6.06,0,6.07-4.49,11.92-13.48,17.58-8.99,5.65-18.66,8.48-29.01,8.48-5.98,0-10.76-1.63-14.35-4.88s-5.38-7.08-5.38-11.49c0-6.32,2.44-12.23,7.32-17.74,4.88-5.51,11.56-9.72,20.04-12.61,8.48-2.9,17.06-4.34,25.73-4.34,8.04,0,15.15,1.66,21.33,4.98,6.18,3.32,10.57,8.54,13.15,15.65,1.2-.82,2.99-1.96,5.38-3.42l6.39-3.92.22.45-3.98,2.36c-1.01.6-2.19,1.35-3.53,2.24l-4.32,2.75c.82,2.39,1.23,4.77,1.23,7.13,0,7.07-2.2,14.58-6.59,22.53-4.39,7.95-10.62,14.45-18.67,19.5-8.05,5.05-17.16,7.57-27.33,7.57-5.49,0-10.35-.77-14.58-2.32-5.2,1.28-10.8,1.92-16.82,1.92-4.97,0-8.61-.44-10.93-1.33-2.32-.88-3.48-1.97-3.48-3.25,0-2.41,2.99-3.61,8.97-3.61,4.45,0,9.72.88,15.81,2.65l8.18,2.77c.19.08,1.43-.19,3.72-.78,2.3-.6,4.54-1.4,6.72-2.41,2.18-1.01,4.51-2.42,6.97-4.24,2.47-1.81,4.66-3.7,6.58-5.67s5.42-6.07,10.5-12.31c10.87-13.5,20.56-22.94,29.07-28.33ZM30.1,159.76c-8.04-3.39-15.55-5.08-22.54-5.08-4.6,0-6.9.94-6.9,2.8,0,.9,1.06,1.79,3.17,2.69,2.11.9,5.67,1.35,10.68,1.35,6.24,0,11.44-.58,15.58-1.76ZM34.25,159.71c-.08,0,.56.17,1.9.51l5.6,1.13,1.79.23c.56.04,1.14.09,1.74.17.56.04,1.12.06,1.68.06.56.04,1.12.06,1.68.06,8.07,0,16.03-2.39,23.89-7.18,7.86-4.79,14.04-11.16,18.54-19.1,4.5-7.95,6.75-15.53,6.75-22.75,0-2.17-.39-4.38-1.18-6.62-2.58,1.83-4.98,3.87-7.23,6.11-2.2,2.17-4.54,4.86-7,8.08-2.09,2.77-4.97,6.96-8.63,12.57-2.76,4.23-4.97,7.29-6.61,9.2-1.49,1.76-3.25,3.44-5.26,5.05-2.39,1.91-4.87,3.59-7.45,5.05-2.8,1.57-5.62,2.9-8.46,3.98-6.09,2.32-10.01,3.48-11.76,3.48Z"/>
          <path class="cls-1" d="M117.36,139.71h4.97l-15.73,16.43c-1.55,1.59-2.32,2.87-2.32,3.83,0,.63.21,1.1.64,1.42.43.31.87.47,1.32.47.9,0,2.33-.66,4.32-1.98,1.98-1.32,5.79-4.38,11.44-9.18l.39.39c-6,5.08-9.98,8.23-11.93,9.45-1.96,1.21-3.44,1.82-4.44,1.82-.89,0-1.59-.33-2.1-.98-.5-.65-.75-1.43-.75-2.33,0-1.57.76-3.53,2.29-5.89l-.22-.17c-7.58,6.24-12.75,9.36-15.52,9.36-1.16,0-2.06-.48-2.72-1.43-.65-.95-.98-2.19-.98-3.73,0-4.26,2.99-8.23,8.98-11.91,5.99-3.68,11.03-5.52,15.13-5.52,2.13,0,3.19.9,3.19,2.69,0,.41-.02.93-.07,1.57l4.13-4.32ZM112.57,142.34c0-1.34-.86-2.01-2.57-2.01-3.1,0-7.64,2.69-13.62,8.08-5.99,5.39-8.98,9.18-8.98,11.38,0,.48.21.94.61,1.37.41.43.99.64,1.73.64,1.08,0,2.86-.69,5.34-2.07,2.48-1.38,5.53-3.62,9.15-6.71s5.91-5.34,6.88-6.74,1.46-2.71,1.46-3.94Z"/>
          <path class="cls-1" d="M121.99,150.7c8.82-7.36,14.82-11.04,18-11.04.75,0,1.39.25,1.93.74.54.5.81,1.16.81,2.01,0,2.48-1.59,5.39-4.77,8.74l.22.22c8.78-7.7,14.86-11.55,18.22-11.55,2.54,0,3.81,1.07,3.81,3.2,0,1.46-.51,2.96-1.54,4.5-1.03,1.54-2.91,3.47-5.63,5.79-2.73,2.32-4.42,3.85-5.07,4.58-.65.73-.98,1.36-.98,1.88,0,.41.18.77.53,1.07.35.3.76.45,1.21.45,1.16,0,2.95-.61,5.38-1.82,2.43-1.21,5.16-3.11,8.18-5.69l3.64-3.08.39.39c-8.04,7.18-13.96,10.76-17.77,10.76-.82,0-1.53-.33-2.13-.98-.6-.66-.9-1.47-.9-2.45s.23-1.89.7-2.87c.47-.97.99-1.8,1.57-2.47.58-.67,1.97-1.95,4.18-3.82l2.58-2.19c2.92-2.47,4.37-4.2,4.37-5.17s-.75-1.52-2.24-1.52c-2.76,0-6.61,1.96-11.54,5.87-4.93,3.92-10.67,9-17.2,15.26h-5.56l15.47-15.4c2.43-2.44,3.64-4.03,3.64-4.78,0-.82-.52-1.24-1.57-1.24-2.95,0-8.8,3.66-17.55,10.99l-.39-.39Z"/>
          <path class="cls-1" d="M165.94,150.7c8.82-7.36,14.82-11.04,18-11.04.75,0,1.39.25,1.93.74.54.5.81,1.16.81,2.01,0,2.48-1.59,5.39-4.77,8.74l.22.22c8.78-7.7,14.86-11.55,18.22-11.55,2.54,0,3.81,1.07,3.81,3.2,0,1.46-.51,2.96-1.54,4.5-1.03,1.54-2.91,3.47-5.63,5.79-2.73,2.32-4.42,3.85-5.07,4.58-.65.73-.98,1.36-.98,1.88,0,.41.18.77.53,1.07.35.3.76.45,1.21.45,1.16,0,2.95-.61,5.38-1.82,2.43-1.21,5.16-3.11,8.18-5.69l3.64-3.08.39.39c-8.04,7.18-13.96,10.76-17.77,10.76-.82,0-1.53-.33-2.13-.98-.6-.66-.9-1.47-.9-2.45s.23-1.89.7-2.87c.47-.97.99-1.8,1.57-2.47.58-.67,1.97-1.95,4.18-3.82l2.58-2.19c2.92-2.47,4.37-4.2,4.37-5.17s-.75-1.52-2.24-1.52c-2.76,0-6.61,1.96-11.54,5.87-4.93,3.92-10.67,9-17.2,15.26h-5.56l15.47-15.4c2.43-2.44,3.64-4.03,3.64-4.78,0-.82-.52-1.24-1.57-1.24-2.95,0-8.8,3.66-17.55,10.99l-.39-.39Z"/>
          <path class="cls-1" d="M238.62,139.71h4.97l-15.73,16.43c-1.55,1.59-2.32,2.87-2.32,3.83,0,.63.21,1.1.64,1.42.43.31.87.47,1.32.47.9,0,2.33-.66,4.32-1.98,1.98-1.32,5.79-4.38,11.44-9.18l.39.39c-6,5.08-9.98,8.23-11.93,9.45-1.96,1.21-3.44,1.82-4.44,1.82-.89,0-1.59-.33-2.1-.98-.5-.65-.75-1.43-.75-2.33,0-1.57.76-3.53,2.29-5.89l-.22-.17c-7.58,6.24-12.75,9.36-15.52,9.36-1.16,0-2.06-.48-2.72-1.43-.65-.95-.98-2.19-.98-3.73,0-4.26,2.99-8.23,8.98-11.91,5.99-3.68,11.03-5.52,15.13-5.52,2.13,0,3.19.9,3.19,2.69,0,.41-.02.93-.07,1.57l4.13-4.32ZM233.83,142.34c0-1.34-.86-2.01-2.57-2.01-3.1,0-7.64,2.69-13.62,8.08-5.99,5.39-8.98,9.18-8.98,11.38,0,.48.21.94.61,1.37.41.43.99.64,1.73.64,1.08,0,2.86-.69,5.34-2.07,2.48-1.38,5.53-3.62,9.15-6.71s5.91-5.34,6.88-6.74,1.46-2.71,1.46-3.94Z"/>
          <path class="cls-1" d="M278.58,123.74l-8.02,8.2c-8.56,8.76-12.84,15.78-12.84,21.05,0,2.28,1.04,4.32,3.11,6.12s5.15,2.69,9.22,2.69c5.38,0,11.06-1.31,17.04-3.93,5.98-2.62,10.54-5.56,13.68-8.82s4.71-6.33,4.71-9.21c0-1.83-.79-3.29-2.38-4.38-1.59-1.09-3.36-1.63-5.3-1.63-5.08,0-11.04,2.02-17.88,6.07-6.84,4.05-12.18,9.03-16.03,14.95l-.39-.22c3.62-5.73,8.93-10.71,15.92-14.92,6.99-4.22,13.12-6.32,18.39-6.32,2.43,0,4.41.62,5.94,1.85,1.53,1.23,2.3,2.73,2.3,4.48,0,5.57-4.19,10.74-12.56,15.5s-15.96,7.15-22.76,7.15c-4.97,0-8.67-1.07-11.1-3.2s-3.64-4.97-3.64-8.52c0-2.28.4-4.62,1.21-7.01s2.78-5.72,5.92-9.98c3.14-4.26,5.94-7.4,8.41-9.42-1.72.08-2.99.11-3.81.11-6.8,0-12.03-1.49-15.67-4.46-3.64-2.97-5.47-6.5-5.47-10.58,0-7.19,3.74-13.24,11.21-18.16,7.47-4.92,17.47-7.38,29.99-7.38,2.17,0,4.54.09,7.12.28l-.06.5c-2.28-.15-4.33-.22-6.16-.22-13.51,0-23.72,3-30.63,9.01-6.91,6.01-10.36,11.76-10.36,17.26,0,3.14,1.7,6.15,5.09,9.01,3.39,2.86,8.33,4.29,14.82,4.29.93,0,2.35-.06,4.25-.17,9.01-9.43,19.69-17.72,32.04-24.87,12.35-7.15,22.64-10.73,30.86-10.73,2.05,0,3.71.5,4.96,1.49s1.88,2.18,1.88,3.56c0,3.41-2.77,7.26-8.3,11.57-5.53,4.3-13.59,8.34-24.19,12.1-10.6,3.76-20.77,6.05-30.52,6.88ZM279.25,123.12c10.13-.86,20.42-3.24,30.86-7.13,10.45-3.89,18.14-8,23.1-12.33s7.43-7.89,7.43-10.7c0-1.12-.57-2.1-1.71-2.92-1.14-.82-2.57-1.24-4.29-1.24-6.95,0-14.39,2.47-22.31,7.41-7.92,4.94-15.98,11.21-24.16,18.81l-8.91,8.09Z"/>
          <path class="cls-1" d="M335.62,139.71h4.97l-15.73,16.43c-1.55,1.59-2.32,2.87-2.32,3.83,0,.63.21,1.1.64,1.42.43.31.87.47,1.32.47.9,0,2.33-.66,4.32-1.98,1.98-1.32,5.79-4.38,11.44-9.18l.39.39c-6,5.08-9.98,8.23-11.93,9.45-1.96,1.21-3.44,1.82-4.44,1.82-.89,0-1.59-.33-2.1-.98-.5-.65-.75-1.43-.75-2.33,0-1.57.76-3.53,2.29-5.89l-.22-.17c-7.58,6.24-12.75,9.36-15.52,9.36-1.16,0-2.06-.48-2.72-1.43-.65-.95-.98-2.19-.98-3.73,0-4.26,2.99-8.23,8.98-11.91,5.99-3.68,11.03-5.52,15.13-5.52,2.13,0,3.19.9,3.19,2.69,0,.41-.02.93-.07,1.57l4.13-4.32ZM330.83,142.34c0-1.34-.86-2.01-2.57-2.01-3.1,0-7.64,2.69-13.62,8.08-5.99,5.39-8.98,9.18-8.98,11.38,0,.48.21.94.61,1.37.41.43.99.64,1.73.64,1.08,0,2.86-.69,5.34-2.07,2.48-1.38,5.53-3.62,9.15-6.71s5.91-5.34,6.88-6.74,1.46-2.71,1.46-3.94Z"/>
          <path class="cls-1" d="M340.64,151.09l-.39-.39,8.52-7.01c1.35-1.08,2.3-1.92,2.86-2.52-1.2-.71-1.8-1.68-1.8-2.92,0-.78.27-1.48.81-2.07.54-.6,1.15-.9,1.82-.9.49,0,.92.21,1.32.62.39.41.59.92.59,1.51s-.2,1.11-.61,1.54c-.4.43-.9.64-1.49.64-.41,0-.83-.15-1.27-.45-.04.15-.06.24-.06.28,0,.34.26.67.78,1.01.52.34,1.28.5,2.28.5,1.45,0,3-.37,4.67-1.12l2.97,3.31c-.71,1.39-2.18,3.1-4.4,5.15-2.22,2.04-4.43,4.22-6.64,6.52-2.2,2.31-3.45,3.68-3.75,4.13-.3.45-.45.88-.45,1.29,0,1.05.6,1.57,1.79,1.57,1.42,0,3.62-.83,6.62-2.51s6.8-4.54,11.44-8.59l.39.39c-8.71,7.51-14.89,11.27-18.56,11.27-1.08,0-1.93-.35-2.55-1.04-.62-.69-.93-1.6-.93-2.72,0-1.42.46-2.84,1.38-4.26.92-1.42,2.89-3.61,5.92-6.56,3.03-2.95,5.13-5.16,6.29-6.62l-.23-.39c-1.57.56-3.03.84-4.38.84-.38,0-.77-.06-1.18-.17l-11.78,9.64Z"/>
          <path class="cls-1" d="M391.09,150.7l.39.39c-1.38,1.31-2.8,1.96-4.26,1.96-1.2,0-2.21-.43-3.03-1.29-2.77,2.91-5.72,5.36-8.86,7.34-3.14,1.98-5.75,2.97-7.85,2.97-1.08,0-2-.39-2.75-1.18-.75-.78-1.12-1.87-1.12-3.25,0-3.18,1.42-6.23,4.26-9.17,2.84-2.93,6.1-5.21,9.78-6.84,3.68-1.63,6.61-2.44,8.77-2.44s3.2,1.01,3.2,3.03-1.68,5.1-5.05,9.03c.67.82,1.57,1.23,2.69,1.23,1.27,0,2.54-.6,3.81-1.79ZM389.07,142.07c0-.71-.27-1.29-.81-1.74-.54-.45-1.15-.67-1.82-.67-2.83,0-7.11,2.84-12.84,8.52-5.72,5.68-8.58,9.44-8.58,11.27,0,.52.26,1,.78,1.43.52.43,1.12.64,1.79.64,1.57,0,3.81-.81,6.74-2.44,2.93-1.63,5.5-3.61,7.72-5.94s3.94-4.43,5.17-6.28c1.23-1.85,1.85-3.45,1.85-4.79Z"/>
        </g>
      </g>
    </g>
  </g>
</svg>