<?xml version="1.0" encoding="UTF-8"?>
<svg id="Capa_2" data-name="Capa 2" xmlns="http://www.w3.org/2000/svg" viewBox="0 0 452.46 47.89">
  <defs>
    <style>
      .cls-1 {
        fill: #fccda2;
      }
    </style>
  </defs>
  <g id="letraL">
    <g>
      <path class="cls-1" d="M28.93,29.9c-5.41,4.66-10.34,7-14.8,7-3.64,0-6.9-1.39-9.79-4.16C1.45,29.96,0,26.14,0,21.27c0-3.4.75-6.44,2.25-9.12,1.5-2.68,3.63-4.94,6.39-6.76s6.07-2.74,9.95-2.74c3.38,0,6.57.53,9.58,1.59v7.74h-1.82c-.22-2.43-1.29-4.32-3.2-5.68-1.91-1.36-4.19-2.04-6.83-2.04-3.7,0-6.61,1.36-8.73,4.08-2.12,2.72-3.17,6.05-3.17,9.99,0,4.27,1.2,7.82,3.61,10.63,2.41,2.82,5.5,4.23,9.27,4.23s7.65-1.61,11.65-4.84v1.56Z"/>
      <path class="cls-1" d="M44.2,12.02c3.23,0,5.81,1.01,7.75,3.04,1.94,2.02,2.91,4.72,2.91,8.08,0,4-1.35,7.29-4.05,9.88-2.7,2.59-5.67,3.88-8.92,3.88s-5.81-1.03-7.69-3.09c-1.88-2.06-2.82-4.74-2.82-8.03,0-3.93,1.34-7.21,4.01-9.83,2.67-2.62,5.61-3.93,8.8-3.93ZM42.03,14.02c-2.32,0-4.1.83-5.33,2.49-1.23,1.66-1.85,3.73-1.85,6.23,0,3.08.97,5.82,2.91,8.24,1.94,2.42,4.2,3.63,6.78,3.63,1.91,0,3.53-.79,4.86-2.38,1.32-1.59,1.99-3.66,1.99-6.23,0-2.37-.53-4.51-1.59-6.39s-2.27-3.29-3.64-4.2-2.74-1.37-4.12-1.37Z"/>
      <path class="cls-1" d="M71.26,3.38l8.89-3.38v1.05c-.73.29-1.1.87-1.1,1.75v28.7c0,1.4.61,2.1,1.83,2.1.55,0,1.23-.19,2.04-.56v1.31l-6.58,2.56h-1.21v-8.3c-2.94,3.76-5.1,6.08-6.47,6.97-1.38.89-2.73,1.33-4.06,1.33-2.24,0-4.04-1.01-5.41-3.04-1.37-2.02-2.05-4.34-2.05-6.96,0-3.59,1.32-6.97,3.97-10.16,2.65-3.19,5.58-4.78,8.79-4.78.72,0,1.51.11,2.38.33s1.82.56,2.84,1.02v-6.89c0-1.45-.56-2.18-1.67-2.18-.58,0-1.32.18-2.2.54v-1.41ZM75.11,16.73c-1.2-.99-2.37-1.73-3.51-2.22-1.14-.49-2.26-.73-3.36-.73-2.17,0-3.92,1.12-5.24,3.37-1.32,2.25-1.99,4.81-1.99,7.7,0,2.41.56,4.46,1.69,6.14,1.13,1.68,2.51,2.52,4.15,2.52,2.32,0,4.33-1.52,6.02-4.56s2.54-6.08,2.54-9.12c0-1.16-.1-2.19-.31-3.1Z"/>
      <path class="cls-1" d="M84.87,34.93c1.32-.03,2.3-.32,2.95-.86.65-.54.97-1.58.97-3.14v-14.02c0-1.08-.62-1.61-1.84-1.61-.45,0-.93.11-1.46.33-.27.12-.48.2-.62.23v-1.31l6.58-2.59h1.26v18.96c0,1.52.32,2.56.95,3.11.63.56,1.62.85,2.97.88v1.23h-11.76v-1.23ZM90.69,1.31c.73,0,1.34.24,1.81.73.47.49.71,1.06.71,1.73s-.24,1.24-.72,1.72-1.06.72-1.74.72-1.24-.24-1.72-.71-.72-1.05-.72-1.73c0-.72.25-1.31.74-1.77.5-.46,1.04-.69,1.64-.69Z"/>
      <path class="cls-1" d="M108.85,26.93c-.21.03-.51.08-.92.13-1.23.21-2.15.31-2.77.31-2.08,0-3.82-.57-5.2-1.7s-2.08-2.61-2.08-4.42c0-2.36,1.17-4.48,3.5-6.38,2.33-1.9,4.92-2.84,7.75-2.84.73,0,1.36.07,1.87.21.51.14,1.47.49,2.87,1.05,1.49.62,2.55,1.01,3.2,1.18s1.42.26,2.31.26h1.82v1.23h-5.23c.41.89.62,1.7.62,2.43,0,1.02-.27,2.07-.82,3.15s-1.86,2.51-3.95,4.3c-2.03,1.76-3.05,2.99-3.05,3.71,0,.56.37,1.07,1.1,1.51.72.46,1.99.99,3.82,1.59,2.63.87,4.56,1.74,5.79,2.59,1.23.86,1.84,1.99,1.84,3.41,0,2.57-1.64,4.75-4.92,6.56-3.28,1.8-6.98,2.71-11.1,2.71-3.04,0-5.57-.53-7.58-1.6s-3.02-2.47-3.02-4.22,1.13-3.27,3.4-4.63c2.26-1.36,5.32-2.42,9.16-3.17-.61-.45-1.08-.91-1.4-1.38-.32-.47-.47-.97-.47-1.48,0-.7.24-1.36.72-1.97.48-.62,1.39-1.45,2.74-2.51ZM108.85,34.95c-3.5.89-6.13,1.9-7.89,3.02s-2.64,2.35-2.64,3.69c0,1.2.72,2.28,2.17,3.25,1.44.97,3.61,1.45,6.5,1.45,3.33,0,5.95-.63,7.87-1.9s2.87-2.71,2.87-4.34c0-.89-.39-1.59-1.17-2.11-.78-.51-2.36-1.18-4.75-2l-2.95-1.05ZM107.47,13.55c-1.73,0-3.07.62-4.02,1.85-.96,1.23-1.44,2.7-1.44,4.41s.48,3.19,1.44,4.41c.96,1.21,2.22,1.82,3.79,1.82s2.79-.6,3.81-1.79c1.02-1.2,1.52-2.69,1.52-4.48s-.49-3.3-1.47-4.46-2.19-1.74-3.63-1.74Z"/>
      <path class="cls-1" d="M134.4,12.02c3.23,0,5.81,1.01,7.75,3.04,1.94,2.02,2.91,4.72,2.91,8.08,0,4-1.35,7.29-4.05,9.88-2.7,2.59-5.67,3.88-8.92,3.88s-5.81-1.03-7.69-3.09c-1.88-2.06-2.82-4.74-2.82-8.03,0-3.93,1.34-7.21,4.01-9.83,2.67-2.62,5.61-3.93,8.8-3.93ZM132.22,14.02c-2.32,0-4.1.83-5.33,2.49-1.23,1.66-1.85,3.73-1.85,6.23,0,3.08.97,5.82,2.91,8.24,1.94,2.42,4.2,3.63,6.78,3.63,1.91,0,3.53-.79,4.86-2.38,1.32-1.59,1.99-3.66,1.99-6.23,0-2.37-.53-4.51-1.59-6.39s-2.27-3.29-3.64-4.2-2.74-1.37-4.12-1.37Z"/>
      <path class="cls-1" d="M174.58,3.38l8.89-3.38v1.05c-.73.29-1.1.87-1.1,1.75v28.7c0,1.4.61,2.1,1.83,2.1.55,0,1.23-.19,2.04-.56v1.31l-6.58,2.56h-1.21v-8.3c-2.94,3.76-5.1,6.08-6.47,6.97-1.38.89-2.73,1.33-4.06,1.33-2.24,0-4.04-1.01-5.41-3.04-1.37-2.02-2.05-4.34-2.05-6.96,0-3.59,1.32-6.97,3.97-10.16,2.65-3.19,5.58-4.78,8.79-4.78.72,0,1.51.11,2.38.33s1.82.56,2.84,1.02v-6.89c0-1.45-.56-2.18-1.67-2.18-.58,0-1.32.18-2.2.54v-1.41ZM178.43,16.73c-1.2-.99-2.37-1.73-3.51-2.22-1.14-.49-2.26-.73-3.36-.73-2.17,0-3.92,1.12-5.24,3.37-1.32,2.25-1.99,4.81-1.99,7.7,0,2.41.56,4.46,1.69,6.14,1.13,1.68,2.51,2.52,4.15,2.52,2.32,0,4.33-1.52,6.02-4.56s2.54-6.08,2.54-9.12c0-1.16-.1-2.19-.31-3.1Z"/>
      <path class="cls-1" d="M208.61,29.72c-3.81,4.78-7.53,7.17-11.15,7.17-2.55,0-4.79-1.11-6.74-3.32-1.95-2.21-2.92-4.84-2.92-7.88,0-3.5,1.16-6.66,3.47-9.47,2.31-2.81,5.04-4.22,8.19-4.22,2.53,0,4.54.9,6.02,2.69s2.27,3.98,2.36,6.56h-16.53c-.03.67-.05,1.15-.05,1.46,0,3.02.8,5.55,2.41,7.57,1.61,2.02,3.59,3.04,5.95,3.04,2.94,0,5.94-1.77,8.99-5.3v1.69ZM203.64,19.99c-.21-2.02-.85-3.58-1.92-4.69s-2.35-1.67-3.82-1.67-2.91.6-4.13,1.81-1.96,2.72-2.23,4.55h12.09Z"/>
      <path class="cls-1" d="M223.09,12.68h8.25v1.23c-.65,0-.97.31-.97.92,0,.31.09.72.26,1.23l5.47,15.35,3.22-8c1.08-2.67,1.62-4.82,1.62-6.46,0-1.08-.29-1.85-.88-2.32s-1.53-.71-2.85-.73v-1.23h10.94v1.23c-1.95.21-3.79,2.35-5.51,6.43l-7.2,16.99h-1.36l-6.54-18.45c-1.16-3.3-2.65-4.96-4.46-4.97v-1.23Z"/>
      <path class="cls-1" d="M269.14,29.72c-3.81,4.78-7.53,7.17-11.15,7.17-2.55,0-4.79-1.11-6.74-3.32-1.95-2.21-2.92-4.84-2.92-7.88,0-3.5,1.16-6.66,3.47-9.47,2.31-2.81,5.04-4.22,8.19-4.22,2.53,0,4.54.9,6.02,2.69s2.27,3.98,2.36,6.56h-16.53c-.03.67-.05,1.15-.05,1.46,0,3.02.8,5.55,2.41,7.57,1.61,2.02,3.59,3.04,5.95,3.04,2.94,0,5.94-1.77,8.99-5.3v1.69ZM264.17,19.99c-.21-2.02-.85-3.58-1.92-4.69s-2.35-1.67-3.82-1.67-2.91.6-4.13,1.81-1.96,2.72-2.23,4.55h12.09Z"/>
      <path class="cls-1" d="M274.01,28.26c.14,2.22.77,3.95,1.91,5.18,1.14,1.23,2.5,1.84,4.09,1.84,1.32,0,2.39-.4,3.23-1.2s1.26-1.82,1.26-3.05c0-1.09-.32-2.02-.95-2.77-.65-.73-1.92-1.7-3.82-2.9-1.35-.85-2.58-1.65-3.69-2.4s-1.88-1.5-2.31-2.27c-.44-.77-.67-1.55-.67-2.36,0-1.66.76-3.13,2.29-4.43,1.53-1.3,3.56-1.95,6.09-1.95,1.55,0,3.23.34,5.02,1.02v6.71h-1.85c-.02-1.9-.55-3.42-1.59-4.56-1.04-1.14-2.24-1.72-3.59-1.72-.96,0-1.7.3-2.24.91s-.81,1.32-.81,2.14c0,.92.31,1.72.92,2.38.6.68,1.8,1.59,3.61,2.72,3.11,1.96,5.06,3.35,5.84,4.15.79.82,1.18,1.91,1.18,3.25,0,2.14-.94,3.99-2.83,5.56-1.89,1.57-4.06,2.36-6.52,2.36-1.83,0-3.94-.51-6.33-1.54v-7.1h1.74Z"/>
      <path class="cls-1" d="M299.45,4.61v1.33c-1.08.26-1.61,1.47-1.61,3.64,0,1.47.12,2.5.37,3.08.25.58.68,1.06,1.31,1.44.62.38,1.46.56,2.5.56h2.13v1.15h-6.28v16.45c0,.53.11.93.32,1.2s.53.41.96.41c.84,0,2.08-.68,3.74-2.05.19-.15.33-.26.44-.33v1.49c-2.91,2.61-5.23,3.92-6.96,3.92-.81,0-1.41-.31-1.81-.94-.4-.62-.6-1.55-.6-2.78V15.81h-3.92v-1.15c1.5,0,2.57-.3,3.2-.9.63-.6.95-1.65.95-3.15v-3.87l5.28-2.13Z"/>
      <path class="cls-1" d="M306.11,34.93c1.32-.03,2.3-.32,2.95-.86.65-.54.97-1.58.97-3.14v-14.02c0-1.08-.62-1.61-1.84-1.61-.45,0-.93.11-1.46.33-.27.12-.48.2-.62.23v-1.31l6.58-2.59h1.26v18.96c0,1.52.32,2.56.95,3.11.63.56,1.62.85,2.97.88v1.23h-11.76v-1.23ZM311.93,1.31c.73,0,1.34.24,1.81.73.47.49.71,1.06.71,1.73s-.24,1.24-.72,1.72-1.06.72-1.74.72-1.24-.24-1.72-.71-.72-1.05-.72-1.73c0-.72.25-1.31.74-1.77.5-.46,1.04-.69,1.64-.69Z"/>
      <path class="cls-1" d="M341.94,19.56c2.65-3.34,4.65-5.46,5.99-6.33,1.34-.88,2.67-1.31,3.96-1.31,1.21,0,2.22.42,3.03,1.26.79.84,1.18,1.96,1.18,3.37v14.39c0,1.52.31,2.56.94,3.11.62.56,1.62.85,2.99.88v1.23h-8.94v-1.23c.73-.02,1.1-.42,1.1-1.21v-14.7c0-1.39-.23-2.42-.68-3.1-.45-.68-1.13-1.03-2.03-1.03-1.98,0-3.77,1.45-5.39,4.36-1.62,2.91-2.43,6.25-2.43,10.01,0,2.14.32,3.61.97,4.41.65.8,1.72,1.22,3.23,1.25v1.23h-8.87v-1.23c.72-.03,1.08-.35,1.08-.95v-15.78c0-.97-.24-1.76-.73-2.36s-1.09-.9-1.83-.9c-2.05,0-3.87,1.45-5.47,4.35-1.6,2.9-2.4,6.26-2.4,10.08,0,2.09.32,3.54.95,4.35s1.7,1.21,3.2,1.21v1.23h-11.66v-1.23c1.39-.03,2.39-.34,2.98-.92s.89-1.61.89-3.08v-13.45c0-1.42-.56-2.13-1.68-2.13-.55,0-1.28.19-2.19.56v-1.28l6.58-2.61h1.21v7.8c2.57-3.45,4.54-5.62,5.91-6.51,1.36-.89,2.69-1.33,3.96-1.33,1.4,0,2.44.5,3.13,1.49.69.99,1.04,2.49,1.04,4.49,0,.45,0,.98-.02,1.62Z"/>
      <path class="cls-1" d="M382.86,29.72c-3.81,4.78-7.53,7.17-11.15,7.17-2.55,0-4.79-1.11-6.74-3.32-1.95-2.21-2.92-4.84-2.92-7.88,0-3.5,1.16-6.66,3.47-9.47,2.31-2.81,5.04-4.22,8.19-4.22,2.53,0,4.54.9,6.02,2.69s2.27,3.98,2.36,6.56h-16.53c-.03.67-.05,1.15-.05,1.46,0,3.02.8,5.55,2.41,7.57,1.61,2.02,3.59,3.04,5.95,3.04,2.94,0,5.94-1.77,8.99-5.3v1.69ZM377.89,19.99c-.21-2.02-.85-3.58-1.92-4.69s-2.35-1.67-3.82-1.67-2.91.6-4.13,1.81-1.96,2.72-2.23,4.55h12.09Z"/>
      <path class="cls-1" d="M385.24,14.66l6.64-2.72h1.07v8.45c2.46-3.29,4.48-5.52,6.07-6.69s3.09-1.76,4.51-1.76c2.89,0,4.33,1.85,4.33,5.56v13.43c0,1.52.31,2.56.94,3.11.62.56,1.62.85,2.99.88v1.23h-8.92v-1.23c.72-.03,1.08-.45,1.08-1.25v-15.82c0-.89-.23-1.6-.69-2.14-.46-.54-1.06-.81-1.79-.81-2.15,0-4.16,1.52-6.01,4.57-1.85,3.05-2.78,6.54-2.78,10.48,0,2,.31,3.31.92,3.95s1.71.98,3.28,1.01v1.23h-11.63v-1.23c1.37-.03,2.36-.33,2.97-.9.6-.56.9-1.6.9-3.1v-13.09c0-1.69-.56-2.54-1.68-2.54-.41,0-1.14.21-2.19.64v-1.28Z"/>
      <path class="cls-1" d="M423.01,4.61v1.33c-1.08.26-1.61,1.47-1.61,3.64,0,1.47.12,2.5.37,3.08.25.58.68,1.06,1.31,1.44.62.38,1.46.56,2.5.56h2.13v1.15h-6.28v16.45c0,.53.11.93.32,1.2s.53.41.96.41c.84,0,2.08-.68,3.74-2.05.19-.15.33-.26.44-.33v1.49c-2.91,2.61-5.23,3.92-6.96,3.92-.81,0-1.41-.31-1.81-.94-.4-.62-.6-1.55-.6-2.78V15.81h-3.92v-1.15c1.5,0,2.57-.3,3.2-.9.63-.6.95-1.65.95-3.15v-3.87l5.28-2.13Z"/>
      <path class="cls-1" d="M432.14,15.86c3.94-2.6,7.64-3.89,11.11-3.89,1.63,0,2.8.36,3.52,1.08.72.72,1.07,1.93,1.05,3.64v16.02c0,.77.35,1.15,1.04,1.15s1.88-.79,3.59-2.36v1.59c-2.6,2.55-4.71,3.82-6.35,3.82-1.47,0-2.2-.82-2.2-2.46v-3.79c-2.14,2.19-3.94,3.78-5.42,4.77-1.48.99-2.88,1.49-4.19,1.49s-2.37-.5-3.28-1.5c-.91-1-1.36-2.22-1.36-3.65,0-3.71,4.75-7.7,14.25-11.99v-3.08c0-.94-.28-1.72-.85-2.33-.56-.62-1.34-.92-2.33-.92-1.69,0-3.2.82-4.51,2.46-1.32,1.64-2.1,3.68-2.36,6.12h-1.72v-6.15ZM444.18,21.83c-3.17.65-5.74,1.76-7.71,3.34-1.97,1.58-2.95,3.2-2.95,4.86,0,1.06.33,1.9.99,2.54.66.63,1.52.95,2.58.95,1.97,0,3.63-1.04,5-3.11,1.36-2.08,2.06-4.93,2.09-8.57Z"/>
    </g>
  </g>
</svg>