<?xml version="1.0" encoding="UTF-8"?>
<svg id="Capa_2" data-name="Capa 2" xmlns="http://www.w3.org/2000/svg" viewBox="0 0 160.05 16.37">
  <g id="letraL">
    <g>
      <path d="M1.15,16.08H0V0h1.15v16.08ZM9.98,16.08H.43v-1.03h9.55v1.03Z"/>
      <path d="M13.58,16.08h-1.15V0h1.15v16.08Z"/>
      <path d="M20.86,16.32c-.74,0-1.4-.15-1.98-.46s-1.04-.76-1.36-1.38c-.32-.62-.48-1.39-.48-2.32v-7.56h1.15v7.34c0,1.07.26,1.9.79,2.5s1.29.89,2.28.89c.9,0,1.62-.19,2.17-.58.55-.38.95-.88,1.2-1.49.25-.61.37-1.26.37-1.94l.07.58c-.03.77-.21,1.49-.53,2.16-.32.67-.79,1.22-1.4,1.63-.62.42-1.38.62-2.29.62ZM26.16,16.08h-1.15V4.61h1.15v11.47Z"/>
      <path d="M33.67,16.08h-1.44l-4.44-11.47h1.27l2.64,7.13,1.27,3.41,1.22-3.41,2.69-7.13h1.22l-4.44,11.47Z"/>
      <path d="M41.38,2.45h-1.15V0h1.15v2.45ZM41.38,16.08h-1.15V4.61h1.15v11.47Z"/>
      <path d="M54,16.08h-.89c-.35,0-.66-.06-.94-.17-.27-.11-.48-.3-.62-.55-.14-.26-.22-.61-.22-1.06v-5.3l-.02-.7c0-.98-.24-1.7-.73-2.16s-1.18-.7-2.08-.7-1.65.22-2.3.65c-.66.43-1.14.97-1.46,1.61l-.79-.82c.22-.42.55-.82.98-1.2.43-.38.96-.7,1.58-.95s1.32-.37,2.09-.37c1.31,0,2.28.34,2.92,1.03.63.69.95,1.64.95,2.86v5.88c0,.34.08.57.24.7s.38.19.67.19h.62v1.06ZM47.04,16.32c-.91,0-1.62-.22-2.12-.67-.5-.45-.76-1.05-.76-1.8s.25-1.38.74-1.87,1.13-.92,1.9-1.27l4.75-2.16.14.84-4.34,2.06c-.7.32-1.22.65-1.55,1-.33.34-.49.76-.49,1.24,0,.56.19.98.56,1.25.38.27.86.41,1.45.41.56,0,1.09-.11,1.58-.32.5-.22.92-.5,1.28-.84.36-.34.64-.71.84-1.09s.3-.78.3-1.18l.02.7c-.08.61-.32,1.2-.72,1.76-.4.57-.91,1.04-1.52,1.4-.62.37-1.31.55-2.08.55Z"/>
      <path d="M66.1,16.34c-1.01,0-1.87-.25-2.59-.74-.72-.5-1.27-1.2-1.64-2.1-.38-.9-.56-1.96-.56-3.16s.19-2.25.56-3.14c.38-.9.92-1.59,1.64-2.09.72-.5,1.58-.74,2.59-.74.85,0,1.56.19,2.14.58s1.02.89,1.34,1.51.5,1.29.53,1.99l-.1.62c0-.64-.13-1.24-.4-1.8-.26-.56-.66-1.02-1.2-1.38-.54-.36-1.2-.54-2-.54-1.14,0-2.08.4-2.83,1.21-.75.81-1.13,2.07-1.13,3.78s.38,3,1.13,3.8c.75.81,1.7,1.21,2.83,1.21.8,0,1.47-.18,2-.54.54-.36.94-.82,1.2-1.38.26-.56.4-1.16.4-1.8l.1.62c-.03.71-.21,1.37-.53,1.99s-.77,1.13-1.34,1.51c-.58.38-1.29.58-2.14.58ZM71.18,16.08h-1.18V0h1.18v16.08Z"/>
      <path d="M79.44,16.32c-1.04,0-1.97-.22-2.78-.67-.82-.45-1.45-1.12-1.91-2.02-.46-.9-.68-1.99-.68-3.29s.22-2.36.65-3.25c.43-.89,1.04-1.56,1.82-2.03.78-.46,1.68-.7,2.69-.7s1.88.22,2.62.66,1.31,1.08,1.72,1.92c.41.84.61,1.85.61,3.04,0,.11,0,.23-.02.35-.02.12-.03.22-.05.3h-9.22v-.89h8.52l-.29.36c0-1.62-.36-2.81-1.07-3.59-.71-.78-1.65-1.16-2.82-1.16s-2.17.4-2.92,1.21c-.74.81-1.12,2.04-1.12,3.68v.19c0,1.12.18,2.04.54,2.77.36.73.86,1.26,1.51,1.61.65.34,1.38.52,2.2.52s1.43-.12,1.94-.37.93-.57,1.25-.96c.32-.39.57-.79.74-1.19l.7.89c-.38.7-.95,1.32-1.7,1.84-.75.52-1.73.78-2.93.78Z"/>
      <path d="M96.7,16.32c-.8,0-1.57-.12-2.3-.36-.74-.24-1.37-.6-1.91-1.07-.54-.47-.94-1.07-1.21-1.79l1.51-1.18c.13.43.36.85.7,1.26.34.41.78.74,1.32.98s1.2.37,1.97.37c.69,0,1.24-.13,1.66-.4.42-.26.62-.65.62-1.16s-.24-.88-.71-1.1c-.47-.22-1.05-.42-1.74-.58l-1.51-.36c-.54-.13-1.08-.32-1.62-.56s-.98-.59-1.33-1.03c-.35-.44-.53-1.02-.53-1.74,0-1.04.38-1.86,1.15-2.46.77-.6,1.77-.9,3-.9s2.28.28,3.11.84c.82.56,1.4,1.21,1.72,1.94l-1.58,1.2c-.27-.69-.69-1.23-1.26-1.63-.57-.4-1.26-.6-2.08-.6-.61,0-1.1.13-1.49.38-.38.26-.58.63-.58,1.13s.2.87.59,1.13c.39.26.98.48,1.76.67l1.51.36c1.31.3,2.21.73,2.7,1.28.49.55.73,1.23.73,2.03,0,.75-.19,1.38-.58,1.88s-.89.87-1.52,1.1c-.63.23-1.33.35-2.1.35Z"/>
      <path d="M107.78,16.32c-1.09,0-2.04-.25-2.87-.74-.83-.5-1.47-1.2-1.94-2.1-.47-.9-.71-1.97-.71-3.2s.24-2.3.71-3.19c.47-.9,1.12-1.59,1.94-2.09.82-.5,1.78-.74,2.87-.74s2.02.25,2.83.74c.82.5,1.46,1.19,1.92,2.09.46.9.7,1.96.7,3.19s-.23,2.3-.7,3.2c-.46.9-1.1,1.6-1.92,2.1-.82.5-1.76.74-2.83.74ZM107.76,14.57c.67,0,1.26-.16,1.76-.47.5-.31.9-.78,1.19-1.42.29-.63.43-1.44.43-2.41s-.14-1.78-.43-2.41-.68-1.1-1.19-1.42c-.5-.31-1.09-.47-1.76-.47s-1.22.16-1.73.47c-.51.31-.91.78-1.19,1.42-.28.63-.42,1.44-.42,2.41s.14,1.78.42,2.41c.28.63.68,1.1,1.19,1.42.51.31,1.09.47,1.73.47Z"/>
      <path d="M118.01,16.08h-2.09V0h2.09v16.08ZM121.78,16.37c-.91,0-1.64-.21-2.18-.62s-.96-.94-1.24-1.58c-.28-.64-.45-1.32-.52-2.04l.17-.98c0,.64.1,1.22.29,1.74.19.52.51.94.96,1.25.45.31,1.04.47,1.78.47.94,0,1.74-.35,2.4-1.04.66-.7.98-1.78.98-3.25s-.33-2.58-.98-3.26-1.46-1.03-2.4-1.03c-.74,0-1.33.16-1.78.47-.45.31-.77.73-.96,1.25-.19.52-.29,1.1-.29,1.74l-.17-.96c.06-.72.24-1.4.52-2.05.28-.65.69-1.18,1.24-1.58s1.26-.61,2.16-.61c.99,0,1.84.25,2.54.74s1.25,1.2,1.64,2.1c.39.9.59,1.97.59,3.2s-.2,2.28-.59,3.19c-.39.91-.94,1.62-1.66,2.12s-1.55.76-2.51.76Z"/>
      <path d="M131.09,16.08h-2.09V4.49h2.09v11.59ZM131.09,9.48l-.17-.98c.05-.54.16-1.07.35-1.58.18-.51.44-.97.76-1.37.32-.4.7-.72,1.15-.96s.96-.36,1.54-.36c.62,0,1.19.21,1.69.64s.76,1.04.76,1.86c0,.5-.05.92-.16,1.27-.1.35-.2.59-.3.72h-2.26c.19-.18.35-.42.48-.74.13-.32.19-.64.19-.96s-.09-.6-.28-.85-.49-.37-.92-.37c-.48,0-.94.17-1.39.52-.45.34-.8.8-1.06,1.36-.26.56-.38,1.17-.38,1.82Z"/>
      <path d="M143.74,16.32c-1.09,0-2.05-.24-2.89-.73-.84-.49-1.5-1.19-1.97-2.1s-.71-1.98-.71-3.22.23-2.3.7-3.2c.46-.9,1.11-1.6,1.93-2.09s1.76-.73,2.82-.73,2.03.22,2.82.67c.79.45,1.4,1.09,1.82,1.92.42.83.64,1.82.64,2.98,0,.18,0,.35-.02.52-.02.17-.03.31-.05.42h-9.07v-1.51h7.8l-.5.72c0-1.31-.3-2.3-.91-2.98s-1.46-1.01-2.54-1.01-1.86.35-2.47,1.04c-.61.7-.91,1.74-.91,3.13v.26c0,.88.14,1.63.42,2.26s.69,1.1,1.22,1.43c.54.33,1.16.49,1.88.49.78,0,1.42-.12,1.92-.36.5-.24.88-.54,1.15-.89.27-.35.48-.7.62-1.03l1.3,1.42c-.43.7-1.05,1.31-1.86,1.82-.81.51-1.85.77-3.13.77Z"/>
      <path d="M155.85,16.32c-.8,0-1.57-.12-2.3-.36-.74-.24-1.37-.6-1.91-1.07-.54-.47-.94-1.07-1.21-1.79l1.51-1.18c.13.43.36.85.7,1.26.34.41.78.74,1.32.98s1.2.37,1.97.37c.69,0,1.24-.13,1.66-.4.42-.26.62-.65.62-1.16s-.24-.88-.71-1.1c-.47-.22-1.05-.42-1.74-.58l-1.51-.36c-.54-.13-1.08-.32-1.62-.56s-.98-.59-1.33-1.03c-.35-.44-.53-1.02-.53-1.74,0-1.04.38-1.86,1.15-2.46.77-.6,1.77-.9,3-.9s2.28.28,3.11.84c.82.56,1.4,1.21,1.72,1.94l-1.58,1.2c-.27-.69-.69-1.23-1.26-1.63-.57-.4-1.26-.6-2.08-.6-.61,0-1.1.13-1.49.38-.38.26-.58.63-.58,1.13s.2.87.59,1.13c.39.26.98.48,1.76.67l1.51.36c1.31.3,2.21.73,2.7,1.28.49.55.73,1.23.73,2.03,0,.75-.19,1.38-.58,1.88s-.89.87-1.52,1.1c-.63.23-1.33.35-2.1.35Z"/>
    </g>
  </g>
</svg>