<?xml version="1.0" encoding="UTF-8"?>
<svg id="Capa_2" data-name="Capa 2" xmlns="http://www.w3.org/2000/svg" viewBox="0 0 846.03 107.18">
  <g id="letraL">
    <g>
      <path d="M31.98,16.32h-1.54V.24h1.54v16.08ZM41.2,1.63h-10.22V.24h10.22v1.39ZM39.66,8.81h-8.69v-1.39h8.69v1.39ZM41.2,16.32h-10.22v-1.39h10.22v1.39Z"/>
      <path d="M47.29,16.56c-.77,0-1.51-.12-2.23-.36-.72-.24-1.34-.6-1.86-1.08-.52-.48-.9-1.1-1.14-1.85l1.15-.89c.14.5.39.96.74,1.39.35.43.82.78,1.39,1.04s1.24.4,1.99.4,1.4-.16,1.86-.47c.46-.31.68-.77.68-1.38,0-.58-.23-1-.7-1.28-.46-.28-1.09-.51-1.87-.68l-1.56-.38c-.54-.13-1.08-.31-1.6-.55-.52-.24-.94-.57-1.27-1s-.49-.97-.49-1.64c0-1.01.36-1.8,1.08-2.39.72-.58,1.68-.88,2.88-.88s2.24.27,3.02.82c.78.54,1.32,1.22,1.61,2.04l-1.18.89c-.29-.78-.73-1.38-1.32-1.8-.59-.42-1.33-.62-2.21-.62-.7,0-1.28.16-1.73.48s-.67.78-.67,1.37.22,1.05.65,1.33c.43.28,1.06.52,1.9.71l1.56.36c1.2.32,2.06.73,2.57,1.24s.77,1.17.77,2c0,.74-.18,1.34-.55,1.81s-.86.82-1.46,1.04c-.61.22-1.28.34-2.02.34Z"/>
      <path d="M63.4,16.58c-.99,0-1.85-.25-2.57-.74-.72-.5-1.27-1.2-1.64-2.1-.38-.9-.56-1.96-.56-3.16s.19-2.3.56-3.19c.38-.89.93-1.6,1.66-2.1.73-.5,1.59-.76,2.58-.76.85,0,1.56.2,2.12.59.57.39,1,.91,1.3,1.55.3.64.47,1.31.52,2.02l-.1.82c0-.64-.12-1.23-.36-1.78-.24-.54-.61-.99-1.1-1.33s-1.13-.52-1.9-.52c-1.06,0-1.94.38-2.64,1.13s-1.06,1.94-1.06,3.58.36,2.78,1.07,3.54c.71.76,1.58,1.14,2.6,1.14.77,0,1.4-.17,1.91-.52.5-.34.88-.79,1.12-1.33.24-.54.36-1.14.36-1.78l.1.79c-.05.7-.22,1.37-.53,2s-.74,1.15-1.3,1.55c-.56.4-1.27.6-2.14.6ZM68.82,16.32h-1.56V.24h1.56v16.08Z"/>
      <path d="M77,16.56c-1.07,0-2.02-.23-2.83-.7-.82-.46-1.46-1.15-1.92-2.05s-.7-1.99-.7-3.25.22-2.34.66-3.23c.44-.89,1.06-1.58,1.86-2.06s1.71-.73,2.74-.73,1.97.23,2.74.68c.77.46,1.36,1.1,1.76,1.92.41.82.61,1.82.61,2.99,0,.16,0,.3-.01.43s-.03.25-.06.36h-9.17v-1.15h8.21l-.36.5c0-1.47-.34-2.58-1.01-3.31-.67-.74-1.58-1.1-2.71-1.1s-2.02.38-2.71,1.14c-.69.76-1.03,1.91-1.03,3.44v.24c0,1.01.16,1.85.49,2.53.33.68.79,1.19,1.39,1.52s1.28.5,2.05.5,1.43-.12,1.93-.37.91-.56,1.21-.92c.3-.37.54-.74.7-1.1l.96,1.13c-.42.69-1.01,1.29-1.79,1.81-.78.52-1.78.78-3.01.78Z"/>
      <path d="M93.95,21.02c-1.44,0-2.59-.23-3.44-.68-.86-.46-1.28-1.08-1.28-1.88,0-.4.11-.75.32-1.06.22-.3.48-.56.8-.77.32-.21.63-.37.94-.48-.38-.1-.67-.28-.86-.55-.19-.27-.29-.58-.29-.94,0-.3.07-.61.2-.91.14-.3.34-.61.6-.91.26-.3.56-.59.9-.86l.36.19c-.19.22-.37.48-.54.78s-.25.58-.25.85c0,.34.12.6.35.78.23.18.65.28,1.26.28h3.6c1.01,0,1.8.2,2.39.61.58.41.88,1.04.88,1.88,0,.7-.24,1.34-.71,1.9-.47.56-1.15,1-2.03,1.31-.88.31-1.94.47-3.19.47ZM94.5,12.77c-.91,0-1.7-.17-2.36-.52-.67-.34-1.18-.83-1.56-1.46-.38-.63-.56-1.34-.56-2.12s.19-1.51.56-2.14.9-1.11,1.56-1.46c.66-.35,1.45-.53,2.36-.53s1.66.18,2.34.53c.68.35,1.2.84,1.56,1.46s.54,1.34.54,2.14-.18,1.49-.54,2.12c-.36.63-.88,1.12-1.56,1.46-.68.34-1.46.52-2.34.52ZM93.95,19.75c1.41,0,2.5-.2,3.29-.6.78-.4,1.18-.94,1.18-1.63,0-.45-.17-.78-.5-.98s-.84-.31-1.51-.31h-4.68c-.29.19-.56.44-.82.74-.26.3-.38.65-.38,1.03,0,.56.3.99.91,1.3.61.3,1.45.46,2.52.46ZM94.5,11.54c.85,0,1.55-.26,2.1-.79.55-.53.83-1.22.83-2.09s-.28-1.58-.83-2.11c-.55-.53-1.25-.79-2.1-.79s-1.57.26-2.12.79c-.55.53-.83,1.23-.83,2.11s.28,1.56.83,2.09c.55.53,1.26.79,2.12.79ZM99.3,2.86l-2.23,2.66-.41-.38.98-2.9,1.66.62Z"/>
      <path d="M103.6,16.32h-1.58V4.78h1.58v11.54ZM103.6,9.67l-.14-.79c.05-.54.16-1.08.35-1.6.18-.52.44-.99.76-1.4.32-.42.71-.74,1.16-.98.46-.24.97-.36,1.55-.36.67,0,1.25.21,1.73.62.48.42.72,1.02.72,1.82,0,.43-.04.82-.13,1.18-.09.35-.2.62-.32.79h-1.68c.18-.19.32-.45.43-.78.11-.33.17-.67.17-1.02s-.11-.68-.34-.98c-.22-.3-.6-.46-1.13-.46-.58,0-1.1.19-1.58.58-.48.38-.86.88-1.13,1.48-.27.6-.41,1.24-.41,1.91Z"/>
      <path d="M121.12,16.32h-1.06c-.38,0-.72-.06-1.01-.19-.29-.13-.52-.34-.68-.62-.17-.29-.25-.67-.25-1.15v-5.09l-.05-.55c0-.86-.21-1.54-.64-2.02s-1.11-.72-2.05-.72c-.85,0-1.58.22-2.2.65s-1.07.98-1.36,1.63l-1.1-1.13c.24-.4.58-.8,1.03-1.2.45-.4.99-.73,1.63-1,.64-.26,1.37-.4,2.18-.4,1.34,0,2.36.37,3.05,1.1.69.74,1.03,1.75,1.03,3.05v5.4c0,.3.07.52.2.64s.34.18.61.18h.65v1.42ZM113.96,16.56c-.94,0-1.67-.24-2.18-.72-.51-.48-.77-1.09-.77-1.82s.25-1.4.76-1.91,1.16-.94,1.96-1.31l4.66-2.11.19,1.08-4.15,1.99c-.64.29-1.11.59-1.4.9-.3.31-.44.68-.44,1.12,0,.48.16.84.49,1.09s.78.37,1.36.37c.54,0,1.04-.09,1.49-.28.45-.18.84-.43,1.18-.74.34-.31.59-.66.77-1.03s.26-.76.26-1.16l.07.86c-.1.58-.32,1.15-.68,1.72-.36.57-.84,1.04-1.43,1.4-.59.37-1.3.55-2.11.55Z"/>
      <path d="M125.27,16.32h-1.58V4.78h1.58v11.54ZM133.09,16.32h-1.54v-7.44c0-.93-.23-1.66-.68-2.2s-1.19-.8-2.2-.8c-.8,0-1.46.18-1.97.54-.51.36-.88.82-1.1,1.39-.22.57-.34,1.19-.34,1.86l-.14-.79c.06-.75.26-1.46.58-2.12.32-.66.78-1.2,1.37-1.61.59-.41,1.34-.61,2.23-.61,1.15,0,2.07.34,2.76,1.01.69.67,1.03,1.67,1.03,3v7.78Z"/>
      <path d="M151.07,16.32h-1.06c-.38,0-.72-.06-1.01-.19-.29-.13-.52-.34-.68-.62-.17-.29-.25-.67-.25-1.15v-5.09l-.05-.55c0-.86-.21-1.54-.64-2.02s-1.11-.72-2.05-.72c-.85,0-1.58.22-2.2.65-.62.43-1.07.98-1.36,1.63l-1.1-1.13c.24-.4.58-.8,1.03-1.2s.99-.73,1.63-1,1.37-.4,2.18-.4c1.34,0,2.36.37,3.05,1.1.69.74,1.03,1.75,1.03,3.05v5.4c0,.3.07.52.2.64.14.12.34.18.61.18h.65v1.42ZM143.92,16.56c-.94,0-1.67-.24-2.18-.72-.51-.48-.77-1.09-.77-1.82s.25-1.4.76-1.91c.5-.5,1.16-.94,1.96-1.31l4.66-2.11.19,1.08-4.15,1.99c-.64.29-1.11.59-1.4.9-.3.31-.44.68-.44,1.12,0,.48.16.84.49,1.09.33.25.78.37,1.36.37.54,0,1.04-.09,1.49-.28.45-.18.84-.43,1.18-.74.34-.31.59-.66.77-1.03.18-.38.26-.76.26-1.16l.07.86c-.1.58-.32,1.15-.68,1.72-.36.57-.84,1.04-1.43,1.4-.59.37-1.3.55-2.11.55Z"/>
      <path d="M154.55,20.38c-.51,0-.98-.09-1.39-.26s-.76-.41-1.03-.7c-.27-.29-.48-.58-.62-.86l.89-1.15c.24.45.54.82.89,1.13.35.3.78.46,1.3.46.46,0,.87-.14,1.22-.42.35-.28.65-.79.89-1.52l.62-1.68.41.53-1.49.05-4.22-11.16h1.66l2.93,7.92.84,2.38.82-2.38,2.88-7.92h1.68l-4.87,12.91c-.35.93-.81,1.61-1.38,2.04-.57.43-1.24.65-2,.65Z"/>
      <path d="M168.01,16.56c-.75,0-1.41-.15-1.98-.44-.57-.3-1.01-.74-1.33-1.34-.32-.6-.48-1.34-.48-2.22v-7.78h1.58v7.44c0,.93.23,1.66.68,2.21.46.54,1.17.82,2.15.82.85,0,1.52-.18,2.02-.54.5-.36.86-.82,1.09-1.39.23-.57.35-1.19.35-1.86l.1.74c-.05.75-.23,1.46-.54,2.12-.31.66-.77,1.2-1.37,1.62-.6.42-1.36.62-2.27.62ZM173.65,16.32h-1.56V4.78h1.56v11.54Z"/>
      <path d="M181.09,16.58c-.99,0-1.85-.25-2.57-.74-.72-.5-1.27-1.2-1.64-2.1-.38-.9-.56-1.96-.56-3.16s.19-2.3.56-3.19c.38-.89.93-1.6,1.66-2.1.73-.5,1.59-.76,2.58-.76.85,0,1.56.2,2.12.59.57.39,1,.91,1.3,1.55.3.64.47,1.31.52,2.02l-.1.82c0-.64-.12-1.23-.36-1.78s-.61-.99-1.1-1.33c-.5-.34-1.13-.52-1.9-.52-1.06,0-1.94.38-2.64,1.13s-1.06,1.94-1.06,3.58.36,2.78,1.07,3.54c.71.76,1.58,1.14,2.6,1.14.77,0,1.4-.17,1.91-.52.5-.34.88-.79,1.12-1.33.24-.54.36-1.14.36-1.78l.1.79c-.05.7-.22,1.37-.53,2-.3.63-.74,1.15-1.3,1.55-.56.4-1.27.6-2.14.6ZM186.51,16.32h-1.56V.24h1.56v16.08Z"/>
      <path d="M199.28,16.32h-1.06c-.38,0-.72-.06-1.01-.19-.29-.13-.52-.34-.68-.62-.17-.29-.25-.67-.25-1.15v-5.09l-.05-.55c0-.86-.21-1.54-.64-2.02s-1.11-.72-2.05-.72c-.85,0-1.58.22-2.2.65-.62.43-1.07.98-1.36,1.63l-1.1-1.13c.24-.4.58-.8,1.03-1.2s.99-.73,1.63-1,1.37-.4,2.18-.4c1.34,0,2.36.37,3.05,1.1.69.74,1.03,1.75,1.03,3.05v5.4c0,.3.07.52.2.64.14.12.34.18.61.18h.65v1.42ZM192.13,16.56c-.94,0-1.67-.24-2.18-.72-.51-.48-.77-1.09-.77-1.82s.25-1.4.76-1.91c.5-.5,1.16-.94,1.96-1.31l4.66-2.11.19,1.08-4.15,1.99c-.64.29-1.11.59-1.4.9-.3.31-.44.68-.44,1.12,0,.48.16.84.49,1.09.33.25.78.37,1.36.37.54,0,1.04-.09,1.49-.28.45-.18.84-.43,1.18-.74.34-.31.59-.66.77-1.03.18-.38.26-.76.26-1.16l.07.86c-.1.58-.32,1.15-.68,1.72-.36.57-.84,1.04-1.43,1.4-.59.37-1.3.55-2.11.55Z"/>
      <path d="M211.26,16.58c-.99,0-1.85-.25-2.57-.74-.72-.5-1.27-1.2-1.64-2.1-.38-.9-.56-1.96-.56-3.16s.19-2.3.56-3.19c.38-.89.93-1.6,1.66-2.1.73-.5,1.59-.76,2.58-.76.85,0,1.56.2,2.12.59.57.39,1,.91,1.3,1.55.3.64.47,1.31.52,2.02l-.1.82c0-.64-.12-1.23-.36-1.78-.24-.54-.61-.99-1.1-1.33s-1.13-.52-1.9-.52c-1.06,0-1.94.38-2.64,1.13s-1.06,1.94-1.06,3.58.36,2.78,1.07,3.54c.71.76,1.58,1.14,2.6,1.14.77,0,1.4-.17,1.91-.52.5-.34.88-.79,1.12-1.33.24-.54.36-1.14.36-1.78l.1.79c-.05.7-.22,1.37-.53,2s-.74,1.15-1.3,1.55c-.56.4-1.27.6-2.14.6ZM216.68,16.32h-1.56V.24h1.56v16.08Z"/>
      <path d="M224.87,16.56c-1.07,0-2.02-.23-2.83-.7-.82-.46-1.46-1.15-1.92-2.05-.46-.9-.7-1.99-.7-3.25s.22-2.34.66-3.23c.44-.89,1.06-1.58,1.86-2.06.8-.49,1.71-.73,2.74-.73s1.97.23,2.74.68c.77.46,1.36,1.1,1.76,1.92.41.82.61,1.82.61,2.99,0,.16,0,.3-.01.43,0,.13-.03.25-.06.36h-9.17v-1.15h8.21l-.36.5c0-1.47-.34-2.58-1.01-3.31-.67-.74-1.58-1.1-2.71-1.1s-2.02.38-2.71,1.14c-.69.76-1.03,1.91-1.03,3.44v.24c0,1.01.16,1.85.49,2.53.33.68.79,1.19,1.39,1.52.6.34,1.28.5,2.05.5s1.43-.12,1.93-.37.91-.56,1.21-.92.54-.74.7-1.1l.96,1.13c-.42.69-1.01,1.29-1.79,1.81-.78.52-1.78.78-3.01.78Z"/>
      <path d="M239.46,2.74h-1.58V.24h1.58v2.5ZM239.46,16.32h-1.58V4.78h1.58v11.54Z"/>
      <path d="M244.4,16.32h-1.58V4.78h1.58v11.54ZM251.67,16.32h-1.56v-7.46c0-1.01-.22-1.76-.67-2.24s-1.12-.73-2.02-.73c-.67,0-1.24.18-1.69.54-.46.36-.79.82-1.01,1.39-.22.57-.32,1.19-.32,1.86l-.14-.79c.06-.75.25-1.46.56-2.12.31-.66.75-1.2,1.32-1.61.57-.41,1.26-.61,2.08-.61,1.1,0,1.96.33,2.56,1s.9,1.66.9,2.99v7.8ZM258.97,16.32h-1.58v-7.46c0-1.01-.22-1.76-.67-2.24-.45-.49-1.11-.73-1.99-.73-.69,0-1.26.18-1.7.54-.45.36-.78.82-1.01,1.39-.22.57-.34,1.19-.34,1.86l-.12-.79c.05-.75.23-1.46.54-2.12.31-.66.75-1.2,1.32-1.61.57-.41,1.27-.61,2.1-.61,1.1,0,1.96.33,2.56,1,.6.66.9,1.66.9,2.99v7.8Z"/>
      <path d="M263.82,20.78h-1.58V4.78h1.58v16.01ZM267.63,16.56c-.83,0-1.54-.2-2.11-.6-.58-.4-1.01-.92-1.31-1.55-.3-.63-.48-1.3-.54-2l.14-.79c0,.64.12,1.23.35,1.78.23.54.6.99,1.1,1.33s1.14.52,1.91.52c1.04,0,1.91-.38,2.62-1.14.7-.76,1.06-1.94,1.06-3.54s-.35-2.83-1.06-3.59c-.71-.76-1.58-1.14-2.62-1.14-.77,0-1.4.17-1.91.52s-.87.79-1.1,1.33c-.23.54-.35,1.14-.35,1.78l-.14-.79c.06-.7.25-1.38.55-2.02.3-.64.74-1.16,1.3-1.55.56-.39,1.27-.59,2.14-.59,1.01,0,1.86.25,2.57.74s1.25,1.2,1.64,2.1c.39.9.59,1.97.59,3.2s-.19,2.23-.58,3.14c-.38.91-.93,1.62-1.64,2.11s-1.58.74-2.6.74Z"/>
      <path d="M279.95,16.56c-1.04,0-1.97-.25-2.78-.74-.82-.5-1.45-1.2-1.91-2.1-.46-.9-.68-1.96-.68-3.16s.23-2.3.68-3.19c.46-.9,1.09-1.59,1.91-2.09.82-.5,1.74-.74,2.78-.74s2.01.25,2.81.74c.8.5,1.44,1.19,1.91,2.09.47.9.71,1.96.71,3.19s-.24,2.25-.71,3.16c-.47.9-1.11,1.6-1.91,2.1-.8.5-1.74.74-2.81.74ZM279.95,15.22c.77,0,1.44-.18,2.02-.53.58-.35,1.02-.88,1.33-1.57.31-.7.47-1.55.47-2.56s-.16-1.88-.47-2.58c-.31-.7-.76-1.22-1.33-1.57-.58-.35-1.25-.53-2.02-.53s-1.41.18-1.98.53c-.57.35-1.01.88-1.33,1.57-.32.7-.48,1.56-.48,2.58s.16,1.86.48,2.56c.32.7.76,1.22,1.33,1.57.57.35,1.23.53,1.98.53Z"/>
      <path d="M289.69,16.32h-1.58V4.78h1.58v11.54ZM289.69,9.67l-.14-.79c.05-.54.16-1.08.35-1.6.18-.52.44-.99.76-1.4.32-.42.71-.74,1.16-.98.46-.24.97-.36,1.55-.36.67,0,1.25.21,1.73.62.48.42.72,1.02.72,1.82,0,.43-.04.82-.13,1.18-.09.35-.2.62-.32.79h-1.68c.18-.19.32-.45.43-.78.11-.33.17-.67.17-1.02s-.11-.68-.34-.98c-.22-.3-.6-.46-1.13-.46-.58,0-1.1.19-1.58.58-.48.38-.86.88-1.13,1.48-.27.6-.41,1.24-.41,1.91Z"/>
      <path d="M303.97,6.02h-7.34v-1.25h7.34v1.25ZM301.67,16.58c-.61,0-1.15-.12-1.62-.37-.47-.25-.85-.61-1.13-1.08-.28-.47-.42-1.05-.42-1.74V3.14l1.58-1.18v10.99c0,.83.18,1.39.55,1.68s.81.43,1.32.43.99-.16,1.38-.48c.39-.32.69-.68.9-1.08l.53,1.54c-.26.43-.65.8-1.19,1.09s-1.17.44-1.91.44Z"/>
      <path d="M315.92,16.32h-1.06c-.38,0-.72-.06-1.01-.19-.29-.13-.52-.34-.68-.62-.17-.29-.25-.67-.25-1.15v-5.09l-.05-.55c0-.86-.21-1.54-.64-2.02s-1.11-.72-2.05-.72c-.85,0-1.58.22-2.2.65s-1.07.98-1.36,1.63l-1.1-1.13c.24-.4.58-.8,1.03-1.2.45-.4.99-.73,1.63-1,.64-.26,1.37-.4,2.18-.4,1.34,0,2.36.37,3.05,1.1.69.74,1.03,1.75,1.03,3.05v5.4c0,.3.07.52.2.64s.34.18.61.18h.65v1.42ZM308.77,16.56c-.94,0-1.67-.24-2.18-.72-.51-.48-.77-1.09-.77-1.82s.25-1.4.76-1.91,1.16-.94,1.96-1.31l4.66-2.11.19,1.08-4.15,1.99c-.64.29-1.11.59-1.4.9-.3.31-.44.68-.44,1.12,0,.48.16.84.49,1.09s.78.37,1.36.37c.54,0,1.04-.09,1.49-.28.45-.18.84-.43,1.18-.74.34-.31.59-.66.77-1.03s.26-.76.26-1.16l.07.86c-.1.58-.32,1.15-.68,1.72-.36.57-.84,1.04-1.43,1.4-.59.37-1.3.55-2.11.55Z"/>
      <path d="M320.07,16.32h-1.58V4.78h1.58v11.54ZM327.9,16.32h-1.54v-7.44c0-.93-.23-1.66-.68-2.2s-1.19-.8-2.2-.8c-.8,0-1.46.18-1.97.54-.51.36-.88.82-1.1,1.39-.22.57-.34,1.19-.34,1.86l-.14-.79c.06-.75.26-1.46.58-2.12.32-.66.78-1.2,1.37-1.61.59-.41,1.34-.61,2.23-.61,1.15,0,2.07.34,2.76,1.01.69.67,1.03,1.67,1.03,3v7.78Z"/>
      <path d="M335.84,16.56c-1.09,0-2.03-.24-2.83-.72-.8-.48-1.42-1.17-1.86-2.08-.44-.9-.66-1.97-.66-3.2s.22-2.34.66-3.24c.44-.9,1.06-1.58,1.87-2.06.81-.48,1.76-.72,2.84-.72,1.42,0,2.58.38,3.46,1.14s1.43,1.71,1.66,2.87l-1.51.67c-.11-.98-.46-1.78-1.06-2.4s-1.44-.94-2.54-.94c-.75,0-1.42.18-1.99.53-.58.35-1.02.88-1.33,1.57-.31.7-.47,1.56-.47,2.58s.16,1.88.47,2.58c.31.7.76,1.22,1.33,1.57.58.35,1.24.53,1.99.53,1.09,0,1.93-.31,2.53-.94.6-.62.96-1.43,1.07-2.42l1.51.67c-.22,1.15-.78,2.11-1.67,2.87-.89.76-2.04,1.14-3.47,1.14Z"/>
      <path d="M345.2,2.74h-1.58V.24h1.58v2.5ZM345.2,16.32h-1.58V4.78h1.58v11.54Z"/>
      <path d="M357.97,16.32h-1.06c-.38,0-.72-.06-1.01-.19-.29-.13-.52-.34-.68-.62-.17-.29-.25-.67-.25-1.15v-5.09l-.05-.55c0-.86-.21-1.54-.64-2.02s-1.11-.72-2.05-.72c-.85,0-1.58.22-2.2.65s-1.07.98-1.36,1.63l-1.1-1.13c.24-.4.58-.8,1.03-1.2.45-.4.99-.73,1.63-1,.64-.26,1.37-.4,2.18-.4,1.34,0,2.36.37,3.05,1.1.69.74,1.03,1.75,1.03,3.05v5.4c0,.3.07.52.2.64s.34.18.61.18h.65v1.42ZM350.82,16.56c-.94,0-1.67-.24-2.18-.72-.51-.48-.77-1.09-.77-1.82s.25-1.4.76-1.91,1.16-.94,1.96-1.31l4.66-2.11.19,1.08-4.15,1.99c-.64.29-1.11.59-1.4.9-.3.31-.44.68-.44,1.12,0,.48.16.84.49,1.09s.78.37,1.36.37c.54,0,1.04-.09,1.49-.28.45-.18.84-.43,1.18-.74.34-.31.59-.66.77-1.03s.26-.76.26-1.16l.07.86c-.1.58-.32,1.15-.68,1.72-.36.57-.84,1.04-1.43,1.4-.59.37-1.3.55-2.11.55Z"/>
      <path d="M369.95,16.56c-.98,0-1.82-.25-2.54-.74-.72-.5-1.27-1.2-1.66-2.11s-.58-1.96-.58-3.14.19-2.3.58-3.2.93-1.6,1.64-2.1,1.57-.74,2.58-.74c.85,0,1.56.2,2.12.59s1,.91,1.3,1.55.47,1.31.52,2.02l-.1.79c0-.64-.12-1.23-.36-1.78-.24-.54-.61-.99-1.1-1.33s-1.14-.52-1.92-.52c-1.02,0-1.89.38-2.6,1.14-.71.76-1.07,1.96-1.07,3.59s.36,2.78,1.07,3.54c.71.76,1.58,1.14,2.6,1.14.78,0,1.42-.17,1.92-.52s.86-.79,1.1-1.33c.24-.54.36-1.14.36-1.78l.1.79c-.05.7-.22,1.37-.53,2-.3.63-.74,1.15-1.3,1.55-.56.4-1.27.6-2.14.6ZM375.37,20.78h-1.56V4.78h1.56v16.01Z"/>
      <path d="M382.42,16.56c-.75,0-1.41-.15-1.98-.44s-1.01-.74-1.33-1.34c-.32-.6-.48-1.34-.48-2.22v-7.78h1.58v7.44c0,.93.23,1.66.68,2.21.46.54,1.17.82,2.15.82.85,0,1.52-.18,2.02-.54s.86-.82,1.09-1.39c.23-.57.35-1.19.35-1.86l.1.74c-.05.75-.23,1.46-.54,2.12-.31.66-.77,1.2-1.37,1.62-.6.42-1.36.62-2.27.62ZM388.06,16.32h-1.56V4.78h1.56v11.54Z"/>
      <path d="M396.2,16.56c-1.07,0-2.02-.23-2.83-.7-.82-.46-1.46-1.15-1.92-2.05s-.7-1.99-.7-3.25.22-2.34.66-3.23c.44-.89,1.06-1.58,1.86-2.06s1.71-.73,2.74-.73,1.97.23,2.74.68c.77.46,1.36,1.1,1.76,1.92.41.82.61,1.82.61,2.99,0,.16,0,.3-.01.43s-.03.25-.06.36h-9.17v-1.15h8.21l-.36.5c0-1.47-.34-2.58-1.01-3.31-.67-.74-1.58-1.1-2.71-1.1s-2.02.38-2.71,1.14c-.69.76-1.03,1.91-1.03,3.44v.24c0,1.01.16,1.85.49,2.53.33.68.79,1.19,1.39,1.52s1.28.5,2.05.5,1.43-.12,1.93-.37.91-.56,1.21-.92c.3-.37.54-.74.7-1.1l.96,1.13c-.42.69-1.01,1.29-1.79,1.81-.78.52-1.78.78-3.01.78Z"/>
      <path d="M413.91,16.56c-1.09,0-2.03-.24-2.83-.72-.8-.48-1.42-1.17-1.86-2.08-.44-.9-.66-1.97-.66-3.2s.22-2.34.66-3.24c.44-.9,1.06-1.58,1.87-2.06.81-.48,1.75-.72,2.84-.72,1.42,0,2.58.38,3.46,1.14.88.76,1.43,1.71,1.66,2.87l-1.51.67c-.11-.98-.46-1.78-1.06-2.4s-1.44-.94-2.54-.94c-.75,0-1.42.18-1.99.53-.58.35-1.02.88-1.33,1.57-.31.7-.47,1.56-.47,2.58s.16,1.88.47,2.58c.31.7.76,1.22,1.33,1.57.58.35,1.24.53,1.99.53,1.09,0,1.93-.31,2.53-.94.6-.62.96-1.43,1.07-2.42l1.51.67c-.22,1.15-.78,2.11-1.67,2.87-.89.76-2.04,1.14-3.47,1.14Z"/>
      <path d="M426.22,16.56c-1.04,0-1.97-.25-2.78-.74-.82-.5-1.45-1.2-1.91-2.1-.46-.9-.68-1.96-.68-3.16s.23-2.3.68-3.19c.46-.9,1.09-1.59,1.91-2.09.82-.5,1.74-.74,2.78-.74s2.01.25,2.81.74,1.44,1.19,1.91,2.09c.47.9.71,1.96.71,3.19s-.24,2.25-.71,3.16c-.47.9-1.11,1.6-1.91,2.1s-1.74.74-2.81.74ZM426.22,15.22c.77,0,1.44-.18,2.02-.53s1.02-.88,1.33-1.57c.31-.7.47-1.55.47-2.56s-.16-1.88-.47-2.58c-.31-.7-.76-1.22-1.33-1.57-.58-.35-1.25-.53-2.02-.53s-1.41.18-1.98.53c-.57.35-1.01.88-1.33,1.57s-.48,1.56-.48,2.58.16,1.86.48,2.56.76,1.22,1.33,1.57c.57.35,1.23.53,1.98.53Z"/>
      <path d="M435.97,16.32h-1.58V4.78h1.58v11.54ZM443.79,16.32h-1.54v-7.44c0-.93-.23-1.66-.68-2.2s-1.19-.8-2.2-.8c-.8,0-1.46.18-1.97.54-.51.36-.88.82-1.1,1.39-.22.57-.34,1.19-.34,1.86l-.14-.79c.06-.75.26-1.46.58-2.12.32-.66.78-1.2,1.37-1.61.59-.41,1.33-.61,2.23-.61,1.15,0,2.07.34,2.76,1.01.69.67,1.03,1.67,1.03,3v7.78Z"/>
      <path d="M454.3,6.02h-8.66v-1.25h8.66v1.25ZM449.12,16.32h-1.58V3.46c0-.78.15-1.43.46-1.94.3-.51.72-.89,1.25-1.14.53-.25,1.15-.37,1.87-.37.59,0,1.13.09,1.61.26.48.18.88.39,1.21.64s.58.48.76.71l-.86,1.13c-.26-.37-.63-.7-1.13-.98-.5-.29-1.05-.43-1.66-.43s-1.06.17-1.4.52-.52.9-.52,1.67v12.82ZM455.46,16.32h-1.58V4.78h1.58v11.54Z"/>
      <path d="M460.4,16.32h-1.58V4.78h1.58v11.54ZM460.4,9.67l-.14-.79c.05-.54.16-1.08.35-1.6s.44-.99.76-1.4.71-.74,1.16-.98c.46-.24.97-.36,1.55-.36.67,0,1.25.21,1.73.62.48.42.72,1.02.72,1.82,0,.43-.04.82-.13,1.18-.09.35-.2.62-.32.79h-1.68c.18-.19.32-.45.43-.78.11-.33.17-.67.17-1.02s-.11-.68-.34-.98c-.22-.3-.6-.46-1.13-.46-.58,0-1.1.19-1.58.58-.48.38-.86.88-1.13,1.48s-.41,1.24-.41,1.91Z"/>
      <path d="M470.12,16.32h-1.58V4.78h1.58v11.54ZM477.39,16.32h-1.56v-7.46c0-1.01-.22-1.76-.67-2.24s-1.12-.73-2.02-.73c-.67,0-1.24.18-1.69.54-.46.36-.79.82-1.01,1.39-.22.57-.32,1.19-.32,1.86l-.14-.79c.06-.75.25-1.46.56-2.12.31-.66.75-1.2,1.32-1.61.57-.41,1.26-.61,2.08-.61,1.1,0,1.96.33,2.56,1,.6.66.9,1.66.9,2.99v7.8ZM484.69,16.32h-1.58v-7.46c0-1.01-.22-1.76-.67-2.24-.45-.49-1.11-.73-1.99-.73-.69,0-1.26.18-1.7.54-.45.36-.78.82-1.01,1.39-.22.57-.34,1.19-.34,1.86l-.12-.79c.05-.75.23-1.46.54-2.12.31-.66.75-1.2,1.32-1.61.57-.41,1.27-.61,2.1-.61,1.1,0,1.96.33,2.56,1,.6.66.9,1.66.9,2.99v7.8Z"/>
      <path d="M492.73,16.56c-1.07,0-2.02-.23-2.83-.7-.82-.46-1.46-1.15-1.92-2.05s-.7-1.99-.7-3.25.22-2.34.66-3.23c.44-.89,1.06-1.58,1.86-2.06.8-.49,1.71-.73,2.74-.73s1.97.23,2.74.68c.77.46,1.36,1.1,1.76,1.92.41.82.61,1.82.61,2.99,0,.16,0,.3-.01.43,0,.13-.03.25-.06.36h-9.17v-1.15h8.21l-.36.5c0-1.47-.34-2.58-1.01-3.31-.67-.74-1.58-1.1-2.71-1.1s-2.02.38-2.71,1.14c-.69.76-1.03,1.91-1.03,3.44v.24c0,1.01.16,1.85.49,2.53.33.68.79,1.19,1.39,1.52.6.34,1.28.5,2.05.5s1.43-.12,1.93-.37c.5-.25.91-.56,1.21-.92.3-.37.54-.74.7-1.1l.96,1.13c-.42.69-1.01,1.29-1.79,1.81-.78.52-1.78.78-3.01.78Z"/>
      <path d="M511.83,6.02h-7.34v-1.25h7.34v1.25ZM509.53,16.58c-.61,0-1.15-.12-1.62-.37-.47-.25-.85-.61-1.13-1.08-.28-.47-.42-1.05-.42-1.74V3.14l1.58-1.18v10.99c0,.83.18,1.39.55,1.68.37.29.81.43,1.32.43s.99-.16,1.38-.48c.39-.32.69-.68.9-1.08l.53,1.54c-.26.43-.65.8-1.19,1.09s-1.17.44-1.91.44Z"/>
      <path d="M517.9,16.56c-.75,0-1.41-.15-1.98-.44-.57-.3-1.01-.74-1.33-1.34-.32-.6-.48-1.34-.48-2.22v-7.78h1.58v7.44c0,.93.23,1.66.68,2.21.46.54,1.17.82,2.15.82.85,0,1.52-.18,2.02-.54s.86-.82,1.09-1.39c.23-.57.35-1.19.35-1.86l.1.74c-.05.75-.23,1.46-.54,2.12-.31.66-.77,1.2-1.37,1.62-.6.42-1.36.62-2.27.62ZM523.54,16.32h-1.56V4.78h1.56v11.54Z"/>
      <path d="M541.59,16.32h-1.06c-.38,0-.72-.06-1.01-.19-.29-.13-.52-.34-.68-.62-.17-.29-.25-.67-.25-1.15v-5.09l-.05-.55c0-.86-.21-1.54-.64-2.02-.42-.48-1.11-.72-2.05-.72-.85,0-1.58.22-2.2.65-.62.43-1.07.98-1.36,1.63l-1.1-1.13c.24-.4.58-.8,1.03-1.2.45-.4.99-.73,1.63-1,.64-.26,1.37-.4,2.18-.4,1.34,0,2.36.37,3.05,1.1.69.74,1.03,1.75,1.03,3.05v5.4c0,.3.07.52.2.64.14.12.34.18.61.18h.65v1.42ZM534.44,16.56c-.94,0-1.67-.24-2.18-.72-.51-.48-.77-1.09-.77-1.82s.25-1.4.76-1.91,1.16-.94,1.96-1.31l4.66-2.11.19,1.08-4.15,1.99c-.64.29-1.11.59-1.4.9-.3.31-.44.68-.44,1.12,0,.48.16.84.49,1.09.33.25.78.37,1.36.37.54,0,1.04-.09,1.49-.28.45-.18.84-.43,1.18-.74.34-.31.59-.66.77-1.03.18-.38.26-.76.26-1.16l.07.86c-.1.58-.32,1.15-.68,1.72-.36.57-.84,1.04-1.43,1.4-.59.37-1.3.55-2.11.55Z"/>
      <path d="M548.19,16.56c-.77,0-1.51-.12-2.23-.36s-1.34-.6-1.86-1.08c-.52-.48-.9-1.1-1.14-1.85l1.15-.89c.14.5.39.96.74,1.39.35.43.82.78,1.39,1.04s1.24.4,1.99.4,1.4-.16,1.86-.47c.46-.31.68-.77.68-1.38,0-.58-.23-1-.7-1.28-.46-.28-1.09-.51-1.87-.68l-1.56-.38c-.54-.13-1.08-.31-1.6-.55-.52-.24-.94-.57-1.27-1s-.49-.97-.49-1.64c0-1.01.36-1.8,1.08-2.39s1.68-.88,2.88-.88,2.24.27,3.02.82c.78.54,1.32,1.22,1.61,2.04l-1.18.89c-.29-.78-.73-1.38-1.32-1.8-.59-.42-1.33-.62-2.21-.62-.71,0-1.28.16-1.73.48s-.67.78-.67,1.37.22,1.05.65,1.33c.43.28,1.06.52,1.9.71l1.56.36c1.2.32,2.06.73,2.57,1.24s.77,1.17.77,2c0,.74-.18,1.34-.55,1.81s-.86.82-1.46,1.04c-.61.22-1.28.34-2.02.34Z"/>
      <path d="M556.47,2.74h-1.58V.24h1.58v2.5ZM556.47,16.32h-1.58V4.78h1.58v11.54Z"/>
      <path d="M564.22,16.56c-.77,0-1.51-.12-2.23-.36s-1.34-.6-1.86-1.08c-.52-.48-.9-1.1-1.14-1.85l1.15-.89c.14.5.39.96.74,1.39.35.43.82.78,1.39,1.04s1.24.4,1.99.4,1.4-.16,1.86-.47c.46-.31.68-.77.68-1.38,0-.58-.23-1-.7-1.28-.46-.28-1.09-.51-1.87-.68l-1.56-.38c-.54-.13-1.08-.31-1.6-.55-.52-.24-.94-.57-1.27-1s-.49-.97-.49-1.64c0-1.01.36-1.8,1.08-2.39s1.68-.88,2.88-.88,2.24.27,3.02.82c.78.54,1.32,1.22,1.61,2.04l-1.18.89c-.29-.78-.73-1.38-1.32-1.8-.59-.42-1.33-.62-2.21-.62-.71,0-1.28.16-1.73.48s-.67.78-.67,1.37.22,1.05.65,1.33c.43.28,1.06.52,1.9.71l1.56.36c1.2.32,2.06.73,2.57,1.24s.77,1.17.77,2c0,.74-.18,1.34-.55,1.81s-.86.82-1.46,1.04c-.61.22-1.28.34-2.02.34Z"/>
      <path d="M576.72,6.02h-7.34v-1.25h7.34v1.25ZM574.42,16.58c-.61,0-1.15-.12-1.62-.37-.47-.25-.85-.61-1.13-1.08-.28-.47-.42-1.05-.42-1.74V3.14l1.58-1.18v10.99c0,.83.18,1.39.55,1.68.37.29.81.43,1.32.43s.99-.16,1.38-.48c.39-.32.69-.68.9-1.08l.53,1.54c-.26.43-.65.8-1.19,1.09s-1.17.44-1.91.44Z"/>
      <path d="M583.59,16.56c-1.07,0-2.02-.23-2.83-.7-.82-.46-1.46-1.15-1.92-2.05s-.7-1.99-.7-3.25.22-2.34.66-3.23c.44-.89,1.06-1.58,1.86-2.06.8-.49,1.71-.73,2.74-.73s1.97.23,2.74.68c.77.46,1.36,1.1,1.76,1.92.41.82.61,1.82.61,2.99,0,.16,0,.3-.01.43,0,.13-.03.25-.06.36h-9.17v-1.15h8.21l-.36.5c0-1.47-.34-2.58-1.01-3.31-.67-.74-1.58-1.1-2.71-1.1s-2.02.38-2.71,1.14c-.69.76-1.03,1.91-1.03,3.44v.24c0,1.01.16,1.85.49,2.53.33.68.79,1.19,1.39,1.52.6.34,1.28.5,2.05.5s1.43-.12,1.93-.37c.5-.25.91-.56,1.21-.92.3-.37.54-.74.7-1.1l.96,1.13c-.42.69-1.01,1.29-1.79,1.81-.78.52-1.78.78-3.01.78Z"/>
      <path d="M592.85,16.32h-1.58V4.78h1.58v11.54ZM600.68,16.32h-1.54v-7.44c0-.93-.23-1.66-.68-2.2s-1.19-.8-2.2-.8c-.8,0-1.46.18-1.97.54-.51.36-.88.82-1.1,1.39-.22.57-.34,1.19-.34,1.86l-.14-.79c.06-.75.26-1.46.58-2.12.32-.66.78-1.2,1.37-1.61.59-.41,1.33-.61,2.23-.61,1.15,0,2.07.34,2.76,1.01.69.67,1.03,1.67,1.03,3v7.78Z"/>
      <path d="M608.62,16.56c-1.09,0-2.03-.24-2.83-.72-.8-.48-1.42-1.17-1.86-2.08-.44-.9-.66-1.97-.66-3.2s.22-2.34.66-3.24c.44-.9,1.06-1.58,1.87-2.06.81-.48,1.75-.72,2.84-.72,1.42,0,2.58.38,3.46,1.14.88.76,1.43,1.71,1.66,2.87l-1.51.67c-.11-.98-.46-1.78-1.06-2.4s-1.44-.94-2.54-.94c-.75,0-1.42.18-1.99.53-.58.35-1.02.88-1.33,1.57-.31.7-.47,1.56-.47,2.58s.16,1.88.47,2.58c.31.7.76,1.22,1.33,1.57.58.35,1.24.53,1.99.53,1.09,0,1.93-.31,2.53-.94.6-.62.96-1.43,1.07-2.42l1.51.67c-.22,1.15-.78,2.11-1.67,2.87-.89.76-2.04,1.14-3.47,1.14Z"/>
      <path d="M617.98,2.74h-1.58V.24h1.58v2.5ZM617.98,16.32h-1.58V4.78h1.58v11.54Z"/>
      <path d="M630.75,16.32h-1.06c-.38,0-.72-.06-1.01-.19-.29-.13-.52-.34-.68-.62-.17-.29-.25-.67-.25-1.15v-5.09l-.05-.55c0-.86-.21-1.54-.64-2.02-.42-.48-1.11-.72-2.05-.72-.85,0-1.58.22-2.2.65-.62.43-1.07.98-1.36,1.63l-1.1-1.13c.24-.4.58-.8,1.03-1.2.45-.4.99-.73,1.63-1,.64-.26,1.37-.4,2.18-.4,1.34,0,2.36.37,3.05,1.1.69.74,1.03,1.75,1.03,3.05v5.4c0,.3.07.52.2.64.14.12.34.18.61.18h.65v1.42ZM623.6,16.56c-.94,0-1.67-.24-2.18-.72-.51-.48-.77-1.09-.77-1.82s.25-1.4.76-1.91,1.16-.94,1.96-1.31l4.66-2.11.19,1.08-4.15,1.99c-.64.29-1.11.59-1.4.9-.3.31-.44.68-.44,1.12,0,.48.16.84.49,1.09.33.25.78.37,1.36.37.54,0,1.04-.09,1.49-.28.45-.18.84-.43,1.18-.74.34-.31.59-.66.77-1.03.18-.38.26-.76.26-1.16l.07.86c-.1.58-.32,1.15-.68,1.72-.36.57-.84,1.04-1.43,1.4-.59.37-1.3.55-2.11.55Z"/>
      <path d="M648,16.32h-1.06c-.38,0-.72-.06-1.01-.19-.29-.13-.52-.34-.68-.62-.17-.29-.25-.67-.25-1.15v-5.09l-.05-.55c0-.86-.21-1.54-.64-2.02-.42-.48-1.11-.72-2.05-.72-.85,0-1.58.22-2.2.65-.62.43-1.07.98-1.36,1.63l-1.1-1.13c.24-.4.58-.8,1.03-1.2.45-.4.99-.73,1.63-1,.64-.26,1.37-.4,2.18-.4,1.34,0,2.36.37,3.05,1.1.69.74,1.03,1.75,1.03,3.05v5.4c0,.3.07.52.2.64.14.12.34.18.61.18h.65v1.42ZM640.85,16.56c-.94,0-1.67-.24-2.18-.72-.51-.48-.77-1.09-.77-1.82s.25-1.4.76-1.91,1.16-.94,1.96-1.31l4.66-2.11.19,1.08-4.15,1.99c-.64.29-1.11.59-1.4.9-.3.31-.44.68-.44,1.12,0,.48.16.84.49,1.09.33.25.78.37,1.36.37.54,0,1.04-.09,1.49-.28.45-.18.84-.43,1.18-.74.34-.31.59-.66.77-1.03.18-.38.26-.76.26-1.16l.07.86c-.1.58-.32,1.15-.68,1.72-.36.57-.84,1.04-1.43,1.4-.59.37-1.3.55-2.11.55Z"/>
      <path d="M657.43,16.32h-1.58V4.78h1.58v11.54ZM664.71,16.32h-1.56v-7.46c0-1.01-.22-1.76-.67-2.24s-1.12-.73-2.02-.73c-.67,0-1.24.18-1.69.54-.46.36-.79.82-1.01,1.39-.22.57-.32,1.19-.32,1.86l-.14-.79c.06-.75.25-1.46.56-2.12.31-.66.75-1.2,1.32-1.61.57-.41,1.26-.61,2.08-.61,1.1,0,1.96.33,2.56,1,.6.66.9,1.66.9,2.99v7.8ZM672,16.32h-1.58v-7.46c0-1.01-.22-1.76-.67-2.24-.45-.49-1.11-.73-1.99-.73-.69,0-1.26.18-1.7.54-.45.36-.78.82-1.01,1.39-.22.57-.34,1.19-.34,1.86l-.12-.79c.05-.75.23-1.46.54-2.12.31-.66.75-1.2,1.32-1.61.57-.41,1.27-.61,2.1-.61,1.1,0,1.96.33,2.56,1,.6.66.9,1.66.9,2.99v7.8Z"/>
      <path d="M676.85,2.74h-1.58V.24h1.58v2.5ZM676.85,16.32h-1.58V4.78h1.58v11.54Z"/>
      <path d="M684.6,16.56c-.77,0-1.51-.12-2.23-.36s-1.34-.6-1.86-1.08c-.52-.48-.9-1.1-1.14-1.85l1.15-.89c.14.5.39.96.74,1.39.35.43.82.78,1.39,1.04s1.24.4,1.99.4,1.4-.16,1.86-.47c.46-.31.68-.77.68-1.38,0-.58-.23-1-.7-1.28-.46-.28-1.09-.51-1.87-.68l-1.56-.38c-.54-.13-1.08-.31-1.6-.55-.52-.24-.94-.57-1.27-1s-.49-.97-.49-1.64c0-1.01.36-1.8,1.08-2.39s1.68-.88,2.88-.88,2.24.27,3.02.82c.78.54,1.32,1.22,1.61,2.04l-1.18.89c-.29-.78-.73-1.38-1.32-1.8-.59-.42-1.33-.62-2.21-.62-.71,0-1.28.16-1.73.48s-.67.78-.67,1.37.22,1.05.65,1.33c.43.28,1.06.52,1.9.71l1.56.36c1.2.32,2.06.73,2.57,1.24s.77,1.17.77,2c0,.74-.18,1.34-.55,1.81s-.86.82-1.46,1.04c-.61.22-1.28.34-2.02.34Z"/>
      <path d="M700.13,16.32h-1.54V2.81h-2.9v-1.13c.56,0,1.04-.04,1.45-.12s.74-.23,1.01-.44c.26-.22.48-.51.66-.88h1.32v16.08Z"/>
      <path d="M710.02,16.56c-.93,0-1.77-.16-2.53-.48-.76-.32-1.4-.75-1.92-1.28-.52-.54-.92-1.14-1.19-1.81l1.25-1.3c.19.64.49,1.22.9,1.73.41.51.91.92,1.5,1.21.59.3,1.27.44,2.04.44,1.23,0,2.16-.34,2.8-1.02.63-.68.95-1.61.95-2.8,0-.96-.19-1.73-.56-2.32s-.86-1-1.44-1.26c-.58-.26-1.2-.38-1.84-.38-1.01,0-1.82.2-2.42.59-.61.39-.97.88-1.08,1.48l-.05.29-1.54-.17.65-9.24h8.71v1.49h-7.15l-.58,6.7c.27-.69.74-1.27,1.4-1.74.66-.47,1.54-.71,2.63-.71s2,.22,2.72.67c.73.45,1.28,1.07,1.64,1.87.37.8.55,1.7.55,2.71,0,1.09-.22,2.04-.66,2.84-.44.81-1.06,1.42-1.86,1.85-.8.42-1.78.64-2.93.64Z"/>
      <path d="M733.15,16.32h-1.06c-.38,0-.72-.06-1.01-.19-.29-.13-.52-.34-.68-.62-.17-.29-.25-.67-.25-1.15v-5.09l-.05-.55c0-.86-.21-1.54-.64-2.02-.42-.48-1.11-.72-2.05-.72-.85,0-1.58.22-2.2.65-.62.43-1.07.98-1.36,1.63l-1.1-1.13c.24-.4.58-.8,1.03-1.2.45-.4.99-.73,1.63-1,.64-.26,1.37-.4,2.18-.4,1.34,0,2.36.37,3.05,1.1.69.74,1.03,1.75,1.03,3.05v5.4c0,.3.07.52.2.64.14.12.34.18.61.18h.65v1.42ZM726,16.56c-.94,0-1.67-.24-2.18-.72-.51-.48-.77-1.09-.77-1.82s.25-1.4.76-1.91,1.16-.94,1.96-1.31l4.66-2.11.19,1.08-4.15,1.99c-.64.29-1.11.59-1.4.9-.3.31-.44.68-.44,1.12,0,.48.16.84.49,1.09.33.25.78.37,1.36.37.54,0,1.04-.09,1.49-.28.45-.18.84-.43,1.18-.74.34-.31.59-.66.77-1.03.18-.38.26-.76.26-1.16l.07.86c-.1.58-.32,1.15-.68,1.72-.36.57-.84,1.04-1.43,1.4-.59.37-1.3.55-2.11.55Z"/>
      <path d="M737.3,16.32h-1.58V4.78h1.58v11.54ZM745.13,16.32h-1.54v-7.44c0-.93-.23-1.66-.68-2.2s-1.19-.8-2.2-.8c-.8,0-1.46.18-1.97.54-.51.36-.88.82-1.1,1.39-.22.57-.34,1.19-.34,1.86l-.14-.79c.06-.75.26-1.46.58-2.12.32-.66.78-1.2,1.37-1.61.59-.41,1.33-.61,2.23-.61,1.15,0,2.07.34,2.76,1.01.69.67,1.03,1.67,1.03,3v7.78ZM739.25,3.24h-1.13c-.14-.22-.25-.45-.32-.68-.07-.23-.11-.46-.11-.68,0-.45.12-.79.36-1.02s.56-.35.96-.35.72.11,1,.32.54.44.78.66c.18.19.36.36.54.5.18.14.38.22.59.22.11,0,.2-.04.28-.12.07-.08.11-.18.11-.31,0-.14-.05-.32-.14-.53-.1-.21-.25-.45-.46-.72h1.08c.16.22.28.46.35.71s.11.48.11.71c0,.4-.11.72-.32.96-.22.24-.5.36-.85.36-.38,0-.73-.11-1.04-.32-.31-.22-.6-.45-.85-.71-.19-.18-.38-.34-.56-.48-.18-.14-.36-.22-.54-.22-.11,0-.21.04-.29.12-.08.08-.12.18-.12.31,0,.18.04.37.13.58.09.21.24.44.47.7Z"/>
      <path d="M752.97,16.56c-1.04,0-1.97-.25-2.78-.74-.82-.5-1.45-1.2-1.91-2.1-.46-.9-.68-1.96-.68-3.16s.23-2.3.68-3.19c.46-.9,1.09-1.59,1.91-2.09.82-.5,1.74-.74,2.78-.74s2.01.25,2.81.74,1.44,1.19,1.91,2.09c.47.9.71,1.96.71,3.19s-.24,2.25-.71,3.16c-.47.9-1.11,1.6-1.91,2.1s-1.74.74-2.81.74ZM752.97,15.22c.77,0,1.44-.18,2.02-.53s1.02-.88,1.33-1.57c.31-.7.47-1.55.47-2.56s-.16-1.88-.47-2.58c-.31-.7-.76-1.22-1.33-1.57-.58-.35-1.25-.53-2.02-.53s-1.41.18-1.98.53c-.57.35-1.01.88-1.33,1.57s-.48,1.56-.48,2.58.16,1.86.48,2.56.76,1.22,1.33,1.57c.57.35,1.23.53,1.98.53Z"/>
      <path d="M765.36,16.56c-.77,0-1.51-.12-2.23-.36s-1.34-.6-1.86-1.08c-.52-.48-.9-1.1-1.14-1.85l1.15-.89c.14.5.39.96.74,1.39.35.43.82.78,1.39,1.04s1.24.4,1.99.4,1.4-.16,1.86-.47c.46-.31.68-.77.68-1.38,0-.58-.23-1-.7-1.28-.46-.28-1.09-.51-1.87-.68l-1.56-.38c-.54-.13-1.08-.31-1.6-.55-.52-.24-.94-.57-1.27-1s-.49-.97-.49-1.64c0-1.01.36-1.8,1.08-2.39s1.68-.88,2.88-.88,2.24.27,3.02.82c.78.54,1.32,1.22,1.61,2.04l-1.18.89c-.29-.78-.73-1.38-1.32-1.8-.59-.42-1.33-.62-2.21-.62-.71,0-1.28.16-1.73.48s-.67.78-.67,1.37.22,1.05.65,1.33c.43.28,1.06.52,1.9.71l1.56.36c1.2.32,2.06.73,2.57,1.24s.77,1.17.77,2c0,.74-.18,1.34-.55,1.81s-.86.82-1.46,1.04c-.61.22-1.28.34-2.02.34Z"/>
      <path d="M771.96,18.36l-.34-.86c.3-.05.54-.12.7-.23.16-.1.24-.32.24-.64v-.31h-.84v-2.83h1.85v2.9c0,.59-.11,1.05-.34,1.37-.22.32-.65.52-1.27.6Z"/>
      <path d="M786.48,16.56c-1.09,0-2.03-.24-2.83-.72-.8-.48-1.42-1.17-1.86-2.08-.44-.9-.66-1.97-.66-3.2s.22-2.34.66-3.24c.44-.9,1.06-1.58,1.87-2.06.81-.48,1.75-.72,2.84-.72,1.42,0,2.58.38,3.46,1.14.88.76,1.43,1.71,1.66,2.87l-1.51.67c-.11-.98-.46-1.78-1.06-2.4s-1.44-.94-2.54-.94c-.75,0-1.42.18-1.99.53-.58.35-1.02.88-1.33,1.57-.31.7-.47,1.56-.47,2.58s.16,1.88.47,2.58c.31.7.76,1.22,1.33,1.57.58.35,1.24.53,1.99.53,1.09,0,1.93-.31,2.53-.94.6-.62.96-1.43,1.07-2.42l1.51.67c-.22,1.15-.78,2.11-1.67,2.87-.89.76-2.04,1.14-3.47,1.14Z"/>
      <path d="M798.79,16.56c-1.04,0-1.97-.25-2.78-.74-.82-.5-1.45-1.2-1.91-2.1-.46-.9-.68-1.96-.68-3.16s.23-2.3.68-3.19c.46-.9,1.09-1.59,1.91-2.09.82-.5,1.74-.74,2.78-.74s2.01.25,2.81.74,1.44,1.19,1.91,2.09c.47.9.71,1.96.71,3.19s-.24,2.25-.71,3.16c-.47.9-1.11,1.6-1.91,2.1s-1.74.74-2.81.74ZM798.79,15.22c.77,0,1.44-.18,2.02-.53s1.02-.88,1.33-1.57c.31-.7.47-1.55.47-2.56s-.16-1.88-.47-2.58c-.31-.7-.76-1.22-1.33-1.57-.58-.35-1.25-.53-2.02-.53s-1.41.18-1.98.53c-.57.35-1.01.88-1.33,1.57s-.48,1.56-.48,2.58.16,1.86.48,2.56.76,1.22,1.33,1.57c.57.35,1.23.53,1.98.53Z"/>
      <path d="M808.53,16.32h-1.58V4.78h1.58v11.54ZM816.36,16.32h-1.54v-7.44c0-.93-.23-1.66-.68-2.2s-1.19-.8-2.2-.8c-.8,0-1.46.18-1.97.54-.51.36-.88.82-1.1,1.39-.22.57-.34,1.19-.34,1.86l-.14-.79c.06-.75.26-1.46.58-2.12.32-.66.78-1.2,1.37-1.61.59-.41,1.33-.61,2.23-.61,1.15,0,2.07.34,2.76,1.01.69.67,1.03,1.67,1.03,3v7.78Z"/>
      <path d="M10.39,45.12h-1.06c-.38,0-.72-.06-1.01-.19-.29-.13-.52-.34-.68-.62-.17-.29-.25-.67-.25-1.15v-5.09l-.05-.55c0-.86-.21-1.54-.64-2.02-.42-.48-1.11-.72-2.05-.72-.85,0-1.58.22-2.2.65-.62.43-1.07.98-1.36,1.63l-1.1-1.13c.24-.4.58-.8,1.03-1.2.45-.4.99-.73,1.63-1,.64-.26,1.37-.4,2.18-.4,1.34,0,2.36.37,3.05,1.1.69.74,1.03,1.75,1.03,3.05v5.4c0,.3.07.52.2.64s.34.18.61.18h.65v1.42ZM3.24,45.36c-.94,0-1.67-.24-2.18-.72-.51-.48-.77-1.09-.77-1.82s.25-1.4.76-1.91,1.16-.94,1.96-1.31l4.66-2.11.19,1.08-4.15,1.99c-.64.29-1.11.59-1.4.9-.3.31-.44.68-.44,1.12,0,.48.16.84.49,1.09s.78.37,1.36.37c.54,0,1.04-.09,1.49-.28.45-.18.84-.43,1.18-.74.34-.31.59-.66.77-1.03s.26-.76.26-1.16l.07.86c-.1.58-.32,1.15-.68,1.72-.36.57-.84,1.04-1.43,1.4-.59.37-1.3.55-2.11.55Z"/>
      <path d="M14.54,45.12h-1.58v-11.54h1.58v11.54ZM22.37,45.12h-1.54v-7.44c0-.93-.23-1.66-.68-2.2s-1.19-.8-2.2-.8c-.8,0-1.46.18-1.97.54-.51.36-.88.82-1.1,1.39-.22.57-.34,1.19-.34,1.86l-.14-.79c.06-.75.26-1.46.58-2.12.32-.66.78-1.2,1.37-1.61.59-.41,1.34-.61,2.23-.61,1.15,0,2.07.34,2.76,1.01.69.67,1.03,1.67,1.03,3v7.78Z"/>
      <path d="M31.39,34.82h-7.34v-1.25h7.34v1.25ZM29.09,45.38c-.61,0-1.15-.12-1.62-.37-.47-.25-.85-.61-1.13-1.08-.28-.47-.42-1.05-.42-1.74v-10.25l1.58-1.18v10.99c0,.83.18,1.39.55,1.68s.81.43,1.32.43.99-.16,1.38-.48c.39-.32.69-.68.9-1.08l.53,1.54c-.26.43-.65.8-1.19,1.09s-1.17.44-1.91.44Z"/>
      <path d="M35.9,31.54h-1.58v-2.5h1.58v2.5ZM35.9,45.12h-1.58v-11.54h1.58v11.54Z"/>
      <path d="M43.97,45.36c-1.09,0-2.03-.24-2.83-.72-.8-.48-1.42-1.17-1.86-2.08-.44-.9-.66-1.97-.66-3.2s.22-2.34.66-3.24c.44-.9,1.06-1.58,1.87-2.06.81-.48,1.76-.72,2.84-.72,1.42,0,2.58.38,3.46,1.14s1.43,1.72,1.66,2.87l-1.51.67c-.11-.98-.46-1.78-1.06-2.4s-1.44-.94-2.54-.94c-.75,0-1.42.18-1.99.53-.58.35-1.02.88-1.33,1.57-.31.7-.47,1.56-.47,2.58s.16,1.88.47,2.58c.31.7.76,1.22,1.33,1.57.58.35,1.24.53,1.99.53,1.09,0,1.93-.31,2.53-.94.6-.62.96-1.43,1.07-2.42l1.51.67c-.22,1.15-.78,2.11-1.67,2.87-.89.76-2.04,1.14-3.47,1.14Z"/>
      <path d="M53.33,31.54h-1.58v-2.5h1.58v2.5ZM53.33,45.12h-1.58v-11.54h1.58v11.54Z"/>
      <path d="M58.27,49.58h-1.58v-16.01h1.58v16.01ZM62.09,45.36c-.83,0-1.54-.2-2.11-.6-.58-.4-1.01-.92-1.31-1.55-.3-.63-.48-1.3-.54-2l.14-.79c0,.64.12,1.23.35,1.78.23.54.6.99,1.1,1.33.5.34,1.14.52,1.91.52,1.04,0,1.91-.38,2.62-1.14s1.06-1.94,1.06-3.54-.35-2.83-1.06-3.59-1.58-1.14-2.62-1.14c-.77,0-1.4.17-1.91.52-.5.34-.87.79-1.1,1.33-.23.54-.35,1.14-.35,1.78l-.14-.79c.06-.7.25-1.38.55-2.02s.74-1.16,1.3-1.55c.56-.39,1.27-.59,2.14-.59,1.01,0,1.86.25,2.57.74.7.5,1.25,1.2,1.64,2.1.39.9.59,1.97.59,3.2s-.19,2.23-.58,3.14-.93,1.62-1.64,2.11c-.71.5-1.58.74-2.6.74Z"/>
      <path d="M79.08,45.12h-1.06c-.38,0-.72-.06-1.01-.19-.29-.13-.52-.34-.68-.62-.17-.29-.25-.67-.25-1.15v-5.09l-.05-.55c0-.86-.21-1.54-.64-2.02-.42-.48-1.11-.72-2.05-.72-.85,0-1.58.22-2.2.65-.62.43-1.07.98-1.36,1.63l-1.1-1.13c.24-.4.58-.8,1.03-1.2.45-.4.99-.73,1.63-1,.64-.26,1.37-.4,2.18-.4,1.34,0,2.36.37,3.05,1.1.69.74,1.03,1.75,1.03,3.05v5.4c0,.3.07.52.2.64s.34.18.61.18h.65v1.42ZM71.93,45.36c-.94,0-1.67-.24-2.18-.72-.51-.48-.77-1.09-.77-1.82s.25-1.4.76-1.91,1.16-.94,1.96-1.31l4.66-2.11.19,1.08-4.15,1.99c-.64.29-1.11.59-1.4.9-.3.31-.44.68-.44,1.12,0,.48.16.84.49,1.09s.78.37,1.36.37c.54,0,1.04-.09,1.49-.28.45-.18.84-.43,1.18-.74.34-.31.59-.66.77-1.03s.26-.76.26-1.16l.07.86c-.1.58-.32,1.15-.68,1.72-.36.57-.84,1.04-1.43,1.4-.59.37-1.3.55-2.11.55Z"/>
      <path d="M86.3,45.36c-1.09,0-2.03-.24-2.83-.72-.8-.48-1.42-1.17-1.86-2.08-.44-.9-.66-1.97-.66-3.2s.22-2.34.66-3.24c.44-.9,1.06-1.58,1.87-2.06.81-.48,1.76-.72,2.84-.72,1.42,0,2.58.38,3.46,1.14s1.43,1.72,1.66,2.87l-1.51.67c-.11-.98-.46-1.78-1.06-2.4s-1.44-.94-2.54-.94c-.75,0-1.42.18-1.99.53-.58.35-1.02.88-1.33,1.57-.31.7-.47,1.56-.47,2.58s.16,1.88.47,2.58c.31.7.76,1.22,1.33,1.57.58.35,1.24.53,1.99.53,1.09,0,1.93-.31,2.53-.94.6-.62.96-1.43,1.07-2.42l1.51.67c-.22,1.15-.78,2.11-1.67,2.87-.89.76-2.04,1.14-3.47,1.14Z"/>
      <path d="M95.66,31.54h-1.58v-2.5h1.58v2.5ZM95.66,45.12h-1.58v-11.54h1.58v11.54Z"/>
      <path d="M103.63,45.36c-1.04,0-1.97-.25-2.78-.74-.82-.5-1.45-1.2-1.91-2.1-.46-.9-.68-1.96-.68-3.16s.23-2.3.68-3.19c.46-.9,1.09-1.59,1.91-2.09.82-.5,1.74-.74,2.78-.74s2.01.25,2.81.74c.8.5,1.44,1.19,1.91,2.09.47.9.71,1.96.71,3.19s-.24,2.25-.71,3.16c-.47.9-1.11,1.6-1.91,2.1-.8.5-1.74.74-2.81.74ZM103.63,44.02c.77,0,1.44-.18,2.02-.53.58-.35,1.02-.88,1.33-1.57.31-.7.47-1.55.47-2.56s-.16-1.88-.47-2.58c-.31-.7-.76-1.22-1.33-1.57-.58-.35-1.25-.53-2.02-.53s-1.41.18-1.98.53c-.57.35-1.01.88-1.33,1.57-.32.7-.48,1.56-.48,2.58s.16,1.86.48,2.56c.32.7.76,1.22,1.33,1.57.57.35,1.23.53,1.98.53ZM104.35,31.99h-1.51l2.14-2.83h2.09l-2.71,2.83Z"/>
      <path d="M113.37,45.12h-1.58v-11.54h1.58v11.54ZM121.2,45.12h-1.54v-7.44c0-.93-.23-1.66-.68-2.2s-1.19-.8-2.2-.8c-.8,0-1.46.18-1.97.54-.51.36-.88.82-1.1,1.39s-.34,1.19-.34,1.86l-.14-.79c.06-.75.26-1.46.58-2.12.32-.66.78-1.2,1.37-1.61s1.34-.61,2.23-.61c1.15,0,2.07.34,2.76,1.01.69.67,1.03,1.67,1.03,3v7.78Z"/>
      <path d="M131.35,49.58h-1.58v-16.01h1.58v16.01ZM135.17,45.36c-.83,0-1.54-.2-2.11-.6-.58-.4-1.01-.92-1.31-1.55-.3-.63-.48-1.3-.54-2l.14-.79c0,.64.12,1.23.35,1.78.23.54.6.99,1.1,1.33s1.14.52,1.91.52c1.04,0,1.91-.38,2.62-1.14.7-.76,1.06-1.94,1.06-3.54s-.35-2.83-1.06-3.59c-.71-.76-1.58-1.14-2.62-1.14-.77,0-1.4.17-1.91.52s-.87.79-1.1,1.33c-.23.54-.35,1.14-.35,1.78l-.14-.79c.06-.7.25-1.38.55-2.02.3-.64.74-1.16,1.3-1.55.56-.39,1.27-.59,2.14-.59,1.01,0,1.86.25,2.57.74.7.5,1.25,1.2,1.64,2.1.39.9.59,1.97.59,3.2s-.19,2.23-.58,3.14c-.38.91-.93,1.62-1.64,2.11s-1.58.74-2.6.74Z"/>
      <path d="M152.16,45.12h-1.06c-.38,0-.72-.06-1.01-.19-.29-.13-.52-.34-.68-.62-.17-.29-.25-.67-.25-1.15v-5.09l-.05-.55c0-.86-.21-1.54-.64-2.02-.42-.48-1.11-.72-2.05-.72-.85,0-1.58.22-2.2.65-.62.43-1.07.98-1.36,1.63l-1.1-1.13c.24-.4.58-.8,1.03-1.2.45-.4.99-.73,1.63-1,.64-.26,1.37-.4,2.18-.4,1.34,0,2.36.37,3.05,1.1.69.74,1.03,1.75,1.03,3.05v5.4c0,.3.07.52.2.64s.34.18.61.18h.65v1.42ZM145,45.36c-.94,0-1.67-.24-2.18-.72-.51-.48-.77-1.09-.77-1.82s.25-1.4.76-1.91,1.16-.94,1.96-1.31l4.66-2.11.19,1.08-4.15,1.99c-.64.29-1.11.59-1.4.9-.3.31-.44.68-.44,1.12,0,.48.16.84.49,1.09s.78.37,1.36.37c.54,0,1.04-.09,1.49-.28.45-.18.84-.43,1.18-.74.34-.31.59-.66.77-1.03s.26-.76.26-1.16l.07.86c-.1.58-.32,1.15-.68,1.72-.36.57-.84,1.04-1.43,1.4-.59.37-1.3.55-2.11.55Z"/>
      <path d="M156.31,45.12h-1.58v-11.54h1.58v11.54ZM156.31,38.47l-.14-.79c.05-.54.16-1.08.35-1.6.18-.52.44-.99.76-1.4.32-.42.71-.74,1.16-.98s.97-.36,1.55-.36c.67,0,1.25.21,1.73.62.48.42.72,1.02.72,1.82,0,.43-.04.82-.13,1.18-.09.35-.2.62-.32.79h-1.68c.18-.19.32-.45.43-.78.11-.33.17-.67.17-1.02s-.11-.68-.34-.98c-.22-.3-.6-.46-1.13-.46-.58,0-1.1.19-1.58.58-.48.38-.86.88-1.13,1.48-.27.6-.41,1.24-.41,1.91Z"/>
      <path d="M173.83,45.12h-1.06c-.38,0-.72-.06-1.01-.19-.29-.13-.52-.34-.68-.62-.17-.29-.25-.67-.25-1.15v-5.09l-.05-.55c0-.86-.21-1.54-.64-2.02-.42-.48-1.11-.72-2.05-.72-.85,0-1.58.22-2.2.65-.62.43-1.07.98-1.36,1.63l-1.1-1.13c.24-.4.58-.8,1.03-1.2.45-.4.99-.73,1.63-1,.64-.26,1.37-.4,2.18-.4,1.34,0,2.36.37,3.05,1.1.69.74,1.03,1.75,1.03,3.05v5.4c0,.3.07.52.2.64s.34.18.61.18h.65v1.42ZM166.68,45.36c-.94,0-1.67-.24-2.18-.72-.51-.48-.77-1.09-.77-1.82s.25-1.4.76-1.91,1.16-.94,1.96-1.31l4.66-2.11.19,1.08-4.15,1.99c-.64.29-1.11.59-1.4.9-.3.31-.44.68-.44,1.12,0,.48.16.84.49,1.09s.78.37,1.36.37c.54,0,1.04-.09,1.49-.28.45-.18.84-.43,1.18-.74.34-.31.59-.66.77-1.03s.26-.76.26-1.16l.07.86c-.1.58-.32,1.15-.68,1.72-.36.57-.84,1.04-1.43,1.4-.59.37-1.3.55-2.11.55Z"/>
      <path d="M183.26,49.58h-1.58v-16.01h1.58v16.01ZM187.08,45.36c-.83,0-1.54-.2-2.11-.6-.58-.4-1.01-.92-1.31-1.55-.3-.63-.48-1.3-.54-2l.14-.79c0,.64.12,1.23.35,1.78.23.54.6.99,1.1,1.33.5.34,1.14.52,1.91.52,1.04,0,1.91-.38,2.62-1.14s1.06-1.94,1.06-3.54-.35-2.83-1.06-3.59-1.58-1.14-2.62-1.14c-.77,0-1.4.17-1.91.52-.5.34-.87.79-1.1,1.33-.23.54-.35,1.14-.35,1.78l-.14-.79c.06-.7.25-1.38.55-2.02s.74-1.16,1.3-1.55c.56-.39,1.27-.59,2.14-.59,1.01,0,1.86.25,2.57.74.7.5,1.25,1.2,1.64,2.1.39.9.59,1.97.59,3.2s-.19,2.23-.58,3.14-.93,1.62-1.64,2.11c-.71.5-1.58.74-2.6.74Z"/>
      <path d="M199.39,45.36c-1.04,0-1.97-.25-2.78-.74-.82-.5-1.45-1.2-1.91-2.1-.46-.9-.68-1.96-.68-3.16s.23-2.3.68-3.19c.46-.9,1.09-1.59,1.91-2.09.82-.5,1.74-.74,2.78-.74s2.01.25,2.81.74c.8.5,1.44,1.19,1.91,2.09.47.9.71,1.96.71,3.19s-.24,2.25-.71,3.16c-.47.9-1.11,1.6-1.91,2.1-.8.5-1.74.74-2.81.74ZM199.39,44.02c.77,0,1.44-.18,2.02-.53.58-.35,1.02-.88,1.33-1.57.31-.7.47-1.55.47-2.56s-.16-1.88-.47-2.58c-.31-.7-.76-1.22-1.33-1.57-.58-.35-1.25-.53-2.02-.53s-1.41.18-1.98.53c-.57.35-1.01.88-1.33,1.57-.32.7-.48,1.56-.48,2.58s.16,1.86.48,2.56c.32.7.76,1.22,1.33,1.57.57.35,1.23.53,1.98.53Z"/>
      <path d="M211.92,45.38c-.99,0-1.85-.25-2.57-.74-.72-.5-1.27-1.2-1.64-2.1-.38-.9-.56-1.96-.56-3.16s.19-2.3.56-3.19c.38-.9.93-1.6,1.66-2.1.73-.5,1.59-.76,2.58-.76.85,0,1.56.2,2.12.59.57.39,1,.91,1.3,1.55.3.64.47,1.31.52,2.02l-.1.82c0-.64-.12-1.23-.36-1.78-.24-.54-.61-.99-1.1-1.33s-1.13-.52-1.9-.52c-1.06,0-1.94.38-2.64,1.13s-1.06,1.94-1.06,3.58.36,2.78,1.07,3.54c.71.76,1.58,1.14,2.6,1.14.77,0,1.4-.17,1.91-.52.5-.34.88-.79,1.12-1.33.24-.54.36-1.14.36-1.78l.1.79c-.05.7-.22,1.37-.53,2s-.74,1.15-1.3,1.55c-.56.4-1.27.6-2.14.6ZM217.34,45.12h-1.56v-16.08h1.56v16.08Z"/>
      <path d="M225.52,45.36c-1.07,0-2.02-.23-2.83-.7-.82-.46-1.46-1.15-1.92-2.05-.46-.9-.7-1.99-.7-3.25s.22-2.34.66-3.23c.44-.89,1.06-1.58,1.86-2.06.8-.49,1.71-.73,2.74-.73s1.97.23,2.74.68c.77.46,1.36,1.1,1.76,1.92s.61,1.82.61,2.99c0,.16,0,.3-.01.43,0,.13-.03.25-.06.36h-9.17v-1.15h8.21l-.36.5c0-1.47-.34-2.58-1.01-3.31-.67-.74-1.58-1.1-2.71-1.1s-2.02.38-2.71,1.14c-.69.76-1.03,1.91-1.03,3.44v.24c0,1.01.16,1.85.49,2.53.33.68.79,1.19,1.39,1.52.6.34,1.28.5,2.05.5s1.43-.12,1.93-.37.91-.56,1.21-.92.54-.74.7-1.1l.96,1.13c-.42.69-1.01,1.29-1.79,1.81-.78.52-1.78.78-3.01.78Z"/>
      <path d="M234.79,45.12h-1.58v-11.54h1.58v11.54ZM234.79,38.47l-.14-.79c.05-.54.16-1.08.35-1.6.18-.52.44-.99.76-1.4.32-.42.71-.74,1.16-.98s.97-.36,1.55-.36c.67,0,1.25.21,1.73.62.48.42.72,1.02.72,1.82,0,.43-.04.82-.13,1.18-.09.35-.2.62-.32.79h-1.68c.18-.19.32-.45.43-.78.11-.33.17-.67.17-1.02s-.11-.68-.34-.98c-.22-.3-.6-.46-1.13-.46-.58,0-1.1.19-1.58.58-.48.38-.86.88-1.13,1.48-.27.6-.41,1.24-.41,1.91Z"/>
      <path d="M249.93,45.12h-1.58v-11.54h1.58v11.54ZM249.93,38.47l-.14-.79c.05-.54.16-1.08.35-1.6.18-.52.44-.99.76-1.4.32-.42.71-.74,1.16-.98s.97-.36,1.55-.36c.67,0,1.25.21,1.73.62.48.42.72,1.02.72,1.82,0,.43-.04.82-.13,1.18-.09.35-.2.62-.32.79h-1.68c.18-.19.32-.45.43-.78.11-.33.17-.67.17-1.02s-.11-.68-.34-.98c-.22-.3-.6-.46-1.13-.46-.58,0-1.1.19-1.58.58-.48.38-.86.88-1.13,1.48-.27.6-.41,1.24-.41,1.91Z"/>
      <path d="M262.65,45.36c-1.07,0-2.02-.23-2.83-.7-.82-.46-1.46-1.15-1.92-2.05s-.7-1.99-.7-3.25.22-2.34.66-3.23c.44-.89,1.06-1.58,1.86-2.06s1.71-.73,2.74-.73,1.97.23,2.74.68c.77.46,1.36,1.1,1.76,1.92s.61,1.82.61,2.99c0,.16,0,.3-.01.43s-.03.25-.06.36h-9.17v-1.15h8.21l-.36.5c0-1.47-.34-2.58-1.01-3.31-.67-.74-1.58-1.1-2.71-1.1s-2.02.38-2.71,1.14c-.69.76-1.03,1.91-1.03,3.44v.24c0,1.01.16,1.85.49,2.53.33.68.79,1.19,1.39,1.52s1.28.5,2.05.5,1.43-.12,1.93-.37.91-.56,1.21-.92c.3-.37.54-.74.7-1.1l.96,1.13c-.42.69-1.01,1.29-1.79,1.81-.78.52-1.78.78-3.01.78Z"/>
      <path d="M274.55,45.36c-.77,0-1.51-.12-2.23-.36-.72-.24-1.34-.6-1.86-1.08-.52-.48-.9-1.1-1.14-1.85l1.15-.89c.14.5.39.96.74,1.39.35.43.82.78,1.39,1.04s1.24.4,1.99.4,1.4-.16,1.86-.47c.46-.31.68-.77.68-1.38,0-.58-.23-1-.7-1.28-.46-.28-1.09-.51-1.87-.68l-1.56-.38c-.54-.13-1.08-.31-1.6-.55-.52-.24-.94-.57-1.27-1s-.49-.97-.49-1.64c0-1.01.36-1.8,1.08-2.39.72-.58,1.68-.88,2.88-.88s2.24.27,3.02.82c.78.54,1.32,1.22,1.61,2.04l-1.18.89c-.29-.78-.73-1.38-1.32-1.8-.59-.42-1.33-.62-2.21-.62-.7,0-1.28.16-1.73.48s-.67.78-.67,1.37.22,1.05.65,1.33c.43.28,1.06.52,1.9.71l1.56.36c1.2.32,2.06.73,2.57,1.24s.77,1.17.77,2c0,.74-.18,1.34-.55,1.81s-.86.82-1.46,1.04c-.61.22-1.28.34-2.02.34Z"/>
      <path d="M285.81,45.36c-1.07,0-2.02-.23-2.83-.7-.82-.46-1.46-1.15-1.92-2.05s-.7-1.99-.7-3.25.22-2.34.66-3.23c.44-.89,1.06-1.58,1.86-2.06s1.71-.73,2.74-.73,1.97.23,2.74.68c.77.46,1.36,1.1,1.76,1.92s.61,1.82.61,2.99c0,.16,0,.3-.01.43s-.03.25-.06.36h-9.17v-1.15h8.21l-.36.5c0-1.47-.34-2.58-1.01-3.31-.67-.74-1.58-1.1-2.71-1.1s-2.02.38-2.71,1.14c-.69.76-1.03,1.91-1.03,3.44v.24c0,1.01.16,1.85.49,2.53.33.68.79,1.19,1.39,1.52s1.28.5,2.05.5,1.43-.12,1.93-.37.91-.56,1.21-.92c.3-.37.54-.74.7-1.1l.96,1.13c-.42.69-1.01,1.29-1.79,1.81-.78.52-1.78.78-3.01.78Z"/>
      <path d="M295.08,45.12h-1.58v-11.54h1.58v11.54ZM295.08,38.47l-.14-.79c.05-.54.16-1.08.35-1.6.18-.52.44-.99.76-1.4.32-.42.71-.74,1.16-.98s.97-.36,1.55-.36c.67,0,1.25.21,1.73.62.48.42.72,1.02.72,1.82,0,.43-.04.82-.13,1.18-.09.35-.2.62-.32.79h-1.68c.18-.19.32-.45.43-.78.11-.33.17-.67.17-1.02s-.11-.68-.34-.98c-.22-.3-.6-.46-1.13-.46-.58,0-1.1.19-1.58.58-.48.38-.86.88-1.13,1.48-.27.6-.41,1.24-.41,1.91Z"/>
      <path d="M308.06,45.12h-1.97l-4.34-11.54h1.73l2.5,7.03,1.15,3.31,1.1-3.31,2.5-7.03h1.68l-4.34,11.54Z"/>
      <path d="M323.56,45.12h-1.06c-.38,0-.72-.06-1.01-.19-.29-.13-.52-.34-.68-.62-.17-.29-.25-.67-.25-1.15v-5.09l-.05-.55c0-.86-.21-1.54-.64-2.02-.42-.48-1.11-.72-2.05-.72-.85,0-1.58.22-2.2.65-.62.43-1.07.98-1.36,1.63l-1.1-1.13c.24-.4.58-.8,1.03-1.2.45-.4.99-.73,1.63-1,.64-.26,1.37-.4,2.18-.4,1.34,0,2.36.37,3.05,1.1.69.74,1.03,1.75,1.03,3.05v5.4c0,.3.07.52.2.64s.34.18.61.18h.65v1.42ZM316.41,45.36c-.94,0-1.67-.24-2.18-.72-.51-.48-.77-1.09-.77-1.82s.25-1.4.76-1.91,1.16-.94,1.96-1.31l4.66-2.11.19,1.08-4.15,1.99c-.64.29-1.11.59-1.4.9-.3.31-.44.68-.44,1.12,0,.48.16.84.49,1.09s.78.37,1.36.37c.54,0,1.04-.09,1.49-.28.45-.18.84-.43,1.18-.74.34-.31.59-.66.77-1.03s.26-.76.26-1.16l.07.86c-.1.58-.32,1.15-.68,1.72-.36.57-.84,1.04-1.43,1.4-.59.37-1.3.55-2.11.55Z"/>
      <path d="M327.71,45.12h-1.58v-11.54h1.58v11.54ZM327.71,38.47l-.14-.79c.05-.54.16-1.08.35-1.6.18-.52.44-.99.76-1.4.32-.42.71-.74,1.16-.98s.97-.36,1.55-.36c.67,0,1.25.21,1.73.62.48.42.72,1.02.72,1.82,0,.43-.04.82-.13,1.18-.09.35-.2.62-.32.79h-1.68c.18-.19.32-.45.43-.78.11-.33.17-.67.17-1.02s-.11-.68-.34-.98c-.22-.3-.6-.46-1.13-.46-.58,0-1.1.19-1.58.58-.48.38-.86.88-1.13,1.48-.27.6-.41,1.24-.41,1.91Z"/>
      <path d="M347.37,34.82h-7.34v-1.25h7.34v1.25ZM345.07,45.38c-.61,0-1.15-.12-1.62-.37-.47-.25-.85-.61-1.13-1.08-.28-.47-.42-1.05-.42-1.74v-10.25l1.58-1.18v10.99c0,.83.18,1.39.55,1.68s.81.43,1.32.43.99-.16,1.38-.48c.39-.32.69-.68.9-1.08l.53,1.54c-.26.43-.65.8-1.19,1.09s-1.17.44-1.91.44Z"/>
      <path d="M353.44,45.36c-.75,0-1.41-.15-1.98-.44-.57-.3-1.01-.74-1.33-1.34-.32-.6-.48-1.34-.48-2.22v-7.78h1.58v7.44c0,.93.23,1.66.68,2.21.46.54,1.17.82,2.15.82.85,0,1.52-.18,2.02-.54.5-.36.86-.82,1.09-1.39.23-.57.35-1.19.35-1.86l.1.74c-.05.75-.23,1.46-.54,2.12-.31.66-.77,1.2-1.37,1.62-.6.42-1.36.62-2.27.62ZM359.08,45.12h-1.56v-11.54h1.56v11.54Z"/>
      <path d="M366.47,45.36c-.77,0-1.51-.12-2.23-.36-.72-.24-1.34-.6-1.86-1.08-.52-.48-.9-1.1-1.14-1.85l1.15-.89c.14.5.39.96.74,1.39.35.43.82.78,1.39,1.04s1.24.4,1.99.4,1.4-.16,1.86-.47c.46-.31.68-.77.68-1.38,0-.58-.23-1-.7-1.28-.46-.28-1.09-.51-1.87-.68l-1.56-.38c-.54-.13-1.08-.31-1.6-.55-.52-.24-.94-.57-1.27-1s-.49-.97-.49-1.64c0-1.01.36-1.8,1.08-2.39.72-.58,1.68-.88,2.88-.88s2.24.27,3.02.82c.78.54,1.32,1.22,1.61,2.04l-1.18.89c-.29-.78-.73-1.38-1.32-1.8-.59-.42-1.33-.62-2.21-.62-.7,0-1.28.16-1.73.48s-.67.78-.67,1.37.22,1.05.65,1.33c.43.28,1.06.52,1.9.71l1.56.36c1.2.32,2.06.73,2.57,1.24s.77,1.17.77,2c0,.74-.18,1.34-.55,1.81s-.86.82-1.46,1.04c-.61.22-1.28.34-2.02.34Z"/>
      <path d="M380.03,45.12h-1.58v-16.08h1.58v16.08Z"/>
      <path d="M387.09,45.36c-.75,0-1.41-.15-1.98-.44-.57-.3-1.01-.74-1.33-1.34-.32-.6-.48-1.34-.48-2.22v-7.78h1.58v7.44c0,.93.23,1.66.68,2.21.46.54,1.17.82,2.15.82.85,0,1.52-.18,2.02-.54.5-.36.86-.82,1.09-1.39.23-.57.35-1.19.35-1.86l.1.74c-.05.75-.23,1.46-.54,2.12-.31.66-.77,1.2-1.37,1.62-.6.42-1.36.62-2.27.62ZM392.73,45.12h-1.56v-11.54h1.56v11.54Z"/>
      <path d="M399.91,49.82c-1.44,0-2.59-.23-3.44-.68-.86-.46-1.28-1.08-1.28-1.88,0-.4.11-.75.32-1.06.22-.3.48-.56.8-.77.32-.21.63-.37.94-.48-.38-.1-.67-.28-.86-.55-.19-.27-.29-.58-.29-.94,0-.3.07-.61.2-.91.14-.3.34-.61.6-.91.26-.3.56-.59.9-.86l.36.19c-.19.22-.37.48-.54.78s-.25.58-.25.85c0,.34.12.6.35.78.23.18.65.28,1.26.28h3.6c1.01,0,1.8.2,2.39.61.58.41.88,1.04.88,1.88,0,.7-.24,1.34-.71,1.9-.47.56-1.15,1-2.03,1.31-.88.31-1.94.47-3.19.47ZM400.46,41.57c-.91,0-1.7-.17-2.36-.52-.67-.34-1.18-.83-1.56-1.46-.38-.63-.56-1.34-.56-2.12s.19-1.51.56-2.14.9-1.11,1.56-1.46c.66-.35,1.45-.53,2.36-.53s1.66.18,2.34.53c.68.35,1.2.84,1.56,1.46s.54,1.34.54,2.14-.18,1.49-.54,2.12c-.36.63-.88,1.12-1.56,1.46-.68.34-1.46.52-2.34.52ZM399.91,48.55c1.41,0,2.5-.2,3.29-.6.78-.4,1.18-.94,1.18-1.63,0-.45-.17-.78-.5-.98s-.84-.31-1.51-.31h-4.68c-.29.19-.56.44-.82.74-.26.3-.38.65-.38,1.03,0,.56.3.99.91,1.3.61.3,1.45.46,2.52.46ZM400.46,40.34c.85,0,1.55-.26,2.1-.79.55-.53.83-1.22.83-2.09s-.28-1.58-.83-2.11c-.55-.53-1.25-.79-2.1-.79s-1.57.26-2.12.79c-.55.53-.83,1.23-.83,2.11s.28,1.56.83,2.09c.55.53,1.26.79,2.12.79ZM405.26,31.66l-2.23,2.66-.41-.38.98-2.9,1.66.62Z"/>
      <path d="M417.38,45.12h-1.06c-.38,0-.72-.06-1.01-.19-.29-.13-.52-.34-.68-.62-.17-.29-.25-.67-.25-1.15v-5.09l-.05-.55c0-.86-.21-1.54-.64-2.02-.42-.48-1.11-.72-2.05-.72-.85,0-1.58.22-2.2.65-.62.43-1.07.98-1.36,1.63l-1.1-1.13c.24-.4.58-.8,1.03-1.2.45-.4.99-.73,1.63-1,.64-.26,1.37-.4,2.18-.4,1.34,0,2.36.37,3.05,1.1.69.74,1.03,1.75,1.03,3.05v5.4c0,.3.07.52.2.64.14.12.34.18.61.18h.65v1.42ZM410.23,45.36c-.94,0-1.67-.24-2.18-.72-.51-.48-.77-1.09-.77-1.82s.25-1.4.76-1.91,1.16-.94,1.96-1.31l4.66-2.11.19,1.08-4.15,1.99c-.64.29-1.11.59-1.4.9-.3.31-.44.68-.44,1.12,0,.48.16.84.49,1.09s.78.37,1.36.37c.54,0,1.04-.09,1.49-.28.45-.18.84-.43,1.18-.74.34-.31.59-.66.77-1.03.18-.38.26-.76.26-1.16l.07.86c-.1.58-.32,1.15-.68,1.72-.36.57-.84,1.04-1.43,1.4-.59.37-1.3.55-2.11.55Z"/>
      <path d="M421.53,45.12h-1.58v-11.54h1.58v11.54ZM421.53,38.47l-.14-.79c.05-.54.16-1.08.35-1.6.18-.52.44-.99.76-1.4.32-.42.71-.74,1.16-.98s.97-.36,1.55-.36c.67,0,1.25.21,1.73.62.48.42.72,1.02.72,1.82,0,.43-.04.82-.13,1.18-.09.35-.2.62-.32.79h-1.68c.18-.19.32-.45.43-.78.11-.33.17-.67.17-1.02s-.11-.68-.34-.98c-.22-.3-.6-.46-1.13-.46-.58,0-1.1.19-1.58.58-.48.38-.86.88-1.13,1.48-.27.6-.41,1.24-.41,1.91Z"/>
      <path d="M434.25,45.36c-1.07,0-2.02-.23-2.83-.7-.82-.46-1.46-1.15-1.92-2.05s-.7-1.99-.7-3.25.22-2.34.66-3.23c.44-.89,1.06-1.58,1.86-2.06.8-.49,1.71-.73,2.74-.73s1.97.23,2.74.68c.77.46,1.36,1.1,1.76,1.92.41.82.61,1.82.61,2.99,0,.16,0,.3-.01.43,0,.13-.03.25-.06.36h-9.17v-1.15h8.21l-.36.5c0-1.47-.34-2.58-1.01-3.31-.67-.74-1.58-1.1-2.71-1.1s-2.02.38-2.71,1.14c-.69.76-1.03,1.91-1.03,3.44v.24c0,1.01.16,1.85.49,2.53.33.68.79,1.19,1.39,1.52.6.34,1.28.5,2.05.5s1.43-.12,1.93-.37c.5-.25.91-.56,1.21-.92.3-.37.54-.74.7-1.1l.96,1.13c-.42.69-1.01,1.29-1.79,1.81-.78.52-1.78.78-3.01.78Z"/>
      <path d="M446.15,45.36c-.77,0-1.51-.12-2.23-.36s-1.34-.6-1.86-1.08c-.52-.48-.9-1.1-1.14-1.85l1.15-.89c.14.5.39.96.74,1.39.35.43.82.78,1.39,1.04s1.24.4,1.99.4,1.4-.16,1.86-.47c.46-.31.68-.77.68-1.38,0-.58-.23-1-.7-1.28-.46-.28-1.09-.51-1.87-.68l-1.56-.38c-.54-.13-1.08-.31-1.6-.55-.52-.24-.94-.57-1.27-1s-.49-.97-.49-1.64c0-1.01.36-1.8,1.08-2.39s1.68-.88,2.88-.88,2.24.27,3.02.82c.78.54,1.32,1.22,1.61,2.04l-1.18.89c-.29-.78-.73-1.38-1.32-1.8-.59-.42-1.33-.62-2.21-.62-.71,0-1.28.16-1.73.48s-.67.78-.67,1.37.22,1.05.65,1.33c.43.28,1.06.52,1.9.71l1.56.36c1.2.32,2.06.73,2.57,1.24s.77,1.17.77,2c0,.74-.18,1.34-.55,1.81s-.86.82-1.46,1.04c-.61.22-1.28.34-2.02.34Z"/>
      <path d="M459.42,49.17c-.51,0-.98-.09-1.39-.26s-.76-.41-1.03-.7-.48-.58-.62-.86l.89-1.15c.24.45.54.82.89,1.13.35.3.78.46,1.3.46.46,0,.87-.14,1.22-.42.35-.28.65-.79.89-1.52l.62-1.68.41.53-1.49.05-4.22-11.16h1.66l2.93,7.92.84,2.38.82-2.38,2.88-7.92h1.68l-4.87,12.91c-.35.93-.81,1.61-1.38,2.04-.57.43-1.24.65-2,.65Z"/>
      <path d="M476.32,45.12h-1.58v-11.54h1.58v11.54ZM484.14,45.12h-1.54v-7.44c0-.93-.23-1.66-.68-2.2s-1.19-.8-2.2-.8c-.8,0-1.46.18-1.97.54-.51.36-.88.82-1.1,1.39-.22.57-.34,1.19-.34,1.86l-.14-.79c.06-.75.26-1.46.58-2.12.32-.66.78-1.2,1.37-1.61.59-.41,1.33-.61,2.23-.61,1.15,0,2.07.34,2.76,1.01.69.67,1.03,1.67,1.03,3v7.78Z"/>
      <path d="M491.99,45.36c-1.04,0-1.97-.25-2.78-.74-.82-.5-1.45-1.2-1.91-2.1-.46-.9-.68-1.96-.68-3.16s.23-2.3.68-3.19c.46-.9,1.09-1.59,1.91-2.09.82-.5,1.74-.74,2.78-.74s2.01.25,2.81.74,1.44,1.19,1.91,2.09c.47.9.71,1.96.71,3.19s-.24,2.25-.71,3.16c-.47.9-1.11,1.6-1.91,2.1s-1.74.74-2.81.74ZM491.99,44.02c.77,0,1.44-.18,2.02-.53s1.02-.88,1.33-1.57c.31-.7.47-1.55.47-2.56s-.16-1.88-.47-2.58c-.31-.7-.76-1.22-1.33-1.57-.58-.35-1.25-.53-2.02-.53s-1.41.18-1.98.53c-.57.35-1.01.88-1.33,1.57s-.48,1.56-.48,2.58.16,1.86.48,2.56.76,1.22,1.33,1.57c.57.35,1.23.53,1.98.53Z"/>
      <path d="M507.06,49.58h-1.58v-16.01h1.58v16.01ZM510.88,45.36c-.83,0-1.54-.2-2.11-.6-.58-.4-1.01-.92-1.31-1.55-.3-.63-.48-1.3-.54-2l.14-.79c0,.64.12,1.23.35,1.78.23.54.6.99,1.1,1.33s1.14.52,1.91.52c1.04,0,1.91-.38,2.62-1.14s1.06-1.94,1.06-3.54-.35-2.83-1.06-3.59-1.58-1.14-2.62-1.14c-.77,0-1.4.17-1.91.52s-.87.79-1.1,1.33c-.23.54-.35,1.14-.35,1.78l-.14-.79c.06-.7.25-1.38.55-2.02s.74-1.16,1.3-1.55c.56-.39,1.27-.59,2.14-.59,1.01,0,1.86.25,2.57.74.7.5,1.25,1.2,1.64,2.1.39.9.59,1.97.59,3.2s-.19,2.23-.58,3.14-.93,1.62-1.64,2.11-1.58.74-2.6.74Z"/>
      <path d="M523.41,45.36c-1.07,0-2.02-.23-2.83-.7-.82-.46-1.46-1.15-1.92-2.05s-.7-1.99-.7-3.25.22-2.34.66-3.23c.44-.89,1.06-1.58,1.86-2.06.8-.49,1.71-.73,2.74-.73s1.97.23,2.74.68c.77.46,1.36,1.1,1.76,1.92.41.82.61,1.82.61,2.99,0,.16,0,.3-.01.43,0,.13-.03.25-.06.36h-9.17v-1.15h8.21l-.36.5c0-1.47-.34-2.58-1.01-3.31-.67-.74-1.58-1.1-2.71-1.1s-2.02.38-2.71,1.14c-.69.76-1.03,1.91-1.03,3.44v.24c0,1.01.16,1.85.49,2.53.33.68.79,1.19,1.39,1.52.6.34,1.28.5,2.05.5s1.43-.12,1.93-.37c.5-.25.91-.56,1.21-.92.3-.37.54-.74.7-1.1l.96,1.13c-.42.69-1.01,1.29-1.79,1.81-.78.52-1.78.78-3.01.78Z"/>
      <path d="M532.67,45.12h-1.58v-11.54h1.58v11.54ZM532.67,38.47l-.14-.79c.05-.54.16-1.08.35-1.6.18-.52.44-.99.76-1.4.32-.42.71-.74,1.16-.98s.97-.36,1.55-.36c.67,0,1.25.21,1.73.62.48.42.72,1.02.72,1.82,0,.43-.04.82-.13,1.18-.09.35-.2.62-.32.79h-1.68c.18-.19.32-.45.43-.78.11-.33.17-.67.17-1.02s-.11-.68-.34-.98c-.22-.3-.6-.46-1.13-.46-.58,0-1.1.19-1.58.58-.48.38-.86.88-1.13,1.48-.27.6-.41,1.24-.41,1.91Z"/>
      <path d="M544.69,45.38c-.99,0-1.85-.25-2.57-.74-.72-.5-1.27-1.2-1.64-2.1-.38-.9-.56-1.96-.56-3.16s.19-2.3.56-3.19c.38-.9.93-1.6,1.66-2.1.73-.5,1.59-.76,2.58-.76.85,0,1.56.2,2.12.59.57.39,1,.91,1.3,1.55.3.64.47,1.31.52,2.02l-.1.82c0-.64-.12-1.23-.36-1.78-.24-.54-.61-.99-1.1-1.33s-1.13-.52-1.9-.52c-1.06,0-1.94.38-2.64,1.13s-1.06,1.94-1.06,3.58.36,2.78,1.07,3.54c.71.76,1.58,1.14,2.6,1.14.77,0,1.4-.17,1.91-.52.5-.34.88-.79,1.12-1.33.24-.54.36-1.14.36-1.78l.1.79c-.05.7-.22,1.37-.53,2-.3.63-.74,1.15-1.3,1.55-.56.4-1.27.6-2.14.6ZM550.12,45.12h-1.56v-16.08h1.56v16.08Z"/>
      <path d="M558.3,45.36c-1.07,0-2.02-.23-2.83-.7-.82-.46-1.46-1.15-1.92-2.05s-.7-1.99-.7-3.25.22-2.34.66-3.23c.44-.89,1.06-1.58,1.86-2.06.8-.49,1.71-.73,2.74-.73s1.97.23,2.74.68c.77.46,1.36,1.1,1.76,1.92.41.82.61,1.82.61,2.99,0,.16,0,.3-.01.43,0,.13-.03.25-.06.36h-9.17v-1.15h8.21l-.36.5c0-1.47-.34-2.58-1.01-3.31-.67-.74-1.58-1.1-2.71-1.1s-2.02.38-2.71,1.14c-.69.76-1.03,1.91-1.03,3.44v.24c0,1.01.16,1.85.49,2.53.33.68.79,1.19,1.39,1.52.6.34,1.28.5,2.05.5s1.43-.12,1.93-.37c.5-.25.91-.56,1.21-.92.3-.37.54-.74.7-1.1l.96,1.13c-.42.69-1.01,1.29-1.79,1.81-.78.52-1.78.78-3.01.78Z"/>
      <path d="M567.57,45.12h-1.58v-11.54h1.58v11.54ZM567.57,38.47l-.14-.79c.05-.54.16-1.08.35-1.6.18-.52.44-.99.76-1.4.32-.42.71-.74,1.16-.98s.97-.36,1.55-.36c.67,0,1.25.21,1.73.62.48.42.72,1.02.72,1.82,0,.43-.04.82-.13,1.18-.09.35-.2.62-.32.79h-1.68c.18-.19.32-.45.43-.78.11-.33.17-.67.17-1.02s-.11-.68-.34-.98c-.22-.3-.6-.46-1.13-.46-.58,0-1.1.19-1.58.58-.48.38-.86.88-1.13,1.48-.27.6-.41,1.24-.41,1.91Z"/>
      <path d="M577.29,45.12h-1.58v-11.54h1.58v11.54ZM584.56,45.12h-1.56v-7.46c0-1.01-.22-1.76-.67-2.24s-1.12-.73-2.02-.73c-.67,0-1.24.18-1.69.54-.46.36-.79.82-1.01,1.39s-.32,1.19-.32,1.86l-.14-.79c.06-.75.25-1.46.56-2.12.31-.66.75-1.2,1.32-1.61.57-.41,1.26-.61,2.08-.61,1.1,0,1.96.33,2.56,1,.6.66.9,1.66.9,2.99v7.8ZM591.85,45.12h-1.58v-7.46c0-1.01-.22-1.76-.67-2.24-.45-.49-1.11-.73-1.99-.73-.69,0-1.26.18-1.7.54-.45.36-.78.82-1.01,1.39-.22.57-.34,1.19-.34,1.86l-.12-.79c.05-.75.23-1.46.54-2.12.31-.66.75-1.2,1.32-1.61.57-.41,1.27-.61,2.1-.61,1.1,0,1.96.33,2.56,1,.6.66.9,1.66.9,2.99v7.8Z"/>
      <path d="M599.89,45.36c-1.07,0-2.02-.23-2.83-.7-.82-.46-1.46-1.15-1.92-2.05s-.7-1.99-.7-3.25.22-2.34.66-3.23c.44-.89,1.06-1.58,1.86-2.06.8-.49,1.71-.73,2.74-.73s1.97.23,2.74.68c.77.46,1.36,1.1,1.76,1.92.41.82.61,1.82.61,2.99,0,.16,0,.3-.01.43,0,.13-.03.25-.06.36h-9.17v-1.15h8.21l-.36.5c0-1.47-.34-2.58-1.01-3.31-.67-.74-1.58-1.1-2.71-1.1s-2.02.38-2.71,1.14c-.69.76-1.03,1.91-1.03,3.44v.24c0,1.01.16,1.85.49,2.53.33.68.79,1.19,1.39,1.52.6.34,1.28.5,2.05.5s1.43-.12,1.93-.37c.5-.25.91-.56,1.21-.92.3-.37.54-.74.7-1.1l.96,1.13c-.42.69-1.01,1.29-1.79,1.81-.78.52-1.78.78-3.01.78Z"/>
      <path d="M617.03,45.38c-.99,0-1.85-.25-2.57-.74-.72-.5-1.27-1.2-1.64-2.1-.38-.9-.56-1.96-.56-3.16s.19-2.3.56-3.19c.38-.9.93-1.6,1.66-2.1.73-.5,1.59-.76,2.58-.76.85,0,1.56.2,2.12.59.57.39,1,.91,1.3,1.55.3.64.47,1.31.52,2.02l-.1.82c0-.64-.12-1.23-.36-1.78-.24-.54-.61-.99-1.1-1.33s-1.13-.52-1.9-.52c-1.06,0-1.94.38-2.64,1.13s-1.06,1.94-1.06,3.58.36,2.78,1.07,3.54c.71.76,1.58,1.14,2.6,1.14.77,0,1.4-.17,1.91-.52.5-.34.88-.79,1.12-1.33.24-.54.36-1.14.36-1.78l.1.79c-.05.7-.22,1.37-.53,2-.3.63-.74,1.15-1.3,1.55-.56.4-1.27.6-2.14.6ZM622.45,45.12h-1.56v-16.08h1.56v16.08Z"/>
      <path d="M630.64,45.36c-1.07,0-2.02-.23-2.83-.7-.82-.46-1.46-1.15-1.92-2.05s-.7-1.99-.7-3.25.22-2.34.66-3.23c.44-.89,1.06-1.58,1.86-2.06.8-.49,1.71-.73,2.74-.73s1.97.23,2.74.68c.77.46,1.36,1.1,1.76,1.92.41.82.61,1.82.61,2.99,0,.16,0,.3-.01.43,0,.13-.03.25-.06.36h-9.17v-1.15h8.21l-.36.5c0-1.47-.34-2.58-1.01-3.31-.67-.74-1.58-1.1-2.71-1.1s-2.02.38-2.71,1.14c-.69.76-1.03,1.91-1.03,3.44v.24c0,1.01.16,1.85.49,2.53.33.68.79,1.19,1.39,1.52.6.34,1.28.5,2.05.5s1.43-.12,1.93-.37c.5-.25.91-.56,1.21-.92.3-.37.54-.74.7-1.1l.96,1.13c-.42.69-1.01,1.29-1.79,1.81-.78.52-1.78.78-3.01.78Z"/>
      <path d="M649.74,34.82h-7.34v-1.25h7.34v1.25ZM647.44,45.38c-.61,0-1.15-.12-1.62-.37-.47-.25-.85-.61-1.13-1.08-.28-.47-.42-1.05-.42-1.74v-10.25l1.58-1.18v10.99c0,.83.18,1.39.55,1.68.37.29.81.43,1.32.43s.99-.16,1.38-.48c.39-.32.69-.68.9-1.08l.53,1.54c-.26.43-.65.8-1.19,1.09s-1.17.44-1.91.44Z"/>
      <path d="M655.81,45.36c-.75,0-1.41-.15-1.98-.44-.57-.3-1.01-.74-1.33-1.34-.32-.6-.48-1.34-.48-2.22v-7.78h1.58v7.44c0,.93.23,1.66.68,2.21.46.54,1.17.82,2.15.82.85,0,1.52-.18,2.02-.54s.86-.82,1.09-1.39c.23-.57.35-1.19.35-1.86l.1.74c-.05.75-.23,1.46-.54,2.12-.31.66-.77,1.2-1.37,1.62-.6.42-1.36.62-2.27.62ZM661.45,45.12h-1.56v-11.54h1.56v11.54Z"/>
      <path d="M674.79,45.36c-1.09,0-2.03-.24-2.83-.72-.8-.48-1.42-1.17-1.86-2.08-.44-.9-.66-1.97-.66-3.2s.22-2.34.66-3.24c.44-.9,1.06-1.58,1.87-2.06.81-.48,1.75-.72,2.84-.72,1.42,0,2.58.38,3.46,1.14.88.76,1.43,1.72,1.66,2.87l-1.51.67c-.11-.98-.46-1.78-1.06-2.4s-1.44-.94-2.54-.94c-.75,0-1.42.18-1.99.53-.58.35-1.02.88-1.33,1.57-.31.7-.47,1.56-.47,2.58s.16,1.88.47,2.58c.31.7.76,1.22,1.33,1.57.58.35,1.24.53,1.99.53,1.09,0,1.93-.31,2.53-.94.6-.62.96-1.43,1.07-2.42l1.51.67c-.22,1.15-.78,2.11-1.67,2.87-.89.76-2.04,1.14-3.47,1.14Z"/>
      <path d="M687.11,45.36c-1.04,0-1.97-.25-2.78-.74-.82-.5-1.45-1.2-1.91-2.1-.46-.9-.68-1.96-.68-3.16s.23-2.3.68-3.19c.46-.9,1.09-1.59,1.91-2.09.82-.5,1.74-.74,2.78-.74s2.01.25,2.81.74,1.44,1.19,1.91,2.09c.47.9.71,1.96.71,3.19s-.24,2.25-.71,3.16c-.47.9-1.11,1.6-1.91,2.1s-1.74.74-2.81.74ZM687.11,44.02c.77,0,1.44-.18,2.02-.53s1.02-.88,1.33-1.57c.31-.7.47-1.55.47-2.56s-.16-1.88-.47-2.58c-.31-.7-.76-1.22-1.33-1.57-.58-.35-1.25-.53-2.02-.53s-1.41.18-1.98.53c-.57.35-1.01.88-1.33,1.57s-.48,1.56-.48,2.58.16,1.86.48,2.56.76,1.22,1.33,1.57c.57.35,1.23.53,1.98.53Z"/>
      <path d="M696.85,45.12h-1.58v-11.54h1.58v11.54ZM704.12,45.12h-1.56v-7.46c0-1.01-.22-1.76-.67-2.24s-1.12-.73-2.02-.73c-.67,0-1.24.18-1.69.54-.46.36-.79.82-1.01,1.39s-.32,1.19-.32,1.86l-.14-.79c.06-.75.25-1.46.56-2.12.31-.66.75-1.2,1.32-1.61.57-.41,1.26-.61,2.08-.61,1.1,0,1.96.33,2.56,1,.6.66.9,1.66.9,2.99v7.8ZM711.42,45.12h-1.58v-7.46c0-1.01-.22-1.76-.67-2.24-.45-.49-1.11-.73-1.99-.73-.69,0-1.26.18-1.7.54-.45.36-.78.82-1.01,1.39-.22.57-.34,1.19-.34,1.86l-.12-.79c.05-.75.23-1.46.54-2.12.31-.66.75-1.2,1.32-1.61.57-.41,1.27-.61,2.1-.61,1.1,0,1.96.33,2.56,1,.6.66.9,1.66.9,2.99v7.8Z"/>
      <path d="M716.27,49.58h-1.58v-16.01h1.58v16.01ZM720.08,45.36c-.83,0-1.54-.2-2.11-.6-.58-.4-1.01-.92-1.31-1.55-.3-.63-.48-1.3-.54-2l.14-.79c0,.64.12,1.23.35,1.78.23.54.6.99,1.1,1.33s1.14.52,1.91.52c1.04,0,1.91-.38,2.62-1.14s1.06-1.94,1.06-3.54-.35-2.83-1.06-3.59-1.58-1.14-2.62-1.14c-.77,0-1.4.17-1.91.52s-.87.79-1.1,1.33c-.23.54-.35,1.14-.35,1.78l-.14-.79c.06-.7.25-1.38.55-2.02s.74-1.16,1.3-1.55c.56-.39,1.27-.59,2.14-.59,1.01,0,1.86.25,2.57.74.7.5,1.25,1.2,1.64,2.1.39.9.59,1.97.59,3.2s-.19,2.23-.58,3.14-.93,1.62-1.64,2.11-1.58.74-2.6.74Z"/>
      <path d="M737.07,45.12h-1.06c-.38,0-.72-.06-1.01-.19-.29-.13-.52-.34-.68-.62-.17-.29-.25-.67-.25-1.15v-5.09l-.05-.55c0-.86-.21-1.54-.64-2.02-.42-.48-1.11-.72-2.05-.72-.85,0-1.58.22-2.2.65-.62.43-1.07.98-1.36,1.63l-1.1-1.13c.24-.4.58-.8,1.03-1.2.45-.4.99-.73,1.63-1,.64-.26,1.37-.4,2.18-.4,1.34,0,2.36.37,3.05,1.1.69.74,1.03,1.75,1.03,3.05v5.4c0,.3.07.52.2.64.14.12.34.18.61.18h.65v1.42ZM729.92,45.36c-.94,0-1.67-.24-2.18-.72-.51-.48-.77-1.09-.77-1.82s.25-1.4.76-1.91,1.16-.94,1.96-1.31l4.66-2.11.19,1.08-4.15,1.99c-.64.29-1.11.59-1.4.9-.3.31-.44.68-.44,1.12,0,.48.16.84.49,1.09.33.25.78.37,1.36.37.54,0,1.04-.09,1.49-.28.45-.18.84-.43,1.18-.74.34-.31.59-.66.77-1.03.18-.38.26-.76.26-1.16l.07.86c-.1.58-.32,1.15-.68,1.72-.36.57-.84,1.04-1.43,1.4-.59.37-1.3.55-2.11.55Z"/>
      <path d="M741.22,45.12h-1.58v-11.54h1.58v11.54ZM749.05,45.12h-1.54v-7.44c0-.93-.23-1.66-.68-2.2s-1.19-.8-2.2-.8c-.8,0-1.46.18-1.97.54-.51.36-.88.82-1.1,1.39-.22.57-.34,1.19-.34,1.86l-.14-.79c.06-.75.26-1.46.58-2.12.32-.66.78-1.2,1.37-1.61.59-.41,1.33-.61,2.23-.61,1.15,0,2.07.34,2.76,1.01.69.67,1.03,1.67,1.03,3v7.78ZM743.17,32.04h-1.13c-.14-.22-.25-.45-.32-.68-.07-.23-.11-.46-.11-.68,0-.45.12-.79.36-1.02.24-.23.56-.35.96-.35s.72.11,1,.32.54.44.78.66c.18.19.36.36.54.5.18.14.38.22.59.22.11,0,.2-.04.28-.12.07-.08.11-.18.11-.31,0-.14-.05-.32-.14-.53-.1-.21-.25-.45-.46-.72h1.08c.16.22.28.46.35.71s.11.48.11.71c0,.4-.11.72-.32.96s-.5.36-.85.36c-.38,0-.73-.11-1.04-.32-.31-.22-.6-.45-.85-.71-.19-.18-.38-.34-.56-.48-.18-.14-.36-.22-.54-.22-.11,0-.21.04-.29.12s-.12.18-.12.31c0,.18.04.37.13.58.09.21.24.44.47.7Z"/>
      <path d="M753.83,31.99h-1.51l2.14-2.83h2.09l-2.71,2.83ZM753.92,45.12h-1.58v-11.54h1.58v11.54Z"/>
      <path d="M766.69,45.12h-1.06c-.38,0-.72-.06-1.01-.19-.29-.13-.52-.34-.68-.62-.17-.29-.25-.67-.25-1.15v-5.09l-.05-.55c0-.86-.21-1.54-.64-2.02-.42-.48-1.11-.72-2.05-.72-.85,0-1.58.22-2.2.65-.62.43-1.07.98-1.36,1.63l-1.1-1.13c.24-.4.58-.8,1.03-1.2.45-.4.99-.73,1.63-1,.64-.26,1.37-.4,2.18-.4,1.34,0,2.36.37,3.05,1.1.69.74,1.03,1.75,1.03,3.05v5.4c0,.3.07.52.2.64.14.12.34.18.61.18h.65v1.42ZM759.54,45.36c-.94,0-1.67-.24-2.18-.72-.51-.48-.77-1.09-.77-1.82s.25-1.4.76-1.91,1.16-.94,1.96-1.31l4.66-2.11.19,1.08-4.15,1.99c-.64.29-1.11.59-1.4.9-.3.31-.44.68-.44,1.12,0,.48.16.84.49,1.09.33.25.78.37,1.36.37.54,0,1.04-.09,1.49-.28.45-.18.84-.43,1.18-.74.34-.31.59-.66.77-1.03.18-.38.26-.76.26-1.16l.07.86c-.1.58-.32,1.15-.68,1.72-.36.57-.84,1.04-1.43,1.4-.59.37-1.3.55-2.11.55Z"/>
      <path d="M779.36,45.36c-1.07,0-2.02-.23-2.83-.7-.82-.46-1.46-1.15-1.92-2.05s-.7-1.99-.7-3.25.22-2.34.66-3.23c.44-.89,1.06-1.58,1.86-2.06.8-.49,1.71-.73,2.74-.73s1.97.23,2.74.68c.77.46,1.36,1.1,1.76,1.92.41.82.61,1.82.61,2.99,0,.16,0,.3-.01.43,0,.13-.03.25-.06.36h-9.17v-1.15h8.21l-.36.5c0-1.47-.34-2.58-1.01-3.31-.67-.74-1.58-1.1-2.71-1.1s-2.02.38-2.71,1.14c-.69.76-1.03,1.91-1.03,3.44v.24c0,1.01.16,1.85.49,2.53.33.68.79,1.19,1.39,1.52.6.34,1.28.5,2.05.5s1.43-.12,1.93-.37c.5-.25.91-.56,1.21-.92.3-.37.54-.74.7-1.1l.96,1.13c-.42.69-1.01,1.29-1.79,1.81-.78.52-1.78.78-3.01.78Z"/>
      <path d="M788.62,45.12h-1.58v-11.54h1.58v11.54ZM796.45,45.12h-1.54v-7.44c0-.93-.23-1.66-.68-2.2s-1.19-.8-2.2-.8c-.8,0-1.46.18-1.97.54-.51.36-.88.82-1.1,1.39-.22.57-.34,1.19-.34,1.86l-.14-.79c.06-.75.26-1.46.58-2.12.32-.66.78-1.2,1.37-1.61.59-.41,1.33-.61,2.23-.61,1.15,0,2.07.34,2.76,1.01.69.67,1.03,1.67,1.03,3v7.78Z"/>
      <path d="M809.84,45.36c-1.07,0-2.02-.23-2.83-.7-.82-.46-1.46-1.15-1.92-2.05s-.7-1.99-.7-3.25.22-2.34.66-3.23c.44-.89,1.06-1.58,1.86-2.06.8-.49,1.71-.73,2.74-.73s1.97.23,2.74.68c.77.46,1.36,1.1,1.76,1.92.41.82.61,1.82.61,2.99,0,.16,0,.3-.01.43,0,.13-.03.25-.06.36h-9.17v-1.15h8.21l-.36.5c0-1.47-.34-2.58-1.01-3.31-.67-.74-1.58-1.1-2.71-1.1s-2.02.38-2.71,1.14c-.69.76-1.03,1.91-1.03,3.44v.24c0,1.01.16,1.85.49,2.53.33.68.79,1.19,1.39,1.52.6.34,1.28.5,2.05.5s1.43-.12,1.93-.37c.5-.25.91-.56,1.21-.92.3-.37.54-.74.7-1.1l.96,1.13c-.42.69-1.01,1.29-1.79,1.81-.78.52-1.78.78-3.01.78Z"/>
      <path d="M821.74,45.36c-.77,0-1.51-.12-2.23-.36s-1.34-.6-1.86-1.08c-.52-.48-.9-1.1-1.14-1.85l1.15-.89c.14.5.39.96.74,1.39.35.43.82.78,1.39,1.04s1.24.4,1.99.4,1.4-.16,1.86-.47c.46-.31.68-.77.68-1.38,0-.58-.23-1-.7-1.28-.46-.28-1.09-.51-1.87-.68l-1.56-.38c-.54-.13-1.08-.31-1.6-.55-.52-.24-.94-.57-1.27-1s-.49-.97-.49-1.64c0-1.01.36-1.8,1.08-2.39s1.68-.88,2.88-.88,2.24.27,3.02.82c.78.54,1.32,1.22,1.61,2.04l-1.18.89c-.29-.78-.73-1.38-1.32-1.8-.59-.42-1.33-.62-2.21-.62-.71,0-1.28.16-1.73.48s-.67.78-.67,1.37.22,1.05.65,1.33c.43.28,1.06.52,1.9.71l1.56.36c1.2.32,2.06.73,2.57,1.24s.77,1.17.77,2c0,.74-.18,1.34-.55,1.81s-.86.82-1.46,1.04c-.61.22-1.28.34-2.02.34Z"/>
      <path d="M834.25,34.82h-7.34v-1.25h7.34v1.25ZM831.94,45.38c-.61,0-1.15-.12-1.62-.37-.47-.25-.85-.61-1.13-1.08-.28-.47-.42-1.05-.42-1.74v-10.25l1.58-1.18v10.99c0,.83.18,1.39.55,1.68.37.29.81.43,1.32.43s.99-.16,1.38-.48c.39-.32.69-.68.9-1.08l.53,1.54c-.26.43-.65.8-1.19,1.09s-1.17.44-1.91.44Z"/>
      <path d="M841.11,45.36c-1.07,0-2.02-.23-2.83-.7-.82-.46-1.46-1.15-1.92-2.05s-.7-1.99-.7-3.25.22-2.34.66-3.23c.44-.89,1.06-1.58,1.86-2.06.8-.49,1.71-.73,2.74-.73s1.97.23,2.74.68c.77.46,1.36,1.1,1.76,1.92.41.82.61,1.82.61,2.99,0,.16,0,.3-.01.43,0,.13-.03.25-.06.36h-9.17v-1.15h8.21l-.36.5c0-1.47-.34-2.58-1.01-3.31-.67-.74-1.58-1.1-2.71-1.1s-2.02.38-2.71,1.14c-.69.76-1.03,1.91-1.03,3.44v.24c0,1.01.16,1.85.49,2.53.33.68.79,1.19,1.39,1.52.6.34,1.28.5,2.05.5s1.43-.12,1.93-.37c.5-.25.91-.56,1.21-.92.3-.37.54-.74.7-1.1l.96,1.13c-.42.69-1.01,1.29-1.79,1.81-.78.52-1.78.78-3.01.78Z"/>
      <path d="M281.22,74.18c-.99,0-1.85-.25-2.57-.74-.72-.5-1.27-1.2-1.64-2.1-.38-.9-.56-1.96-.56-3.16s.19-2.3.56-3.19c.38-.9.93-1.6,1.66-2.1.73-.5,1.59-.76,2.58-.76.85,0,1.56.2,2.12.59.57.39,1,.91,1.3,1.55.3.64.47,1.31.52,2.02l-.1.82c0-.64-.12-1.23-.36-1.78-.24-.54-.61-.99-1.1-1.33s-1.13-.52-1.9-.52c-1.06,0-1.94.38-2.64,1.13s-1.06,1.94-1.06,3.58.36,2.78,1.07,3.54c.71.76,1.58,1.14,2.6,1.14.77,0,1.4-.17,1.91-.52.5-.34.88-.79,1.12-1.33.24-.54.36-1.14.36-1.78l.1.79c-.05.7-.22,1.37-.53,2s-.74,1.15-1.3,1.55c-.56.4-1.27.6-2.14.6ZM286.64,73.92h-1.56v-16.08h1.56v16.08Z"/>
      <path d="M291.49,60.79h-1.51l2.14-2.83h2.09l-2.71,2.83ZM291.58,73.92h-1.58v-11.54h1.58v11.54Z"/>
      <path d="M304.35,73.92h-1.06c-.38,0-.72-.06-1.01-.19-.29-.13-.52-.34-.68-.62-.17-.29-.25-.67-.25-1.15v-5.09l-.05-.55c0-.86-.21-1.54-.64-2.02-.42-.48-1.11-.72-2.05-.72-.85,0-1.58.22-2.2.65-.62.43-1.07.98-1.36,1.63l-1.1-1.13c.24-.4.58-.8,1.03-1.2.45-.4.99-.73,1.63-1,.64-.26,1.37-.4,2.18-.4,1.34,0,2.36.37,3.05,1.1.69.74,1.03,1.75,1.03,3.05v5.4c0,.3.07.52.2.64.14.12.34.18.61.18h.65v1.42ZM297.2,74.16c-.94,0-1.67-.24-2.18-.72-.51-.48-.77-1.09-.77-1.82s.25-1.4.76-1.91c.5-.5,1.16-.94,1.96-1.31l4.66-2.11.19,1.08-4.15,1.99c-.64.29-1.11.59-1.4.9-.3.31-.44.68-.44,1.12,0,.48.16.84.49,1.09.33.25.78.37,1.36.37.54,0,1.04-.09,1.49-.28.45-.18.84-.43,1.18-.74.34-.31.59-.66.77-1.03.18-.38.26-.76.26-1.16l.07.86c-.1.58-.32,1.15-.68,1.72-.36.57-.84,1.04-1.43,1.4-.59.37-1.3.55-2.11.55Z"/>
      <path d="M306.73,75.96l-.34-.86c.3-.05.54-.12.7-.23.16-.1.24-.32.24-.64v-.31h-.84v-2.83h1.85v2.9c0,.59-.11,1.05-.34,1.37-.22.32-.65.52-1.27.6Z"/>
      <path d="M322.64,63.62h-7.34v-1.25h7.34v1.25ZM320.34,74.18c-.61,0-1.15-.12-1.62-.37-.47-.25-.85-.61-1.13-1.08-.28-.47-.42-1.05-.42-1.74v-10.25l1.58-1.18v10.99c0,.83.18,1.39.55,1.68s.81.43,1.32.43.99-.16,1.38-.48c.39-.32.69-.68.9-1.08l.53,1.54c-.26.43-.65.8-1.19,1.09s-1.17.44-1.91.44Z"/>
      <path d="M334.59,73.92h-1.06c-.38,0-.72-.06-1.01-.19-.29-.13-.52-.34-.68-.62-.17-.29-.25-.67-.25-1.15v-5.09l-.05-.55c0-.86-.21-1.54-.64-2.02-.42-.48-1.11-.72-2.05-.72-.85,0-1.58.22-2.2.65-.62.43-1.07.98-1.36,1.63l-1.1-1.13c.24-.4.58-.8,1.03-1.2.45-.4.99-.73,1.63-1,.64-.26,1.37-.4,2.18-.4,1.34,0,2.36.37,3.05,1.1.69.74,1.03,1.75,1.03,3.05v5.4c0,.3.07.52.2.64s.34.18.61.18h.65v1.42ZM327.44,74.16c-.94,0-1.67-.24-2.18-.72-.51-.48-.77-1.09-.77-1.82s.25-1.4.76-1.91,1.16-.94,1.96-1.31l4.66-2.11.19,1.08-4.15,1.99c-.64.29-1.11.59-1.4.9-.3.31-.44.68-.44,1.12,0,.48.16.84.49,1.09s.78.37,1.36.37c.54,0,1.04-.09,1.49-.28.45-.18.84-.43,1.18-.74.34-.31.59-.66.77-1.03s.26-.76.26-1.16l.07.86c-.1.58-.32,1.15-.68,1.72-.36.57-.84,1.04-1.43,1.4-.59.37-1.3.55-2.11.55Z"/>
      <path d="M338.74,73.92h-1.58v-11.54h1.58v11.54ZM346.57,73.92h-1.54v-7.44c0-.93-.23-1.66-.68-2.2s-1.19-.8-2.2-.8c-.8,0-1.46.18-1.97.54-.51.36-.88.82-1.1,1.39-.22.57-.34,1.19-.34,1.86l-.14-.79c.06-.75.26-1.46.58-2.12.32-.66.78-1.2,1.37-1.61.59-.41,1.34-.61,2.23-.61,1.15,0,2.07.34,2.76,1.01.69.67,1.03,1.67,1.03,3v7.78Z"/>
      <path d="M359.96,74.16c-1.07,0-2.02-.23-2.83-.7-.82-.46-1.46-1.15-1.92-2.05s-.7-1.99-.7-3.25.22-2.34.66-3.23c.44-.89,1.06-1.58,1.86-2.06s1.71-.73,2.74-.73,1.97.23,2.74.68c.77.46,1.36,1.1,1.76,1.92s.61,1.82.61,2.99c0,.16,0,.3-.01.43s-.03.25-.06.36h-9.17v-1.15h8.21l-.36.5c0-1.47-.34-2.58-1.01-3.31-.67-.74-1.58-1.1-2.71-1.1s-2.02.38-2.71,1.14c-.69.76-1.03,1.91-1.03,3.44v.24c0,1.01.16,1.85.49,2.53.33.68.79,1.19,1.39,1.52s1.28.5,2.05.5,1.43-.12,1.93-.37.91-.56,1.21-.92c.3-.37.54-.74.7-1.1l.96,1.13c-.42.69-1.01,1.29-1.79,1.81-.78.52-1.78.78-3.01.78Z"/>
      <path d="M371.86,74.16c-.77,0-1.51-.12-2.23-.36-.72-.24-1.34-.6-1.86-1.08-.52-.48-.9-1.1-1.14-1.85l1.15-.89c.14.5.39.96.74,1.39.35.43.82.78,1.39,1.04s1.24.4,1.99.4,1.4-.16,1.86-.47c.46-.31.68-.77.68-1.38,0-.58-.23-1-.7-1.28-.46-.28-1.09-.51-1.87-.68l-1.56-.38c-.54-.13-1.08-.31-1.6-.55-.52-.24-.94-.57-1.27-1s-.49-.97-.49-1.64c0-1.01.36-1.8,1.08-2.39.72-.58,1.68-.88,2.88-.88s2.24.27,3.02.82c.78.54,1.32,1.22,1.61,2.04l-1.18.89c-.29-.78-.73-1.38-1.32-1.8-.59-.42-1.33-.62-2.21-.62-.7,0-1.28.16-1.73.48s-.67.78-.67,1.37.22,1.05.65,1.33c.43.28,1.06.52,1.9.71l1.56.36c1.2.32,2.06.73,2.57,1.24s.77,1.17.77,2c0,.74-.18,1.34-.55,1.81s-.86.82-1.46,1.04c-.61.22-1.28.34-2.02.34Z"/>
      <path d="M380.14,78.38h-1.58v-16.01h1.58v16.01ZM383.96,74.16c-.83,0-1.54-.2-2.11-.6-.58-.4-1.01-.92-1.31-1.55-.3-.63-.48-1.3-.54-2l.14-.79c0,.64.12,1.23.35,1.78.23.54.6.99,1.1,1.33.5.34,1.14.52,1.91.52,1.04,0,1.91-.38,2.62-1.14s1.06-1.94,1.06-3.54-.35-2.83-1.06-3.59-1.58-1.14-2.62-1.14c-.77,0-1.4.17-1.91.52-.5.34-.87.79-1.1,1.33-.23.54-.35,1.14-.35,1.78l-.14-.79c.06-.7.25-1.38.55-2.02s.74-1.16,1.3-1.55c.56-.39,1.27-.59,2.14-.59,1.01,0,1.86.25,2.57.74.7.5,1.25,1.2,1.64,2.1.39.9.59,1.97.59,3.2s-.19,2.23-.58,3.14-.93,1.62-1.64,2.11c-.71.5-1.58.74-2.6.74Z"/>
      <path d="M396.49,74.16c-1.07,0-2.02-.23-2.83-.7-.82-.46-1.46-1.15-1.92-2.05-.46-.9-.7-1.99-.7-3.25s.22-2.34.66-3.23c.44-.89,1.06-1.58,1.86-2.06.8-.49,1.71-.73,2.74-.73s1.97.23,2.74.68c.77.46,1.36,1.1,1.76,1.92s.61,1.82.61,2.99c0,.16,0,.3-.01.43,0,.13-.03.25-.06.36h-9.17v-1.15h8.21l-.36.5c0-1.47-.34-2.58-1.01-3.31-.67-.74-1.58-1.1-2.71-1.1s-2.02.38-2.71,1.14c-.69.76-1.03,1.91-1.03,3.44v.24c0,1.01.16,1.85.49,2.53.33.68.79,1.19,1.39,1.52.6.34,1.28.5,2.05.5s1.43-.12,1.93-.37.91-.56,1.21-.92.54-.74.7-1.1l.96,1.13c-.42.69-1.01,1.29-1.79,1.81-.78.52-1.78.78-3.01.78Z"/>
      <path d="M409.11,74.16c-1.09,0-2.03-.24-2.83-.72-.8-.48-1.42-1.17-1.86-2.08-.44-.9-.66-1.97-.66-3.2s.22-2.34.66-3.24c.44-.9,1.06-1.58,1.87-2.06.81-.48,1.76-.72,2.84-.72,1.42,0,2.58.38,3.46,1.14.88.76,1.43,1.72,1.66,2.87l-1.51.67c-.11-.98-.46-1.78-1.06-2.4s-1.44-.94-2.54-.94c-.75,0-1.42.18-1.99.53-.58.35-1.02.88-1.33,1.57-.31.7-.47,1.56-.47,2.58s.16,1.88.47,2.58c.31.7.76,1.22,1.33,1.57.58.35,1.24.53,1.99.53,1.09,0,1.93-.31,2.53-.94.6-.62.96-1.43,1.07-2.42l1.51.67c-.22,1.15-.78,2.11-1.67,2.87-.89.76-2.04,1.14-3.47,1.14Z"/>
      <path d="M418.47,60.33h-1.58v-2.5h1.58v2.5ZM418.47,73.92h-1.58v-11.54h1.58v11.54Z"/>
      <path d="M431.24,73.92h-1.06c-.38,0-.72-.06-1.01-.19-.29-.13-.52-.34-.68-.62-.17-.29-.25-.67-.25-1.15v-5.09l-.05-.55c0-.86-.21-1.54-.64-2.02-.42-.48-1.11-.72-2.05-.72-.85,0-1.58.22-2.2.65-.62.43-1.07.98-1.36,1.63l-1.1-1.13c.24-.4.58-.8,1.03-1.2.45-.4.99-.73,1.63-1,.64-.26,1.37-.4,2.18-.4,1.34,0,2.36.37,3.05,1.1.69.74,1.03,1.75,1.03,3.05v5.4c0,.3.07.52.2.64.14.12.34.18.61.18h.65v1.42ZM424.08,74.16c-.94,0-1.67-.24-2.18-.72-.51-.48-.77-1.09-.77-1.82s.25-1.4.76-1.91,1.16-.94,1.96-1.31l4.66-2.11.19,1.08-4.15,1.99c-.64.29-1.11.59-1.4.9-.3.31-.44.68-.44,1.12,0,.48.16.84.49,1.09.33.25.78.37,1.36.37.54,0,1.04-.09,1.49-.28.45-.18.84-.43,1.18-.74.34-.31.59-.66.77-1.03.18-.38.26-.76.26-1.16l.07.86c-.1.58-.32,1.15-.68,1.72-.36.57-.84,1.04-1.43,1.4-.59.37-1.3.55-2.11.55Z"/>
      <path d="M435.39,73.92h-1.58v-16.08h1.58v16.08Z"/>
      <path d="M448.85,74.16c-1.07,0-2.02-.23-2.83-.7-.82-.46-1.46-1.15-1.92-2.05s-.7-1.99-.7-3.25.22-2.34.66-3.23c.44-.89,1.06-1.58,1.86-2.06.8-.49,1.71-.73,2.74-.73s1.97.23,2.74.68c.77.46,1.36,1.1,1.76,1.92.41.82.61,1.82.61,2.99,0,.16,0,.3-.01.43,0,.13-.03.25-.06.36h-9.17v-1.15h8.21l-.36.5c0-1.47-.34-2.58-1.01-3.31-.67-.74-1.58-1.1-2.71-1.1s-2.02.38-2.71,1.14c-.69.76-1.03,1.91-1.03,3.44v.24c0,1.01.16,1.85.49,2.53.33.68.79,1.19,1.39,1.52.6.34,1.28.5,2.05.5s1.43-.12,1.93-.37c.5-.25.91-.56,1.21-.92.3-.37.54-.74.7-1.1l.96,1.13c-.42.69-1.01,1.29-1.79,1.81-.78.52-1.78.78-3.01.78Z"/>
      <path d="M463.44,60.33h-1.58v-2.5h1.58v2.5ZM463.44,73.92h-1.58v-11.54h1.58v11.54Z"/>
      <path d="M468.39,73.92h-1.58v-11.54h1.58v11.54ZM476.21,73.92h-1.54v-7.44c0-.93-.23-1.66-.68-2.2s-1.19-.8-2.2-.8c-.8,0-1.46.18-1.97.54-.51.36-.88.82-1.1,1.39-.22.57-.34,1.19-.34,1.86l-.14-.79c.06-.75.26-1.46.58-2.12.32-.66.78-1.2,1.37-1.61.59-.41,1.33-.61,2.23-.61,1.15,0,2.07.34,2.76,1.01.69.67,1.03,1.67,1.03,3v7.78Z"/>
      <path d="M484.06,74.16c-1.04,0-1.97-.25-2.78-.74-.82-.5-1.45-1.2-1.91-2.1-.46-.9-.68-1.96-.68-3.16s.23-2.3.68-3.19c.46-.9,1.09-1.59,1.91-2.09.82-.5,1.74-.74,2.78-.74s2.01.25,2.81.74,1.44,1.19,1.91,2.09c.47.9.71,1.96.71,3.19s-.24,2.25-.71,3.16c-.47.9-1.11,1.6-1.91,2.1s-1.74.74-2.81.74ZM484.06,72.82c.77,0,1.44-.18,2.02-.53s1.02-.88,1.33-1.57c.31-.7.47-1.55.47-2.56s-.16-1.88-.47-2.58c-.31-.7-.76-1.22-1.33-1.57-.58-.35-1.25-.53-2.02-.53s-1.41.18-1.98.53c-.57.35-1.01.88-1.33,1.57s-.48,1.56-.48,2.58.16,1.86.48,2.56.76,1.22,1.33,1.57c.57.35,1.23.53,1.98.53Z"/>
      <path d="M493.85,73.92h-1.58v-16.08h1.58v16.08Z"/>
      <path d="M502.08,73.92h-1.97l-4.34-11.54h1.73l2.5,7.03,1.15,3.31,1.1-3.31,2.5-7.03h1.68l-4.34,11.54Z"/>
      <path d="M509.93,60.33h-1.58v-2.5h1.58v2.5ZM509.93,73.92h-1.58v-11.54h1.58v11.54Z"/>
      <path d="M517.42,74.18c-.99,0-1.85-.25-2.57-.74-.72-.5-1.27-1.2-1.64-2.1-.38-.9-.56-1.96-.56-3.16s.19-2.3.56-3.19c.38-.9.93-1.6,1.66-2.1.73-.5,1.59-.76,2.58-.76.85,0,1.56.2,2.12.59.57.39,1,.91,1.3,1.55.3.64.47,1.31.52,2.02l-.1.82c0-.64-.12-1.23-.36-1.78-.24-.54-.61-.99-1.1-1.33s-1.13-.52-1.9-.52c-1.06,0-1.94.38-2.64,1.13s-1.06,1.94-1.06,3.58.36,2.78,1.07,3.54c.71.76,1.58,1.14,2.6,1.14.77,0,1.4-.17,1.91-.52.5-.34.88-.79,1.12-1.33.24-.54.36-1.14.36-1.78l.1.79c-.05.7-.22,1.37-.53,2-.3.63-.74,1.15-1.3,1.55-.56.4-1.27.6-2.14.6ZM522.84,73.92h-1.56v-16.08h1.56v16.08Z"/>
      <path d="M535.61,73.92h-1.06c-.38,0-.72-.06-1.01-.19-.29-.13-.52-.34-.68-.62-.17-.29-.25-.67-.25-1.15v-5.09l-.05-.55c0-.86-.21-1.54-.64-2.02-.42-.48-1.11-.72-2.05-.72-.85,0-1.58.22-2.2.65-.62.43-1.07.98-1.36,1.63l-1.1-1.13c.24-.4.58-.8,1.03-1.2.45-.4.99-.73,1.63-1,.64-.26,1.37-.4,2.18-.4,1.34,0,2.36.37,3.05,1.1.69.74,1.03,1.75,1.03,3.05v5.4c0,.3.07.52.2.64.14.12.34.18.61.18h.65v1.42ZM528.46,74.16c-.94,0-1.67-.24-2.18-.72-.51-.48-.77-1.09-.77-1.82s.25-1.4.76-1.91,1.16-.94,1.96-1.31l4.66-2.11.19,1.08-4.15,1.99c-.64.29-1.11.59-1.4.9-.3.31-.44.68-.44,1.12,0,.48.16.84.49,1.09.33.25.78.37,1.36.37.54,0,1.04-.09,1.49-.28.45-.18.84-.43,1.18-.74.34-.31.59-.66.77-1.03.18-.38.26-.76.26-1.16l.07.86c-.1.58-.32,1.15-.68,1.72-.36.57-.84,1.04-1.43,1.4-.59.37-1.3.55-2.11.55Z"/>
      <path d="M539.76,73.92h-1.58v-16.08h1.58v16.08ZM543.58,74.18c-.83,0-1.54-.2-2.11-.6s-1.01-.92-1.31-1.55c-.3-.63-.48-1.3-.54-2l.14-.79c0,.64.12,1.23.35,1.78.23.54.6.99,1.1,1.33.5.34,1.14.52,1.91.52,1.06,0,1.93-.38,2.63-1.14.7-.76,1.04-1.94,1.04-3.54s-.35-2.82-1.04-3.58-1.57-1.13-2.63-1.13c-.77,0-1.4.17-1.91.52s-.87.79-1.1,1.33c-.23.54-.35,1.14-.35,1.78l-.14-.82c.06-.7.25-1.38.55-2.02.3-.64.74-1.16,1.3-1.55.56-.39,1.27-.59,2.14-.59,1.01,0,1.87.25,2.58.76s1.26,1.2,1.66,2.1c.39.9.59,1.96.59,3.19s-.19,2.25-.58,3.16c-.38.9-.94,1.6-1.66,2.1-.72.5-1.59.74-2.62.74Z"/>
      <path d="M552.7,73.92h-1.58v-16.08h1.58v16.08Z"/>
      <path d="M560.88,74.16c-1.07,0-2.02-.23-2.83-.7-.82-.46-1.46-1.15-1.92-2.05s-.7-1.99-.7-3.25.22-2.34.66-3.23c.44-.89,1.06-1.58,1.86-2.06.8-.49,1.71-.73,2.74-.73s1.97.23,2.74.68c.77.46,1.36,1.1,1.76,1.92.41.82.61,1.82.61,2.99,0,.16,0,.3-.01.43,0,.13-.03.25-.06.36h-9.17v-1.15h8.21l-.36.5c0-1.47-.34-2.58-1.01-3.31-.67-.74-1.58-1.1-2.71-1.1s-2.02.38-2.71,1.14c-.69.76-1.03,1.91-1.03,3.44v.24c0,1.01.16,1.85.49,2.53.33.68.79,1.19,1.39,1.52.6.34,1.28.5,2.05.5s1.43-.12,1.93-.37c.5-.25.91-.56,1.21-.92.3-.37.54-.74.7-1.1l.96,1.13c-.42.69-1.01,1.29-1.79,1.81-.78.52-1.78.78-3.01.78Z"/>
      <path d="M569.81,73.92h-1.85v-2.83h1.85v2.83Z"/>
      <path d="M364.59,88.03h-12.07v-1.39h12.07v1.39ZM359.33,102.72h-1.56v-16.08h1.56v16.08Z"/>
      <path d="M369.41,102.96c-1.07,0-2.02-.23-2.83-.7-.82-.46-1.46-1.15-1.92-2.05s-.7-1.99-.7-3.25.22-2.34.66-3.23c.44-.89,1.06-1.58,1.86-2.06s1.71-.73,2.74-.73,1.97.23,2.74.68c.77.46,1.36,1.1,1.76,1.92s.61,1.82.61,2.99c0,.16,0,.3-.01.43s-.03.25-.06.36h-9.17v-1.15h8.21l-.36.5c0-1.47-.34-2.58-1.01-3.31-.67-.74-1.58-1.1-2.71-1.1s-2.02.38-2.71,1.14c-.69.76-1.03,1.91-1.03,3.44v.24c0,1.01.16,1.85.49,2.53.33.68.79,1.19,1.39,1.52s1.28.5,2.05.5,1.43-.12,1.93-.37.91-.56,1.21-.92c.3-.37.54-.74.7-1.1l.96,1.13c-.42.69-1.01,1.29-1.79,1.81-.78.52-1.78.78-3.01.78Z"/>
      <path d="M387.25,102.96c-1.07,0-2.02-.23-2.83-.7-.82-.46-1.46-1.15-1.92-2.05-.46-.9-.7-1.99-.7-3.25s.22-2.34.66-3.23c.44-.89,1.06-1.58,1.86-2.06.8-.49,1.71-.73,2.74-.73s1.97.23,2.74.68c.77.46,1.36,1.1,1.76,1.92s.61,1.82.61,2.99c0,.16,0,.3-.01.43,0,.13-.03.25-.06.36h-9.17v-1.15h8.21l-.36.5c0-1.47-.34-2.58-1.01-3.31-.67-.74-1.58-1.1-2.71-1.1s-2.02.38-2.71,1.14c-.69.76-1.03,1.91-1.03,3.44v.24c0,1.01.16,1.85.49,2.53.33.68.79,1.19,1.39,1.52.6.34,1.28.5,2.05.5s1.43-.12,1.93-.37.91-.56,1.21-.92.54-.74.7-1.1l.96,1.13c-.42.69-1.01,1.29-1.79,1.81-.78.52-1.78.78-3.01.78Z"/>
      <path d="M399.15,102.96c-.77,0-1.51-.12-2.23-.36s-1.34-.6-1.86-1.08c-.52-.48-.9-1.1-1.14-1.85l1.15-.89c.14.5.39.96.74,1.39.35.43.82.78,1.39,1.04s1.24.4,1.99.4,1.4-.16,1.86-.47c.46-.31.68-.77.68-1.38,0-.58-.23-1-.7-1.28-.46-.28-1.09-.51-1.87-.68l-1.56-.38c-.54-.13-1.08-.31-1.6-.55-.52-.24-.94-.57-1.27-1-.33-.42-.49-.97-.49-1.64,0-1.01.36-1.8,1.08-2.39s1.68-.88,2.88-.88,2.24.27,3.02.82c.78.54,1.32,1.22,1.61,2.04l-1.18.89c-.29-.78-.73-1.38-1.32-1.8-.59-.42-1.33-.62-2.21-.62-.7,0-1.28.16-1.73.48-.45.32-.67.78-.67,1.37s.22,1.05.65,1.33c.43.28,1.06.52,1.9.71l1.56.36c1.2.32,2.06.73,2.57,1.24.51.5.77,1.17.77,2,0,.74-.18,1.34-.55,1.81s-.86.82-1.46,1.04c-.61.22-1.28.34-2.02.34Z"/>
      <path d="M407.43,107.18h-1.58v-16.01h1.58v16.01ZM411.25,102.96c-.83,0-1.54-.2-2.11-.6-.58-.4-1.01-.92-1.31-1.55-.3-.63-.48-1.3-.54-2l.14-.79c0,.64.12,1.23.35,1.78.23.54.6.99,1.1,1.33s1.14.52,1.91.52c1.04,0,1.91-.38,2.62-1.14.7-.76,1.05-1.94,1.05-3.54s-.35-2.83-1.05-3.59c-.71-.76-1.58-1.14-2.62-1.14-.77,0-1.4.17-1.91.52s-.87.79-1.1,1.33c-.23.54-.35,1.14-.35,1.78l-.14-.79c.06-.7.25-1.38.55-2.02.3-.64.74-1.16,1.3-1.55.56-.39,1.27-.59,2.14-.59,1.01,0,1.86.25,2.57.74.7.5,1.25,1.2,1.64,2.1.39.9.59,1.97.59,3.2s-.19,2.23-.58,3.14c-.38.91-.93,1.62-1.64,2.11-.71.5-1.58.74-2.6.74Z"/>
      <path d="M423.77,102.96c-1.07,0-2.02-.23-2.83-.7-.82-.46-1.46-1.15-1.92-2.05s-.7-1.99-.7-3.25.22-2.34.66-3.23c.44-.89,1.06-1.58,1.86-2.06.8-.49,1.71-.73,2.74-.73s1.97.23,2.74.68c.77.46,1.36,1.1,1.76,1.92.41.82.61,1.82.61,2.99,0,.16,0,.3-.01.43,0,.13-.03.25-.06.36h-9.17v-1.15h8.21l-.36.5c0-1.47-.34-2.58-1.01-3.31-.67-.74-1.58-1.1-2.71-1.1s-2.02.38-2.71,1.14c-.69.76-1.03,1.91-1.03,3.44v.24c0,1.01.16,1.85.49,2.53.33.68.79,1.19,1.39,1.52.6.34,1.28.5,2.05.5s1.43-.12,1.93-.37c.5-.25.91-.56,1.21-.92.3-.37.54-.74.7-1.1l.96,1.13c-.42.69-1.01,1.29-1.79,1.81-.78.52-1.78.78-3.01.78Z"/>
      <path d="M433.04,102.72h-1.58v-11.54h1.58v11.54ZM433.04,96.07l-.14-.79c.05-.54.16-1.08.35-1.6.18-.52.44-.99.76-1.4.32-.42.71-.74,1.16-.98s.97-.36,1.55-.36c.67,0,1.25.21,1.73.62.48.42.72,1.02.72,1.82,0,.43-.04.82-.13,1.18-.09.35-.2.62-.32.79h-1.68c.18-.19.32-.45.43-.78.11-.33.17-.67.17-1.02s-.11-.68-.34-.98c-.22-.3-.6-.46-1.13-.46-.58,0-1.1.19-1.58.58-.48.38-.86.88-1.13,1.48-.27.6-.41,1.24-.41,1.91Z"/>
      <path d="M450.56,102.72h-1.06c-.38,0-.72-.06-1.01-.19-.29-.13-.52-.34-.68-.62-.17-.29-.25-.67-.25-1.15v-5.09l-.05-.55c0-.86-.21-1.54-.64-2.02-.42-.48-1.11-.72-2.05-.72-.85,0-1.58.22-2.2.65-.62.43-1.07.98-1.36,1.63l-1.1-1.13c.24-.4.58-.8,1.03-1.2.45-.4.99-.73,1.63-1,.64-.26,1.37-.4,2.18-.4,1.34,0,2.36.37,3.05,1.1.69.74,1.03,1.75,1.03,3.05v5.4c0,.3.07.52.2.64.14.12.34.18.61.18h.65v1.42ZM443.41,102.96c-.94,0-1.67-.24-2.18-.72-.51-.48-.77-1.09-.77-1.82s.25-1.4.76-1.91,1.16-.94,1.96-1.31l4.66-2.11.19,1.08-4.15,1.99c-.64.29-1.11.59-1.4.9-.3.31-.44.68-.44,1.12,0,.48.16.84.49,1.09.33.25.78.37,1.36.37.54,0,1.04-.09,1.49-.28.45-.18.84-.43,1.18-.74.34-.31.59-.66.77-1.03.18-.38.26-.76.26-1.16l.07.86c-.1.58-.32,1.15-.68,1.72-.36.57-.84,1.04-1.43,1.4-.59.37-1.3.55-2.11.55Z"/>
      <path d="M454.71,102.72h-1.58v-11.54h1.58v11.54ZM461.98,102.72h-1.56v-7.46c0-1.01-.22-1.76-.67-2.24s-1.12-.73-2.02-.73c-.67,0-1.24.18-1.69.54-.46.36-.79.82-1.01,1.39s-.32,1.19-.32,1.86l-.14-.79c.06-.75.25-1.46.56-2.12.31-.66.75-1.2,1.32-1.61.57-.41,1.26-.61,2.08-.61,1.1,0,1.96.33,2.56,1,.6.66.9,1.66.9,2.99v7.8ZM469.28,102.72h-1.58v-7.46c0-1.01-.22-1.76-.67-2.24-.45-.49-1.11-.73-1.99-.73-.69,0-1.26.18-1.7.54-.45.36-.78.82-1.01,1.39-.22.57-.34,1.19-.34,1.86l-.12-.79c.05-.75.23-1.46.54-2.12.31-.66.75-1.2,1.32-1.61.57-.41,1.27-.61,2.1-.61,1.1,0,1.96.33,2.56,1,.6.66.9,1.66.9,2.99v7.8Z"/>
      <path d="M477.1,102.96c-1.04,0-1.97-.25-2.78-.74-.82-.5-1.45-1.2-1.91-2.1-.46-.9-.68-1.96-.68-3.16s.23-2.3.68-3.19c.46-.9,1.09-1.59,1.91-2.09.82-.5,1.74-.74,2.78-.74s2.01.25,2.81.74,1.44,1.19,1.91,2.09c.47.9.71,1.96.71,3.19s-.24,2.25-.71,3.16c-.47.9-1.11,1.6-1.91,2.1s-1.74.74-2.81.74ZM477.1,101.62c.77,0,1.44-.18,2.02-.53s1.02-.88,1.33-1.57c.31-.7.47-1.55.47-2.56s-.16-1.88-.47-2.58c-.31-.7-.76-1.22-1.33-1.57-.58-.35-1.25-.53-2.02-.53s-1.41.18-1.98.53c-.57.35-1.01.88-1.33,1.57s-.48,1.56-.48,2.58.16,1.86.48,2.56.76,1.22,1.33,1.57c.57.35,1.23.53,1.98.53Z"/>
      <path d="M489.49,102.96c-.77,0-1.51-.12-2.23-.36s-1.34-.6-1.86-1.08c-.52-.48-.9-1.1-1.14-1.85l1.15-.89c.14.5.39.96.74,1.39.35.43.82.78,1.39,1.04s1.24.4,1.99.4,1.4-.16,1.86-.47c.46-.31.68-.77.68-1.38,0-.58-.23-1-.7-1.28-.46-.28-1.09-.51-1.87-.68l-1.56-.38c-.54-.13-1.08-.31-1.6-.55-.52-.24-.94-.57-1.27-1s-.49-.97-.49-1.64c0-1.01.36-1.8,1.08-2.39s1.68-.88,2.88-.88,2.24.27,3.02.82c.78.54,1.32,1.22,1.61,2.04l-1.18.89c-.29-.78-.73-1.38-1.32-1.8-.59-.42-1.33-.62-2.21-.62-.71,0-1.28.16-1.73.48s-.67.78-.67,1.37.22,1.05.65,1.33c.43.28,1.06.52,1.9.71l1.56.36c1.2.32,2.06.73,2.57,1.24s.77,1.17.77,2c0,.74-.18,1.34-.55,1.81s-.86.82-1.46,1.04c-.61.22-1.28.34-2.02.34Z"/>
    </g>
  </g>
</svg>