<?xml version="1.0" encoding="UTF-8"?>
<svg id="Capa_2" data-name="Capa 2" xmlns="http://www.w3.org/2000/svg" viewBox="0 0 218.58 67.55">
  <defs>
    <style>
      .cls-1 {
        fill: #353535;
      }
    </style>
  </defs>
  <g id="letraL">
    <g>
      <path class="cls-1" d="M5.54,67.19h-1.58v-18.96H0v-1.15c.95,0,1.69-.04,2.23-.13.54-.09.96-.27,1.25-.56.3-.29.52-.71.68-1.29h1.38v22.09Z"/>
      <path class="cls-1" d="M18.04,67.52c-2.64,0-4.6-.56-5.89-1.67-1.29-1.11-1.93-2.52-1.93-4.24,0-.77.17-1.55.49-2.34.33-.79.9-1.49,1.7-2.11.8-.61,1.91-1.04,3.31-1.29-1.08-.13-1.97-.45-2.67-.96-.7-.5-1.23-1.13-1.58-1.88s-.53-1.54-.53-2.37c0-1.08.27-2.06.82-2.95.55-.89,1.35-1.6,2.41-2.14,1.05-.54,2.35-.81,3.89-.81s2.83.28,3.87.82c1.04.55,1.85,1.27,2.41,2.16.56.89.84,1.85.84,2.88,0,1.36-.43,2.52-1.3,3.46-.87.95-2.08,1.54-3.64,1.78,1.43.24,2.54.67,3.35,1.29.8.62,1.37,1.32,1.71,2.11.34.79.51,1.57.51,2.34,0,1.71-.64,3.13-1.91,4.24-1.27,1.11-3.23,1.67-5.87,1.67ZM18.04,66c1.54,0,2.74-.22,3.61-.66.87-.44,1.48-1.02,1.85-1.73.36-.71.54-1.46.54-2.23,0-.9-.22-1.71-.66-2.44s-1.1-1.3-2-1.73c-.89-.43-2.01-.64-3.35-.64s-2.46.21-3.36.64-1.57,1.01-2.01,1.73c-.44.73-.66,1.54-.66,2.44,0,.77.18,1.51.54,2.23.36.71.98,1.29,1.86,1.73.88.44,2.09.66,3.63.66ZM18.07,55.25c1.23,0,2.25-.2,3.05-.61.8-.41,1.4-.95,1.8-1.63.4-.68.59-1.41.59-2.18,0-.81-.19-1.57-.58-2.26s-.98-1.25-1.78-1.68c-.8-.43-1.83-.64-3.08-.64s-2.28.21-3.08.64c-.8.43-1.4.99-1.78,1.68-.38.69-.58,1.45-.58,2.26,0,.77.18,1.5.54,2.18.36.68.94,1.23,1.75,1.63.8.41,1.85.61,3.15.61Z"/>
      <path class="cls-1" d="M43.39,67.55c-1.38,0-2.57-.34-3.56-1.02-.99-.68-1.74-1.64-2.26-2.89-.52-1.24-.78-2.69-.78-4.34s.26-3.09.78-4.32c.52-1.23,1.27-2.19,2.26-2.87.99-.68,2.18-1.02,3.56-1.02,1.17,0,2.14.26,2.93.79.79.53,1.41,1.22,1.85,2.08s.68,1.77.73,2.74l-.13.86c0-.88-.18-1.7-.54-2.47-.36-.77-.91-1.4-1.65-1.9-.74-.5-1.65-.74-2.75-.74-1.56,0-2.86.56-3.89,1.67-1.03,1.11-1.55,2.84-1.55,5.19s.52,4.12,1.55,5.23c1.03,1.11,2.33,1.67,3.89,1.67,1.1,0,2.02-.25,2.75-.74.74-.49,1.29-1.13,1.65-1.9.36-.77.54-1.59.54-2.47l.13.86c-.04.97-.29,1.88-.73,2.74s-1.05,1.55-1.85,2.08c-.79.53-1.77.79-2.93.79ZM50.38,67.19h-1.62v-22.09h1.62v22.09Z"/>
      <path class="cls-1" d="M61.73,67.52c-1.43,0-2.7-.31-3.83-.92s-2-1.54-2.62-2.77c-.63-1.23-.94-2.74-.94-4.52s.3-3.25.89-4.47,1.43-2.15,2.51-2.79,2.31-.96,3.69-.96,2.58.3,3.59.91c1.01.61,1.8,1.48,2.36,2.64.56,1.15.84,2.54.84,4.17,0,.15-.01.31-.03.48-.02.17-.04.3-.07.41h-12.66v-1.22h11.71l-.4.5c0-2.22-.49-3.86-1.47-4.93-.98-1.07-2.27-1.6-3.87-1.6s-2.98.56-4.01,1.67c-1.02,1.11-1.53,2.8-1.53,5.06v.26c0,1.54.25,2.81.74,3.81.49,1,1.19,1.74,2.08,2.21.89.47,1.9.71,3.02.71s1.97-.17,2.67-.51c.7-.34,1.28-.78,1.71-1.32.44-.54.78-1.08,1.02-1.63l.96,1.22c-.53.97-1.31,1.81-2.34,2.52-1.03.71-2.37,1.07-4.02,1.07Z"/>
      <path class="cls-1" d="M91.96,67.19h-1.22c-.48,0-.91-.08-1.29-.23-.37-.15-.66-.41-.86-.76-.2-.35-.3-.83-.3-1.45v-7.29l-.03-.96c0-1.34-.33-2.33-1.01-2.97-.67-.64-1.62-.96-2.85-.96s-2.26.3-3.17.89-1.57,1.33-2.01,2.21l-1.09-1.12c.31-.57.76-1.12,1.35-1.65.59-.53,1.32-.96,2.18-1.3s1.81-.51,2.87-.51c1.8,0,3.14.47,4.01,1.42s1.3,2.25,1.3,3.92v8.08c0,.46.11.78.33.96.22.18.53.26.92.26h.86v1.45ZM82.4,67.52c-1.25,0-2.23-.31-2.92-.92s-1.04-1.44-1.04-2.47.34-1.89,1.02-2.57,1.55-1.26,2.6-1.75l6.53-2.97.2,1.15-5.97,2.83c-.97.44-1.68.9-2.13,1.37-.45.47-.68,1.04-.68,1.7,0,.77.26,1.34.77,1.71.52.37,1.18.56,2,.56.77,0,1.5-.15,2.18-.45.68-.3,1.27-.68,1.76-1.15s.88-.97,1.15-1.5c.27-.53.41-1.07.41-1.62l.03.96c-.11.84-.44,1.64-.99,2.42-.55.78-1.25,1.42-2.09,1.93-.85.51-1.8.76-2.85.76Z"/>
      <path class="cls-1" d="M97.24,67.19h-1.58v-22.09h1.58v22.09ZM102.61,67.55c-1.12,0-2.08-.26-2.88-.79-.8-.53-1.43-1.22-1.88-2.08-.45-.86-.7-1.77-.74-2.74l.13-.86c0,.88.19,1.7.56,2.47s.93,1.4,1.67,1.9c.74.5,1.65.74,2.75.74,1.58,0,2.89-.55,3.92-1.67,1.03-1.11,1.55-2.85,1.55-5.23s-.52-4.08-1.55-5.19c-1.03-1.11-2.34-1.67-3.92-1.67-1.1,0-2.02.25-2.75.74-.74.49-1.29,1.13-1.67,1.9-.37.77-.56,1.59-.56,2.47l-.13-.86c.04-.97.29-1.88.74-2.74.45-.86,1.08-1.55,1.88-2.08.8-.53,1.76-.79,2.88-.79,1.43,0,2.63.34,3.61,1.02.98.68,1.73,1.64,2.26,2.87.53,1.23.79,2.67.79,4.32s-.26,3.09-.78,4.34c-.52,1.24-1.27,2.2-2.26,2.89-.99.68-2.2,1.02-3.63,1.02Z"/>
      <path class="cls-1" d="M114.71,67.19h-1.58v-15.76h1.58v15.76ZM114.71,57.96l-.13-.86c.02-.75.17-1.48.43-2.21s.62-1.37,1.07-1.95c.45-.57.99-1.02,1.62-1.35.63-.33,1.34-.49,2.13-.49.99,0,1.8.29,2.44.86s.96,1.37.96,2.41c0,.55-.06,1.06-.17,1.52-.11.46-.25.86-.43,1.19h-1.75c.22-.29.4-.66.54-1.12.14-.46.21-.93.21-1.42,0-.57-.18-1.08-.54-1.53-.36-.45-.96-.68-1.8-.68-.88,0-1.67.28-2.36.84-.69.56-1.24,1.27-1.63,2.13s-.59,1.75-.59,2.67Z"/>
      <path class="cls-1" d="M128,48.46h-1.58v-3.36h1.58v3.36ZM128,67.19h-1.58v-15.76h1.58v15.76Z"/>
      <path class="cls-1" d="M134.46,67.19h-1.58v-22.09h1.58v22.09Z"/>
      <path class="cls-1" d="M161.21,67.19h-14.24v-1.22l8.08-8.11c.73-.73,1.4-1.46,2.01-2.19.62-.74,1.12-1.5,1.5-2.31s.58-1.65.58-2.56c0-.77-.15-1.5-.46-2.18-.31-.68-.81-1.24-1.5-1.67s-1.6-.64-2.72-.64c-1.43,0-2.61.3-3.54.89-.93.59-1.59,1.43-1.98,2.51s-.49,2.36-.31,3.86l-1.55-.96c-.15-1.45.05-2.77.61-3.96.56-1.19,1.43-2.13,2.6-2.84,1.18-.7,2.59-1.05,4.24-1.05,1.43,0,2.61.26,3.53.79s1.61,1.24,2.06,2.14.68,1.91.68,3.03c0,.86-.16,1.68-.48,2.47-.32.79-.73,1.54-1.22,2.24-.5.7-1.02,1.35-1.58,1.95s-1.09,1.14-1.6,1.65l-5.04,4.95-2.08,1.91,2.77-.13h9.66v1.42Z"/>
      <path class="cls-1" d="M172.94,67.52c-1.96,0-3.57-.51-4.85-1.52-1.28-1.01-2.22-2.38-2.84-4.1s-.92-3.65-.92-5.79.31-4.05.92-5.75c.62-1.7,1.56-3.06,2.84-4.07,1.27-1.01,2.89-1.52,4.85-1.52s3.6.51,4.86,1.52c1.26,1.01,2.2,2.37,2.82,4.07.62,1.7.92,3.62.92,5.75s-.31,4.06-.92,5.79c-.62,1.73-1.56,3.09-2.82,4.1-1.26,1.01-2.89,1.52-4.86,1.52ZM172.94,66.03c1.67,0,3.01-.44,4.02-1.32,1.01-.88,1.75-2.07,2.23-3.58.47-1.5.71-3.18.71-5.03s-.24-3.54-.71-5.01-1.21-2.65-2.23-3.53c-1.01-.88-2.35-1.32-4.02-1.32s-2.96.44-3.99,1.32-1.79,2.06-2.26,3.53-.71,3.14-.71,5.01.24,3.52.71,5.03c.47,1.51,1.23,2.7,2.26,3.58s2.36,1.32,3.99,1.32Z"/>
      <path class="cls-1" d="M199.45,67.19h-14.24v-1.22l8.08-8.11c.73-.73,1.4-1.46,2.01-2.19.62-.74,1.12-1.5,1.5-2.31s.58-1.65.58-2.56c0-.77-.15-1.5-.46-2.18-.31-.68-.81-1.24-1.5-1.67s-1.6-.64-2.72-.64c-1.43,0-2.61.3-3.54.89-.93.59-1.59,1.43-1.98,2.51s-.49,2.36-.31,3.86l-1.55-.96c-.15-1.45.05-2.77.61-3.96.56-1.19,1.43-2.13,2.6-2.84,1.18-.7,2.59-1.05,4.24-1.05,1.43,0,2.61.26,3.53.79s1.61,1.24,2.06,2.14.68,1.91.68,3.03c0,.86-.16,1.68-.48,2.47-.32.79-.73,1.54-1.22,2.24-.5.7-1.02,1.35-1.58,1.95s-1.09,1.14-1.6,1.65l-5.04,4.95-2.08,1.91,2.77-.13h9.66v1.42Z"/>
      <path class="cls-1" d="M211.23,67.52c-1.06,0-2.05-.17-2.98-.5-.93-.33-1.76-.88-2.47-1.67-.71-.78-1.27-1.83-1.67-3.15-.4-1.32-.59-2.98-.59-4.98v-1.58c0-2.53.34-4.59,1.02-6.2.68-1.6,1.63-2.79,2.84-3.54,1.21-.76,2.59-1.14,4.16-1.14s2.93.4,4.06,1.2c1.12.8,1.96,1.84,2.51,3.12l-1.32,1.22c-.4-1.16-1.05-2.12-1.96-2.87s-2.04-1.12-3.38-1.12c-.77,0-1.52.14-2.26.41-.74.28-1.41.76-2.03,1.45-.62.69-1.1,1.68-1.45,2.95-.35,1.28-.53,2.89-.53,4.85v3.23c.04-1.41.37-2.58.99-3.51.62-.93,1.43-1.64,2.44-2.13,1.01-.48,2.11-.73,3.3-.73,1.56,0,2.83.33,3.81.99.98.66,1.7,1.56,2.18,2.69.47,1.13.71,2.38.71,3.74s-.3,2.63-.89,3.73c-.59,1.1-1.45,1.96-2.56,2.59-1.11.63-2.41.94-3.91.94ZM211.23,66c1.21,0,2.23-.25,3.07-.74.83-.5,1.48-1.17,1.95-2.03s.69-1.81.69-2.87c0-1.19-.2-2.23-.61-3.13-.41-.9-1.01-1.62-1.81-2.14-.8-.53-1.83-.79-3.08-.79-1.12,0-2.14.21-3.05.63-.91.42-1.63,1.02-2.16,1.81-.53.79-.79,1.77-.79,2.93,0,2.13.53,3.72,1.58,4.76,1.05,1.04,2.46,1.57,4.22,1.57Z"/>
    </g>
    <g>
      <path class="cls-1" d="M51.33,13.8c-.64-.61-1.13-1.26-1.45-1.96-.33-.69-.49-1.42-.49-2.19,0-2,.92-3.75,2.76-5.25,1.84-1.5,3.99-2.25,6.46-2.25,1.24,0,2.89.35,4.96,1.06v6.52h-1.52c-.11-1.81-.67-3.3-1.68-4.45-1-1.15-2.23-1.72-3.68-1.72-1.19,0-2.17.36-2.94,1.09s-1.16,1.65-1.16,2.75.39,2.06,1.16,2.99c.76.93,2.58,2.36,5.46,4.3,2.19,1.46,3.66,2.65,4.43,3.55.75.92,1.13,2.04,1.13,3.38,0,2.18-1.01,4.13-3.02,5.83s-4.29,2.56-6.84,2.56c-1.82,0-3.87-.43-6.14-1.29v-7.53h1.48c0,2.11.61,3.88,1.84,5.29,1.22,1.42,2.68,2.13,4.36,2.13,1.55,0,2.77-.45,3.67-1.36.9-.9,1.35-2.05,1.35-3.44,0-1.21-.37-2.27-1.11-3.19-.74-.9-2.42-2.22-5.04-3.96-1.44-.95-2.76-1.9-3.97-2.88Z"/>
      <path class="cls-1" d="M69.11,12.9c3.2-2.11,6.21-3.17,9.04-3.17,1.32,0,2.28.29,2.86.88.58.58.87,1.57.86,2.96v13.03c0,.63.28.94.85.94s1.53-.64,2.92-1.92v1.29c-2.11,2.07-3.84,3.11-5.17,3.11-1.2,0-1.79-.67-1.79-2v-3.08c-1.74,1.78-3.21,3.07-4.41,3.88s-2.34,1.21-3.41,1.21-1.93-.41-2.67-1.22c-.74-.81-1.1-1.8-1.1-2.97,0-3.01,3.86-6.27,11.59-9.75v-2.5c0-.76-.23-1.4-.69-1.9-.46-.5-1.09-.75-1.9-.75-1.38,0-2.6.67-3.67,2-1.07,1.33-1.71,3-1.92,4.98h-1.4v-5ZM78.91,17.76c-2.58.53-4.67,1.43-6.27,2.72-1.6,1.29-2.4,2.6-2.4,3.95,0,.86.27,1.55.8,2.06.54.51,1.24.77,2.1.77,1.6,0,2.96-.84,4.06-2.53s1.68-4.01,1.7-6.97ZM74.84,6.54l2.67-4.96c.33-.61.73-.92,1.19-.92.38,0,.68.13.92.4.24.26.35.54.35.83,0,.33-.24.78-.73,1.33l-3.52,3.92-.88-.6Z"/>
      <path class="cls-1" d="M92.83,0v.85c-.39.22-.58.59-.58,1.11v14.29c2.61-3,4.45-4.83,5.52-5.49,1.07-.66,2.16-.99,3.27-.99,1.78,0,3.2.7,4.26,2.11s1.59,3.2,1.59,5.38c0,1.83-.39,3.61-1.17,5.34s-1.78,3.14-3.02,4.25-2.4,1.8-3.5,2.1c-1.1.3-2.46.45-4.08.45h-1.92c-1.46,0-2.42.1-2.88.3-.47.2-.82.54-1.05,1.01h-1.4c.36-.65.65-1.51.87-2.57.21-1.06.32-1.85.32-2.38V5.23c0-1.22-.47-1.84-1.4-1.84-.43,0-1.02.16-1.77.48v-1l6.94-2.88ZM92.25,26.16c1.69,1.04,3.49,1.56,5.4,1.56,1.38,0,2.53-.36,3.44-1.09s1.58-1.72,2-2.97c.43-1.25.64-2.67.64-4.27,0-2.07-.4-3.72-1.21-4.95-.8-1.24-1.91-1.85-3.32-1.85-1.81,0-3.47,1.04-4.97,3.12-1.5,2.08-2.25,4.57-2.25,7.45,0,.89.09,1.89.27,3Z"/>
      <path class="cls-1" d="M110.91,12.9c3.2-2.11,6.21-3.17,9.04-3.17,1.32,0,2.28.29,2.86.88.58.58.87,1.57.86,2.96v13.03c0,.63.28.94.85.94s1.53-.64,2.92-1.92v1.29c-2.11,2.07-3.84,3.11-5.17,3.11-1.2,0-1.79-.67-1.79-2v-3.08c-1.74,1.78-3.21,3.07-4.41,3.88s-2.34,1.21-3.41,1.21-1.93-.41-2.67-1.22c-.74-.81-1.1-1.8-1.1-2.97,0-3.01,3.86-6.27,11.59-9.75v-2.5c0-.76-.23-1.4-.69-1.9-.46-.5-1.09-.75-1.9-.75-1.38,0-2.6.67-3.67,2-1.07,1.33-1.71,3-1.92,4.98h-1.4v-5ZM120.7,17.76c-2.58.53-4.67,1.43-6.27,2.72-1.6,1.29-2.4,2.6-2.4,3.95,0,.86.27,1.55.8,2.06.54.51,1.24.77,2.1.77,1.6,0,2.96-.84,4.06-2.53s1.68-4.01,1.7-6.97Z"/>
      <path class="cls-1" d="M140.09,2.75l7.23-2.75v.85c-.6.24-.9.71-.9,1.42v23.34c0,1.14.5,1.71,1.49,1.71.45,0,1-.15,1.66-.46v1.06l-5.35,2.08h-.99v-6.75c-2.39,3.06-4.14,4.95-5.26,5.67-1.12.72-2.22,1.08-3.3,1.08-1.82,0-3.29-.82-4.4-2.47-1.11-1.65-1.67-3.53-1.67-5.66,0-2.92,1.08-5.67,3.23-8.27,2.15-2.59,4.54-3.89,7.15-3.89.58,0,1.23.09,1.94.27.71.18,1.48.46,2.31.83v-5.61c0-1.18-.45-1.77-1.35-1.77-.47,0-1.07.15-1.79.44v-1.15ZM143.22,13.61c-.97-.81-1.92-1.41-2.86-1.8-.93-.4-1.84-.59-2.73-.59-1.76,0-3.19.91-4.26,2.74-1.08,1.83-1.62,3.92-1.62,6.26,0,1.96.46,3.62,1.38,4.99.92,1.37,2.04,2.05,3.38,2.05,1.89,0,3.52-1.24,4.9-3.71s2.06-4.95,2.06-7.42c0-.95-.08-1.79-.25-2.52Z"/>
      <path class="cls-1" d="M161.23,9.78c2.63,0,4.73.82,6.31,2.47,1.58,1.65,2.37,3.84,2.37,6.58,0,3.25-1.1,5.93-3.29,8.04-2.2,2.11-4.61,3.16-7.25,3.16s-4.72-.84-6.25-2.51c-1.53-1.67-2.29-3.85-2.29-6.54,0-3.2,1.09-5.86,3.26-7.99,2.17-2.13,4.56-3.2,7.16-3.2ZM159.46,11.4c-1.89,0-3.33.67-4.34,2.02-1,1.35-1.5,3.04-1.5,5.07,0,2.5.79,4.74,2.37,6.7,1.58,1.97,3.42,2.95,5.51,2.95,1.56,0,2.87-.65,3.95-1.94,1.08-1.29,1.62-2.98,1.62-5.07,0-1.93-.43-3.67-1.29-5.2-.86-1.54-1.85-2.68-2.96-3.42-1.11-.74-2.23-1.12-3.36-1.12Z"/>
    </g>
  </g>
</svg>