<?xml version="1.0" encoding="UTF-8"?>
<svg id="Capa_2" data-name="Capa 2" xmlns="http://www.w3.org/2000/svg" viewBox="0 0 337.77 133.56">
  <g id="letraL">
    <g>
      <path d="M56.58,16.54c-.98,0-1.91-.14-2.81-.42-.9-.28-1.68-.73-2.36-1.34-.68-.62-1.2-1.42-1.55-2.41l1.2-1.06c.27.93.71,1.66,1.31,2.21.6.54,1.28.94,2.03,1.19.75.25,1.47.37,2.16.37s1.29-.09,1.85-.28c.56-.18,1.01-.49,1.36-.91s.52-.97.52-1.64-.14-1.15-.43-1.54-.71-.7-1.27-.94c-.56-.24-1.26-.46-2.09-.67l-1.7-.38c-.58-.13-1.13-.29-1.66-.49s-1-.47-1.43-.8c-.42-.34-.75-.75-.98-1.24-.23-.49-.35-1.08-.35-1.79,0-.96.24-1.76.71-2.41.47-.65,1.11-1.14,1.91-1.46.8-.33,1.65-.49,2.54-.49,1.47,0,2.74.32,3.8.97,1.06.65,1.83,1.57,2.29,2.77l-1.32,1.06c-.38-1.14-.99-1.97-1.81-2.51-.82-.54-1.82-.8-2.99-.8-.66,0-1.24.11-1.76.34-.52.22-.94.54-1.26.94-.32.4-.48.9-.48,1.49,0,.88.28,1.53.85,1.96.57.42,1.36.76,2.39,1l1.92.46c.61.16,1.2.34,1.78.55.58.21,1.08.48,1.52.82.44.34.78.76,1.03,1.27.25.51.37,1.14.37,1.87,0,.94-.23,1.74-.7,2.38s-1.1,1.13-1.9,1.46c-.8.34-1.7.5-2.69.5Z"/>
      <path d="M74.19,16.32h-1.06c-.38,0-.72-.06-1.01-.19-.29-.13-.52-.34-.68-.62-.17-.29-.25-.67-.25-1.15v-5.09l-.05-.55c0-.86-.21-1.54-.64-2.02-.42-.48-1.11-.72-2.05-.72-.85,0-1.58.22-2.2.65-.62.43-1.07.98-1.36,1.63l-1.1-1.13c.24-.4.58-.8,1.03-1.2.45-.4.99-.73,1.63-1,.64-.26,1.37-.4,2.18-.4,1.34,0,2.36.37,3.05,1.1.69.74,1.03,1.75,1.03,3.05v5.4c0,.3.07.52.2.64.14.12.34.18.61.18h.65v1.42ZM67.04,16.56c-.94,0-1.67-.24-2.18-.72-.51-.48-.77-1.09-.77-1.82s.25-1.4.76-1.91,1.16-.94,1.96-1.31l4.66-2.11.19,1.08-4.15,1.99c-.64.29-1.11.59-1.4.9-.3.31-.44.68-.44,1.12,0,.48.16.84.49,1.09.33.25.78.37,1.36.37.54,0,1.04-.09,1.49-.28.45-.18.84-.43,1.18-.74.34-.31.59-.66.77-1.03.18-.38.26-.76.26-1.16l.07.86c-.1.58-.32,1.15-.68,1.72-.36.57-.84,1.04-1.43,1.4-.59.37-1.3.55-2.11.55ZM69.56,3.19h-1.51l2.14-2.83h2.09l-2.71,2.83Z"/>
      <path d="M78.35,16.32h-1.58V.24h1.58v16.08ZM82.16,16.58c-.83,0-1.54-.2-2.11-.6s-1.01-.92-1.31-1.55c-.3-.63-.48-1.3-.54-2l.14-.79c0,.64.12,1.23.35,1.78.23.54.6.99,1.1,1.33.5.34,1.14.52,1.91.52,1.06,0,1.93-.38,2.63-1.14.7-.76,1.04-1.94,1.04-3.54s-.35-2.82-1.04-3.58-1.57-1.13-2.63-1.13c-.77,0-1.4.17-1.91.52s-.87.79-1.1,1.33c-.23.54-.35,1.14-.35,1.78l-.14-.82c.06-.7.25-1.38.55-2.02.3-.64.74-1.16,1.3-1.55.56-.39,1.27-.59,2.14-.59,1.01,0,1.87.25,2.58.76s1.26,1.2,1.66,2.1c.39.9.59,1.96.59,3.19s-.19,2.25-.58,3.16c-.38.9-.94,1.6-1.66,2.1-.72.5-1.59.74-2.62.74Z"/>
      <path d="M99.18,16.32h-1.06c-.38,0-.72-.06-1.01-.19-.29-.13-.52-.34-.68-.62-.17-.29-.25-.67-.25-1.15v-5.09l-.05-.55c0-.86-.21-1.54-.64-2.02-.42-.48-1.11-.72-2.05-.72-.85,0-1.58.22-2.2.65-.62.43-1.07.98-1.36,1.63l-1.1-1.13c.24-.4.58-.8,1.03-1.2.45-.4.99-.73,1.63-1,.64-.26,1.37-.4,2.18-.4,1.34,0,2.36.37,3.05,1.1.69.74,1.03,1.75,1.03,3.05v5.4c0,.3.07.52.2.64.14.12.34.18.61.18h.65v1.42ZM92.03,16.56c-.94,0-1.67-.24-2.18-.72-.51-.48-.77-1.09-.77-1.82s.25-1.4.76-1.91,1.16-.94,1.96-1.31l4.66-2.11.19,1.08-4.15,1.99c-.64.29-1.11.59-1.4.9-.3.31-.44.68-.44,1.12,0,.48.16.84.49,1.09.33.25.78.37,1.36.37.54,0,1.04-.09,1.49-.28.45-.18.84-.43,1.18-.74.34-.31.59-.66.77-1.03.18-.38.26-.76.26-1.16l.07.86c-.1.58-.32,1.15-.68,1.72-.36.57-.84,1.04-1.43,1.4-.59.37-1.3.55-2.11.55Z"/>
      <path d="M105.83,16.58c-.99,0-1.85-.25-2.57-.74-.72-.5-1.27-1.2-1.64-2.1-.38-.9-.56-1.96-.56-3.16s.19-2.3.56-3.19c.38-.9.93-1.6,1.66-2.1.73-.5,1.59-.76,2.58-.76.85,0,1.56.2,2.12.59.57.39,1,.91,1.3,1.55.3.64.47,1.31.52,2.02l-.1.82c0-.64-.12-1.23-.36-1.78-.24-.54-.61-.99-1.1-1.33s-1.13-.52-1.9-.52c-1.06,0-1.94.38-2.64,1.13s-1.06,1.94-1.06,3.58.36,2.78,1.07,3.54c.71.76,1.58,1.14,2.6,1.14.77,0,1.4-.17,1.91-.52.5-.34.88-.79,1.12-1.33.24-.54.36-1.14.36-1.78l.1.79c-.05.7-.22,1.37-.53,2-.3.63-.74,1.15-1.3,1.55-.56.4-1.27.6-2.14.6ZM111.25,16.32h-1.56V.24h1.56v16.08Z"/>
      <path d="M119.22,16.56c-1.04,0-1.97-.25-2.78-.74-.82-.5-1.45-1.2-1.91-2.1-.46-.9-.68-1.96-.68-3.16s.23-2.3.68-3.19c.46-.9,1.09-1.59,1.91-2.09.82-.5,1.74-.74,2.78-.74s2.01.25,2.81.74,1.44,1.19,1.91,2.09c.47.9.71,1.96.71,3.19s-.24,2.25-.71,3.16c-.47.9-1.11,1.6-1.91,2.1s-1.74.74-2.81.74ZM119.22,15.22c.77,0,1.44-.18,2.02-.53s1.02-.88,1.33-1.57c.31-.7.47-1.55.47-2.56s-.16-1.88-.47-2.58c-.31-.7-.76-1.22-1.33-1.57-.58-.35-1.25-.53-2.02-.53s-1.41.18-1.98.53c-.57.35-1.01.88-1.33,1.57s-.48,1.56-.48,2.58.16,1.86.48,2.56.76,1.22,1.33,1.57c.57.35,1.23.53,1.98.53Z"/>
      <path d="M136.26,16.32h-1.54V2.81h-2.9v-1.13c.56,0,1.04-.04,1.45-.12s.74-.23,1.01-.44.48-.51.66-.88h1.32v16.08Z"/>
      <path d="M145.23,16.56c-1.94,0-3.38-.4-4.34-1.21s-1.44-1.84-1.44-3.11c0-.56.12-1.12.35-1.68.23-.56.62-1.06,1.18-1.49s1.32-.75,2.29-.96c-.75-.1-1.37-.33-1.86-.7-.49-.37-.85-.82-1.08-1.36-.23-.54-.35-1.11-.35-1.72,0-.78.2-1.51.6-2.17.4-.66.99-1.19,1.78-1.58.78-.39,1.75-.59,2.9-.59s2.12.2,2.9.59c.78.39,1.38.92,1.78,1.58.4.67.6,1.38.6,2.15,0,.96-.29,1.79-.88,2.5-.58.7-1.43,1.14-2.53,1.3.99.21,1.77.53,2.33.96.56.43.96.93,1.2,1.49.24.56.36,1.12.36,1.68,0,1.26-.48,2.3-1.43,3.11s-2.4,1.21-4.36,1.21ZM145.23,15.07c1.06,0,1.87-.15,2.44-.44.57-.3.97-.68,1.2-1.15.23-.47.35-.96.35-1.48,0-.61-.15-1.15-.44-1.63-.3-.48-.74-.86-1.32-1.15-.58-.29-1.32-.43-2.22-.43s-1.64.14-2.22.43c-.58.29-1.02.67-1.32,1.15-.3.48-.44,1.02-.44,1.63,0,.51.12,1,.35,1.48.23.47.64.86,1.22,1.15.58.3,1.39.44,2.41.44ZM145.26,7.51c.82,0,1.49-.14,2.02-.41.53-.27.93-.64,1.2-1.09s.41-.96.41-1.5-.12-1.04-.37-1.5-.64-.83-1.16-1.12-1.22-.43-2.09-.43-1.54.14-2.08.43-.93.66-1.18,1.12-.37.96-.37,1.5.12,1.04.35,1.5c.23.46.62.82,1.15,1.09s1.24.41,2.12.41Z"/>
      <path d="M163.59,16.58c-.99,0-1.85-.25-2.57-.74-.72-.5-1.27-1.2-1.64-2.1-.38-.9-.56-1.96-.56-3.16s.19-2.3.56-3.19c.38-.9.93-1.6,1.66-2.1.73-.5,1.59-.76,2.58-.76.85,0,1.56.2,2.12.59.57.39,1,.91,1.3,1.55.3.64.47,1.31.52,2.02l-.1.82c0-.64-.12-1.23-.36-1.78-.24-.54-.61-.99-1.1-1.33s-1.13-.52-1.9-.52c-1.06,0-1.94.38-2.64,1.13s-1.06,1.94-1.06,3.58.36,2.78,1.07,3.54c.71.76,1.58,1.14,2.6,1.14.77,0,1.4-.17,1.91-.52.5-.34.88-.79,1.12-1.33.24-.54.36-1.14.36-1.78l.1.79c-.05.7-.22,1.37-.53,2-.3.63-.74,1.15-1.3,1.55-.56.4-1.27.6-2.14.6ZM169.02,16.32h-1.56V.24h1.56v16.08Z"/>
      <path d="M177.2,16.56c-1.07,0-2.02-.23-2.83-.7-.82-.46-1.46-1.15-1.92-2.05s-.7-1.99-.7-3.25.22-2.34.66-3.23c.44-.89,1.06-1.58,1.86-2.06.8-.49,1.71-.73,2.74-.73s1.97.23,2.74.68c.77.46,1.36,1.1,1.76,1.92.41.82.61,1.82.61,2.99,0,.16,0,.3-.01.43,0,.13-.03.25-.06.36h-9.17v-1.15h8.21l-.36.5c0-1.47-.34-2.58-1.01-3.31-.67-.74-1.58-1.1-2.71-1.1s-2.02.38-2.71,1.14c-.69.76-1.03,1.91-1.03,3.44v.24c0,1.01.16,1.85.49,2.53.33.68.79,1.19,1.39,1.52.6.34,1.28.5,2.05.5s1.43-.12,1.93-.37c.5-.25.91-.56,1.21-.92.3-.37.54-.74.7-1.1l.96,1.13c-.42.69-1.01,1.29-1.79,1.81-.78.52-1.78.78-3.01.78Z"/>
      <path d="M199.62,16.32h-1.06c-.38,0-.72-.06-1.01-.19-.29-.13-.52-.34-.68-.62-.17-.29-.25-.67-.25-1.15v-5.09l-.05-.55c0-.86-.21-1.54-.64-2.02-.42-.48-1.11-.72-2.05-.72-.85,0-1.58.22-2.2.65-.62.43-1.07.98-1.36,1.63l-1.1-1.13c.24-.4.58-.8,1.03-1.2.45-.4.99-.73,1.63-1,.64-.26,1.37-.4,2.18-.4,1.34,0,2.36.37,3.05,1.1.69.74,1.03,1.75,1.03,3.05v5.4c0,.3.07.52.2.64.14.12.34.18.61.18h.65v1.42ZM192.46,16.56c-.94,0-1.67-.24-2.18-.72-.51-.48-.77-1.09-.77-1.82s.25-1.4.76-1.91,1.16-.94,1.96-1.31l4.66-2.11.19,1.08-4.15,1.99c-.64.29-1.11.59-1.4.9-.3.31-.44.68-.44,1.12,0,.48.16.84.49,1.09.33.25.78.37,1.36.37.54,0,1.04-.09,1.49-.28.45-.18.84-.43,1.18-.74.34-.31.59-.66.77-1.03.18-.38.26-.76.26-1.16l.07.86c-.1.58-.32,1.15-.68,1.72-.36.57-.84,1.04-1.43,1.4-.59.37-1.3.55-2.11.55Z"/>
      <path d="M203.77,16.32h-1.58V.24h1.58v16.08ZM207.58,16.58c-.83,0-1.54-.2-2.11-.6s-1.01-.92-1.31-1.55c-.3-.63-.48-1.3-.54-2l.14-.79c0,.64.12,1.23.35,1.78.23.54.6.99,1.1,1.33.5.34,1.14.52,1.91.52,1.06,0,1.93-.38,2.63-1.14.7-.76,1.04-1.94,1.04-3.54s-.35-2.82-1.04-3.58-1.57-1.13-2.63-1.13c-.77,0-1.4.17-1.91.52s-.87.79-1.1,1.33c-.23.54-.35,1.14-.35,1.78l-.14-.82c.06-.7.25-1.38.55-2.02.3-.64.74-1.16,1.3-1.55.56-.39,1.27-.59,2.14-.59,1.01,0,1.87.25,2.58.76s1.26,1.2,1.66,2.1c.39.9.59,1.96.59,3.19s-.19,2.25-.58,3.16c-.38.9-.94,1.6-1.66,2.1-.72.5-1.59.74-2.62.74Z"/>
      <path d="M216.66,16.32h-1.58V4.78h1.58v11.54ZM216.66,9.67l-.14-.79c.05-.54.16-1.08.35-1.6.18-.52.44-.99.76-1.4.32-.42.71-.74,1.16-.98s.97-.36,1.55-.36c.67,0,1.25.21,1.73.62.48.42.72,1.02.72,1.82,0,.43-.04.82-.13,1.18-.09.35-.2.62-.32.79h-1.68c.18-.19.32-.45.43-.78.11-.33.17-.67.17-1.02s-.11-.68-.34-.98c-.22-.3-.6-.46-1.13-.46-.58,0-1.1.19-1.58.58-.48.38-.86.88-1.13,1.48-.27.6-.41,1.24-.41,1.91Z"/>
      <path d="M226.52,2.74h-1.58V.24h1.58v2.5ZM226.52,16.32h-1.58V4.78h1.58v11.54Z"/>
      <path d="M231.46,16.32h-1.58V.24h1.58v16.08Z"/>
      <path d="M251,16.32h-10.61v-1.22l5.59-5.57c.56-.56,1.07-1.11,1.54-1.64s.84-1.08,1.12-1.64c.28-.56.42-1.16.42-1.8,0-.5-.1-.97-.31-1.42-.21-.45-.53-.81-.97-1.09-.44-.28-1.03-.42-1.76-.42-.98,0-1.79.21-2.44.62-.65.42-1.11,1-1.39,1.75s-.36,1.67-.23,2.76l-1.46-.94c-.13-1.06.03-2.02.47-2.88.44-.86,1.1-1.55,1.98-2.06s1.94-.77,3.17-.77c1.06,0,1.92.19,2.58.58s1.16.9,1.49,1.56.49,1.4.49,2.23c0,.62-.12,1.23-.37,1.82s-.57,1.16-.96,1.69c-.39.54-.8,1.03-1.22,1.49s-.82.85-1.19,1.19l-3.14,3.07-1.63,1.39,2.02-.1h6.84v1.39Z"/>
      <path d="M259.5,16.56c-1.46,0-2.66-.37-3.6-1.1-.94-.74-1.64-1.73-2.09-2.99s-.67-2.66-.67-4.21.22-2.95.67-4.19,1.14-2.23,2.09-2.96,2.14-1.1,3.6-1.1,2.63.37,3.56,1.1c.94.74,1.63,1.72,2.09,2.96s.68,2.64.68,4.19-.23,2.96-.68,4.21-1.15,2.25-2.09,2.99c-.94.74-2.12,1.1-3.56,1.1ZM259.5,15.07c1.15,0,2.07-.3,2.75-.89.68-.59,1.18-1.4,1.49-2.44.31-1.03.47-2.2.47-3.49s-.16-2.45-.47-3.47c-.31-1.02-.81-1.82-1.49-2.41-.68-.59-1.6-.89-2.75-.89s-2.05.3-2.75.89c-.7.59-1.2,1.4-1.51,2.41-.31,1.02-.47,2.17-.47,3.47s.16,2.46.47,3.49c.31,1.03.82,1.84,1.51,2.44.7.59,1.61.89,2.75.89Z"/>
      <path d="M278.98,16.32h-10.61v-1.22l5.59-5.57c.56-.56,1.07-1.11,1.54-1.64s.84-1.08,1.12-1.64c.28-.56.42-1.16.42-1.8,0-.5-.1-.97-.31-1.42-.21-.45-.53-.81-.97-1.09-.44-.28-1.03-.42-1.76-.42-.98,0-1.79.21-2.44.62-.65.42-1.11,1-1.39,1.75s-.36,1.67-.23,2.76l-1.46-.94c-.13-1.06.03-2.02.47-2.88.44-.86,1.1-1.55,1.98-2.06s1.94-.77,3.17-.77c1.06,0,1.92.19,2.58.58s1.16.9,1.49,1.56.49,1.4.49,2.23c0,.62-.12,1.23-.37,1.82s-.57,1.16-.96,1.69c-.39.54-.8,1.03-1.22,1.49s-.82.85-1.19,1.19l-3.14,3.07-1.63,1.39,2.02-.1h6.84v1.39Z"/>
      <path d="M287.31,16.56c-.82,0-1.58-.12-2.28-.37s-1.32-.67-1.85-1.26c-.53-.59-.94-1.39-1.22-2.4s-.43-2.26-.43-3.77v-.77c0-1.81.24-3.3.73-4.49.49-1.18,1.18-2.06,2.08-2.64.9-.58,1.96-.86,3.19-.86,1.17,0,2.18.29,3.02.88.85.58,1.49,1.35,1.92,2.29l-1.34,1.15c-.29-.83-.75-1.51-1.39-2.03-.64-.52-1.42-.78-2.33-.78-.51,0-1.02.1-1.52.3-.5.2-.96.54-1.37,1.02-.41.48-.73,1.16-.97,2.04-.24.88-.36,1.98-.36,3.31v2.09c.06-.94.3-1.75.72-2.41s.98-1.17,1.68-1.51,1.49-.52,2.35-.52c1.12,0,2.04.24,2.75.71.71.47,1.24,1.12,1.57,1.93.34.82.5,1.72.5,2.71s-.22,1.94-.67,2.75-1.08,1.45-1.9,1.92c-.82.47-1.78.71-2.88.71ZM287.29,15.07c.82,0,1.5-.17,2.06-.52.56-.34.99-.8,1.3-1.38.3-.58.46-1.21.46-1.9,0-.8-.13-1.5-.4-2.1-.26-.6-.67-1.06-1.21-1.39-.54-.33-1.24-.49-2.09-.49-.77,0-1.46.13-2.06.4-.61.26-1.08.66-1.43,1.2s-.52,1.19-.52,1.96c0,1.44.35,2.5,1.06,3.19.7.69,1.65,1.03,2.83,1.03Z"/>
      <path d="M68.12,45.12h-1.54v-16.08h1.54v16.08ZM77.94,37.61h-10.82v-1.39h10.82v1.39ZM78.68,45.12h-1.54v-16.08h1.54v16.08Z"/>
      <path d="M86.84,45.36c-1.04,0-1.97-.25-2.78-.74-.82-.5-1.45-1.2-1.91-2.1-.46-.9-.68-1.96-.68-3.16s.23-2.3.68-3.19c.46-.9,1.09-1.59,1.91-2.09.82-.5,1.74-.74,2.78-.74s2.01.25,2.81.74,1.44,1.19,1.91,2.09c.47.9.71,1.96.71,3.19s-.24,2.25-.71,3.16c-.47.9-1.11,1.6-1.91,2.1s-1.74.74-2.81.74ZM86.84,44.02c.77,0,1.44-.18,2.02-.53s1.02-.88,1.33-1.57c.31-.7.47-1.55.47-2.56s-.16-1.88-.47-2.58c-.31-.7-.76-1.22-1.33-1.57-.58-.35-1.25-.53-2.02-.53s-1.41.18-1.98.53c-.57.35-1.01.88-1.33,1.57s-.48,1.56-.48,2.58.16,1.86.48,2.56.76,1.22,1.33,1.57c.57.35,1.23.53,1.98.53Z"/>
      <path d="M96.59,45.12h-1.58v-11.54h1.58v11.54ZM96.59,38.47l-.14-.79c.05-.54.16-1.08.35-1.6.18-.52.44-.99.76-1.4.32-.42.71-.74,1.16-.98s.97-.36,1.55-.36c.67,0,1.25.21,1.73.62.48.42.72,1.02.72,1.82,0,.43-.04.82-.13,1.18-.09.35-.2.62-.32.79h-1.68c.18-.19.32-.45.43-.78.11-.33.17-.67.17-1.02s-.11-.68-.34-.98c-.22-.3-.6-.46-1.13-.46-.58,0-1.1.19-1.58.58-.48.38-.86.88-1.13,1.48-.27.6-.41,1.24-.41,1.91Z"/>
      <path d="M114.11,45.12h-1.06c-.38,0-.72-.06-1.01-.19-.29-.13-.52-.34-.68-.62-.17-.29-.25-.67-.25-1.15v-5.09l-.05-.55c0-.86-.21-1.54-.64-2.02-.42-.48-1.11-.72-2.05-.72-.85,0-1.58.22-2.2.65-.62.43-1.07.98-1.36,1.63l-1.1-1.13c.24-.4.58-.8,1.03-1.2.45-.4.99-.73,1.63-1,.64-.26,1.37-.4,2.18-.4,1.34,0,2.36.37,3.05,1.1.69.74,1.03,1.75,1.03,3.05v5.4c0,.3.07.52.2.64.14.12.34.18.61.18h.65v1.42ZM106.95,45.36c-.94,0-1.67-.24-2.18-.72-.51-.48-.77-1.09-.77-1.82s.25-1.4.76-1.91,1.16-.94,1.96-1.31l4.66-2.11.19,1.08-4.15,1.99c-.64.29-1.11.59-1.4.9-.3.31-.44.68-.44,1.12,0,.48.16.84.49,1.09.33.25.78.37,1.36.37.54,0,1.04-.09,1.49-.28.45-.18.84-.43,1.18-.74.34-.31.59-.66.77-1.03.18-.38.26-.76.26-1.16l.07.86c-.1.58-.32,1.15-.68,1.72-.36.57-.84,1.04-1.43,1.4-.59.37-1.3.55-2.11.55Z"/>
      <path d="M118.09,37.08h-1.85v-2.83h1.85v2.83ZM118.09,45.12h-1.85v-2.83h1.85v2.83Z"/>
      <path d="M138.56,41.28h-12.91v-1.22l8.45-11.02h.72v1.7l-.26.02-7.1,9.12h11.11v1.39ZM135.68,45.12h-1.56v-16.08h1.56v16.08Z"/>
      <path d="M142.47,49.58h-1.58v-16.01h1.58v16.01ZM146.29,45.36c-.83,0-1.54-.2-2.11-.6-.58-.4-1.01-.92-1.31-1.55-.3-.63-.48-1.3-.54-2l.14-.79c0,.64.12,1.23.35,1.78.23.54.6.99,1.1,1.33s1.14.52,1.91.52c1.04,0,1.91-.38,2.62-1.14s1.06-1.94,1.06-3.54-.35-2.83-1.06-3.59-1.58-1.14-2.62-1.14c-.77,0-1.4.17-1.91.52s-.87.79-1.1,1.33c-.23.54-.35,1.14-.35,1.78l-.14-.79c.06-.7.25-1.38.55-2.02s.74-1.16,1.3-1.55c.56-.39,1.27-.59,2.14-.59,1.01,0,1.86.25,2.57.74.7.5,1.25,1.2,1.64,2.1.39.9.59,1.97.59,3.2s-.19,2.23-.58,3.14-.93,1.62-1.64,2.11-1.58.74-2.6.74Z"/>
      <path d="M155.34,45.12h-1.58v-11.54h1.58v11.54ZM162.61,45.12h-1.56v-7.46c0-1.01-.22-1.76-.67-2.24s-1.12-.73-2.02-.73c-.67,0-1.24.18-1.69.54-.46.36-.79.82-1.01,1.39s-.32,1.19-.32,1.86l-.14-.79c.06-.75.25-1.46.56-2.12.31-.66.75-1.2,1.32-1.61.57-.41,1.26-.61,2.08-.61,1.1,0,1.96.33,2.56,1,.6.66.9,1.66.9,2.99v7.8ZM169.91,45.12h-1.58v-7.46c0-1.01-.22-1.76-.67-2.24-.45-.49-1.11-.73-1.99-.73-.69,0-1.26.18-1.7.54-.45.36-.78.82-1.01,1.39-.22.57-.34,1.19-.34,1.86l-.12-.79c.05-.75.23-1.46.54-2.12.31-.66.75-1.2,1.32-1.61.57-.41,1.27-.61,2.1-.61,1.1,0,1.96.33,2.56,1,.6.66.9,1.66.9,2.99v7.8Z"/>
      <path d="M183.27,45.36c-1.07,0-2.02-.23-2.83-.7-.82-.46-1.46-1.15-1.92-2.05s-.7-1.99-.7-3.25.22-2.34.66-3.23c.44-.89,1.06-1.58,1.86-2.06.8-.49,1.71-.73,2.74-.73s1.97.23,2.74.68c.77.46,1.36,1.1,1.76,1.92.41.82.61,1.82.61,2.99,0,.16,0,.3-.01.43,0,.13-.03.25-.06.36h-9.17v-1.15h8.21l-.36.5c0-1.47-.34-2.58-1.01-3.31-.67-.74-1.58-1.1-2.71-1.1s-2.02.38-2.71,1.14c-.69.76-1.03,1.91-1.03,3.44v.24c0,1.01.16,1.85.49,2.53.33.68.79,1.19,1.39,1.52.6.34,1.28.5,2.05.5s1.43-.12,1.93-.37c.5-.25.91-.56,1.21-.92.3-.37.54-.74.7-1.1l.96,1.13c-.42.69-1.01,1.29-1.79,1.81-.78.52-1.78.78-3.01.78Z"/>
      <path d="M194.65,45.36c-.75,0-1.41-.15-1.98-.44-.57-.3-1.01-.74-1.33-1.34-.32-.6-.48-1.34-.48-2.22v-7.78h1.58v7.44c0,.93.23,1.66.68,2.21.46.54,1.17.82,2.15.82.85,0,1.52-.18,2.02-.54s.86-.82,1.09-1.39c.23-.57.35-1.19.35-1.86l.1.74c-.05.75-.23,1.46-.54,2.12-.31.66-.77,1.2-1.37,1.62-.6.42-1.36.62-2.27.62ZM200.29,45.12h-1.56v-11.54h1.56v11.54Z"/>
      <path d="M208.3,45.36c-1.09,0-2.03-.24-2.83-.72-.8-.48-1.42-1.17-1.86-2.08-.44-.9-.66-1.97-.66-3.2s.22-2.34.66-3.24c.44-.9,1.06-1.58,1.87-2.06.81-.48,1.75-.72,2.84-.72,1.42,0,2.58.38,3.46,1.14.88.76,1.43,1.72,1.66,2.87l-1.51.67c-.11-.98-.46-1.78-1.06-2.4s-1.44-.94-2.54-.94c-.75,0-1.42.18-1.99.53-.58.35-1.02.88-1.33,1.57-.31.7-.47,1.56-.47,2.58s.16,1.88.47,2.58c.31.7.76,1.22,1.33,1.57.58.35,1.24.53,1.99.53,1.09,0,1.93-.31,2.53-.94.6-.62.96-1.43,1.07-2.42l1.51.67c-.22,1.15-.78,2.11-1.67,2.87-.89.76-2.04,1.14-3.47,1.14Z"/>
      <path d="M225.7,45.12h-1.06c-.38,0-.72-.06-1.01-.19-.29-.13-.52-.34-.68-.62-.17-.29-.25-.67-.25-1.15v-5.09l-.05-.55c0-.86-.21-1.54-.64-2.02-.42-.48-1.11-.72-2.05-.72-.85,0-1.58.22-2.2.65-.62.43-1.07.98-1.36,1.63l-1.1-1.13c.24-.4.58-.8,1.03-1.2.45-.4.99-.73,1.63-1,.64-.26,1.37-.4,2.18-.4,1.34,0,2.36.37,3.05,1.1.69.74,1.03,1.75,1.03,3.05v5.4c0,.3.07.52.2.64.14.12.34.18.61.18h.65v1.42ZM218.55,45.36c-.94,0-1.67-.24-2.18-.72-.51-.48-.77-1.09-.77-1.82s.25-1.4.76-1.91,1.16-.94,1.96-1.31l4.66-2.11.19,1.08-4.15,1.99c-.64.29-1.11.59-1.4.9-.3.31-.44.68-.44,1.12,0,.48.16.84.49,1.09.33.25.78.37,1.36.37.54,0,1.04-.09,1.49-.28.45-.18.84-.43,1.18-.74.34-.31.59-.66.77-1.03.18-.38.26-.76.26-1.16l.07.86c-.1.58-.32,1.15-.68,1.72-.36.57-.84,1.04-1.43,1.4-.59.37-1.3.55-2.11.55Z"/>
      <path d="M229.86,45.12h-1.58v-11.54h1.58v11.54ZM229.86,38.47l-.14-.79c.05-.54.16-1.08.35-1.6.18-.52.44-.99.76-1.4.32-.42.71-.74,1.16-.98s.97-.36,1.55-.36c.67,0,1.25.21,1.73.62.48.42.72,1.02.72,1.82,0,.43-.04.82-.13,1.18-.09.35-.2.62-.32.79h-1.68c.18-.19.32-.45.43-.78.11-.33.17-.67.17-1.02s-.11-.68-.34-.98c-.22-.3-.6-.46-1.13-.46-.58,0-1.1.19-1.58.58-.48.38-.86.88-1.13,1.48-.27.6-.41,1.24-.41,1.91Z"/>
      <path d="M239.72,31.54h-1.58v-2.5h1.58v2.5ZM239.72,45.12h-1.58v-11.54h1.58v11.54Z"/>
      <path d="M247.47,45.36c-.77,0-1.51-.12-2.23-.36s-1.34-.6-1.86-1.08c-.52-.48-.9-1.1-1.14-1.85l1.15-.89c.14.5.39.96.74,1.39.35.43.82.78,1.39,1.04s1.24.4,1.99.4,1.4-.16,1.86-.47c.46-.31.68-.77.68-1.38,0-.58-.23-1-.7-1.28-.46-.28-1.09-.51-1.87-.68l-1.56-.38c-.54-.13-1.08-.31-1.6-.55-.52-.24-.94-.57-1.27-1s-.49-.97-.49-1.64c0-1.01.36-1.8,1.08-2.39s1.68-.88,2.88-.88,2.24.27,3.02.82c.78.54,1.32,1.22,1.61,2.04l-1.18.89c-.29-.78-.73-1.38-1.32-1.8-.59-.42-1.33-.62-2.21-.62-.71,0-1.28.16-1.73.48s-.67.78-.67,1.37.22,1.05.65,1.33c.43.28,1.06.52,1.9.71l1.56.36c1.2.32,2.06.73,2.57,1.24s.77,1.17.77,2c0,.74-.18,1.34-.55,1.81s-.86.82-1.46,1.04c-.61.22-1.28.34-2.02.34Z"/>
      <path d="M259.98,34.82h-7.34v-1.25h7.34v1.25ZM257.67,45.38c-.61,0-1.15-.12-1.62-.37-.47-.25-.85-.61-1.13-1.08-.28-.47-.42-1.05-.42-1.74v-10.25l1.58-1.18v10.99c0,.83.18,1.39.55,1.68.37.29.81.43,1.32.43s.99-.16,1.38-.48c.39-.32.69-.68.9-1.08l.53,1.54c-.26.43-.65.8-1.19,1.09s-1.17.44-1.91.44Z"/>
      <path d="M264.39,31.99h-1.51l2.14-2.83h2.09l-2.71,2.83ZM264.49,45.12h-1.58v-11.54h1.58v11.54Z"/>
      <path d="M277.25,45.12h-1.06c-.38,0-.72-.06-1.01-.19-.29-.13-.52-.34-.68-.62-.17-.29-.25-.67-.25-1.15v-5.09l-.05-.55c0-.86-.21-1.54-.64-2.02-.42-.48-1.11-.72-2.05-.72-.85,0-1.58.22-2.2.65-.62.43-1.07.98-1.36,1.63l-1.1-1.13c.24-.4.58-.8,1.03-1.2.45-.4.99-.73,1.63-1,.64-.26,1.37-.4,2.18-.4,1.34,0,2.36.37,3.05,1.1.69.74,1.03,1.75,1.03,3.05v5.4c0,.3.07.52.2.64.14.12.34.18.61.18h.65v1.42ZM270.1,45.36c-.94,0-1.67-.24-2.18-.72-.51-.48-.77-1.09-.77-1.82s.25-1.4.76-1.91,1.16-.94,1.96-1.31l4.66-2.11.19,1.08-4.15,1.99c-.64.29-1.11.59-1.4.9-.3.31-.44.68-.44,1.12,0,.48.16.84.49,1.09.33.25.78.37,1.36.37.54,0,1.04-.09,1.49-.28.45-.18.84-.43,1.18-.74.34-.31.59-.66.77-1.03.18-.38.26-.76.26-1.16l.07.86c-.1.58-.32,1.15-.68,1.72-.36.57-.84,1.04-1.43,1.4-.59.37-1.3.55-2.11.55Z"/>
      <path d="M89.97,73.92h-1.54v-16.08h1.54v16.08ZM95.21,67.27h-6.24v-1.3h5.88c.75,0,1.44-.11,2.05-.32.62-.22,1.1-.57,1.44-1.07s.52-1.14.52-1.94-.18-1.5-.53-2c-.35-.5-.84-.86-1.45-1.08s-1.3-.32-2.05-.32h-5.86v-1.39h6.1c1.06,0,1.99.18,2.81.54s1.45.9,1.91,1.62.68,1.6.68,2.64c0,.96-.22,1.78-.65,2.46-.43.68-1.04,1.2-1.84,1.55-.79.35-1.72.53-2.77.53v.1ZM100.87,73.92h-1.85l-2.95-5.02c-.3-.54-.71-.95-1.22-1.22-.51-.27-1.16-.41-1.94-.41l2.18-.29c.4.03.77.12,1.1.26.34.14.64.35.92.61.28.26.53.61.76,1.04l3,5.02Z"/>
      <path d="M107.66,74.16c-1.07,0-2.02-.23-2.83-.7-.82-.46-1.46-1.15-1.92-2.05s-.7-1.99-.7-3.25.22-2.34.66-3.23c.44-.89,1.06-1.58,1.86-2.06.8-.49,1.71-.73,2.74-.73s1.97.23,2.74.68c.77.46,1.36,1.1,1.76,1.92.41.82.61,1.82.61,2.99,0,.16,0,.3-.01.43,0,.13-.03.25-.06.36h-9.17v-1.15h8.21l-.36.5c0-1.47-.34-2.58-1.01-3.31-.67-.74-1.58-1.1-2.71-1.1s-2.02.38-2.71,1.14c-.69.76-1.03,1.91-1.03,3.44v.24c0,1.01.16,1.85.49,2.53.33.68.79,1.19,1.39,1.52.6.34,1.28.5,2.05.5s1.43-.12,1.93-.37c.5-.25.91-.56,1.21-.92.3-.37.54-.74.7-1.1l.96,1.13c-.42.69-1.01,1.29-1.79,1.81-.78.52-1.78.78-3.01.78Z"/>
      <path d="M120.29,74.16c-1.09,0-2.03-.24-2.83-.72-.8-.48-1.42-1.17-1.86-2.08-.44-.9-.66-1.97-.66-3.2s.22-2.34.66-3.24c.44-.9,1.06-1.58,1.87-2.06.81-.48,1.75-.72,2.84-.72,1.42,0,2.58.38,3.46,1.14.88.76,1.43,1.72,1.66,2.87l-1.51.67c-.11-.98-.46-1.78-1.06-2.4s-1.44-.94-2.54-.94c-.75,0-1.42.18-1.99.53-.58.35-1.02.88-1.33,1.57-.31.7-.47,1.56-.47,2.58s.16,1.88.47,2.58c.31.7.76,1.22,1.33,1.57.58.35,1.24.53,1.99.53,1.09,0,1.93-.31,2.53-.94.6-.62.96-1.43,1.07-2.42l1.51.67c-.22,1.15-.78,2.11-1.67,2.87-.89.76-2.04,1.14-3.47,1.14Z"/>
      <path d="M132.81,74.16c-1.07,0-2.02-.23-2.83-.7-.82-.46-1.46-1.15-1.92-2.05s-.7-1.99-.7-3.25.22-2.34.66-3.23c.44-.89,1.06-1.58,1.86-2.06.8-.49,1.71-.73,2.74-.73s1.97.23,2.74.68c.77.46,1.36,1.1,1.76,1.92.41.82.61,1.82.61,2.99,0,.16,0,.3-.01.43,0,.13-.03.25-.06.36h-9.17v-1.15h8.21l-.36.5c0-1.47-.34-2.58-1.01-3.31-.67-.74-1.58-1.1-2.71-1.1s-2.02.38-2.71,1.14c-.69.76-1.03,1.91-1.03,3.44v.24c0,1.01.16,1.85.49,2.53.33.68.79,1.19,1.39,1.52.6.34,1.28.5,2.05.5s1.43-.12,1.93-.37c.5-.25.91-.56,1.21-.92.3-.37.54-.74.7-1.1l.96,1.13c-.42.69-1.01,1.29-1.79,1.81-.78.52-1.78.78-3.01.78Z"/>
      <path d="M142.12,78.38h-1.58v-16.01h1.58v16.01ZM145.94,74.16c-.83,0-1.54-.2-2.11-.6-.58-.4-1.01-.92-1.31-1.55-.3-.63-.48-1.3-.54-2l.14-.79c0,.64.12,1.23.35,1.78.23.54.6.99,1.1,1.33s1.14.52,1.91.52c1.04,0,1.91-.38,2.62-1.14s1.06-1.94,1.06-3.54-.35-2.83-1.06-3.59-1.58-1.14-2.62-1.14c-.77,0-1.4.17-1.91.52s-.87.79-1.1,1.33c-.23.54-.35,1.14-.35,1.78l-.14-.79c.06-.7.25-1.38.55-2.02s.74-1.16,1.3-1.55c.56-.39,1.27-.59,2.14-.59,1.01,0,1.86.25,2.57.74.7.5,1.25,1.2,1.64,2.1.39.9.59,1.97.59,3.2s-.19,2.23-.58,3.14-.93,1.62-1.64,2.11-1.58.74-2.6.74Z"/>
      <path d="M158.35,74.16c-1.09,0-2.03-.24-2.83-.72-.8-.48-1.42-1.17-1.86-2.08-.44-.9-.66-1.97-.66-3.2s.22-2.34.66-3.24c.44-.9,1.06-1.58,1.87-2.06.81-.48,1.75-.72,2.84-.72,1.42,0,2.58.38,3.46,1.14.88.76,1.43,1.72,1.66,2.87l-1.51.67c-.11-.98-.46-1.78-1.06-2.4s-1.44-.94-2.54-.94c-.75,0-1.42.18-1.99.53-.58.35-1.02.88-1.33,1.57-.31.7-.47,1.56-.47,2.58s.16,1.88.47,2.58c.31.7.76,1.22,1.33,1.57.58.35,1.24.53,1.99.53,1.09,0,1.93-.31,2.53-.94.6-.62.96-1.43,1.07-2.42l1.51.67c-.22,1.15-.78,2.11-1.67,2.87-.89.76-2.04,1.14-3.47,1.14Z"/>
      <path d="M167.71,60.34h-1.58v-2.5h1.58v2.5ZM167.71,73.92h-1.58v-11.54h1.58v11.54Z"/>
      <path d="M175.68,74.16c-1.04,0-1.97-.25-2.78-.74-.82-.5-1.45-1.2-1.91-2.1-.46-.9-.68-1.96-.68-3.16s.23-2.3.68-3.19c.46-.9,1.09-1.59,1.91-2.09.82-.5,1.74-.74,2.78-.74s2.01.25,2.81.74,1.44,1.19,1.91,2.09c.47.9.71,1.96.71,3.19s-.24,2.25-.71,3.16c-.47.9-1.11,1.6-1.91,2.1s-1.74.74-2.81.74ZM175.68,72.82c.77,0,1.44-.18,2.02-.53s1.02-.88,1.33-1.57c.31-.7.47-1.55.47-2.56s-.16-1.88-.47-2.58c-.31-.7-.76-1.22-1.33-1.57-.58-.35-1.25-.53-2.02-.53s-1.41.18-1.98.53c-.57.35-1.01.88-1.33,1.57s-.48,1.56-.48,2.58.16,1.86.48,2.56.76,1.22,1.33,1.57c.57.35,1.23.53,1.98.53ZM176.4,60.79h-1.51l2.14-2.83h2.09l-2.71,2.83Z"/>
      <path d="M185.42,73.92h-1.58v-11.54h1.58v11.54ZM193.25,73.92h-1.54v-7.44c0-.93-.23-1.66-.68-2.2s-1.19-.8-2.2-.8c-.8,0-1.46.18-1.97.54-.51.36-.88.82-1.1,1.39-.22.57-.34,1.19-.34,1.86l-.14-.79c.06-.75.26-1.46.58-2.12.32-.66.78-1.2,1.37-1.61.59-.41,1.33-.61,2.23-.61,1.15,0,2.07.34,2.76,1.01.69.67,1.03,1.67,1.03,3v7.78Z"/>
      <path d="M197.95,65.88h-1.85v-2.83h1.85v2.83ZM197.95,73.92h-1.85v-2.83h1.85v2.83Z"/>
      <path d="M211.96,74.16c-.82,0-1.58-.12-2.28-.37s-1.32-.67-1.85-1.26c-.53-.59-.94-1.39-1.22-2.4s-.43-2.26-.43-3.77v-.77c0-1.81.24-3.3.73-4.49.49-1.18,1.18-2.06,2.08-2.64.9-.58,1.96-.86,3.19-.86,1.17,0,2.18.29,3.02.88.85.58,1.49,1.35,1.92,2.29l-1.34,1.15c-.29-.83-.75-1.51-1.39-2.03-.64-.52-1.42-.78-2.33-.78-.51,0-1.02.1-1.52.3-.5.2-.96.54-1.37,1.02-.41.48-.73,1.16-.97,2.04-.24.88-.36,1.98-.36,3.31v2.09c.06-.94.3-1.75.72-2.41s.98-1.17,1.68-1.51,1.49-.52,2.35-.52c1.12,0,2.04.24,2.75.71.71.47,1.24,1.12,1.57,1.93.34.82.5,1.72.5,2.71s-.22,1.94-.67,2.75-1.08,1.45-1.9,1.92c-.82.47-1.78.71-2.88.71ZM211.94,72.67c.82,0,1.5-.17,2.06-.52.56-.34.99-.8,1.3-1.38.3-.58.46-1.21.46-1.9,0-.8-.13-1.5-.4-2.1-.26-.6-.67-1.06-1.21-1.39-.54-.33-1.24-.49-2.09-.49-.77,0-1.46.13-2.06.4-.61.26-1.08.66-1.43,1.2s-.52,1.19-.52,1.96c0,1.44.35,2.5,1.06,3.19.7.69,1.65,1.03,2.83,1.03Z"/>
      <path d="M222,78.38h-1.58v-16.01h1.58v16.01ZM225.81,74.16c-.83,0-1.54-.2-2.11-.6-.58-.4-1.01-.92-1.31-1.55-.3-.63-.48-1.3-.54-2l.14-.79c0,.64.12,1.23.35,1.78.23.54.6.99,1.1,1.33s1.14.52,1.91.52c1.04,0,1.91-.38,2.62-1.14s1.06-1.94,1.06-3.54-.35-2.83-1.06-3.59-1.58-1.14-2.62-1.14c-.77,0-1.4.17-1.91.52s-.87.79-1.1,1.33c-.23.54-.35,1.14-.35,1.78l-.14-.79c.06-.7.25-1.38.55-2.02s.74-1.16,1.3-1.55c.56-.39,1.27-.59,2.14-.59,1.01,0,1.86.25,2.57.74.7.5,1.25,1.2,1.64,2.1.39.9.59,1.97.59,3.2s-.19,2.23-.58,3.14-.93,1.62-1.64,2.11-1.58.74-2.6.74Z"/>
      <path d="M234.86,73.92h-1.58v-11.54h1.58v11.54ZM242.13,73.92h-1.56v-7.46c0-1.01-.22-1.76-.67-2.24s-1.12-.73-2.02-.73c-.67,0-1.24.18-1.69.54-.46.36-.79.82-1.01,1.39s-.32,1.19-.32,1.86l-.14-.79c.06-.75.25-1.46.56-2.12.31-.66.75-1.2,1.32-1.61.57-.41,1.26-.61,2.08-.61,1.1,0,1.96.33,2.56,1,.6.66.9,1.66.9,2.99v7.8ZM249.43,73.92h-1.58v-7.46c0-1.01-.22-1.76-.67-2.24-.45-.49-1.11-.73-1.99-.73-.69,0-1.26.18-1.7.54-.45.36-.78.82-1.01,1.39-.22.57-.34,1.19-.34,1.86l-.12-.79c.05-.75.23-1.46.54-2.12.31-.66.75-1.2,1.32-1.61.57-.41,1.27-.61,2.1-.61,1.1,0,1.96.33,2.56,1,.6.66.9,1.66.9,2.99v7.8Z"/>
      <path d="M35.51,102.72h-1.54v-16.08h1.54v16.08ZM44.17,102.72h-9.67v-1.39h9.67v1.39Z"/>
      <path d="M49.28,102.96c-.75,0-1.41-.15-1.98-.44-.57-.3-1.01-.74-1.33-1.34-.32-.6-.48-1.34-.48-2.22v-7.78h1.58v7.44c0,.93.23,1.66.68,2.21.46.54,1.17.82,2.15.82.85,0,1.52-.18,2.02-.54s.86-.82,1.09-1.39c.23-.57.35-1.19.35-1.86l.1.74c-.05.75-.23,1.46-.54,2.12-.31.66-.77,1.2-1.37,1.62-.6.42-1.36.62-2.27.62ZM54.92,102.72h-1.56v-11.54h1.56v11.54Z"/>
      <path d="M62.1,107.42c-1.44,0-2.59-.23-3.44-.68-.86-.46-1.28-1.08-1.28-1.88,0-.4.11-.75.32-1.06.22-.3.48-.56.8-.77s.63-.37.94-.48c-.38-.1-.67-.28-.86-.55-.19-.27-.29-.58-.29-.94,0-.3.07-.61.2-.91.14-.3.34-.61.6-.91.26-.3.56-.59.9-.86l.36.19c-.19.22-.37.48-.54.78s-.25.58-.25.85c0,.34.12.6.35.78.23.18.65.28,1.26.28h3.6c1.01,0,1.8.2,2.39.61.58.41.88,1.04.88,1.88,0,.7-.24,1.34-.71,1.9-.47.56-1.15,1-2.03,1.31-.88.31-1.94.47-3.19.47ZM62.65,99.17c-.91,0-1.7-.17-2.36-.52-.66-.34-1.18-.83-1.56-1.46-.38-.63-.56-1.34-.56-2.12s.19-1.51.56-2.14.9-1.11,1.56-1.46,1.45-.53,2.36-.53,1.66.18,2.34.53,1.2.84,1.56,1.46c.36.62.54,1.34.54,2.14s-.18,1.49-.54,2.12c-.36.63-.88,1.12-1.56,1.46-.68.34-1.46.52-2.34.52ZM62.1,106.15c1.41,0,2.5-.2,3.29-.6.78-.4,1.18-.94,1.18-1.63,0-.45-.17-.78-.5-.98s-.84-.31-1.51-.31h-4.68c-.29.19-.56.44-.82.74-.26.3-.38.65-.38,1.03,0,.56.3.99.91,1.3s1.45.46,2.52.46ZM62.65,97.94c.85,0,1.55-.26,2.1-.79.55-.53.83-1.22.83-2.09s-.28-1.58-.83-2.11c-.55-.53-1.25-.79-2.1-.79s-1.57.26-2.12.79c-.55.53-.83,1.23-.83,2.11s.28,1.56.83,2.09c.55.53,1.26.79,2.12.79ZM67.45,89.26l-2.23,2.66-.41-.38.98-2.9,1.66.62Z"/>
      <path d="M79.57,102.72h-1.06c-.38,0-.72-.06-1.01-.19-.29-.13-.52-.34-.68-.62-.17-.29-.25-.67-.25-1.15v-5.09l-.05-.55c0-.86-.21-1.54-.64-2.02-.42-.48-1.11-.72-2.05-.72-.85,0-1.58.22-2.2.65-.62.43-1.07.98-1.36,1.63l-1.1-1.13c.24-.4.58-.8,1.03-1.2.45-.4.99-.73,1.63-1,.64-.26,1.37-.4,2.18-.4,1.34,0,2.36.37,3.05,1.1.69.74,1.03,1.75,1.03,3.05v5.4c0,.3.07.52.2.64.14.12.34.18.61.18h.65v1.42ZM72.42,102.96c-.94,0-1.67-.24-2.18-.72-.51-.48-.77-1.09-.77-1.82s.25-1.4.76-1.91,1.16-.94,1.96-1.31l4.66-2.11.19,1.08-4.15,1.99c-.64.29-1.11.59-1.4.9-.3.31-.44.68-.44,1.12,0,.48.16.84.49,1.09.33.25.78.37,1.36.37.54,0,1.04-.09,1.49-.28.45-.18.84-.43,1.18-.74.34-.31.59-.66.77-1.03.18-.38.26-.76.26-1.16l.07.86c-.1.58-.32,1.15-.68,1.72-.36.57-.84,1.04-1.43,1.4-.59.37-1.3.55-2.11.55Z"/>
      <path d="M83.72,102.72h-1.58v-11.54h1.58v11.54ZM83.72,96.07l-.14-.79c.05-.54.16-1.08.35-1.6.18-.52.44-.99.76-1.4.32-.42.71-.74,1.16-.98s.97-.36,1.55-.36c.67,0,1.25.21,1.73.62.48.42.72,1.02.72,1.82,0,.43-.04.82-.13,1.18-.09.35-.2.62-.32.79h-1.68c.18-.19.32-.45.43-.78.11-.33.17-.67.17-1.02s-.11-.68-.34-.98c-.22-.3-.6-.46-1.13-.46-.58,0-1.1.19-1.58.58-.48.38-.86.88-1.13,1.48-.27.6-.41,1.24-.41,1.91Z"/>
      <path d="M93.73,94.68h-1.85v-2.83h1.85v2.83ZM93.73,102.72h-1.85v-2.83h1.85v2.83Z"/>
      <path d="M108.13,102.94c-.98,0-1.91-.14-2.81-.42-.9-.28-1.68-.73-2.36-1.34-.68-.62-1.2-1.42-1.55-2.41l1.2-1.06c.27.93.71,1.66,1.31,2.21.6.54,1.28.94,2.03,1.19.75.25,1.47.37,2.16.37s1.29-.09,1.85-.28c.56-.18,1.01-.49,1.36-.91s.52-.97.52-1.64-.14-1.15-.43-1.54-.71-.7-1.27-.94c-.56-.24-1.26-.46-2.09-.67l-1.7-.38c-.58-.13-1.13-.29-1.66-.49s-1-.47-1.43-.8c-.42-.34-.75-.75-.98-1.24-.23-.49-.35-1.08-.35-1.79,0-.96.24-1.76.71-2.41.47-.65,1.11-1.14,1.91-1.46.8-.33,1.65-.49,2.54-.49,1.47,0,2.74.32,3.8.97,1.06.65,1.83,1.57,2.29,2.77l-1.32,1.06c-.38-1.14-.99-1.97-1.81-2.51-.82-.54-1.82-.8-2.99-.8-.66,0-1.24.11-1.76.34-.52.22-.94.54-1.26.94-.32.4-.48.9-.48,1.49,0,.88.28,1.53.85,1.96.57.42,1.36.76,2.39,1l1.92.46c.61.16,1.2.34,1.78.55.58.21,1.08.48,1.52.82.44.34.78.76,1.03,1.27.25.51.37,1.14.37,1.87,0,.94-.23,1.74-.7,2.38s-1.1,1.13-1.9,1.46c-.8.34-1.7.5-2.69.5Z"/>
      <path d="M125.75,102.72h-1.06c-.38,0-.72-.06-1.01-.19-.29-.13-.52-.34-.68-.62-.17-.29-.25-.67-.25-1.15v-5.09l-.05-.55c0-.86-.21-1.54-.64-2.02-.42-.48-1.11-.72-2.05-.72-.85,0-1.58.22-2.2.65-.62.43-1.07.98-1.36,1.63l-1.1-1.13c.24-.4.58-.8,1.03-1.2.45-.4.99-.73,1.63-1,.64-.26,1.37-.4,2.18-.4,1.34,0,2.36.37,3.05,1.1.69.74,1.03,1.75,1.03,3.05v5.4c0,.3.07.52.2.64.14.12.34.18.61.18h.65v1.42ZM118.59,102.96c-.94,0-1.67-.24-2.18-.72-.51-.48-.77-1.09-.77-1.82s.25-1.4.76-1.91,1.16-.94,1.96-1.31l4.66-2.11.19,1.08-4.15,1.99c-.64.29-1.11.59-1.4.9-.3.31-.44.68-.44,1.12,0,.48.16.84.49,1.09.33.25.78.37,1.36.37.54,0,1.04-.09,1.49-.28.45-.18.84-.43,1.18-.74.34-.31.59-.66.77-1.03.18-.38.26-.76.26-1.16l.07.86c-.1.58-.32,1.15-.68,1.72-.36.57-.84,1.04-1.43,1.4-.59.37-1.3.55-2.11.55Z"/>
      <path d="M129.9,102.72h-1.58v-16.08h1.58v16.08Z"/>
      <path d="M137.87,102.96c-1.04,0-1.97-.25-2.78-.74-.82-.5-1.45-1.2-1.91-2.1-.46-.9-.68-1.96-.68-3.16s.23-2.3.68-3.19c.46-.9,1.09-1.59,1.91-2.09.82-.5,1.74-.74,2.78-.74s2.01.25,2.81.74,1.44,1.19,1.91,2.09c.47.9.71,1.96.71,3.19s-.24,2.25-.71,3.16c-.47.9-1.11,1.6-1.91,2.1s-1.74.74-2.81.74ZM137.87,101.62c.77,0,1.44-.18,2.02-.53s1.02-.88,1.33-1.57c.31-.7.47-1.55.47-2.56s-.16-1.88-.47-2.58c-.31-.7-.76-1.22-1.33-1.57-.58-.35-1.25-.53-2.02-.53s-1.41.18-1.98.53c-.57.35-1.01.88-1.33,1.57s-.48,1.56-.48,2.58.16,1.86.48,2.56.76,1.22,1.33,1.57c.57.35,1.23.53,1.98.53ZM138.59,89.59h-1.51l2.14-2.83h2.09l-2.71,2.83Z"/>
      <path d="M147.61,102.72h-1.58v-11.54h1.58v11.54ZM155.43,102.72h-1.54v-7.44c0-.93-.23-1.66-.68-2.2s-1.19-.8-2.2-.8c-.8,0-1.46.18-1.97.54-.51.36-.88.82-1.1,1.39-.22.57-.34,1.19-.34,1.86l-.14-.79c.06-.75.26-1.46.58-2.12.32-.66.78-1.2,1.37-1.61.59-.41,1.33-.61,2.23-.61,1.15,0,2.07.34,2.76,1.01.69.67,1.03,1.67,1.03,3v7.78Z"/>
      <path d="M165.8,102.72h-1.54v-16.08h1.54v16.08ZM175.62,95.21h-10.82v-1.39h10.82v1.39ZM176.36,102.72h-1.54v-16.08h1.54v16.08Z"/>
      <path d="M189.66,102.72h-1.06c-.38,0-.72-.06-1.01-.19-.29-.13-.52-.34-.68-.62-.17-.29-.25-.67-.25-1.15v-5.09l-.05-.55c0-.86-.21-1.54-.64-2.02-.42-.48-1.11-.72-2.05-.72-.85,0-1.58.22-2.2.65-.62.43-1.07.98-1.36,1.63l-1.1-1.13c.24-.4.58-.8,1.03-1.2.45-.4.99-.73,1.63-1,.64-.26,1.37-.4,2.18-.4,1.34,0,2.36.37,3.05,1.1.69.74,1.03,1.75,1.03,3.05v5.4c0,.3.07.52.2.64.14.12.34.18.61.18h.65v1.42ZM182.5,102.96c-.94,0-1.67-.24-2.18-.72-.51-.48-.77-1.09-.77-1.82s.25-1.4.76-1.91,1.16-.94,1.96-1.31l4.66-2.11.19,1.08-4.15,1.99c-.64.29-1.11.59-1.4.9-.3.31-.44.68-.44,1.12,0,.48.16.84.49,1.09.33.25.78.37,1.36.37.54,0,1.04-.09,1.49-.28.45-.18.84-.43,1.18-.74.34-.31.59-.66.77-1.03.18-.38.26-.76.26-1.16l.07.86c-.1.58-.32,1.15-.68,1.72-.36.57-.84,1.04-1.43,1.4-.59.37-1.3.55-2.11.55Z"/>
      <path d="M196.88,102.96c-1.09,0-2.03-.24-2.83-.72-.8-.48-1.42-1.17-1.86-2.08-.44-.9-.66-1.97-.66-3.2s.22-2.34.66-3.24c.44-.9,1.06-1.58,1.87-2.06.81-.48,1.75-.72,2.84-.72,1.42,0,2.58.38,3.46,1.14.88.76,1.43,1.72,1.66,2.87l-1.51.67c-.11-.98-.46-1.78-1.06-2.4s-1.44-.94-2.54-.94c-.75,0-1.42.18-1.99.53-.58.35-1.02.88-1.33,1.57-.31.7-.47,1.56-.47,2.58s.16,1.88.47,2.58c.31.7.76,1.22,1.33,1.57.58.35,1.24.53,1.99.53,1.09,0,1.93-.31,2.53-.94.6-.62.96-1.43,1.07-2.42l1.51.67c-.22,1.15-.78,2.11-1.67,2.87-.89.76-2.04,1.14-3.47,1.14Z"/>
      <path d="M206.24,89.14h-1.58v-2.5h1.58v2.5ZM206.24,102.72h-1.58v-11.54h1.58v11.54Z"/>
      <path d="M214.42,102.96c-1.07,0-2.02-.23-2.83-.7-.82-.46-1.46-1.15-1.92-2.05s-.7-1.99-.7-3.25.22-2.34.66-3.23c.44-.89,1.06-1.58,1.86-2.06.8-.49,1.71-.73,2.74-.73s1.97.23,2.74.68c.77.46,1.36,1.1,1.76,1.92.41.82.61,1.82.61,2.99,0,.16,0,.3-.01.43,0,.13-.03.25-.06.36h-9.17v-1.15h8.21l-.36.5c0-1.47-.34-2.58-1.01-3.31-.67-.74-1.58-1.1-2.71-1.1s-2.02.38-2.71,1.14c-.69.76-1.03,1.91-1.03,3.44v.24c0,1.01.16,1.85.49,2.53.33.68.79,1.19,1.39,1.52.6.34,1.28.5,2.05.5s1.43-.12,1.93-.37c.5-.25.91-.56,1.21-.92.3-.37.54-.74.7-1.1l.96,1.13c-.42.69-1.01,1.29-1.79,1.81-.78.52-1.78.78-3.01.78Z"/>
      <path d="M223.69,102.72h-1.58v-11.54h1.58v11.54ZM231.51,102.72h-1.54v-7.44c0-.93-.23-1.66-.68-2.2s-1.19-.8-2.2-.8c-.8,0-1.46.18-1.97.54-.51.36-.88.82-1.1,1.39-.22.57-.34,1.19-.34,1.86l-.14-.79c.06-.75.26-1.46.58-2.12.32-.66.78-1.2,1.37-1.61.59-.41,1.33-.61,2.23-.61,1.15,0,2.07.34,2.76,1.01.69.67,1.03,1.67,1.03,3v7.78Z"/>
      <path d="M238.88,102.98c-.99,0-1.85-.25-2.57-.74-.72-.5-1.27-1.2-1.64-2.1-.38-.9-.56-1.96-.56-3.16s.19-2.3.56-3.19c.38-.9.93-1.6,1.66-2.1.73-.5,1.59-.76,2.58-.76.85,0,1.56.2,2.12.59.57.39,1,.91,1.3,1.55.3.64.47,1.31.52,2.02l-.1.82c0-.64-.12-1.23-.36-1.78-.24-.54-.61-.99-1.1-1.33s-1.13-.52-1.9-.52c-1.06,0-1.94.38-2.64,1.13s-1.06,1.94-1.06,3.58.36,2.78,1.07,3.54c.71.76,1.58,1.14,2.6,1.14.77,0,1.4-.17,1.91-.52.5-.34.88-.79,1.12-1.33.24-.54.36-1.14.36-1.78l.1.79c-.05.7-.22,1.37-.53,2-.3.63-.74,1.15-1.3,1.55-.56.4-1.27.6-2.14.6ZM244.3,102.72h-1.56v-16.08h1.56v16.08Z"/>
      <path d="M257.07,102.72h-1.06c-.38,0-.72-.06-1.01-.19-.29-.13-.52-.34-.68-.62-.17-.29-.25-.67-.25-1.15v-5.09l-.05-.55c0-.86-.21-1.54-.64-2.02-.42-.48-1.11-.72-2.05-.72-.85,0-1.58.22-2.2.65-.62.43-1.07.98-1.36,1.63l-1.1-1.13c.24-.4.58-.8,1.03-1.2.45-.4.99-.73,1.63-1,.64-.26,1.37-.4,2.18-.4,1.34,0,2.36.37,3.05,1.1.69.74,1.03,1.75,1.03,3.05v5.4c0,.3.07.52.2.64.14.12.34.18.61.18h.65v1.42ZM249.92,102.96c-.94,0-1.67-.24-2.18-.72-.51-.48-.77-1.09-.77-1.82s.25-1.4.76-1.91,1.16-.94,1.96-1.31l4.66-2.11.19,1.08-4.15,1.99c-.64.29-1.11.59-1.4.9-.3.31-.44.68-.44,1.12,0,.48.16.84.49,1.09.33.25.78.37,1.36.37.54,0,1.04-.09,1.49-.28.45-.18.84-.43,1.18-.74.34-.31.59-.66.77-1.03.18-.38.26-.76.26-1.16l.07.86c-.1.58-.32,1.15-.68,1.72-.36.57-.84,1.04-1.43,1.4-.59.37-1.3.55-2.11.55Z"/>
      <path d="M266.72,102.72h-1.54v-16.08h1.54v16.08ZM271.95,96.07h-6.24v-1.3h5.88c.75,0,1.44-.11,2.05-.32.62-.22,1.1-.57,1.44-1.07s.52-1.14.52-1.94-.18-1.5-.53-2c-.35-.5-.84-.86-1.45-1.08s-1.3-.32-2.05-.32h-5.86v-1.39h6.1c1.06,0,1.99.18,2.81.54s1.45.9,1.91,1.62.68,1.6.68,2.64c0,.96-.22,1.78-.65,2.46-.43.68-1.04,1.2-1.84,1.55-.79.35-1.72.53-2.77.53v.1ZM277.62,102.72h-1.85l-2.95-5.02c-.3-.54-.71-.95-1.22-1.22-.51-.27-1.16-.41-1.94-.41l2.18-.29c.4.03.77.12,1.1.26.34.14.64.35.92.61.28.26.53.61.76,1.04l3,5.02Z"/>
      <path d="M284.65,96.89h-1.15l-6.22-10.25h1.92l3.46,5.83,1.42,2.86,1.46-2.83,3.55-5.86h1.75l-6.19,10.25ZM284.86,102.72h-1.58v-6.77h1.58v6.77Z"/>
      <path d="M297.75,102.96c-2.03,0-3.54-.56-4.52-1.68-.98-1.12-1.48-2.86-1.48-5.23v-9.41h1.56v9.41c0,1.89.35,3.26,1.04,4.13s1.83,1.3,3.4,1.3,2.76-.43,3.44-1.28c.68-.86,1.02-2.24,1.02-4.14v-9.41h1.58v9.41c0,2.37-.48,4.11-1.45,5.23-.97,1.12-2.5,1.68-4.6,1.68Z"/>
      <path d="M1.54,131.52H0v-16.08h1.54v6.29l-.05,2.69,2.06-2.23,6.38-6.74h1.97l-6.53,6.86-.17.12-3.67,3.86v5.23ZM12.48,131.52h-1.94l-6.17-9.26,1.15-1.13,6.96,10.39Z"/>
      <path d="M15.67,131.52h-1.58v-11.54h1.58v11.54ZM22.94,131.52h-1.56v-7.46c0-1.01-.22-1.76-.67-2.24s-1.12-.73-2.02-.73c-.67,0-1.24.18-1.69.54-.46.36-.79.82-1.01,1.39s-.32,1.19-.32,1.86l-.14-.79c.06-.75.25-1.46.56-2.12.31-.66.75-1.2,1.32-1.61.57-.41,1.26-.61,2.08-.61,1.1,0,1.96.33,2.56,1,.6.66.9,1.66.9,2.99v7.8ZM30.24,131.52h-1.58v-7.46c0-1.01-.22-1.76-.67-2.24-.45-.49-1.11-.73-1.99-.73-.69,0-1.26.18-1.7.54-.45.36-.78.82-1.01,1.39-.22.57-.34,1.19-.34,1.86l-.12-.79c.05-.75.23-1.46.54-2.12.31-.66.75-1.2,1.32-1.61.57-.41,1.27-.61,2.1-.61,1.1,0,1.96.33,2.56,1,.6.66.9,1.66.9,2.99v7.8Z"/>
      <path d="M49.68,131.52h-10.61v-1.22l5.59-5.57c.56-.56,1.07-1.11,1.54-1.64s.84-1.08,1.12-1.64c.28-.56.42-1.16.42-1.8,0-.5-.1-.97-.31-1.42-.21-.45-.53-.81-.97-1.09-.44-.28-1.03-.42-1.76-.42-.98,0-1.79.21-2.44.62-.65.42-1.11,1-1.39,1.75s-.36,1.67-.23,2.76l-1.46-.94c-.13-1.06.03-2.02.47-2.88.44-.86,1.1-1.55,1.98-2.06s1.94-.77,3.17-.77c1.06,0,1.92.19,2.58.58s1.16.9,1.49,1.56.49,1.4.49,2.23c0,.62-.12,1.23-.37,1.82s-.57,1.16-.96,1.69c-.39.54-.8,1.03-1.22,1.49s-.82.85-1.19,1.19l-3.14,3.07-1.63,1.39,2.02-.1h6.84v1.39Z"/>
      <path d="M62.76,131.52h-1.97l-4.34-11.54h1.73l2.5,7.03,1.15,3.31,1.1-3.31,2.5-7.03h1.68l-4.34,11.54Z"/>
      <path d="M70.51,118.39h-1.51l2.14-2.83h2.09l-2.71,2.83ZM70.61,131.52h-1.58v-11.54h1.58v11.54Z"/>
      <path d="M83.37,131.52h-1.06c-.38,0-.72-.06-1.01-.19-.29-.13-.52-.34-.68-.62-.17-.29-.25-.67-.25-1.15v-5.09l-.05-.55c0-.86-.21-1.54-.64-2.02-.42-.48-1.11-.72-2.05-.72-.85,0-1.58.22-2.2.65-.62.43-1.07.98-1.36,1.63l-1.1-1.13c.24-.4.58-.8,1.03-1.2.45-.4.99-.73,1.63-1,.64-.26,1.37-.4,2.18-.4,1.34,0,2.36.37,3.05,1.1.69.74,1.03,1.75,1.03,3.05v5.4c0,.3.07.52.2.64.14.12.34.18.61.18h.65v1.42ZM76.22,131.76c-.94,0-1.67-.24-2.18-.72-.51-.48-.77-1.09-.77-1.82s.25-1.4.76-1.91,1.16-.94,1.96-1.31l4.66-2.11.19,1.08-4.15,1.99c-.64.29-1.11.59-1.4.9-.3.31-.44.68-.44,1.12,0,.48.16.84.49,1.09.33.25.78.37,1.36.37.54,0,1.04-.09,1.49-.28.45-.18.84-.43,1.18-.74.34-.31.59-.66.77-1.03.18-.38.26-.76.26-1.16l.07.86c-.1.58-.32,1.15-.68,1.72-.36.57-.84,1.04-1.43,1.4-.59.37-1.3.55-2.11.55Z"/>
      <path d="M98.08,131.71c-1.57,0-2.9-.36-3.98-1.08-1.09-.72-1.92-1.7-2.5-2.95-.58-1.25-.86-2.66-.86-4.22s.29-3,.86-4.24c.58-1.24,1.41-2.22,2.5-2.94,1.09-.72,2.42-1.08,3.98-1.08,1.25,0,2.33.22,3.25.65s1.68,1.04,2.29,1.82,1.07,1.71,1.39,2.78l-1.39.94c-.19-.93-.51-1.75-.96-2.46s-1.05-1.27-1.8-1.67c-.75-.4-1.67-.6-2.76-.6-1.26,0-2.32.29-3.17.88-.85.58-1.49,1.38-1.92,2.4-.43,1.02-.65,2.19-.65,3.52s.22,2.48.65,3.5c.43,1.02,1.07,1.83,1.92,2.41.85.58,1.9.88,3.17.88,1.09,0,2.01-.2,2.76-.6.75-.4,1.35-.96,1.8-1.67s.77-1.53.96-2.46l1.39.94c-.32,1.06-.78,1.98-1.39,2.77s-1.37,1.4-2.29,1.84-2,.65-3.25.65Z"/>
      <path d="M109.41,131.52h-1.58v-16.08h1.58v16.08ZM117.24,131.52h-1.54v-7.44c0-.93-.22-1.66-.67-2.2s-1.15-.8-2.11-.8c-.83,0-1.51.18-2.03.54-.52.36-.9.82-1.13,1.39-.23.57-.35,1.19-.35,1.86l-.14-.79c.06-.75.26-1.46.59-2.12.33-.66.8-1.2,1.4-1.61.61-.41,1.36-.61,2.26-.61,1.12,0,2.02.34,2.7,1.01.68.67,1.02,1.67,1.02,3v7.78Z"/>
      <path d="M122.11,117.94h-1.58v-2.5h1.58v2.5ZM122.11,131.52h-1.58v-11.54h1.58v11.54Z"/>
      <path d="M134.88,131.52h-1.06c-.38,0-.72-.06-1.01-.19-.29-.13-.52-.34-.68-.62-.17-.29-.25-.67-.25-1.15v-5.09l-.05-.55c0-.86-.21-1.54-.64-2.02-.42-.48-1.11-.72-2.05-.72-.85,0-1.58.22-2.2.65-.62.43-1.07.98-1.36,1.63l-1.1-1.13c.24-.4.58-.8,1.03-1.2.45-.4.99-.73,1.63-1,.64-.26,1.37-.4,2.18-.4,1.34,0,2.36.37,3.05,1.1.69.74,1.03,1.75,1.03,3.05v5.4c0,.3.07.52.2.64.14.12.34.18.61.18h.65v1.42ZM127.72,131.76c-.94,0-1.67-.24-2.18-.72-.51-.48-.77-1.09-.77-1.82s.25-1.4.76-1.91,1.16-.94,1.96-1.31l4.66-2.11.19,1.08-4.15,1.99c-.64.29-1.11.59-1.4.9-.3.31-.44.68-.44,1.12,0,.48.16.84.49,1.09.33.25.78.37,1.36.37.54,0,1.04-.09,1.49-.28.45-.18.84-.43,1.18-.74.34-.31.59-.66.77-1.03.18-.38.26-.76.26-1.16l.07.86c-.1.58-.32,1.15-.68,1.72-.36.57-.84,1.04-1.43,1.4-.59.37-1.3.55-2.11.55Z"/>
      <path d="M147.43,131.76c-1.09,0-2.03-.24-2.83-.72-.8-.48-1.42-1.17-1.86-2.08-.44-.9-.66-1.97-.66-3.2s.22-2.34.66-3.24c.44-.9,1.06-1.58,1.87-2.06.81-.48,1.75-.72,2.84-.72,1.42,0,2.58.38,3.46,1.14.88.76,1.43,1.72,1.66,2.87l-1.51.67c-.11-.98-.46-1.78-1.06-2.4s-1.44-.94-2.54-.94c-.75,0-1.42.18-1.99.53-.58.35-1.02.88-1.33,1.57-.31.7-.47,1.56-.47,2.58s.16,1.88.47,2.58c.31.7.76,1.22,1.33,1.57.58.35,1.24.53,1.99.53,1.09,0,1.93-.31,2.53-.94.6-.62.96-1.43,1.07-2.42l1.51.67c-.22,1.15-.78,2.11-1.67,2.87-.89.76-2.04,1.14-3.47,1.14Z"/>
      <path d="M159.74,131.76c-1.04,0-1.97-.25-2.78-.74-.82-.5-1.45-1.2-1.91-2.1-.46-.9-.68-1.96-.68-3.16s.23-2.3.68-3.19c.46-.9,1.09-1.59,1.91-2.09.82-.5,1.74-.74,2.78-.74s2.01.25,2.81.74,1.44,1.19,1.91,2.09c.47.9.71,1.96.71,3.19s-.24,2.25-.71,3.16c-.47.9-1.11,1.6-1.91,2.1s-1.74.74-2.81.74ZM159.74,130.42c.77,0,1.44-.18,2.02-.53s1.02-.88,1.33-1.57c.31-.7.47-1.55.47-2.56s-.16-1.88-.47-2.58c-.31-.7-.76-1.22-1.33-1.57-.58-.35-1.25-.53-2.02-.53s-1.41.18-1.98.53c-.57.35-1.01.88-1.33,1.57s-.48,1.56-.48,2.58.16,1.86.48,2.56.76,1.22,1.33,1.57c.57.35,1.23.53,1.98.53Z"/>
      <path d="M173.83,121.22h-7.34v-1.25h7.34v1.25ZM171.52,131.78c-.61,0-1.15-.12-1.62-.37-.47-.25-.85-.61-1.13-1.08-.28-.47-.42-1.05-.42-1.74v-10.25l1.58-1.18v10.99c0,.83.18,1.39.55,1.68.37.29.81.43,1.32.43s.99-.16,1.38-.48c.39-.32.69-.68.9-1.08l.53,1.54c-.26.43-.65.8-1.19,1.09s-1.17.44-1.91.44Z"/>
      <path d="M185.78,131.52h-1.06c-.38,0-.72-.06-1.01-.19-.29-.13-.52-.34-.68-.62-.17-.29-.25-.67-.25-1.15v-5.09l-.05-.55c0-.86-.21-1.54-.64-2.02-.42-.48-1.11-.72-2.05-.72-.85,0-1.58.22-2.2.65-.62.43-1.07.98-1.36,1.63l-1.1-1.13c.24-.4.58-.8,1.03-1.2.45-.4.99-.73,1.63-1,.64-.26,1.37-.4,2.18-.4,1.34,0,2.36.37,3.05,1.1.69.74,1.03,1.75,1.03,3.05v5.4c0,.3.07.52.2.64.14.12.34.18.61.18h.65v1.42ZM178.63,131.76c-.94,0-1.67-.24-2.18-.72-.51-.48-.77-1.09-.77-1.82s.25-1.4.76-1.91,1.16-.94,1.96-1.31l4.66-2.11.19,1.08-4.15,1.99c-.64.29-1.11.59-1.4.9-.3.31-.44.68-.44,1.12,0,.48.16.84.49,1.09.33.25.78.37,1.36.37.54,0,1.04-.09,1.49-.28.45-.18.84-.43,1.18-.74.34-.31.59-.66.77-1.03.18-.38.26-.76.26-1.16l.07.86c-.1.58-.32,1.15-.68,1.72-.36.57-.84,1.04-1.43,1.4-.59.37-1.3.55-2.11.55Z"/>
      <path d="M188.16,133.56l-.34-.86c.3-.05.54-.12.7-.23.16-.1.24-.32.24-.64v-.31h-.84v-2.83h1.85v2.9c0,.59-.11,1.05-.34,1.37-.22.32-.65.52-1.27.6Z"/>
      <path d="M199.77,131.52h-1.54v-16.08h1.54v16.08ZM209.59,124.01h-10.82v-1.39h10.82v1.39ZM210.33,131.52h-1.54v-16.08h1.54v16.08Z"/>
      <path d="M223.63,131.52h-1.06c-.38,0-.72-.06-1.01-.19-.29-.13-.52-.34-.68-.62-.17-.29-.25-.67-.25-1.15v-5.09l-.05-.55c0-.86-.21-1.54-.64-2.02-.42-.48-1.11-.72-2.05-.72-.85,0-1.58.22-2.2.65-.62.43-1.07.98-1.36,1.63l-1.1-1.13c.24-.4.58-.8,1.03-1.2.45-.4.99-.73,1.63-1,.64-.26,1.37-.4,2.18-.4,1.34,0,2.36.37,3.05,1.1.69.74,1.03,1.75,1.03,3.05v5.4c0,.3.07.52.2.64.14.12.34.18.61.18h.65v1.42ZM216.47,131.76c-.94,0-1.67-.24-2.18-.72-.51-.48-.77-1.09-.77-1.82s.25-1.4.76-1.91,1.16-.94,1.96-1.31l4.66-2.11.19,1.08-4.15,1.99c-.64.29-1.11.59-1.4.9-.3.31-.44.68-.44,1.12,0,.48.16.84.49,1.09.33.25.78.37,1.36.37.54,0,1.04-.09,1.49-.28.45-.18.84-.43,1.18-.74.34-.31.59-.66.77-1.03.18-.38.26-.76.26-1.16l.07.86c-.1.58-.32,1.15-.68,1.72-.36.57-.84,1.04-1.43,1.4-.59.37-1.3.55-2.11.55Z"/>
      <path d="M230.85,131.76c-1.09,0-2.03-.24-2.83-.72-.8-.48-1.42-1.17-1.86-2.08-.44-.9-.66-1.97-.66-3.2s.22-2.34.66-3.24c.44-.9,1.06-1.58,1.87-2.06.81-.48,1.75-.72,2.84-.72,1.42,0,2.58.38,3.46,1.14.88.76,1.43,1.72,1.66,2.87l-1.51.67c-.11-.98-.46-1.78-1.06-2.4s-1.44-.94-2.54-.94c-.75,0-1.42.18-1.99.53-.58.35-1.02.88-1.33,1.57-.31.7-.47,1.56-.47,2.58s.16,1.88.47,2.58c.31.7.76,1.22,1.33,1.57.58.35,1.24.53,1.99.53,1.09,0,1.93-.31,2.53-.94.6-.62.96-1.43,1.07-2.42l1.51.67c-.22,1.15-.78,2.11-1.67,2.87-.89.76-2.04,1.14-3.47,1.14Z"/>
      <path d="M240.21,117.94h-1.58v-2.5h1.58v2.5ZM240.21,131.52h-1.58v-11.54h1.58v11.54Z"/>
      <path d="M248.39,131.76c-1.07,0-2.02-.23-2.83-.7-.82-.46-1.46-1.15-1.92-2.05s-.7-1.99-.7-3.25.22-2.34.66-3.23c.44-.89,1.06-1.58,1.86-2.06.8-.49,1.71-.73,2.74-.73s1.97.23,2.74.68c.77.46,1.36,1.1,1.76,1.92.41.82.61,1.82.61,2.99,0,.16,0,.3-.01.43,0,.13-.03.25-.06.36h-9.17v-1.15h8.21l-.36.5c0-1.47-.34-2.58-1.01-3.31-.67-.74-1.58-1.1-2.71-1.1s-2.02.38-2.71,1.14c-.69.76-1.03,1.91-1.03,3.44v.24c0,1.01.16,1.85.49,2.53.33.68.79,1.19,1.39,1.52.6.34,1.28.5,2.05.5s1.43-.12,1.93-.37c.5-.25.91-.56,1.21-.92.3-.37.54-.74.7-1.1l.96,1.13c-.42.69-1.01,1.29-1.79,1.81-.78.52-1.78.78-3.01.78Z"/>
      <path d="M257.66,131.52h-1.58v-11.54h1.58v11.54ZM265.48,131.52h-1.54v-7.44c0-.93-.23-1.66-.68-2.2s-1.19-.8-2.2-.8c-.8,0-1.46.18-1.97.54-.51.36-.88.82-1.1,1.39-.22.57-.34,1.19-.34,1.86l-.14-.79c.06-.75.26-1.46.58-2.12.32-.66.78-1.2,1.37-1.61.59-.41,1.33-.61,2.23-.61,1.15,0,2.07.34,2.76,1.01.69.67,1.03,1.67,1.03,3v7.78Z"/>
      <path d="M272.85,131.78c-.99,0-1.85-.25-2.57-.74-.72-.5-1.27-1.2-1.64-2.1-.38-.9-.56-1.96-.56-3.16s.19-2.3.56-3.19c.38-.9.93-1.6,1.66-2.1.73-.5,1.59-.76,2.58-.76.85,0,1.56.2,2.12.59.57.39,1,.91,1.3,1.55.3.64.47,1.31.52,2.02l-.1.82c0-.64-.12-1.23-.36-1.78-.24-.54-.61-.99-1.1-1.33s-1.13-.52-1.9-.52c-1.06,0-1.94.38-2.64,1.13s-1.06,1.94-1.06,3.58.36,2.78,1.07,3.54c.71.76,1.58,1.14,2.6,1.14.77,0,1.4-.17,1.91-.52.5-.34.88-.79,1.12-1.33.24-.54.36-1.14.36-1.78l.1.79c-.05.7-.22,1.37-.53,2-.3.63-.74,1.15-1.3,1.55-.56.4-1.27.6-2.14.6ZM278.27,131.52h-1.56v-16.08h1.56v16.08Z"/>
      <path d="M291.04,131.52h-1.06c-.38,0-.72-.06-1.01-.19-.29-.13-.52-.34-.68-.62-.17-.29-.25-.67-.25-1.15v-5.09l-.05-.55c0-.86-.21-1.54-.64-2.02-.42-.48-1.11-.72-2.05-.72-.85,0-1.58.22-2.2.65-.62.43-1.07.98-1.36,1.63l-1.1-1.13c.24-.4.58-.8,1.03-1.2.45-.4.99-.73,1.63-1,.64-.26,1.37-.4,2.18-.4,1.34,0,2.36.37,3.05,1.1.69.74,1.03,1.75,1.03,3.05v5.4c0,.3.07.52.2.64.14.12.34.18.61.18h.65v1.42ZM283.89,131.76c-.94,0-1.67-.24-2.18-.72-.51-.48-.77-1.09-.77-1.82s.25-1.4.76-1.91,1.16-.94,1.96-1.31l4.66-2.11.19,1.08-4.15,1.99c-.64.29-1.11.59-1.4.9-.3.31-.44.68-.44,1.12,0,.48.16.84.49,1.09.33.25.78.37,1.36.37.54,0,1.04-.09,1.49-.28.45-.18.84-.43,1.18-.74.34-.31.59-.66.77-1.03.18-.38.26-.76.26-1.16l.07.86c-.1.58-.32,1.15-.68,1.72-.36.57-.84,1.04-1.43,1.4-.59.37-1.3.55-2.11.55Z"/>
      <path d="M300.69,131.52h-1.54v-16.08h1.54v16.08ZM305.92,124.87h-6.24v-1.3h5.88c.75,0,1.44-.11,2.05-.32.62-.22,1.1-.57,1.44-1.07s.52-1.14.52-1.94-.18-1.5-.53-2c-.35-.5-.84-.86-1.45-1.08s-1.3-.32-2.05-.32h-5.86v-1.39h6.1c1.06,0,1.99.18,2.81.54s1.45.9,1.91,1.62.68,1.6.68,2.64c0,.96-.22,1.78-.65,2.46-.43.68-1.04,1.2-1.84,1.55-.79.35-1.72.53-2.77.53v.1ZM311.59,131.52h-1.85l-2.95-5.02c-.3-.54-.71-.95-1.22-1.22-.51-.27-1.16-.41-1.94-.41l2.18-.29c.4.03.77.12,1.1.26.34.14.64.35.92.61.28.26.53.61.76,1.04l3,5.02Z"/>
      <path d="M318.62,125.69h-1.15l-6.22-10.25h1.92l3.46,5.83,1.42,2.86,1.46-2.83,3.55-5.86h1.75l-6.19,10.25ZM318.83,131.52h-1.58v-6.77h1.58v6.77Z"/>
      <path d="M331.72,131.76c-2.03,0-3.54-.56-4.52-1.68-.98-1.12-1.48-2.86-1.48-5.23v-9.41h1.56v9.41c0,1.89.35,3.26,1.04,4.13s1.83,1.3,3.4,1.3,2.76-.43,3.44-1.28c.68-.86,1.02-2.24,1.02-4.14v-9.41h1.58v9.41c0,2.37-.48,4.11-1.45,5.23-.97,1.12-2.5,1.68-4.6,1.68Z"/>
    </g>
  </g>
</svg>