<?xml version="1.0" encoding="UTF-8"?>
<svg id="Capa_2" data-name="Capa 2" xmlns="http://www.w3.org/2000/svg" viewBox="0 0 523.88 113.44">
  <defs>
    <style>
      .cls-1 {
        fill: #fccda2;
      }
    </style>
  </defs>
  <g id="letraL">
    <g>
      <path class="cls-1" d="M76.17,11.4c-.8,8.83-4.07,16.39-9.81,22.68-5.74,6.29-11.34,9.44-16.78,9.44-2.16,0-3.81-.68-4.95-2.04-1.14-1.36-1.71-3.1-1.71-5.21,0-4.35,1.64-8.98,4.92-13.87,3.28-4.89,7.38-8.8,12.3-11.72s9.16-4.38,12.72-4.38c2.4,0,4.57.85,6.51,2.55,1.94,1.7,2.91,4.03,2.91,6.99,0,8.2-3.79,17.38-11.37,27.56-7.58,10.18-17.18,19.61-28.78,28.31-11.61,8.7-20.85,13.04-27.73,13.04-4.76,0-8.35-1.59-10.77-4.77-2.42-3.18-3.63-6.85-3.63-11.01,0-9,4.62-18.91,13.87-29.75,9.24-10.84,20.5-20.08,33.76-27.74C60.89,3.83,73.09,0,84.21,0c5.2,0,9.38,1.06,12.54,3.18,3.16,2.12,4.74,4.94,4.74,8.46,0,3.28-1.46,6.03-4.38,8.25-2.92,2.22-6.18,3.33-9.78,3.33-.48,0-1.18-.02-2.1-.07l-.06-.53h1.74c3.68,0,6.93-1.02,9.75-3.05s4.23-4.69,4.23-7.96c0-3.47-1.56-6.21-4.68-8.2-3.12-2-7.04-2.99-11.76-2.99-11.37,0-23.06,4.14-35.08,12.42-12.03,8.28-22.84,18.88-32.44,31.82-9.6,12.94-14.41,22.68-14.41,29.24,0,3,1.19,5.46,3.57,7.38,2.38,1.92,5.05,2.88,8.01,2.88,7.08,0,16.13-4.08,27.13-12.24,11-8.16,20.52-17.41,28.54-27.77,8.02-10.36,12.03-19.67,12.03-27.95,0-2.88-.9-5.13-2.71-6.75s-3.87-2.43-6.19-2.43c-5.57,0-11.86,3.53-18.88,10.58s-10.52,13.39-10.52,19.03c0,2.08.58,3.67,1.74,4.76,1.16,1.1,2.57,1.65,4.21,1.65,3.61,0,7.53-1.6,11.76-4.79,4.23-3.2,7.67-7.42,10.31-12.67,2.65-5.25,4.05-9.99,4.21-14.23l.42.06Z"/>
      <path class="cls-1" d="M65.13,72.69l-.42-.42c5.89-5.04,12.51-10.28,19.84-15.73l8.18-6.06c.92-.68,3.59-2.88,8-6.6l3.78-.18-25.44,26.65-3.42,3.3.3.48c12.08-10.2,20.16-15.31,24.24-15.31,1.04,0,1.94.42,2.7,1.26.76.84,1.14,1.91,1.14,3.19,0,1.08-.34,2.34-1.02,3.76-.68,1.42-2.83,3.56-6.45,6.41-5.62,4.29-8.44,7.12-8.44,8.48s.9,2.11,2.7,2.11c2.76,0,8.7-3.92,17.83-11.76l.42.42c-9.5,8.04-15.62,12.06-18.38,12.06-1,0-1.88-.34-2.63-1.02-.76-.68-1.14-1.75-1.14-3.19,0-1.32.28-2.54.84-3.64.56-1.1,1.28-2.1,2.16-2.98.88-.88,2.86-2.57,5.94-5.05l3.42-2.77c2.16-1.76,3.24-3.27,3.24-4.51,0-.6-.26-1.09-.78-1.47-.52-.38-1.08-.57-1.68-.57-2.84,0-8.48,3.15-16.92,9.45-8.44,6.3-18.54,15.42-30.3,27.34l-15.42,15.73h-5.9l62.6-61.28-.24-.36c-11.03,7.88-20.61,15.31-28.75,22.27Z"/>
      <path class="cls-1" d="M131.57,72.27l.42.42c-3.47,3.12-7.33,5.91-11.56,8.37s-7.54,3.69-9.94,3.69c-3.11,0-4.67-1.76-4.67-5.28,0-4.84,2.94-9.24,8.82-13.21,5.88-3.96,10.28-5.94,13.21-5.94,1,0,1.83.29,2.49.87.66.58.99,1.29.99,2.13,0,1.2-.52,2.34-1.56,3.42-1.04,1.08-2.02,1.62-2.94,1.62-.52,0-1-.22-1.44-.66-.44-.44-.66-.9-.66-1.38,0-.68.28-1.29.84-1.83.56-.54,1.18-.81,1.86-.81s1.16.26,1.44.78c.28.52.5.78.66.78.32,0,.6-.24.84-.72.24-.48.36-.9.36-1.26,0-.68-.28-1.24-.84-1.68-.56-.44-1.14-.66-1.74-.66-2.4,0-6.46,3.08-12.18,9.24-5.72,6.16-8.58,10.08-8.58,11.76,0,.68.3,1.22.9,1.62.6.4,1.3.6,2.1.6,2.51,0,5.84-1.24,9.97-3.72,4.13-2.48,7.87-5.2,11.23-8.16Z"/>
      <path class="cls-1" d="M131.99,72.69l-.42-.42c1.96-1.68,6.91-5.6,14.84-11.76h5.82l-19.04,18.73c-.72.72-1.2,1.44-1.44,2.16v.42c0,.52.2.98.6,1.38.4.4.9.6,1.5.6,1.28,0,3.09-.65,5.43-1.95,2.34-1.3,6.43-4.49,12.28-9.57l.42.42c-8.92,7.8-14.95,11.7-18.07,11.7-1,0-1.81-.32-2.43-.96-.62-.64-.93-1.5-.93-2.58,0-1.52.51-3.13,1.53-4.83,1.02-1.7,4.86-5.75,11.51-12.15l-.12-.3-5.53,4.2-5.95,4.92ZM161.4,48.68c0,.88-.36,1.62-1.07,2.22-.71.6-1.46.9-2.26.9-.55,0-1.03-.21-1.42-.63-.4-.42-.59-.93-.59-1.53,0-.76.33-1.48,1.01-2.16.67-.68,1.42-1.02,2.26-1.02.59,0,1.09.22,1.48.66.4.44.59.96.59,1.56Z"/>
      <path class="cls-1" d="M178.15,72.27l.42.42c-1.48,1.4-3,2.1-4.56,2.1-1.28,0-2.36-.46-3.24-1.38-2.96,3.12-6.12,5.74-9.48,7.86-3.36,2.12-6.16,3.18-8.4,3.18-1.16,0-2.14-.42-2.94-1.26-.8-.84-1.2-2-1.2-3.48,0-3.4,1.52-6.67,4.56-9.81,3.04-3.14,6.53-5.58,10.47-7.32,3.94-1.74,7.07-2.61,9.39-2.61s3.42,1.08,3.42,3.24-1.8,5.46-5.4,9.66c.72.88,1.68,1.32,2.88,1.32,1.36,0,2.72-.64,4.08-1.92ZM175.99,63.02c0-.76-.29-1.38-.87-1.86-.58-.48-1.23-.72-1.95-.72-3.04,0-7.62,3.04-13.74,9.12-6.13,6.08-9.19,10.1-9.19,12.06,0,.56.28,1.07.84,1.53.56.46,1.2.69,1.92.69,1.68,0,4.08-.87,7.22-2.61,3.13-1.74,5.89-3.86,8.26-6.36,2.37-2.5,4.22-4.74,5.54-6.72,1.32-1.98,1.98-3.69,1.98-5.13Z"/>
      <path class="cls-1" d="M178.15,72.27c9.44-7.88,15.87-11.82,19.27-11.82.8,0,1.49.27,2.07.8.58.53.87,1.25.87,2.15,0,2.66-1.7,5.78-5.1,9.36l.24.24c9.4-8.24,15.91-12.37,19.51-12.37,2.72,0,4.08,1.14,4.08,3.43,0,1.56-.55,3.17-1.65,4.81-1.1,1.65-3.11,3.71-6.03,6.2s-4.73,4.12-5.43,4.91c-.7.78-1.05,1.46-1.05,2.02,0,.44.19.82.57,1.14.38.32.81.48,1.29.48,1.24,0,3.16-.65,5.76-1.95,2.6-1.3,5.52-3.33,8.76-6.09l3.9-3.3.42.42c-8.6,7.68-14.95,11.52-19.03,11.52-.88,0-1.64-.35-2.28-1.05-.64-.7-.96-1.57-.96-2.62s.25-2.03.75-3.07c.5-1.04,1.06-1.93,1.68-2.65.62-.72,2.11-2.08,4.47-4.09l2.76-2.35c3.12-2.65,4.68-4.49,4.68-5.54s-.8-1.62-2.4-1.62c-2.96,0-7.08,2.1-12.36,6.29-5.28,4.19-11.42,9.64-18.42,16.34h-5.96l16.57-16.49c2.6-2.61,3.9-4.31,3.9-5.12,0-.88-.56-1.32-1.68-1.32-3.16,0-9.42,3.92-18.79,11.76l-.42-.42Z"/>
      <path class="cls-1" d="M310.5,27.97h4.92l-42.56,42.38c-6.76,6.8-10.14,10.82-10.14,12.06,0,.52.23.96.69,1.32s.97.54,1.53.54c1.16,0,2.94-.8,5.36-2.4,2.41-1.6,6.39-4.8,11.94-9.6l.42.42-4.98,4.16c-4.04,3.38-6.92,5.57-8.64,6.57-1.72,1.01-3.1,1.51-4.14,1.51-.92,0-1.71-.29-2.37-.86-.66-.57-.99-1.35-.99-2.33,0-1.96,1.14-4.44,3.42-7.44l-.24-.24c-1.68,1.6-4.11,3.57-7.29,5.91-3.18,2.34-5.46,3.75-6.84,4.23-1.38.48-2.61.72-3.69.72-1.28,0-2.27-.44-2.97-1.32s-1.05-2-1.05-3.36c0-2.92,1.33-5.85,3.99-8.79,2.66-2.94,6.29-5.44,10.89-7.5,4.6-2.06,8.16-3.09,10.68-3.09,1.08,0,1.98.3,2.7.9.72.6,1.08,1.38,1.08,2.34,0,.56-.24,1.42-.72,2.58l39.01-38.71ZM271.49,64.04c0-1.64-.94-2.46-2.82-2.46-3.2,0-8.05,2.84-14.56,8.52-6.5,5.68-9.75,9.68-9.75,12,0,1.4.86,2.1,2.58,2.1s3.55-.53,5.37-1.59c1.82-1.06,4.62-3.04,8.4-5.94,3.78-2.9,6.52-5.36,8.22-7.38,1.7-2.02,2.55-3.77,2.55-5.25Z"/>
      <path class="cls-1" d="M306.48,72.27l.42.42c-4.79,4.24-9.16,7.31-13.12,9.21-3.95,1.9-7.11,2.85-9.46,2.85-3.28,0-4.91-1.68-4.91-5.04,0-4.52,3.09-8.78,9.27-12.79,6.18-4,11.01-6,14.5-6,.64,0,1.19.18,1.65.54s.69.8.69,1.32c0,1.96-1.95,4.02-5.84,6.18-3.89,2.16-8.2,3.5-12.94,4.02-4.09,4.08-6.14,6.88-6.14,8.4,0,.72.36,1.39,1.08,2.01.72.62,1.56.93,2.52.93,2.08,0,5.03-.91,8.85-2.73,3.82-1.82,8.29-4.93,13.42-9.33ZM287.65,72.39c1.2,0,3.33-.52,6.38-1.57,3.05-1.05,5.59-2.39,7.61-4.04,2.03-1.65,3.04-3.02,3.04-4.1,0-.76-.44-1.15-1.32-1.15-1.04,0-2.2.32-3.46.97-1.26.64-3.18,1.96-5.75,3.95-2.57,1.99-4.73,3.97-6.5,5.94Z"/>
      <path class="cls-1" d="M327.37,72.69l-.42-.42,9.13-7.5c1.44-1.16,2.46-2.06,3.06-2.7-1.28-.76-1.92-1.8-1.92-3.12,0-.84.29-1.58.87-2.22.58-.64,1.23-.96,1.95-.96.52,0,.99.22,1.41.66.42.44.63.98.63,1.62s-.22,1.19-.65,1.65c-.43.46-.96.69-1.59.69-.43,0-.89-.16-1.36-.48-.04.16-.06.26-.06.3,0,.36.28.72.83,1.08.55.36,1.37.54,2.44.54,1.55,0,3.21-.4,5-1.2l3.18,3.54c-.76,1.49-2.33,3.32-4.71,5.51-2.38,2.19-4.75,4.51-7.11,6.98-2.36,2.47-3.7,3.94-4.02,4.42-.32.48-.48.94-.48,1.39,0,1.12.64,1.68,1.92,1.68,1.52,0,3.88-.89,7.08-2.68,3.2-1.79,7.28-4.86,12.25-9.2l.42.42c-9.32,8.04-15.95,12.06-19.87,12.06-1.16,0-2.07-.37-2.73-1.11s-.99-1.71-.99-2.91c0-1.52.49-3.04,1.47-4.56s3.09-3.86,6.34-7.02c3.25-3.16,5.49-5.52,6.73-7.08l-.24-.42c-1.68.6-3.25.9-4.69.9-.4,0-.82-.06-1.26-.18l-12.61,10.32Z"/>
      <path class="cls-1" d="M379.05,72.27l.42.42c-4.79,4.24-9.16,7.31-13.12,9.21-3.95,1.9-7.11,2.85-9.46,2.85-3.28,0-4.91-1.68-4.91-5.04,0-4.52,3.09-8.78,9.27-12.79,6.18-4,11.01-6,14.5-6,.64,0,1.19.18,1.65.54s.69.8.69,1.32c0,1.96-1.95,4.02-5.84,6.18-3.89,2.16-8.2,3.5-12.94,4.02-4.09,4.08-6.14,6.88-6.14,8.4,0,.72.36,1.39,1.08,2.01.72.62,1.56.93,2.52.93,2.08,0,5.03-.91,8.85-2.73,3.82-1.82,8.29-4.93,13.42-9.33ZM360.22,72.39c1.2,0,3.33-.52,6.38-1.57,3.05-1.05,5.59-2.39,7.61-4.04,2.03-1.65,3.04-3.02,3.04-4.1,0-.76-.44-1.15-1.32-1.15-1.04,0-2.2.32-3.46.97-1.26.64-3.18,1.96-5.75,3.95-2.57,1.99-4.73,3.97-6.5,5.94Z"/>
      <path class="cls-1" d="M411.89,60.5h5.13l-29.14,28.81c3.35-.9,7.62-2.8,12.79-5.71s9.03-5.49,11.58-7.73l4.24-3.61.42.42c-5.88,5.16-11.56,9.17-17.05,12.03-5.5,2.86-9.72,4.59-12.68,5.19-9.53,9.6-16.4,15.93-20.61,18.97-4.21,3.04-8.05,4.56-11.54,4.56-1.04,0-1.86-.24-2.46-.71-.6-.48-.9-1.05-.9-1.72,0-2.81,3.37-6.45,10.11-10.92,6.74-4.47,13.4-7.34,19.98-8.61l12.71-13.21-.16-.18c-5.95,4.56-10.47,6.84-13.56,6.84-1.25,0-2.32-.54-3.22-1.62-.9-1.08-1.36-2.34-1.36-3.78,0-2.88,1.54-5.79,4.62-8.73,3.08-2.94,7.03-5.45,11.85-7.53,4.82-2.08,8.63-3.12,11.43-3.12.96,0,1.79.25,2.49.75.7.5,1.05,1.13,1.05,1.89,0,.64-.2,1.54-.61,2.7l4.88-4.98ZM381.07,92.08c-8.75,2.44-15.74,5.71-20.96,9.81-5.22,4.1-7.83,7.09-7.83,8.97,0,1.2,1,1.8,3.01,1.8s4.33-.73,6.71-2.19c2.39-1.46,6.7-5.47,12.92-12.03l6.14-6.36ZM378.03,81.75c0,1.73.86,2.59,2.58,2.59,3.44,0,8.66-2.93,15.67-8.79s10.5-10.01,10.5-12.46c0-1.56-1.04-2.35-3.12-2.35-1.84,0-4.07.79-6.69,2.38s-5.73,3.94-9.33,7.07c-3.6,3.13-6.1,5.59-7.5,7.37-1.4,1.79-2.1,3.18-2.1,4.18Z"/>
      <path class="cls-1" d="M447.26,60.5h5.32l-16.84,17.59c-1.66,1.7-2.49,3.07-2.49,4.1,0,.67.23,1.18.69,1.52.46.34.93.5,1.41.5.96,0,2.5-.71,4.62-2.12,2.12-1.41,6.2-4.69,12.24-9.83l.42.42c-6.42,5.44-10.68,8.81-12.78,10.11-2.09,1.3-3.68,1.95-4.76,1.95-.96,0-1.71-.35-2.25-1.05-.54-.7-.81-1.53-.81-2.49,0-1.68.82-3.78,2.45-6.3l-.24-.18c-8.12,6.68-13.66,10.02-16.62,10.02-1.24,0-2.21-.51-2.91-1.53-.7-1.02-1.05-2.35-1.05-3.99,0-4.56,3.21-8.81,9.61-12.75,6.41-3.94,11.81-5.91,16.2-5.91,2.28,0,3.41.96,3.41,2.88,0,.44-.03,1-.08,1.68l4.42-4.62ZM442.13,63.32c0-1.44-.92-2.16-2.75-2.16-3.31,0-8.18,2.88-14.58,8.65-6.41,5.77-9.61,9.83-9.61,12.18,0,.52.22,1.01.66,1.47.44.46,1.06.69,1.86.69,1.16,0,3.06-.74,5.72-2.21,2.66-1.48,5.92-3.87,9.79-7.18s6.33-5.72,7.37-7.21c1.04-1.5,1.56-2.9,1.56-4.22Z"/>
      <path class="cls-1" d="M452.64,72.69l-.42-.42c8.8-7.52,13.96-11.82,15.46-12.9,1.5-1.08,2.68-1.82,3.54-2.22.86-.4,1.59-.9,2.19-1.5,6.8-7.28,13.33-13.76,19.57-19.45,6.24-5.68,11.57-10.09,16-13.24,4.42-3.14,8.11-4.71,11.07-4.71,1.08,0,1.99.33,2.73.99.74.66,1.11,1.39,1.11,2.19,0,2.32-2.56,5.77-7.68,10.35-5.12,4.58-11.46,9.15-19.03,13.72-7.56,4.56-13.37,7.42-17.41,8.58-.92,1.08-2.62,2.96-5.1,5.64l-4.8,5.28-6.06,7.2c-4.2,5-6.44,8.18-6.72,9.54v.54c0,1.32.74,1.98,2.22,1.98,3.44,0,9.66-4,18.67-12l.42.42-3.66,3.12c-7.28,6.2-12.57,9.3-15.85,9.3-1,0-1.87-.39-2.61-1.17-.74-.78-1.11-1.71-1.11-2.79,0-2.96,2.3-7.24,6.9-12.84,4.6-5.6,7.56-8.84,8.88-9.72l-.06-.36c-1.44.64-3.56,2.18-6.36,4.62l-11.88,9.84ZM480.61,53.18c3.2-1.04,8.63-3.81,16.3-8.31,7.66-4.5,13.93-9,18.82-13.5,4.88-4.5,7.32-7.81,7.32-9.93,0-.64-.3-1.21-.9-1.71-.6-.5-1.36-.75-2.28-.75-2.4,0-5.31,1.15-8.73,3.45-3.42,2.3-8.66,7.11-15.73,14.44-7.06,7.32-12,12.76-14.8,16.33Z"/>
      <path class="cls-1" d="M504.56,72.27l.42.42c-1.48,1.4-3,2.1-4.56,2.1-1.28,0-2.36-.46-3.24-1.38-2.96,3.12-6.12,5.74-9.48,7.86-3.36,2.12-6.16,3.18-8.4,3.18-1.16,0-2.14-.42-2.94-1.26-.8-.84-1.2-2-1.2-3.48,0-3.4,1.52-6.67,4.56-9.81,3.04-3.14,6.53-5.58,10.47-7.32,3.94-1.74,7.07-2.61,9.39-2.61s3.42,1.08,3.42,3.24-1.8,5.46-5.4,9.66c.72.88,1.68,1.32,2.88,1.32,1.36,0,2.72-.64,4.08-1.92ZM502.4,63.02c0-.76-.29-1.38-.87-1.86-.58-.48-1.23-.72-1.95-.72-3.04,0-7.62,3.04-13.74,9.12-6.13,6.08-9.19,10.1-9.19,12.06,0,.56.28,1.07.84,1.53.56.46,1.2.69,1.92.69,1.68,0,4.08-.87,7.22-2.61,3.13-1.74,5.89-3.86,8.26-6.36,2.37-2.5,4.22-4.74,5.54-6.72,1.32-1.98,1.98-3.69,1.98-5.13Z"/>
    </g>
  </g>
</svg>