<?xml version="1.0" encoding="UTF-8"?>
<svg id="Capa_2" data-name="Capa 2" xmlns="http://www.w3.org/2000/svg" xmlns:xlink="http://www.w3.org/1999/xlink" viewBox="0 0 621.91 373.6">
  <defs>
    <style>
      .cls-1 {
        fill: none;
      }

      .cls-2 {
        fill: #fccda2;
      }

      .cls-3 {
        clip-path: url(#clippath);
      }
    </style>
    <clipPath id="clippath">
      <path class="cls-1" d="M2.14,0v293.72h344.77V0H2.14ZM39.88,82.26c-.35-.48-.69-.94-1.03-1.39l-.14-.93c.54-1.55.89-3.11,1.05-4.67-.08.06-.16.13-.24.19.12-1.25.14-2.52.03-3.81-1.96,1.01-3.69,2.26-5.18,3.69-.32-.36-.63-.71-.97-1.08v-.75c2.28-2.24,5.02-4.1,8.27-5.45.6,5.1-.07,9.88-1.78,14.19Z"/>
    </clipPath>
  </defs>
  <g id="letraL">
    <g>
      <g>
        <path class="cls-2" d="M13.14,54.51h53.2v6.55c-3.65.18-5.48,1.32-5.48,3.42,0,.73.18,1.41.55,2.05l32.72,54.36c16.03-22.34,24.05-37.82,24.05-46.46,0-4.09-1.34-7.32-4.02-9.68-2.68-2.36-8.25-3.59-16.71-3.68v-6.55h65.34v6.55c-12.37,1.82-25.64,12.28-39.83,31.37l-25.27,34.36,35,58.18,8.27,13.72c2.73,4.46,5.98,8.59,9.75,12.41,3.77,3.82,7.05,6.48,9.82,7.98,2.77,1.5,6.3,2.62,10.57,3.34v6.55h-54.29v-6.55c3.64-.18,5.46-1.59,5.46-4.23,0-.91-.32-1.86-.96-2.87l-39.81-66.54c-20.39,27.72-30.58,47.67-30.58,59.86,0,9,6.14,13.6,18.42,13.78v6.55H4.54v-6.55c12-1,25.37-11.87,40.1-32.6l33.49-46.66-30.35-50.73c-12-20-23.55-30.46-34.65-31.37v-6.55Z"/>
        <path class="cls-2" d="M178.05,54.51h48.29v6.55c-3.55.09-5.32,1.41-5.32,3.96,0,1.36.5,3.55,1.5,6.55l43.24,124.68,27.69-70.26c7.64-19.46,11.46-35.01,11.46-46.65,0-6.09-1.52-10.64-4.57-13.64-3.05-3-8.71-4.55-16.98-4.64v-6.55h61.25v6.55c-9.91.09-19.32,11.32-28.24,33.69l-55.65,140.22h-8.05l-49.11-142.54c-7.18-20.73-15.69-31.19-25.51-31.37v-6.55Z"/>
      </g>
      <path class="cls-2" d="M100.81,222.01c-3.02-4.43-4.52-5.88-10.07-7.13-8.27,10.87-21.76,13.77-34.73,9.58,5.63-8.53,15.24-12.46,25.41-12.36l-9.52-2.81c-11.78,8.99-24.41,8.6-36.4,1,7.29-6.38,15.89-7.87,24.82-6.52l-9.39-5.65c-13.64,5.29-25.77-.38-34.64-10.92,7.61-3.2,15.2-2.33,22.88.86-1.41-3.19-3.94-4.69-5.69-7.29-12.54.92-25.01-8.86-29.22-20.6,8.3-.68,15.13,2.55,21.09,7.33-.62-3.02-2.04-5.31-3.07-8.58-12.28-2.35-21.35-13.82-22.27-27.36,8.1,1.97,14.56,7.28,18.6,14.22l-.51-9.54c-11.5-6.42-16.79-19.41-13.98-32.1,8.55,4.7,12.43,12.22,14.34,20.63l1.47-11.96c-8.9-8.94-10.63-21.67-5.55-33.31,6.79,5.58,9.17,14.23,9.15,22.37-.28-1.65,2.05-3.68,1.95-5.04-.97-12.42,4.46-23.89,16.19-28.76,1.37,11.75-3.96,21.81-13.19,28.31-2.36,1.66-2.81,5.35-3.51,7.95,4.21-7.31,12.14-12.1,21.26-11.99-3.34,11.69-12.68,18.52-24.02,20.88-1.25,5.11-2.16,10.21-2.14,15.79,1.89-9.26,8.26-17.11,19-19.31-.55,9.94-6.59,17.78-14.54,23.2-1.24.84-3.83,1.72-4.1,3.15-.3,4.59.61,8.91,1.69,13.28,1.01-9.43,5.2-17.44,13.83-21.68,2.24,12.04-2.63,22.82-11.58,30.49,2.33,5.6,3.82,10.41,7.08,14.78-3.26-9.86-1.28-20.1,6.38-27.43,5.49,10.71,3.96,22.65-2.09,33.19,2.27,4.3,5.41,7.37,9.3,10.76-4.48-8.14-5.71-18.08-.63-27.13,8.43,8.74,10.5,20.61,7.73,32.59,3.36,3.51,7.47,5.49,11.25,7.16-6.77-6.77-9.74-16.26-7.73-25.68,13.88,8.76,13.92,16.97,17.46,29.86,2.84,1.89,6.44,2.7,10.55,3.46-8.42-4.98-13.71-14.55-12.43-25.33,11.57,4.58,18.3,15.06,20.3,27.19,5.98.65,7.77,2.69,9.99,5.3.5,1.26-.03,3.5-.71,5.15ZM31.24,90.91c5.3-4.44,8.96-11.52,8.31-19.25-7.26,3.75-11.53,10.69-11.44,18.58l6.69-10.49c-.14,4.31-4.42,6.02-3.56,11.16ZM16.72,91.71c1,5.02,1.56,9.85,3.45,15.36,2.39-8.19,1.57-17.4-5.21-23.77-2.46,7.7-2.06,16.1,2.44,22.31.13-4.96-1.37-9.01-.67-13.9ZM30.18,107.94c6.42-2.36,10.73-7.45,12.68-13.45-7.61.95-13.5,5.59-16.28,12.25,4.22-1.23,6.12-4.84,9.97-6.76-1.51,3.45-5.47,4.15-6.37,7.95ZM9.14,116.35c2.61,4.3,3.37,8.89,7.1,12.49.59-8.57-3.55-16.43-10.57-21.13-.98,8.16,1.27,16.08,7.11,21.47.08-5.11-2.82-8.5-3.63-12.83ZM31.86,119.22c-2.06,3.76-5.41,5.69-6.02,9.92,5.66-3.65,9.5-9.48,10.28-16.18-7.79,2.11-12.32,8.49-13.55,15.85,1.71-.5,9.83-13.07,9.29-9.6ZM27.89,151.33c4.55-5.45,7.12-12.42,6.27-20.23-6.45,4.62-10.33,11.65-9.24,19.81,2.91-3.72,3.93-7.7,5.63-12.54,2.91-.2-4.1,9.2-2.65,12.96ZM9,142.32c3.34,4.26,6.82,7.96,10.61,11.87-2.19-8.89-7.94-16.3-17.17-19.74,1.3,8.09,5.61,15.93,13.42,19.65-1.51-4.71-5.96-6.87-6.85-11.78ZM36.31,157.45l-.12,15.39c3.43-7.25,4.28-15.51,1.03-23.83-5.5,6.72-6.76,15.91-3.53,24.04l2.62-15.6ZM15.87,167.91c5.31,2.85,8.13,6.55,13.53,7.89-5.01-7.06-12-13.5-21.73-13.29,3.88,7.6,10.38,14.17,19.42,15.24-3.34-3.77-8.46-5.73-11.22-9.84ZM46.33,175.27l4.25,14.96c1.62-8.05.43-17.24-5.86-23.86-3.1,8.28-1.85,16.9,3.4,23.02.3-5.58-1.41-9.7-1.79-14.13ZM62.13,189.62l7.38,12.78c-.07-9.16-4.89-17.08-12.06-22.14-1.65,9.89,3.69,17.49,10.13,22.39-1.85-5.51-4.46-8.46-5.45-13.03ZM29.06,192c1.42-1.77,2.58-.38,3.76.15,4.13,1.87,8.59,1.99,13.12,3.22-7.3-5.58-16.83-10.59-25.96-6.97,6.68,6.57,15.26,11.33,24.28,9.1-5.31-2.19-9.88-4.03-15.19-5.51ZM77.97,195.42l10.22,11.64c-1.88-8.26-7.15-15.47-14.9-19.17-.28,8.52,4.27,15.8,11.39,19.65l-6.71-12.11ZM48.27,210.38c4.83-2.7,11.17.66,17.04-2.59-8.9-3.61-18.11-3.37-25.99,2.36,8.27,4.65,18.22,5.45,26.43.29l-17.48-.06ZM68.69,220.54l16.8-5.92c-9.63-1.5-19.33.77-25.5,8.63,9.15,2.43,18.5.81,24.97-5.66l-16.27,2.94Z"/>
      <g class="cls-3">
        <g>
          <path class="cls-2" d="M13.14,54.51h53.2v6.55c-3.65.18-5.48,1.32-5.48,3.42,0,.73.18,1.41.55,2.05l32.72,54.36c16.03-22.34,24.05-37.82,24.05-46.46,0-4.09-1.34-7.32-4.02-9.68-2.68-2.36-8.25-3.59-16.71-3.68v-6.55h65.34v6.55c-12.37,1.82-25.64,12.28-39.83,31.37l-25.27,34.36,35,58.18,8.27,13.72c2.73,4.46,5.98,8.59,9.75,12.41,3.77,3.82,7.05,6.48,9.82,7.98,2.77,1.5,6.3,2.62,10.57,3.34v6.55h-54.29v-6.55c3.64-.18,5.46-1.59,5.46-4.23,0-.91-.32-1.86-.96-2.87l-39.81-66.54c-20.39,27.72-30.58,47.67-30.58,59.86,0,9,6.14,13.6,18.42,13.78v6.55H4.54v-6.55c12-1,25.37-11.87,40.1-32.6l33.49-46.66-30.35-50.73c-12-20-23.55-30.46-34.65-31.37v-6.55Z"/>
          <path class="cls-2" d="M178.05,54.51h48.29v6.55c-3.55.09-5.32,1.41-5.32,3.96,0,1.36.5,3.55,1.5,6.55l43.24,124.68,27.69-70.26c7.64-19.46,11.46-35.01,11.46-46.65,0-6.09-1.52-10.64-4.57-13.64-3.05-3-8.71-4.55-16.98-4.64v-6.55h61.25v6.55c-9.91.09-19.32,11.32-28.24,33.69l-55.65,140.22h-8.05l-49.11-142.54c-7.18-20.73-15.69-31.19-25.51-31.37v-6.55Z"/>
        </g>
      </g>
    </g>
    <g>
      <path class="cls-2" d="M340.94,124.61h4.82l28.85,83.44c2.12,6.2,4.45,11.27,6.98,15.21,2.53,3.94,5.62,5.99,9.26,6.16v3.92h-29.35v-3.92h1.94c.95,0,1.42-.9,1.42-2.69,0-.54-.11-1.14-.33-1.8l-9.76-28.4h-35.79c-3.7,10.56-5.55,18.42-5.55,23.59,0,2.72.88,4.95,2.65,6.69,1.77,1.74,4.09,2.61,6.98,2.61h4.33v3.92h-36.56v-3.92c6.09-.33,11.64-6.83,16.65-19.51l33.44-85.29ZM338.13,148.01l-17.1,43.45h32.02l-14.93-43.45Z"/>
      <path class="cls-2" d="M395.42,164.85l21.15-8.65h3.42v26.91c7.84-10.47,14.28-17.57,19.34-21.31s9.85-5.6,14.36-5.6c9.2,0,13.79,5.9,13.79,17.71v42.77c0,4.84.99,8.15,2.98,9.92,1.99,1.77,5.15,2.71,9.51,2.82v3.92h-28.4v-3.92c2.29-.11,3.43-1.44,3.43-3.99v-50.38c0-2.83-.73-5.09-2.2-6.81s-3.38-2.57-5.71-2.57c-6.86,0-13.24,4.85-19.14,14.55s-8.86,20.83-8.86,33.38c0,6.36.98,10.55,2.94,12.59,1.96,2.04,5.44,3.11,10.45,3.22v3.92h-37.05v-3.92c4.38-.11,7.53-1.06,9.45-2.86,1.92-1.79,2.88-5.09,2.88-9.88v-41.71c0-5.39-1.79-8.08-5.35-8.08-1.3,0-3.62.68-6.97,2.04v-4.08ZM414.77,137.88c4.29-7.54,8.56-11.3,12.8-11.3,2.28,0,6.25,1.2,11.9,3.59,4.46,1.8,7.42,2.69,8.89,2.69,2.99,0,6.03-1.93,9.13-5.79l3.06,1.92c-4.69,7.37-9.18,11.06-13.48,11.06-1.63,0-4.98-.92-10.05-2.78-5.39-2.07-8.99-3.1-10.78-3.1-2.67,0-5.53,1.82-8.58,5.47l-2.9-1.75Z"/>
      <path class="cls-2" d="M527.64,156.44c10.28,0,18.51,3.22,24.69,9.67s9.26,15.03,9.26,25.75c0,12.73-4.3,23.22-12.9,31.46s-18.06,12.37-28.4,12.37-18.5-3.28-24.48-9.83c-5.99-6.56-8.98-15.08-8.98-25.59,0-12.51,4.26-22.95,12.77-31.3,8.51-8.35,17.86-12.53,28.04-12.53ZM520.71,162.81c-7.4,0-13.06,2.64-16.98,7.92-3.92,5.28-5.88,11.89-5.88,19.83,0,9.79,3.09,18.54,9.26,26.24,6.18,7.7,13.37,11.55,21.59,11.55,6.09,0,11.25-2.53,15.47-7.59,4.22-5.06,6.33-11.67,6.33-19.83,0-7.56-1.69-14.35-5.06-20.36-3.38-6.01-7.24-10.47-11.59-13.39-4.35-2.91-8.73-4.37-13.14-4.37Z"/>
      <path class="cls-2" d="M577.51,208.19c.43,7.07,2.46,12.57,6.08,16.49,3.62,3.92,7.96,5.88,13.02,5.88,4.19,0,7.62-1.28,10.28-3.84s4-5.79,4-9.71c0-3.48-1.01-6.42-3.02-8.81-2.07-2.34-6.12-5.41-12.16-9.22-4.3-2.72-8.22-5.26-11.75-7.63-3.54-2.37-5.99-4.77-7.35-7.22-1.42-2.45-2.12-4.95-2.12-7.51,0-5.28,2.44-9.98,7.3-14.12,4.87-4.13,11.33-6.2,19.38-6.2,4.95,0,10.28,1.09,16,3.26v21.38h-5.88c-.05-6.04-1.74-10.88-5.06-14.53-3.32-3.64-7.13-5.47-11.43-5.47-3.05,0-5.43.97-7.14,2.9-1.71,1.93-2.57,4.2-2.57,6.81,0,2.94.98,5.47,2.94,7.59,1.9,2.18,5.74,5.06,11.51,8.65,9.9,6.26,16.11,10.67,18.61,13.22,2.5,2.61,3.75,6.07,3.75,10.37,0,6.8-3.01,12.71-9.02,17.71-6.01,5.01-12.94,7.51-20.77,7.51-5.82,0-12.54-1.63-20.16-4.9v-22.61h5.55Z"/>
    </g>
    <g>
      <path class="cls-2" d="M362.53,59.39h12.49l16.33,40.3,9.37-22.12c3.53-8.33,5.86-14.39,6.97-18.18h13.61v1.83c-2.21.05-3.75.42-4.63,1.11-.88.69-1.32,1.94-1.32,3.77,0,.25.01.55.04.88l2.9,30.41c.36,3.73.95,6.14,1.77,7.2.83,1.07,2.5,1.64,5.01,1.71v1.83h-18.75v-1.83c1.91-.05,3.25-.43,4.04-1.14.79-.71,1.18-2.1,1.18-4.15,0-.41-.03-.84-.08-1.3l-2.99-30.26c-4.33,7.7-7.42,13.72-9.28,18.07l-9.57,22.41h-1.71l-17.84-44.36-1.3,13.68c-.58,6.17-.88,11.07-.88,14.67,0,8.03,2.01,12.16,6.02,12.39v1.83h-17.23v-1.83c1.78-.41,3.19-1.54,4.23-3.41,1.04-1.87,2.12-5.2,3.22-9.99,1.11-4.79,1.91-9.9,2.42-15.34l.95-10.14c.02-.48.04-1,.04-1.56,0-1.8-.36-3.02-1.07-3.64-.71-.62-2.03-.96-3.96-1.01v-1.83Z"/>
      <path class="cls-2" d="M427.81,106.31c1.96-.05,3.42-.48,4.38-1.28.96-.8,1.45-2.36,1.45-4.67v-20.85c0-1.6-.92-2.4-2.74-2.4-.66,0-1.39.17-2.17.5-.41.18-.71.29-.91.34v-1.94l9.79-3.85h1.87v28.2c0,2.26.47,3.81,1.41,4.63.94.83,2.41,1.26,4.42,1.31v1.83h-17.49v-1.83ZM436.47,56.3c1.09,0,1.99.36,2.69,1.09.7.72,1.05,1.58,1.05,2.57s-.36,1.84-1.07,2.55c-.71.71-1.58,1.07-2.59,1.07s-1.84-.35-2.55-1.05c-.71-.7-1.07-1.56-1.07-2.57,0-1.07.37-1.94,1.11-2.63.74-.69,1.55-1.03,2.44-1.03Z"/>
      <path class="cls-2" d="M452.43,96.4c.2,3.3,1.15,5.87,2.84,7.7,1.69,1.83,3.72,2.74,6.08,2.74,1.96,0,3.56-.6,4.8-1.79,1.24-1.19,1.87-2.71,1.87-4.54,0-1.63-.47-3-1.41-4.12-.97-1.09-2.86-2.53-5.68-4.31-2.01-1.27-3.84-2.46-5.49-3.56-1.65-1.11-2.79-2.23-3.43-3.37-.66-1.14-.99-2.31-.99-3.51,0-2.46,1.14-4.66,3.41-6.59,2.27-1.93,5.29-2.9,9.05-2.9,2.31,0,4.8.51,7.47,1.52v9.99h-2.74c-.03-2.82-.81-5.08-2.36-6.78-1.55-1.7-3.33-2.55-5.33-2.55-1.42,0-2.54.45-3.33,1.35-.8.9-1.2,1.96-1.2,3.18,0,1.37.46,2.55,1.37,3.54.89,1.02,2.68,2.36,5.37,4.04,4.62,2.92,7.52,4.98,8.69,6.17,1.17,1.22,1.75,2.83,1.75,4.84,0,3.18-1.4,5.93-4.21,8.27-2.81,2.34-6.04,3.51-9.7,3.51-2.72,0-5.86-.76-9.41-2.29v-10.56h2.59Z"/>
    </g>
    <g>
      <path class="cls-2" d="M172.46,294.67c-3.27-9.38-9.14-16.43-17.61-21.15s-17.95-7.08-28.42-7.08c-11.67,0-22.72,2.53-33.17,7.58-10.45,5.05-19.61,11.99-27.49,20.8-7.88,8.81-11.82,16.46-11.82,22.94,0,4.2,2.23,8.24,6.69,12.13,4.46,3.89,10.55,5.83,18.27,5.83,14.36,0,27.66-3.84,39.89-11.51,12.23-7.67,18.35-15.63,18.35-23.87,0-2.85-1.37-5.55-4.12-8.09-2.75-2.54-6.38-3.81-10.89-3.81-8.87,0-18.37,3.16-28.5,9.49-10.14,6.33-19.04,15.32-26.71,26.98l-.54-.39c7.01-10.78,15.69-19.6,26.04-26.44,10.35-6.84,20.25-10.26,29.7-10.26,4.93,0,8.8,1.38,11.6,4.13,2.8,2.75,4.2,5.55,4.2,8.41,0,8.41-6.23,16.54-18.7,24.38-12.47,7.84-25.88,11.76-40.24,11.76-8.29,0-14.93-2.26-19.91-6.77-4.98-4.51-7.47-9.82-7.47-15.94,0-8.76,3.38-16.96,10.15-24.61,6.77-7.65,16.03-13.48,27.8-17.5,11.77-4.02,23.67-6.03,35.69-6.03,11.15,0,21.01,2.3,29.59,6.9,8.58,4.6,14.66,11.84,18.24,21.71,1.66-1.14,4.15-2.72,7.46-4.74l8.87-5.44.31.62-5.52,3.27c-1.4.83-3.03,1.87-4.9,3.11l-5.99,3.81c1.14,3.32,1.71,6.62,1.71,9.88,0,9.81-3.05,20.22-9.14,31.25-6.09,11.03-14.72,20.04-25.9,27.05-11.17,7-23.81,10.51-37.91,10.51-7.62,0-14.36-1.07-20.22-3.21-7.21,1.78-14.98,2.67-23.33,2.67-6.9,0-11.95-.61-15.16-1.84-3.21-1.23-4.82-2.73-4.82-4.5,0-3.34,4.15-5.01,12.44-5.01,6.17,0,13.48,1.23,21.93,3.68l11.35,3.84c.26.1,1.98-.26,5.17-1.09,3.19-.83,6.29-1.95,9.32-3.35,3.03-1.4,6.25-3.36,9.67-5.88,3.42-2.52,6.46-5.13,9.13-7.86,2.67-2.72,7.52-8.42,14.57-17.08,15.07-18.73,28.51-31.83,40.33-39.3ZM80.31,369.84c-11.15-4.7-21.57-7.05-31.26-7.05-6.38,0-9.56,1.3-9.56,3.89,0,1.24,1.46,2.49,4.39,3.73,2.93,1.24,7.87,1.87,14.81,1.87,8.66,0,15.86-.81,21.62-2.44ZM86.06,369.77c-.1,0,.78.24,2.64.7l7.77,1.57,2.49.31c.78.05,1.58.13,2.41.24.78.05,1.55.08,2.33.08.78.05,1.55.08,2.33.08,11.19,0,22.23-3.32,33.14-9.96s19.48-15.47,25.72-26.5c6.24-11.03,9.36-21.55,9.36-31.56,0-3.01-.54-6.07-1.63-9.18-3.58,2.54-6.92,5.37-10.02,8.48-3.06,3.01-6.29,6.75-9.71,11.21-2.9,3.84-6.89,9.65-11.97,17.43-3.83,5.86-6.89,10.12-9.17,12.76-2.07,2.44-4.5,4.77-7.3,7-3.32,2.65-6.76,4.98-10.33,7-3.88,2.18-7.79,4.02-11.73,5.52-8.44,3.22-13.88,4.83-16.32,4.83Z"/>
      <path class="cls-2" d="M201.34,342.03h6.89l-21.82,22.78c-2.15,2.21-3.22,3.98-3.22,5.31,0,.87.3,1.53.89,1.96.6.44,1.21.65,1.83.65,1.24,0,3.24-.92,5.99-2.75,2.75-1.83,8.04-6.07,15.86-12.73l.54.54c-8.32,7.05-13.84,11.42-16.55,13.1-2.71,1.68-4.77,2.53-6.16,2.53-1.24,0-2.21-.45-2.91-1.36s-1.05-1.98-1.05-3.23c0-2.18,1.06-4.9,3.17-8.17l-.31-.23c-10.52,8.66-17.69,12.99-21.53,12.99-1.61,0-2.86-.66-3.77-1.98s-1.36-3.04-1.36-5.17c0-5.91,4.15-11.42,12.46-16.52,8.3-5.11,15.3-7.66,20.99-7.66,2.95,0,4.42,1.24,4.42,3.73,0,.57-.03,1.3-.1,2.18l5.73-5.99ZM194.7,345.68c0-1.86-1.19-2.79-3.57-2.79-4.29,0-10.59,3.74-18.89,11.21-8.3,7.47-12.45,12.73-12.45,15.78,0,.67.28,1.31.85,1.9.57.59,1.37.89,2.41.89,1.5,0,3.97-.96,7.41-2.87,3.44-1.91,7.67-5.02,12.69-9.31,5.02-4.29,8.2-7.41,9.54-9.35,1.35-1.94,2.02-3.76,2.02-5.47Z"/>
      <path class="cls-2" d="M207.77,357.27c12.24-10.21,20.56-15.32,24.96-15.32,1.04,0,1.93.34,2.68,1.03.75.69,1.13,1.62,1.13,2.79,0,3.44-2.2,7.48-6.61,12.12l.31.31c12.18-10.68,20.61-16.02,25.27-16.02,3.52,0,5.29,1.48,5.29,4.44,0,2.03-.71,4.11-2.14,6.24-1.43,2.13-4.03,4.81-7.82,8.03-3.79,3.22-6.13,5.34-7.04,6.35-.91,1.01-1.36,1.88-1.36,2.61,0,.57.25,1.07.74,1.48.49.42,1.05.62,1.67.62,1.61,0,4.1-.84,7.47-2.53,3.37-1.68,7.15-4.32,11.35-7.89l5.05-4.28.54.54c-11.15,9.95-19.36,14.93-24.65,14.93-1.14,0-2.13-.46-2.96-1.36-.83-.91-1.24-2.04-1.24-3.39s.32-2.62.97-3.98c.65-1.35,1.37-2.5,2.18-3.43.8-.94,2.73-2.7,5.79-5.3l3.58-3.04c4.04-3.43,6.07-5.82,6.07-7.17s-1.04-2.11-3.11-2.11c-3.83,0-9.17,2.72-16.01,8.15-6.84,5.43-14.79,12.49-23.86,21.17h-7.72l21.46-21.36c3.37-3.38,5.05-5.59,5.05-6.63,0-1.14-.73-1.71-2.18-1.71-4.1,0-12.21,5.08-24.34,15.24l-.54-.54Z"/>
      <path class="cls-2" d="M268.73,357.27c12.24-10.21,20.56-15.32,24.96-15.32,1.04,0,1.93.34,2.68,1.03.75.69,1.13,1.62,1.13,2.79,0,3.44-2.2,7.48-6.61,12.12l.31.31c12.18-10.68,20.61-16.02,25.27-16.02,3.52,0,5.29,1.48,5.29,4.44,0,2.03-.71,4.11-2.14,6.24-1.43,2.13-4.03,4.81-7.82,8.03-3.79,3.22-6.13,5.34-7.04,6.35-.91,1.01-1.36,1.88-1.36,2.61,0,.57.25,1.07.74,1.48.49.42,1.05.62,1.67.62,1.61,0,4.1-.84,7.47-2.53,3.37-1.68,7.15-4.32,11.35-7.89l5.05-4.28.54.54c-11.15,9.95-19.36,14.93-24.65,14.93-1.14,0-2.13-.46-2.96-1.36-.83-.91-1.24-2.04-1.24-3.39s.32-2.62.97-3.98c.65-1.35,1.37-2.5,2.18-3.43.8-.94,2.73-2.7,5.79-5.3l3.58-3.04c4.04-3.43,6.07-5.82,6.07-7.17s-1.04-2.11-3.11-2.11c-3.83,0-9.17,2.72-16.01,8.15-6.84,5.43-14.79,12.49-23.86,21.17h-7.72l21.46-21.36c3.37-3.38,5.05-5.59,5.05-6.63,0-1.14-.73-1.71-2.18-1.71-4.1,0-12.21,5.08-24.34,15.24l-.54-.54Z"/>
      <path class="cls-2" d="M369.55,342.03h6.89l-21.82,22.78c-2.15,2.21-3.22,3.98-3.22,5.31,0,.87.3,1.53.89,1.96.6.44,1.21.65,1.83.65,1.24,0,3.24-.92,5.99-2.75,2.75-1.83,8.04-6.07,15.86-12.73l.54.54c-8.32,7.05-13.84,11.42-16.55,13.1-2.71,1.68-4.77,2.53-6.16,2.53-1.24,0-2.21-.45-2.91-1.36s-1.05-1.98-1.05-3.23c0-2.18,1.06-4.9,3.17-8.17l-.31-.23c-10.52,8.66-17.69,12.99-21.53,12.99-1.61,0-2.86-.66-3.77-1.98s-1.36-3.04-1.36-5.17c0-5.91,4.15-11.42,12.46-16.52,8.3-5.11,15.3-7.66,20.99-7.66,2.95,0,4.42,1.24,4.42,3.73,0,.57-.03,1.3-.1,2.18l5.73-5.99ZM362.91,345.68c0-1.86-1.19-2.79-3.57-2.79-4.29,0-10.59,3.74-18.89,11.21-8.3,7.47-12.45,12.73-12.45,15.78,0,.67.28,1.31.85,1.9.57.59,1.37.89,2.41.89,1.5,0,3.97-.96,7.41-2.87,3.44-1.91,7.67-5.02,12.69-9.31,5.02-4.29,8.2-7.41,9.54-9.35,1.35-1.94,2.02-3.76,2.02-5.47Z"/>
      <path class="cls-2" d="M424.98,319.86l-11.12,11.37c-11.87,12.15-17.81,21.88-17.81,29.21,0,3.17,1.44,6,4.32,8.49,2.88,2.49,7.14,3.74,12.79,3.74,7.46,0,15.34-1.82,23.64-5.45,8.29-3.64,14.62-7.71,18.97-12.23,4.36-4.52,6.53-8.78,6.53-12.78,0-2.54-1.1-4.57-3.3-6.08-2.2-1.51-4.65-2.26-7.35-2.26-7.05,0-15.32,2.81-24.81,8.42s-16.9,12.53-22.24,20.74l-.54-.31c5.03-7.95,12.39-14.85,22.08-20.7,9.69-5.85,18.2-8.77,25.51-8.77,3.37,0,6.12.86,8.24,2.57,2.12,1.71,3.19,3.79,3.19,6.22,0,7.72-5.81,14.89-17.42,21.5-11.61,6.61-22.14,9.91-31.57,9.91-6.9,0-12.03-1.48-15.4-4.43-3.37-2.95-5.05-6.89-5.05-11.82,0-3.16.56-6.4,1.67-9.72,1.11-3.32,3.85-7.93,8.2-13.84,4.36-5.91,8.24-10.26,11.67-13.06-2.39.1-4.15.16-5.29.16-9.44,0-16.68-2.06-21.74-6.19-5.05-4.13-7.58-9.02-7.58-14.68,0-9.97,5.18-18.37,15.55-25.19,10.37-6.83,24.24-10.24,41.6-10.24,3.01,0,6.3.13,9.88.39l-.08.7c-3.16-.21-6.01-.31-8.54-.31-18.75,0-32.91,4.17-42.49,12.5-9.58,8.33-14.37,16.31-14.37,23.95,0,4.36,2.35,8.53,7.06,12.5,4.71,3.97,11.56,5.96,20.56,5.96,1.29,0,3.26-.08,5.9-.23,12.49-13.08,27.31-24.59,44.44-34.5,17.13-9.92,31.4-14.88,42.81-14.88,2.85,0,5.14.69,6.88,2.06,1.74,1.38,2.61,3.02,2.61,4.95,0,4.73-3.84,10.07-11.51,16.04-7.67,5.97-18.86,11.57-33.55,16.78-14.7,5.22-28.81,8.4-42.34,9.54ZM425.92,319.01c14.05-1.19,28.32-4.49,42.81-9.89,14.49-5.4,25.17-11.1,32.04-17.1,6.87-6,10.3-10.94,10.3-14.84,0-1.56-.79-2.91-2.37-4.05-1.58-1.14-3.56-1.71-5.95-1.71-9.64,0-19.96,3.43-30.95,10.28-10.99,6.85-22.16,15.55-33.52,26.09l-12.36,11.22Z"/>
      <path class="cls-2" d="M504.1,342.03h6.89l-21.82,22.78c-2.15,2.21-3.22,3.98-3.22,5.31,0,.87.3,1.53.89,1.96.6.44,1.21.65,1.83.65,1.24,0,3.24-.92,5.99-2.75,2.75-1.83,8.04-6.07,15.86-12.73l.54.54c-8.32,7.05-13.84,11.42-16.55,13.1-2.71,1.68-4.77,2.53-6.16,2.53-1.24,0-2.21-.45-2.91-1.36s-1.05-1.98-1.05-3.23c0-2.18,1.06-4.9,3.17-8.17l-.31-.23c-10.52,8.66-17.69,12.99-21.53,12.99-1.61,0-2.86-.66-3.77-1.98s-1.36-3.04-1.36-5.17c0-5.91,4.15-11.42,12.46-16.52,8.3-5.11,15.3-7.66,20.99-7.66,2.95,0,4.42,1.24,4.42,3.73,0,.57-.03,1.3-.1,2.18l5.73-5.99ZM497.46,345.68c0-1.86-1.19-2.79-3.57-2.79-4.29,0-10.59,3.74-18.89,11.21-8.3,7.47-12.45,12.73-12.45,15.78,0,.67.28,1.31.85,1.9.57.59,1.37.89,2.41.89,1.5,0,3.97-.96,7.41-2.87,3.44-1.91,7.67-5.02,12.69-9.31,5.02-4.29,8.2-7.41,9.54-9.35,1.35-1.94,2.02-3.76,2.02-5.47Z"/>
      <path class="cls-2" d="M511.07,357.81l-.54-.54,11.82-9.72c1.87-1.5,3.19-2.67,3.97-3.5-1.66-.98-2.49-2.33-2.49-4.04,0-1.09.38-2.05,1.13-2.88.75-.83,1.59-1.24,2.53-1.24.67,0,1.28.29,1.83.86.54.57.82,1.27.82,2.1s-.28,1.54-.84,2.14-1.25.89-2.07.89c-.56,0-1.15-.21-1.76-.62-.05.21-.08.34-.08.39,0,.47.36.93,1.08,1.4.72.47,1.77.7,3.16.7,2,0,4.16-.52,6.48-1.55l4.12,4.59c-.98,1.92-3.02,4.3-6.1,7.14-3.08,2.83-6.15,5.85-9.21,9.05s-4.79,5.11-5.21,5.73c-.42.62-.62,1.22-.62,1.79,0,1.46.83,2.18,2.49,2.18,1.97,0,5.03-1.16,9.18-3.48,4.15-2.32,9.43-6.29,15.86-11.92l.54.54c-12.08,10.42-20.66,15.63-25.74,15.63-1.5,0-2.68-.48-3.54-1.44-.86-.96-1.28-2.22-1.28-3.77,0-1.97.63-3.94,1.91-5.91,1.27-1.97,4.01-5,8.21-9.1,4.2-4.09,7.11-7.15,8.72-9.18l-.31-.54c-2.18.78-4.21,1.17-6.08,1.17-.52,0-1.07-.08-1.64-.23l-16.34,13.38Z"/>
      <path class="cls-2" d="M581.06,357.27l.54.54c-1.92,1.82-3.89,2.72-5.91,2.72-1.66,0-3.06-.6-4.2-1.79-3.84,4.04-7.93,7.44-12.29,10.19-4.36,2.75-7.98,4.12-10.89,4.12-1.5,0-2.77-.54-3.81-1.63s-1.55-2.59-1.55-4.51c0-4.41,1.97-8.64,5.91-12.71,3.94-4.07,8.46-7.23,13.57-9.49,5.11-2.26,9.16-3.38,12.17-3.38s4.43,1.4,4.43,4.2-2.33,7.08-7,12.52c.93,1.14,2.18,1.71,3.73,1.71,1.76,0,3.53-.83,5.29-2.49ZM578.26,345.29c0-.98-.38-1.79-1.12-2.41-.75-.62-1.59-.93-2.52-.93-3.93,0-9.87,3.94-17.81,11.82-7.94,7.88-11.91,13.09-11.91,15.63,0,.73.36,1.39,1.09,1.98.72.6,1.55.89,2.48.89,2.17,0,5.29-1.13,9.35-3.38s7.63-5,10.71-8.24c3.08-3.24,5.47-6.14,7.18-8.71,1.71-2.57,2.56-4.78,2.56-6.65Z"/>
    </g>
  </g>
</svg>