<?xml version="1.0" encoding="UTF-8"?>
<svg id="Capa_2" data-name="Capa 2" xmlns="http://www.w3.org/2000/svg" viewBox="0 0 387.03 120.98">
  <defs>
    <style>
      .cls-1 {
        fill: #fccda2;
      }
    </style>
  </defs>
  <g id="letraL">
    <g>
      <path class="cls-1" d="M111.63,77.6l.46.46c-10.34,8.94-17.97,13.41-22.9,13.41-1.48,0-2.75-.56-3.79-1.67-1.05-1.11-1.57-2.56-1.57-4.35,0-7.81,7.74-20.7,23.23-38.67,15.48-17.97,30.99-32.87,46.52-44.69l-.2-.39c-3.88,1.09-8.22,3.08-13.02,5.96-4.8,2.88-10.55,7.29-17.24,13.22-6.7,5.93-13.22,12.39-19.56,19.37-6.35,6.98-14.18,16-23.49,27.06-9.31,11.06-15.27,17.85-17.86,20.38-2.6,2.53-4.63,3.79-6.12,3.79-1,0-1.8-.38-2.39-1.14s-.88-1.65-.88-2.65c0-1.35.28-2.96.85-4.81.57-1.85,2.15-4.88,4.74-9.09,2.59-4.21,6.5-9.55,11.71-16.03,5.21-6.48,11.64-13.87,19.27-22.18,7.63-8.31,13.06-13.98,16.29-17.01,3.23-3.03,9.64-8.49,19.24-16.39l-.2-.33c-5.02,1.79-9.76,4.08-14.23,6.87-4.47,2.79-9.75,6.87-15.83,12.24-6.09,5.37-11.52,10.6-16.29,15.7s-10.34,11.55-16.69,19.33-11.33,13.53-14.95,17.24c-3.62,3.71-7.57,7.05-11.84,10.01-4.28,2.97-8.19,5.09-11.75,6.38-3.56,1.29-7.06,1.93-10.5,1.93-3.67,0-6.69-.85-9.06-2.56-2.38-1.71-3.57-3.85-3.57-6.44,0-1.58.51-2.9,1.54-3.98,1.02-1.07,2.23-1.61,3.63-1.61,1.09,0,2.03.38,2.81,1.15.79.76,1.18,1.65,1.18,2.65s-.39,1.85-1.18,2.55c-.79.7-1.7,1.05-2.75,1.05-.83,0-1.7-.28-2.62-.85-.17.7-.26,1.24-.26,1.64,0,1.57,1.08,2.92,3.24,4.06s4.68,1.7,7.56,1.7c3.18,0,6.48-.62,9.88-1.86,3.4-1.24,7.33-3.42,11.78-6.54,4.45-3.12,8.31-6.36,11.58-9.74s7.85-8.62,13.74-15.72c14.66-17.87,27.33-31.16,38.02-39.85S118.69,2.88,127.72.39c-7.2,6.67-15.54,15.4-25.03,26.19s-19.06,22.38-28.72,34.78c-9.66,12.4-15.96,21.31-18.88,26.71-.13.22-.24.48-.33.79-.09.3-.13.5-.13.59,0,.87.5,1.31,1.5,1.31s2.63-.93,4.88-2.78c2.25-1.85,6.36-6.33,12.33-13.44l17.47-20.73c11.86-14.08,23.54-26.03,35.04-35.86,11.49-9.83,21.86-15.81,31.11-17.95-11.3,9.98-26.04,25.95-44.23,47.89-18.19,21.95-27.29,35.12-27.29,39.53,0,.92.37,1.69,1.11,2.32.74.63,1.61.95,2.62.95,4.49,0,11.97-4.36,22.44-13.09Z"/>
      <path class="cls-1" d="M112.02,78.06l-.46-.46c2.14-1.83,7.53-6.11,16.18-12.82h6.34l-20.76,20.42c-.79.79-1.31,1.57-1.57,2.36v.46c0,.57.22,1.07.65,1.5.44.44.98.65,1.64.65,1.4,0,3.37-.71,5.92-2.13,2.55-1.42,7.01-4.9,13.38-10.44l.46.46c-9.73,8.51-16.29,12.76-19.7,12.76-1.09,0-1.97-.35-2.65-1.05-.68-.7-1.01-1.64-1.01-2.81,0-1.66.56-3.41,1.67-5.27,1.11-1.85,5.3-6.27,12.55-13.25l-.13-.33-6.03,4.58-6.49,5.37ZM144.08,51.89c0,.96-.39,1.77-1.17,2.42-.78.66-1.6.98-2.46.98-.6,0-1.12-.23-1.55-.69s-.65-1.01-.65-1.67c0-.83.37-1.61,1.1-2.36.73-.74,1.55-1.11,2.46-1.11.65,0,1.19.24,1.62.72.43.48.65,1.05.65,1.7Z"/>
      <path class="cls-1" d="M133.81,78.06l-.46-.46,24.01-20.09.39.65c-1.83,1.48-3.01,2.6-3.53,3.34s-.79,1.68-.79,2.82c0,.92.15,2.33.46,4.23.3,1.9.46,3.64.46,5.21,0,3.19-1.13,6.14-3.4,8.84l5.89-5,.46.46c-9.81,8.64-17.78,12.96-23.88,12.96-1.48,0-2.76-.42-3.83-1.28-1.07-.85-1.6-1.95-1.6-3.3,0-1,.34-1.87,1.01-2.58s1.47-1.08,2.39-1.08c.57,0,1.06.2,1.47.59.41.39.62.85.62,1.37,0,.74-.29,1.41-.88,2s-1.21.88-1.87.88c-.26,0-.61-.07-1.05-.2,0,1.96,1.22,2.94,3.66,2.94,3.45,0,7.34-2.51,11.68-7.54,4.34-5.03,6.73-10.32,7.17-15.87.17-1.79.48-3.41.92-4.85l-19.3,15.96Z"/>
      <path class="cls-1" d="M179.61,78.06l-.46-.46c6.42-5.5,13.63-11.21,21.63-17.14l8.91-6.61c1-.74,3.91-3.14,8.72-7.2l4.12-.2-27.74,29.05-3.73,3.6.33.52c13.17-11.12,21.98-16.69,26.43-16.69,1.13,0,2.12.46,2.94,1.38s1.24,2.08,1.24,3.48c0,1.18-.37,2.55-1.12,4.1-.74,1.55-3.09,3.88-7.03,6.98-6.13,4.68-9.2,7.76-9.2,9.25s.98,2.29,2.94,2.29c3.01,0,9.49-4.27,19.43-12.83l.46.46c-10.35,8.77-17.03,13.15-20.03,13.15-1.09,0-2.05-.37-2.87-1.11-.83-.74-1.24-1.9-1.24-3.48,0-1.44.3-2.77.92-3.97.61-1.2,1.4-2.28,2.36-3.25.96-.96,3.12-2.8,6.48-5.51l3.73-3.02c2.36-1.92,3.53-3.56,3.53-4.92,0-.66-.28-1.19-.85-1.61-.57-.42-1.18-.62-1.83-.62-3.1,0-9.25,3.44-18.45,10.31-9.2,6.87-20.21,16.8-33.03,29.8l-16.81,17.14h-6.43l68.25-66.81-.26-.39c-12.02,8.59-22.47,16.69-31.34,24.28Z"/>
      <path class="cls-1" d="M260.58,64.78h5.8l-18.36,19.17c-1.81,1.86-2.71,3.35-2.71,4.47,0,.74.25,1.29.75,1.65.5.37,1.01.55,1.54.55,1.05,0,2.73-.77,5.04-2.31,2.31-1.54,6.76-5.11,13.35-10.71l.46.46c-7,5.93-11.65,9.61-13.93,11.03-2.28,1.42-4.01,2.13-5.19,2.13-1.04,0-1.86-.38-2.45-1.15s-.88-1.67-.88-2.71c0-1.83.89-4.12,2.67-6.87l-.26-.2c-8.85,7.29-14.89,10.93-18.11,10.93-1.35,0-2.41-.56-3.17-1.67-.76-1.11-1.14-2.56-1.14-4.35,0-4.97,3.49-9.61,10.48-13.9,6.99-4.3,12.87-6.45,17.66-6.45,2.48,0,3.72,1.05,3.72,3.14,0,.48-.03,1.09-.09,1.83l4.82-5.04ZM254.99,67.85c0-1.57-1-2.35-3-2.35-3.61,0-8.91,3.14-15.9,9.43-6.99,6.29-10.48,10.71-10.48,13.28,0,.57.24,1.1.72,1.6s1.15.75,2.02.75c1.26,0,3.34-.8,6.23-2.42,2.89-1.61,6.45-4.22,10.67-7.83,4.22-3.61,6.9-6.23,8.03-7.86s1.7-3.17,1.7-4.6Z"/>
      <path class="cls-1" d="M336.65,29.31h5.37l-46.39,46.2c-7.37,7.42-11.06,11.8-11.06,13.15,0,.57.25,1.05.75,1.44s1.06.59,1.67.59c1.26,0,3.21-.87,5.84-2.62,2.63-1.74,6.97-5.23,13.01-10.47l.46.46-5.43,4.54c-4.41,3.68-7.55,6.07-9.42,7.17-1.88,1.1-3.38,1.64-4.51,1.64-1,0-1.87-.31-2.58-.93-.72-.62-1.08-1.47-1.08-2.53,0-2.14,1.24-4.84,3.73-8.11l-.26-.26c-1.83,1.75-4.48,3.89-7.95,6.44s-5.95,4.09-7.46,4.61-2.85.79-4.02.79c-1.4,0-2.48-.48-3.24-1.44-.76-.96-1.15-2.18-1.15-3.66,0-3.18,1.45-6.38,4.35-9.59,2.9-3.21,6.86-5.93,11.88-8.18,5.02-2.25,8.9-3.37,11.65-3.37,1.18,0,2.16.33,2.94.98s1.18,1.5,1.18,2.55c0,.61-.26,1.55-.79,2.81l42.53-42.2ZM294.12,68.64c0-1.79-1.03-2.68-3.08-2.68-3.49,0-8.78,3.1-15.87,9.29-7.09,6.2-10.63,10.56-10.63,13.09,0,1.53.94,2.29,2.81,2.29s3.87-.58,5.86-1.73c1.98-1.16,5.04-3.31,9.16-6.48,4.12-3.16,7.11-5.84,8.96-8.05,1.85-2.2,2.78-4.11,2.78-5.73Z"/>
      <path class="cls-1" d="M306.29,78.06l-.46-.46,9.95-8.18c1.57-1.26,2.68-2.25,3.34-2.94-1.4-.83-2.1-1.96-2.1-3.4,0-.92.32-1.72.95-2.42.63-.7,1.34-1.05,2.13-1.05.57,0,1.08.24,1.54.72.46.48.69,1.07.69,1.77s-.24,1.3-.71,1.8c-.47.5-1.05.75-1.74.75-.47,0-.97-.17-1.48-.52-.04.17-.06.28-.06.33,0,.39.3.79.91,1.18.61.39,1.49.59,2.66.59,1.69,0,3.5-.44,5.45-1.31l3.46,3.86c-.83,1.62-2.54,3.62-5.13,6.01-2.59,2.38-5.18,4.92-7.75,7.61-2.57,2.69-4.03,4.3-4.38,4.82-.35.53-.52,1.03-.52,1.51,0,1.22.7,1.84,2.09,1.84,1.66,0,4.23-.98,7.72-2.93,3.49-1.95,7.94-5.29,13.35-10.03l.46.46c-10.16,8.77-17.38,13.15-21.66,13.15-1.27,0-2.26-.4-2.98-1.21-.72-.81-1.08-1.86-1.08-3.17,0-1.66.54-3.31,1.61-4.97,1.07-1.66,3.37-4.21,6.91-7.66,3.54-3.45,5.98-6.02,7.34-7.72l-.26-.46c-1.84.65-3.54.98-5.11.98-.44,0-.9-.07-1.38-.2l-13.75,11.25Z"/>
      <path class="cls-1" d="M362.63,77.6l.46.46c-5.22,4.62-9.99,7.97-14.3,10.04-4.31,2.07-7.75,3.11-10.31,3.11-3.57,0-5.35-1.83-5.35-5.5,0-4.93,3.37-9.58,10.11-13.94,6.74-4.36,12.01-6.54,15.8-6.54.7,0,1.3.2,1.8.59.5.39.75.87.75,1.44,0,2.14-2.12,4.38-6.36,6.74s-8.94,3.82-14.1,4.38c-4.46,4.45-6.69,7.5-6.69,9.16,0,.79.39,1.52,1.18,2.19s1.7,1.01,2.75,1.01c2.27,0,5.49-.99,9.65-2.98,4.17-1.98,9.04-5.38,14.62-10.17ZM342.1,77.73c1.31,0,3.63-.57,6.95-1.71,3.32-1.14,6.09-2.61,8.3-4.41,2.21-1.8,3.31-3.29,3.31-4.47,0-.83-.48-1.25-1.44-1.25-1.14,0-2.4.35-3.77,1.05-1.38.7-3.47,2.14-6.26,4.31s-5.16,4.33-7.08,6.48Z"/>
      <path class="cls-1" d="M363.08,78.06l-.46-.46,24.01-20.09.39.65c-1.83,1.48-3.01,2.6-3.53,3.34s-.79,1.68-.79,2.82c0,.92.15,2.33.46,4.23.3,1.9.46,3.64.46,5.21,0,3.19-1.13,6.14-3.4,8.84l5.89-5,.46.46c-9.81,8.64-17.78,12.96-23.88,12.96-1.48,0-2.76-.42-3.83-1.28-1.07-.85-1.6-1.95-1.6-3.3,0-1,.34-1.87,1.01-2.58s1.47-1.08,2.39-1.08c.57,0,1.06.2,1.47.59.41.39.62.85.62,1.37,0,.74-.29,1.41-.88,2s-1.21.88-1.87.88c-.26,0-.61-.07-1.05-.2,0,1.96,1.22,2.94,3.66,2.94,3.45,0,7.34-2.51,11.68-7.54,4.34-5.03,6.73-10.32,7.17-15.87.17-1.79.48-3.41.92-4.85l-19.3,15.96Z"/>
    </g>
  </g>
</svg>