<?xml version="1.0" encoding="UTF-8"?>
<svg id="Capa_2" data-name="Capa 2" xmlns="http://www.w3.org/2000/svg" viewBox="0 0 167.73 260.07">
  <defs>
    <style>
      .cls-1 {
        fill: #2b2b2b;
      }
    </style>
  </defs>
  <g id="letraL">
    <g>
      <path class="cls-1" d="M0,88.44v-.6L47.37,10.82l6.05-2.74,27.25,61.2c.56,1.25,1.94,2.28,3.03,2.37.97.07,2.73-.81,3.24-1.95L114.44,7.98c2.55,1.14,4.29,2,6.32,3.24l46.97,77.2-17.99,10.76-29.16-47.1-4.83,46.02,10.27,28.65-35.38.06-6.74-11.02-6.68,11-35.44-.03,10.28-29.27-4.87-45.14-29.15,46.82L0,88.44ZM82.15,77.9c-3.03,1.12-3.89,4.4-2.66,6.92,1.06,2.18,3.75,3.33,6.41,2.26,2.25-.9,3.68-3.72,2.57-6.51-.82-2.06-3.43-3.74-6.32-2.67ZM82.14,97.94c-2.94,1.09-3.86,4.23-2.7,6.81.96,2.15,3.78,3.38,6.13,2.5,2.6-.97,3.87-3.62,3.03-6.28-.73-2.34-3.47-4.13-6.46-3.03Z"/>
      <polygon class="cls-1" points="83.87 146.2 72.78 260.07 48.34 260.06 48.35 133.48 77.25 133.39 83.87 125.21 90.62 133.4 119.47 133.46 119.47 260.03 95.07 260.04 83.87 146.2"/>
      <polygon class="cls-1" points="108.46 4.98 83.88 59.96 59.36 5.02 69.57 .03 98.01 0 108.46 4.98"/>
    </g>
  </g>
</svg>