<?xml version="1.0" encoding="UTF-8"?>
<svg id="Capa_2" data-name="Capa 2" xmlns="http://www.w3.org/2000/svg" viewBox="0 0 135.45 251.75">
  <defs>
    <style>
      .cls-1 {
        fill: #2b2b2b;
      }
    </style>
  </defs>
  <g id="letraL">
    <g>
      <path class="cls-1" d="M70.94,181.36c0-2.49-1.49-3.73-3.32-3.72-1.56.01-3.13,1.41-3.13,3.42v70.36c-2.51.59-5.06.24-7.78.08-9.81-.57-19.34-1.56-29.04-3.72l12.83-66.11c.36-1.86-.81-3.53-2.28-3.95-1.1-.31-3.56.33-3.89,2.04l-12.95,66.38c-8.07-2.43-22.4-7.02-21.33-17.19-.02-42.59,12.84-84,36.95-119.09l61.42-.02c24.04,34.91,37,76.47,36.96,119.09,1.2,10.12-13.27,14.87-21.33,17.23l-12.78-65.71c-.38-1.93-2.2-3.05-3.69-2.78-2.13.39-3,2.22-2.57,4.44l12.77,65.7c-9.5,2.04-18.71,3.08-28.21,3.66-2.95.18-5.59.44-8.63.11v-70.22Z"/>
      <path class="cls-1" d="M82.91.04h21.2c6.79,14.5,8.53,30.62,3.51,45.83l-9.21,27.88h-61.4s-9.58-28.91-9.58-28.91C22.51,29.98,24.39,14.16,30.94.05l20.94-.05.11,24.57,15.4,16.51,15.51-16.52.02-24.53Z"/>
      <polygon class="cls-1" points="98.48 103.38 37.02 103.42 36.97 80.18 98.45 80.17 98.48 103.38"/>
    </g>
  </g>
</svg>