<?xml version="1.0" encoding="UTF-8"?>
<svg id="Capa_2" data-name="Capa 2" xmlns="http://www.w3.org/2000/svg" viewBox="0 0 69.07 69.05">
  <defs>
    <style>
      .cls-1 {
        fill: #fff;
      }
    </style>
  </defs>
  <g id="letraL">
    <path class="cls-1" d="M36.68,69.05h-4.32c-.14-.08-.39-.1-.62-.12C14.93,67.61,1.44,54.12.11,37.31c-.02-.23-.03-.49-.11-.62v-4.32C.71,23.35,4.6,15.1,11.3,9c13.4-12.19,33.87-11.98,47,.53,6.36,6.05,10.18,14.24,10.68,23,.08,1.33.13,2.56.02,3.88l-.1,1.18c-1.42,16.65-14.82,29.95-31.47,31.34-.29.02-.54.04-.76.12ZM11.34,38.44l11.43,11.45c2.92,2.93,7.46,2.84,10.36-.06l24.69-24.75c1.91-1.91,1.66-5.06-.2-6.79-1.95-1.82-4.86-1.68-6.77.23l-22.93,22.96-9.95-9.93c-1.89-1.89-4.99-1.65-6.72.15-1.81,1.9-1.78,4.86.09,6.74Z"/>
  </g>
</svg>