<?xml version="1.0" encoding="UTF-8"?>
<svg id="Capa_2" data-name="Capa 2" xmlns="http://www.w3.org/2000/svg" viewBox="0 0 76.6 87.6">
  <defs>
    <style>
      .cls-1 {
        fill: #fff;
      }
    </style>
  </defs>
  <g id="letraL">
    <g>
      <path class="cls-1" d="M66.27,30.89l8.38,8.17-28.28,48.5L63.93,0l12.66,20.85-10.18,8.6c-.42.38-.5.91-.15,1.44Z"/>
      <path class="cls-1" d="M10.23,30.98c.47-.52.39-1.12-.06-1.53L0,20.85,12.65,0l17.6,87.6L1.96,39.07l8.27-8.09Z"/>
      <path class="cls-1" d="M49.13,14.06l-7-3.46c1.67-2.02,1.65-4.6.01-6.62l6.99-3.46c.82-.36,1.69.04,1.89.94.9,3.89.89,7.86-.02,11.75-.24.82-1.04,1.23-1.88.86Z"/>
      <path class="cls-1" d="M34.43,10.62l-7.14,3.53c-.8.2-1.52-.14-1.72-.95-.91-3.88-.91-7.84-.02-11.73.21-.9,1.09-1.3,1.91-.93l6.96,3.45c-1.56,1.96-1.72,4.51,0,6.64Z"/>
      <path class="cls-1" d="M37.78,24.76c1.86-.31,3.37,1,3.63,2.58.29,1.78-.9,3.34-2.54,3.64-1.74.32-3.34-.84-3.66-2.47-.34-1.71.72-3.43,2.58-3.75Z"/>
      <path class="cls-1" d="M37.78,73.43c1.86-.31,3.37,1,3.63,2.58.29,1.78-.9,3.34-2.54,3.64-1.75.32-3.34-.83-3.66-2.47s.72-3.43,2.58-3.75Z"/>
      <path class="cls-1" d="M37.61,41.02c1.83-.41,3.44.81,3.77,2.42.35,1.72-.73,3.35-2.4,3.73s-3.34-.67-3.75-2.28c-.43-1.7.53-3.47,2.37-3.88Z"/>
      <path class="cls-1" d="M37.27,57.34c1.77-.61,3.53.4,4.04,2.04s-.36,3.4-2.08,3.95c-1.54.5-3.3-.32-3.89-1.9s.15-3.49,1.93-4.1Z"/>
      <path class="cls-1" d="M37.77,4.2c1.84-.31,3.35.99,3.61,2.56.29,1.76-.89,3.31-2.54,3.61s-3.3-.83-3.62-2.46.71-3.4,2.55-3.71Z"/>
    </g>
  </g>
</svg>