<?xml version="1.0" encoding="UTF-8"?>
<svg id="Capa_2" data-name="Capa 2" xmlns="http://www.w3.org/2000/svg" viewBox="0 0 53.33 76.19">
  <defs>
    <style>
      .cls-1 {
        fill: #fff;
      }
    </style>
  </defs>
  <g id="letraL">
    <path class="cls-1" d="M26.67,76.19c-8.16-9.45-15.62-19.57-21.19-30.6-1.96-3.89-3.46-7.81-4.55-11.88C-3.39,17.55,7.83,1.47,24.53.09c1.4-.12,2.86-.12,4.26,0,16.71,1.38,27.92,17.46,23.6,33.63-1.09,4.07-2.59,8-4.55,11.88-5.55,11.01-12.93,21-21.18,30.6ZM25.77,17.19c-5.39.51-9.13,5.3-8.57,10.5.56,5.17,5.21,8.96,10.41,8.44,5.19-.52,9.05-5.17,8.53-10.41-.51-5.1-5.04-9.03-10.37-8.53Z"/>
  </g>
</svg>